<?xml version="1.0" standalone="no"?>
<!DOCTYPE svg PUBLIC "-//W3C//DTD SVG 1.1//EN" "http://www.w3.org/Graphics/SVG/1.1/DTD/svg11.dtd" >
<svg xmlns="http://www.w3.org/2000/svg">
<metadata></metadata>
<defs>
<font id="flw_scriptregular" horiz-adv-x="840" >
<font-face units-per-em="2048" ascent="1638" descent="-410" />
<missing-glyph horiz-adv-x="500" />
<glyph horiz-adv-x="2048" />
<glyph horiz-adv-x="2048" />
<glyph unicode="&#xd;" horiz-adv-x="2048" />
<glyph unicode=" " />
<glyph unicode="!" horiz-adv-x="710" d="M88 74q-2 24 0 46q2 20 10 37t20 31q16 16 36 27t40 15q18 4 37 2t35 -10q14 -6 24 -19t14 -27q6 -18 3 -37t-5 -39q-2 -14 -6 -28t-12 -28q-8 -12 -18 -22t-24 -16q-20 -6 -40 -8t-40 0q-18 2 -35 9t-25 21q-12 22 -14 46zM226 341q0 9 3 19t7 16l286 632q2 4 7 8t11 7 t12 3h12l96 -28q6 -2 9 -8t4 -13t0 -15t-3 -12l-318 -628q-4 -8 -9 -15t-11 -13t-12 -9t-14 1l-68 28q-8 2 -10 10t-2 17z" />
<glyph unicode="," horiz-adv-x="442" d="M82 -88q2 4 6 11t11 15t13 18t13 21t13 20t9 18t3 17q-12 20 -14 45t0 47q4 20 12 37t20 31q16 16 35 27t41 15q18 4 37 2t35 -10q12 -6 23 -19t15 -27q4 -18 2 -37t-4 -39q-2 -14 -6 -28t-12 -28q-6 -8 -19 -19t-30 -22t-37 -24t-42 -25t-42 -22t-37 -17t-28 -11t-17 -2 q-2 2 0 6z" />
<glyph unicode="." horiz-adv-x="406" d="M100 78q-2 24 0 46q4 20 12 37t20 31q16 16 35 27t41 15q18 4 37 2t35 -10q12 -6 23 -19t15 -27q4 -18 2 -37t-4 -39q-2 -14 -6 -28t-12 -28q-8 -12 -19 -22t-25 -16q-18 -6 -39 -8t-41 0q-16 2 -33 9t-27 21q-12 22 -14 46z" />
<glyph unicode="0" horiz-adv-x="852" d="M38 280q-2 22 2 44t8 42q16 56 34 112t38 112q8 22 16 47t17 49t20 46t25 44q20 30 48 56t60 44q20 10 41 17t42 12t43 10t44 9q32 6 64 9t62 -1q28 -2 55 -10t51 -20q22 -10 43 -23t37 -31q18 -20 30 -45t18 -51q10 -34 14 -71t4 -73q0 -34 -4 -69t-14 -67 q-10 -36 -25 -72t-31 -70q-16 -28 -33 -58t-37 -56q-24 -32 -50 -63t-58 -55q-36 -28 -77 -52t-85 -38q-22 -6 -43 -9t-43 -5t-44 -3t-44 -1q-14 -2 -30 -1t-32 7q-20 6 -39 18t-33 26q-20 20 -39 41t-29 47q-14 36 -19 75t-7 77zM239 181q-1 -27 1 -53q0 -14 5 -27t13 -25 q6 -12 16 -22t20 -16q10 -4 22 -6t24 0q16 0 33 2t29 12q20 16 34 38t28 42q18 26 35 52t29 54q26 62 46 126t42 128q14 40 29 79t27 79q6 24 9 49t3 49q2 18 1 36t-3 34q-2 20 -2 38t-8 34q-8 12 -21 17t-25 9q-12 2 -23 3t-21 -1q-14 -2 -27 -5t-23 -11q-18 -12 -33 -26 t-25 -32q-22 -34 -41 -71t-35 -77q-26 -62 -45 -126t-41 -130q-16 -50 -35 -100t-31 -102q-6 -24 -7 -51z" />
<glyph unicode="1" horiz-adv-x="564" d="M64 686q-2 6 0 13t5 13t9 8q18 12 37 21t40 17t42 15t39 17q48 22 95 48t95 50q26 14 54 26t58 20q8 4 19 4t17 -6q10 -8 14 -22t4 -28q-2 -34 -11 -69t-19 -67q-26 -92 -57 -184t-61 -182q-12 -40 -23 -79t-23 -78t-25 -77t-31 -74q-12 -26 -34 -48t-50 -28 q-10 -4 -20 -2t-20 5t-20 9t-18 12q-8 8 -17 16t-16 18t-11 21t-4 21q-2 20 3 40t11 39t14 38t14 39q24 76 50 151t52 151q6 18 13 36l14 36t13 37t8 39q2 4 1 10t-3 11t-6 9t-8 6q-8 2 -17 1t-17 -4t-16 -7l-16 -8q-12 -4 -23 -11t-21 -14t-21 -12t-23 -9q-10 -2 -21 -4 t-22 -2t-21 1t-20 7q-4 4 -6 10z" />
<glyph unicode="2" horiz-adv-x="904" d="M52 96q4 14 14 22q36 40 79 75t85 69q40 32 82 62l84 60q46 34 92 67t90 71q16 14 35 29t37 31t33 34t27 38q8 16 12 34t5 36t-1 37t-4 35q-4 24 -16 47t-30 37t-42 15t-44 -3q-28 -4 -52 -17t-46 -29q-24 -16 -44 -35t-40 -39q-12 -14 -25 -29t-17 -35q-6 -24 -4 -51 t10 -51q2 -8 7 -15t11 -13t13 -11t13 -11q2 -2 6 -4l8 -4t7 -5t3 -7q2 -12 -1 -25t-13 -19q-18 -8 -39 -9t-41 5q-16 4 -33 13t-27 25q-18 30 -30 64t-12 70q0 30 10 61t26 57q24 34 56 61t68 49q32 20 69 31t75 17q28 6 56 7t56 -3q34 -4 68 -11t62 -23q34 -20 62 -48 t48 -62q14 -22 22 -49t6 -53q-6 -42 -22 -82t-40 -74q-28 -38 -65 -72t-79 -58q-26 -14 -54 -25t-57 -20t-58 -17t-57 -20q-30 -14 -59 -31t-55 -37l-8 -4t-7 -6t-4 -7t1 -5q18 -14 41 -21t45 -15q36 -12 73 -23t73 -19q24 -6 48 -11t48 -7q6 0 11 3t11 5t11 3t9 -3t6 -10 t3 -13t-1 -14t-6 -13q-20 -28 -45 -53t-55 -41q-28 -14 -60 -19t-62 -5q-16 2 -31 6t-29 9t-29 10t-29 7q-18 6 -37 12t-38 11t-38 9t-39 6q-18 2 -37 -1l-38 -6t-37 -5t-38 0q-12 0 -24 10t-16 22q-6 12 -2 26z" />
<glyph unicode="3" horiz-adv-x="842" d="M44 158q2 18 11 36t23 30q10 10 24 12t26 6q10 2 18 -2t12 -10q8 -10 9 -17t-1 -19q-2 -6 -5 -13l-6 -14t-5 -14t-2 -15q2 -16 8 -35t20 -29q20 -14 47 -19t53 -5q24 0 49 5t47 19q36 26 70 57t60 69q18 28 31 61t15 67q0 12 -2 25t-7 25l-10 24t-11 24q-6 14 -12 23 t-13 14t-14 7t-14 2t-15 -1t-15 0t-13 2t-12 7q-8 8 -15 17t-12 19t-8 21t-1 21q0 10 6 19t13 17t16 15t19 11q14 8 31 11t36 4t37 3t32 6q20 8 32 19t22 25q16 22 24 51t6 55q0 22 -10 44t-26 38q-16 14 -38 21t-44 5q-24 0 -46 -11t-42 -25q-26 -20 -48 -43t-38 -51 q-12 -20 -14 -45t-4 -49q-2 -6 -1 -13l2 -14t2 -13t-1 -14q-2 -6 -10 -11t-16 -3q-12 4 -24 13t-16 21q-8 18 -10 38t0 38q2 16 4 33t6 33t10 31t16 29q22 32 55 54t67 40q26 12 53 22t55 6q26 -2 51 -5t50 -8t49 -13t46 -20q14 -6 26 -18t22 -25t19 -28t17 -27 q12 -18 16 -41t0 -45q-2 -34 -11 -67t-27 -61q-10 -14 -23 -24t-27 -19t-28 -17t-28 -18q-4 -4 -9 -7l-10 -6t-9 -6t-6 -9q-2 -8 2 -18t10 -16q8 -10 18 -17t21 -15t20 -16t15 -18q14 -26 19 -54t3 -56q-2 -32 -11 -63t-25 -59q-16 -22 -39 -39t-45 -31q-28 -20 -57 -38 t-61 -32q-32 -12 -67 -21t-69 -11q-40 -4 -79 -3t-79 3q-22 4 -45 12t-43 20q-20 14 -39 31t-35 35q-8 14 -14 29t-4 31z" />
<glyph unicode="4" horiz-adv-x="862" d="M30 258q-4 18 3 37t17 33q22 28 51 50t57 46q34 26 70 51t70 51q30 24 60 49t58 53q36 34 69 71t67 71q38 38 77 75t81 69q14 12 30 20t32 8q20 0 39 -8t29 -24t11 -39t-3 -43q-2 -12 -6 -24t-10 -23l-12 -22t-10 -23q-28 -74 -57 -148t-51 -150q-2 -6 -2 -12t1 -12 t4 -12t7 -8q10 -6 22 -7t25 -2t25 -2t20 -9q8 -4 11 -12t5 -17t1 -19t-1 -18q-2 -8 -4 -17t-6 -17t-9 -15t-13 -11q-12 -6 -26 -7t-27 -1t-27 1t-28 -1q-10 -2 -21 -4t-15 -10q-14 -20 -24 -42t-20 -45l-20 -46t-22 -43q-6 -8 -10 -16t-10 -15t-13 -13t-17 -6q-32 -8 -65 -4 t-65 12q-10 2 -19 13t-9 21q-2 14 1 28t6 27t7 27t4 26q2 16 5 33t-5 31q-4 10 -16 14t-22 4q-32 2 -63 1t-63 -1h-64t-62 2q-6 0 -14 2t-15 5t-12 7t-7 10zM270 414q0 -8 5 -17t13 -11q34 -6 69 -7t69 5q14 2 26 11t20 21q16 24 28 50t20 54q6 16 9 33t5 35q0 10 1 22 t-5 20q-4 6 -13 7t-15 -3q-32 -16 -59 -39t-55 -47q-24 -20 -49 -42t-45 -46q-10 -10 -16 -22t-8 -24z" />
<glyph unicode="5" horiz-adv-x="886" d="M44 155q-2 23 6 43q4 8 11 16t15 14t17 10t19 4t18 -5t16 -12t14 -16t8 -17q2 -6 0 -13t-7 -14t-8 -14t-3 -15q4 -20 14 -39t24 -33q10 -10 27 -14t31 -6q24 0 49 2t47 8q24 8 47 20t43 24q28 18 56 35t50 43q28 32 49 69t37 77q12 36 20 73t4 75q-2 12 -5 24t-10 23 t-15 20t-18 15q-16 6 -34 8t-36 1t-37 -2t-35 -1q-18 2 -37 1t-37 -2t-36 0t-36 7q-6 2 -12 6t-11 10t-7 13t-2 15q6 22 15 44t19 43t22 42t20 43q18 40 35 82t39 80q6 8 15 16t19 8q90 8 181 9t181 -3q6 0 12 -2t10 -6l8 -8t2 -10q-2 -32 -15 -62t-29 -58q-6 -10 -16 -19 t-22 -11q-40 -2 -81 0t-82 5t-81 3t-80 -10q-12 -2 -22 -11t-17 -22t-13 -27t-12 -26q-8 -18 -9 -38t-1 -40q0 -6 3 -13t7 -7q32 -4 63 -3t63 1q28 -2 57 -3t57 -5q24 -4 48 -9t46 -17q26 -16 53 -36t45 -46q16 -24 24 -52t12 -56q4 -26 2 -52t-10 -52l-12 -36t-15 -36 t-19 -34t-24 -28q-18 -18 -38 -31t-42 -24t-45 -21t-47 -18q-46 -18 -96 -29t-100 -17q-34 -6 -68 -4l-68 4q-22 0 -44 3t-42 9t-38 14t-34 20t-34 27t-26 35q-10 18 -12 41z" />
<glyph unicode="6" horiz-adv-x="794" d="M44 340q0 28 4 54t10 52q4 24 12 46t18 44q14 26 26 53t26 53t29 51t35 47q32 38 73 68t83 58q24 16 51 26t53 18q32 10 66 16t66 4q30 0 61 -4t61 -12q20 -4 39 -10t35 -18q14 -12 22 -30t6 -36q0 -10 -4 -18t-10 -16t-13 -15l-13 -13q-4 -6 -12 -7t-14 -1q-6 2 -13 1 t-13 0t-11 2t-7 7q-6 10 -13 20t-9 22q-2 4 0 9t5 9t6 9l6 10t3 10t-2 10t-9 11t-21 12q-16 8 -34 9t-36 -1q-16 0 -31 -4t-29 -12q-18 -8 -33 -22t-29 -28l-36 -40t-32 -42q-10 -14 -16 -31t-8 -33q-2 -10 -1 -22t9 -18q10 -8 24 -9t26 -3q18 -2 35 -1t34 1t33 -2t32 -8 q34 -16 62 -42t48 -58q18 -30 27 -66t11 -72q0 -38 -6 -76t-20 -72q-20 -42 -47 -81t-63 -67q-18 -16 -38 -27t-42 -19t-45 -16t-45 -14t-48 -9t-50 -3t-48 1t-46 7q-22 8 -42 23t-36 33q-26 30 -47 62t-35 68t-21 75t-9 77zM222 184q2 -52 14 -100q4 -10 10 -18t15 -15 t19 -12l18 -9q12 -4 26 -2t24 8q32 26 62 57t50 67q12 24 22 48t19 49t16 51t15 50q10 28 19 56t9 58q-2 20 -11 39t-21 35q-8 14 -21 24t-27 16q-8 4 -18 1t-18 -5q-14 -4 -29 -10t-25 -16q-24 -28 -47 -56t-43 -60q-20 -36 -40 -75t-30 -79q-10 -50 -8 -102z" />
<glyph unicode="7" horiz-adv-x="642" d="M22 59q-2 17 4 29q26 46 60 88t70 82q50 60 105 116t109 112q20 22 42 43l44 42t42 44t36 47q4 6 5 13t0 14t-4 14t-9 9q-26 20 -58 31t-64 19q-40 10 -81 13t-81 7q-16 0 -32 -1t-31 -1h-30t-29 6q-6 2 -10 8t-7 13t-3 14t4 11q22 30 51 54t61 40q24 12 52 15t54 1 q24 -2 47 -8t46 -13l46 -14t45 -9q36 -6 73 -9t73 -3q10 0 21 3l22 6t22 4t21 1q6 -2 14 -5t14 -7t10 -10t2 -12q-4 -18 -12 -34t-18 -30t-21 -29t-21 -29l-28 -36t-29 -36t-29 -36l-28 -36q-46 -68 -89 -138t-85 -142q-20 -34 -38 -69t-37 -70t-38 -69t-41 -66 q-14 -18 -32 -32t-40 -20q-12 -2 -25 -2t-26 2l-26 4t-27 6q-14 2 -30 8t-24 18q-10 12 -12 29z" />
<glyph unicode="8" d="M44 212q0 24 4 50t16 48q16 26 40 46t48 38q26 18 55 32t57 32q4 4 9 7l10 6t9 8t4 11q2 6 -1 12t-7 13t-8 13t-6 12q-8 26 -15 52t-9 52q-2 18 1 38t11 38q12 28 31 56t41 50q20 20 45 37t53 27q30 12 63 16t67 6q28 2 57 1t57 -7q26 -6 52 -19t48 -27q16 -12 32 -27 t26 -33q8 -18 14 -38t0 -38q-10 -34 -30 -64t-42 -58t-50 -51t-56 -47q-4 -2 -8 -3t-8 -3l-8 -4t-4 -4q-4 -10 1 -20t11 -18q8 -12 18 -22t20 -21t19 -21t17 -24q8 -18 11 -41t1 -45q0 -18 -5 -38t-15 -38q-18 -32 -41 -63t-51 -53q-34 -28 -72 -46t-78 -32q-30 -8 -62 -12 t-64 -4q-30 0 -60 3t-60 7q-16 2 -33 7t-33 15q-12 6 -25 14t-25 17t-22 19t-18 22q-16 26 -23 56t-9 60zM156 189q0 -23 4 -43q2 -16 10 -29t18 -25q16 -18 35 -33t41 -27q16 -10 35 -16t39 -6q26 0 52 5t50 17q26 14 49 35t37 45q14 22 21 50t3 54q-4 32 -20 63t-38 55 q-24 26 -55 47t-65 33q-18 6 -38 3t-38 -13q-24 -12 -46 -31t-40 -41q-16 -22 -29 -48t-19 -52q-6 -20 -6 -43zM439 704q-1 -24 5 -46q6 -20 18 -39t26 -33q14 -12 31 -20t35 -8q20 -2 38 5t36 15q22 12 45 25t41 33q14 14 22 34t12 40q2 24 0 48t-10 46q-8 20 -22 37 t-32 29q-20 12 -42 17t-42 5q-16 2 -32 -2t-30 -10t-27 -15t-23 -21q-14 -20 -26 -44t-18 -50q-4 -22 -5 -46z" />
<glyph unicode="9" horiz-adv-x="862" d="M31 123q-1 15 7 25q2 2 7 4t11 3t11 -1t7 -4q6 -8 10 -17t7 -19t6 -19t9 -17q8 -12 20 -23t26 -13q34 -8 70 -8t72 4q20 2 42 8t40 18q18 14 37 31t33 35q18 24 32 52t28 58q4 8 8 18t6 21t2 21t-4 20q-2 6 -8 9t-14 4t-16 1h-14q-18 0 -35 -3t-34 -5t-34 -3t-35 3 q-30 8 -57 28t-47 42t-33 50t-23 56q-8 26 -12 54t-6 56v29t4 29l20 56t28 52q22 28 49 52t57 44q26 16 55 25t57 15q30 8 62 11t64 5q26 2 54 3t54 -5q28 -8 53 -22t49 -30q18 -14 35 -29t27 -37q16 -34 24 -72t12 -76q2 -36 -2 -72t-10 -72q-2 -24 -8 -47t-16 -45 q-20 -46 -42 -92t-50 -88q-26 -38 -56 -75t-66 -67q-26 -22 -58 -37t-64 -27q-34 -14 -70 -24t-72 -16q-34 -6 -67 -12t-67 -4q-26 0 -51 6t-47 14q-16 6 -29 17t-23 23q-8 10 -14 24t-8 28q-2 12 -3 27zM348 486q2 -22 5 -45t13 -43q8 -12 24 -19t30 -9q18 -4 36 -6t34 6 q18 6 31 21t25 29q24 34 47 68t41 72q16 32 28 65t18 67q6 40 6 83t-6 83q-2 14 -13 26t-23 18q-12 8 -27 9t-29 1q-10 0 -21 -2t-19 -8q-16 -6 -31 -16t-25 -24q-22 -30 -40 -63t-34 -67q-14 -30 -29 -62t-25 -66q-8 -28 -12 -58t-4 -60z" />
<glyph unicode=":" horiz-adv-x="550" d="M148 78q-2 24 0 46q4 20 12 37t20 31q16 16 35 27t41 15q18 4 37 2t35 -10q12 -6 23 -19t15 -27q4 -18 2 -37t-4 -39q-2 -14 -6 -28t-12 -28q-8 -12 -19 -22t-25 -16q-18 -6 -39 -8t-41 0q-16 2 -33 9t-27 21q-12 22 -14 46zM260 660q-2 24 0 48q2 18 10 36t22 30 q14 16 34 27t42 17q16 4 35 1t35 -11q14 -6 24 -18t14 -26q6 -18 4 -38t-6 -38q-2 -16 -6 -30t-12 -26t-18 -23t-24 -15q-18 -8 -39 -11t-41 1q-18 2 -35 10t-25 22q-12 20 -14 44z" />
<glyph unicode=";" horiz-adv-x="550" d="M98 -88q2 4 6 11t11 15t13 18t13 21t13 20t9 18t3 17q-12 20 -14 45t0 47q4 20 12 37t20 31q16 16 35 27t41 15q18 4 37 2t35 -10q12 -6 23 -19t15 -27q4 -18 2 -37t-4 -39q-2 -14 -6 -28t-12 -28q-6 -8 -19 -19t-30 -22t-37 -24t-42 -25t-42 -22t-37 -17t-28 -11t-17 -2 q-2 2 0 6zM264 660q-2 24 0 48q2 18 10 36t22 30q14 16 34 27t42 17q16 4 35 1t35 -11q14 -6 24 -18t14 -26q6 -18 4 -38t-6 -38q-2 -16 -6 -30t-12 -26t-18 -23t-24 -15q-18 -8 -39 -11t-41 1q-18 2 -35 10t-25 22q-12 20 -14 44z" />
<glyph unicode="?" horiz-adv-x="746" d="M118 65q-2 25 0 47q2 18 11 36t21 32q16 16 35 27t41 15q18 4 37 2t35 -10q12 -8 23 -20t15 -26q4 -18 2 -37t-4 -39q-2 -14 -6 -29t-12 -27t-19 -23t-25 -13q-18 -8 -39 -10t-41 0q-16 4 -34 10t-26 20q-12 20 -14 45zM120 792q-2 20 3 42t13 40q8 24 22 47t32 37 q24 18 52 25t54 13q24 6 47 12t46 11t46 7t47 0q14 0 29 -2t31 -4t30 -7t27 -14t24 -20t19 -28t12 -38t4 -49q0 -48 -16 -96t-40 -90q-16 -34 -38 -64l-44 -60t-46 -59t-46 -59q-12 -14 -24 -29t-25 -30t-25 -30t-22 -33q-4 -6 -5 -14t-1 -16t-1 -16t-5 -14q-8 -10 -21 -17 t-25 -3q-16 4 -26 18l-20 28q-8 12 -14 28t-6 32q2 24 8 47t18 41q18 32 43 59t51 51q22 22 47 42t50 39t49 40t46 43q10 12 23 26t23 28t16 29t2 31q-2 16 -13 26t-26 18t-32 12t-31 6q-22 2 -43 -1t-42 -8t-42 -12t-41 -13q-18 -4 -35 -14t-33 -22q-6 -4 -12 -11t-12 -13 l-12 -12t-14 -8q-12 -6 -25 -2t-25 8q-8 4 -17 9t-9 13z" />
<glyph unicode="A" horiz-adv-x="1482" d="M12 304q0 48 6 94t24 90q20 48 52 93t72 83q40 40 89 72t101 54q40 14 84 19q20 2 40 2q24 0 46 -3q40 -4 77 -21t67 -43q12 -10 18 -18t10 -16t8 -18t12 -22q2 -2 -1 -11t-2 -18t8 -15t27 -4q24 2 47 0t47 -5l48 -6t48 -5q6 0 14 3t14 7q8 6 14 15t12 15q24 30 47 61 t47 59q34 40 68 81t74 75q34 28 73 53t81 39q10 4 23 5q6 0 12.5 0.5t12.5 -0.5q12 -1 23 -5t21 -10q10 -8 17 -19t11 -24t6 -26t4 -27v-11q0 -19 -5 -39q-7 -26 -15 -52q-14 -42 -33 -82t-37 -80q-6 -14 -15 -29t-13 -31q0 -4 2 -11t6 -9t8 -2h9t9 1t8 -1q6 -2 11 -4t10 -5 t8 -6t1 -7q0 -6 -4 -11t-10 -9t-13 -7t-13 -7q-8 -4 -19 -5t-21 -1t-20 -2t-18 -8q-22 -14 -36 -35t-26 -43q-22 -34 -40 -70t-30 -74q-10 -28 -15 -57t-1 -59q4 -20 14 -40t26 -32t37 -16t41 -2t38 12t36 22q16 8 31 21t31 23l16 8t16 2q6 -2 9 -8t1 -12q-4 -12 -14 -21 t-20 -17q-16 -12 -32 -25t-32 -25t-33 -22t-35 -18q-18 -4 -38 -4h-14q-28 2 -52 8q-42 8 -83 21t-77 35q-20 14 -37 33t-25 43q-9 27 -9 58v6q1 34 7 66q4 24 11 47t16 46t17 46t16 47q0 6 1 14t-5 12q-12 10 -27 17t-31 13q-6 2 -13 0t-11 -6q-26 -28 -49 -61t-47 -63 q-32 -40 -63 -80t-67 -78q-26 -28 -54 -55t-60 -49q-38 -26 -80 -47t-84 -39q-32 -12 -65 -21t-67 -11q-20 -3 -41 -3q-10 0 -21 1q-32 2 -62 10q-28 8 -55 23t-49 35q-24 18 -41 43t-29 53q-14 34 -23 70t-9 72zM99 255v-13q0 -13 1 -25q2 -19 8 -37q12 -34 37 -64t55 -50 q28 -20 62 -29t68 -9t68 10t66 24q48 26 93 56t87 66q32 32 59 69t55 75q22 30 43 63t41 67q4 6 10 12t11 13t8 14t3 15q0 4 -3 7t-8 5t-10 3t-9 3q-24 6 -49 8t-51 4q-14 2 -21 0t-10 -7t-4 -10t-3 -11q-10 -14 -18 -30t-15 -32t-15 -32t-20 -28q-14 -14 -31 -25t-35 -21 t-37 -19t-37 -19q-10 -6 -19 -14t-19 -14t-21 -12t-23 -8q-26 -6 -54 -7t-54 5q-4 0 -8 3t-7 7t-4 8t1 6q8 12 23 16t29 6q14 4 28 6t28 3t27 4t27 7q24 10 47 26t43 34q18 18 36 38t30 42q4 6 12 16t15 21t13 21t2 14q-6 2 -17 1t-22 -4t-21 -5t-14 -4q-18 -2 -36 -8 t-35 -12t-35 -12t-36 -8h-17t-17 2t-15 6t-11 10q-2 4 1 9t8 9t12 7t11 5q22 10 46 15t46 13q28 8 56 14t54 16l16 4t16 6t15 8t11 12q8 16 4 35t-12 35q-10 16 -26 29t-32 25q-8 6 -17 13t-19 7q-36 -2 -73 -9t-69 -23q-36 -18 -66 -46t-58 -56q-36 -34 -70 -69t-60 -77 q-22 -34 -37 -73t-23 -79q-4 -18 -6 -38t-3 -39zM1060 596q0 -4 7 -7t11 -5q12 -2 23 -5q5 -1 9 -1q6 0 12 2q14 2 26 9t20 17q18 26 33 52t30 53t30 53t31 52q10 16 23 31t21 31q4 10 5 21v7q0 7 -1 12q-2 4 -7 7q-3 2 -6 2q-2 0 -3 -1q-12 -4 -23 -12t-21 -18 q-22 -18 -43 -39t-39 -43q-30 -36 -57 -73t-51 -77q-10 -16 -18 -32t-12 -36z" />
<glyph unicode="B" horiz-adv-x="1166" d="M-40 544v13q0 22 5 45q7 30 19 56q22 48 51 94t69 80q46 42 101 73t113 55q62 24 127 38t131 24q62 10 125 12l54 2q36 0 71 -2q46 -2 93 -10t89 -26q44 -18 86 -43t74 -61q10 -12 20 -27t16 -31t8 -33q1 -8 0.5 -16.5t-0.5 -16.5q-4 -26 -14 -50t-22 -46t-28 -43 t-34 -39q-12 -12 -27 -19t-32 -12l-34 -10t-31 -15q-4 -4 -6 -13t2 -13q10 -12 24 -22t29 -19t28 -19t23 -24q10 -12 18 -25t14 -26t9 -28t3 -29q-2 -26 -6 -51t-11 -49t-18 -46t-25 -42q-20 -22 -42 -41t-48 -34t-53 -27t-55 -22q-22 -6 -46 -10t-49 -5t-49 -1h-48 q-62 0 -123 5t-123 9q-8 0 -17 2t-17 5t-16 4t-18 1q-28 -2 -56 -7t-57 -9t-57 -8t-58 -4q-32 2 -65 10t-63 24q-6 4 -10 10t-5 13t-1 14t2 13q10 14 29 21t37 7q24 2 50 0t52 -5l52 -6t52 -3q6 0 12 5t8 9q10 16 18 32t14 32q12 34 22 70t18 72q0 6 -2 13t-8 9q-6 0 -12 -2 l-12 -4t-11 -5t-11 -5q-24 -6 -48 -14t-50 -8t-53 6t-51 18q-30 16 -60 38t-46 50q-20 32 -29 68t-11 74zM84 486q0 -32 10 -60q10 -24 29 -46t43 -32q14 -4 28 -5t28 1t27 6t27 8q8 4 15 10t14 13t14 13t15 8q10 4 21 -2t21 -12q2 -2 3 -6t1 -8t1 -7t5 -1q8 4 12 16t8 20 q26 54 48 107t50 105q26 48 56 96t62 92q12 14 25 27t26 25t26 25t25 27q10 12 19 25t9 29q-2 4 -4 9t-6 10t-9 7t-11 2h-23q-35 0 -71 -4q-48 -6 -92 -20q-52 -16 -102 -38t-96 -52q-46 -32 -88 -71t-76 -85q-28 -38 -49 -82t-33 -90q-8 -28 -8 -60zM502 64q-1 -1 -1 -3 q0 -3 3 -6q4 -5 10 -5q22 0 45 -1t46 -1t45 3t42 11q38 14 71 41t55 59q16 20 30 43t25 47t19 49t12 51q2 14 -1 31t-10 32t-16 28t-21 23q-14 10 -32 19t-37 14t-37 4t-32 -11q-18 -10 -26 -28t-14 -38t-10 -42t-12 -40q-18 -38 -36 -77t-38 -77q-10 -16 -20 -31t-21 -31 t-21 -31t-18 -33zM752 600q-1 -2 -1 -4q0 -4 3 -7q4 -5 10 -7q18 -4 37 -5h5q16 0 32 5q24 8 46 21t36 33q24 32 41 69t25 77q4 20 4 41v14q-2 29 -12 57q-4 12 -16 21t-24 15q-6 4 -13 7t-13 5t-12 2t-10 -4q-12 -12 -21 -26t-17 -29t-14 -31t-12 -30q-22 -56 -41 -112 t-33 -112z" />
<glyph unicode="C" horiz-adv-x="1002" d="M4 329q0 37 2 71q0 26 8 51t19 49t24 47t23 47q6 14 16 26t20 25t17 26t7 29q0 8 -6 11t-15 6l-18 6t-13 9q-12 14 -25 30t-23 32t-16 32t0 34q6 24 21 44t34 38t42 32t45 26q16 8 36 13t40 6t41 1h41q8 0 16 -1t15 -3t12 -6t7 -10q2 -8 0 -15t-7 -13t-12 -12t-13 -8 q-20 -6 -43 -7l-46 -2t-45 -4t-42 -11q-14 -6 -26 -15t-21 -21t-16 -26t-9 -28q-2 -10 1 -22t9 -23t14 -20t18 -17q8 -4 18 -5t20 1t19 5t19 7q16 8 31 18t29 20t29 21t31 19q56 30 115 58t119 52q50 22 103 42t107 30q50 10 103 11h15q45 0 90 -5q34 -2 69 -13t63 -33 q12 -8 22 -19t19 -23t14 -26t5 -28q0 -12 -6 -21t-15 -18t-19 -17t-20 -14q-34 -26 -71 -49t-75 -41q-48 -22 -99 -41t-103 -29q-26 -6 -53 -9t-53 -5t-53 -4t-53 -4q-14 -2 -28 1t-28 4t-26 -1t-22 -12q-24 -24 -44 -53t-36 -60t-30 -64t-28 -65q-12 -28 -23 -58t-20 -60 t-14 -61t-7 -63q0 -12 4 -26t10 -27t16 -24t20 -19t24 -13t28 -8t29 -4t29 1q36 2 72 13t70 25q48 24 95 53t89 61q14 10 26 24t23 28t23 26t28 22q10 8 22 14t24 11t25 6t25 -3q8 -2 13 -10t7 -18t1 -20t-7 -16q-18 -18 -40 -33t-45 -27t-47 -24t-46 -26q-46 -28 -94 -58 t-98 -52q-40 -18 -81 -31t-85 -17q-24 -2 -49 -4q-17 -1 -33 -1h-16q-24 1 -48 6t-46 13q-24 10 -50 23t-48 29t-41 37t-31 45q-16 32 -26 66t-14 70t-4 73zM513 721q-2 -2 -2 -3q0 -2 5 -4q20 -6 42 -8q15 -1 29 -1h15q22 1 44 4t44 5q70 10 140 23t136 37q44 18 86 43 t70 61q6 8 8 17q1 4 1 9.5t-1 10.5q-2 11 -7 21t-11 16q-14 18 -35 25t-43 11q-32 6 -67 9q-10 1 -19 1q-25 0 -48 -6q-40 -8 -77 -26t-69 -42q-26 -18 -50 -39t-47 -42t-45 -43t-46 -44q-6 -4 -18 -11t-21 -13t-14 -11z" />
<glyph unicode="D" horiz-adv-x="1248" d="M-93 583q-2 14 -2 28q0 17 3 33q6 44 21 87t41 81q30 46 74 85t92 67q46 26 98 38t104 20q32 4 67 6t69 3t68 1h70q24 0 49 1t50 1t51 -1t50 -3q38 -6 77 -18t73 -34q48 -28 91 -66t81 -82q32 -38 59 -81t45 -89q16 -34 21 -72t7 -76q0 -48 -4 -95t-20 -91 q-18 -48 -47 -91t-65 -77q-42 -40 -92 -72t-102 -58q-36 -18 -77 -25t-81 -11q-18 -2 -36 -1t-36 3l-36 4t-38 4q-28 2 -56 7t-58 5q-38 -2 -76 -8t-76 -10q-40 -2 -79 -6q-26 -3 -52 -3q-13 0 -27 1h-38t-39 1t-38 4t-37 7q-10 2 -20 8t-18 13t-13 16t-5 19q0 8 3 14t9 11 t14 8t16 3q30 4 61 4t62 -2t62 -3t63 1q14 2 27 10t21 20q10 18 17 38t13 40t12 41t14 41q16 42 31 84t33 82l48 100t52 96q36 54 75 105t81 99q8 8 18 14t21 12t21 13t16 17q4 6 6 14t2 16t-3 15t-7 13q-12 14 -31 20t-35 8q-48 6 -97 7h-33q-32 0 -64 -1q-34 -2 -68 -7 t-66 -17q-48 -18 -94 -39t-88 -49q-34 -26 -66 -57t-58 -67q-22 -30 -38 -66t-24 -74q-6 -36 -6 -75t14 -73q6 -14 15 -26t20 -22t23 -19t26 -15q8 -6 18 -7l20 -2t20 0t20 -1q10 0 20 1t20 1t18 -2t14 -10q4 -4 0 -9t-11 -9t-15 -8t-14 -4q-24 -6 -48 -5t-46 7 q-28 6 -56 17t-48 31q-32 28 -59 63t-47 73q-12 26 -17 57zM524 54v-3q0 -4 4 -9q6 -6 12 -6q16 -3 33 -3h8q21 1 43 5q26 4 52 10t50 18q42 24 81 51t71 61t56 72t44 78q22 40 39 84t29 88q10 38 15 78q3 22 3 44q0 18 -2 36q-4 42 -19 82t-31 78q-4 10 -7 19t-7 18t-10 17 t-14 14q-9 5 -22 5h-4q-16 -1 -26 -9q-20 -12 -35 -30t-25 -38q-14 -30 -25 -60l-22 -60t-21 -61t-20 -61q-18 -48 -35 -97t-39 -95q-24 -52 -55 -100t-57 -98q-18 -32 -36 -63t-28 -65z" />
<glyph unicode="E" horiz-adv-x="934" d="M2 288q4 36 16 71t36 61q16 18 36 33t41 29t43 26l44 24q14 10 30 17t32 13t31 14t29 16q2 2 2 4t-2 5t-4 5l-4 4q-22 6 -46 9t-46 9q-28 8 -57 14t-55 20q-24 12 -46 29t-38 39q-6 6 -11 14t-9 17t-6 17t0 18q10 32 27 64t45 52q18 14 39 25t43 19t45 15t45 13 q36 10 74 14t76 6h16t18 -1t15 -5t7 -12q2 -6 -3 -11t-13 -9t-17 -6t-15 -4q-18 -4 -35 -5t-35 -2t-35 -2t-35 -7q-28 -8 -56 -24t-50 -36q-18 -16 -33 -38t-19 -46q-2 -22 7 -45t23 -37q18 -18 42 -27t48 -15q18 -4 38 -4t38 4q6 2 7 9t1 13q4 20 5 40t7 40q8 22 20 44 t26 42t32 39t38 33q24 16 45 26t45 20q8 4 18 8l20 8t20 7t20 5q42 8 85 12t85 4q32 0 63 -4t61 -14q26 -10 49 -24t43 -32q10 -8 16 -21t6 -25q1 -6 1 -13q0 -10 -2 -19q-3 -16 -13 -28q-22 -28 -49 -52t-57 -44q-36 -24 -76 -41t-80 -33q-24 -10 -50 -17t-50 -15 q-2 -2 -6 -3t-8 -3t-6 -4t0 -4q8 -8 17 -12t19 -7t19 -7t17 -10t14 -17t4 -21q0 -10 -7 -19t-17 -11q-26 -6 -55 -3t-57 5q-6 0 -12 3t-11 5t-11 4t-12 2q-30 -2 -60 -6t-58 -16q-28 -14 -54 -36t-48 -46q-28 -32 -52 -68t-42 -74q-12 -26 -19 -56t-5 -60q2 -26 14 -50 t26 -46q10 -12 24 -20t28 -12q6 -2 11 2t7 8v16t-1 15t-1 15t2 16q4 30 9 60t17 56t29 49t35 45q16 18 34 35t38 31q32 20 67 37t69 31q26 10 51 17t51 7q13 1 26 1q19 0 39 -2q33 -3 63 -13q22 -6 42 -19t34 -33q14 -16 21 -38t7 -44t-11 -44t-23 -42q-14 -24 -32 -47 t-38 -41q-22 -22 -48 -41t-52 -33q-36 -20 -74 -34t-76 -26q-36 -12 -74 -17t-74 -15q-4 0 -10 -5t-4 -7q14 -20 32 -36t40 -26q18 -8 39 -8t43 -2l40 -4t40 2q30 4 59 15t57 23q18 6 36 16l36 20q6 2 12 6t12 6t12 5t12 1q2 0 5 -2t5 -5t2 -8t-2 -7q-16 -20 -39 -35 t-45 -27q-24 -14 -49 -24t-53 -14q-24 -6 -49 -5t-51 1t-53 -2q-9 -1 -18 -1q-18 0 -35 3q-22 4 -44 14t-40 22q-24 14 -43 34t-39 38l-12 8t-14 6q-12 2 -26 3t-27 1t-26 1t-27 5q-34 10 -68 25t-62 35q-22 16 -40 38t-28 48q-12 30 -17 64q-4 24 -4 48q0 9 1 18zM392 77 q2 -15 8 -29q2 -4 8 -5t12 -1q30 2 61 3t61 9q38 10 75 27t73 35q32 18 63 39t59 47q20 16 38 37t30 45q10 18 14 41t0 43t-18 36t-32 24q-20 10 -43 11t-47 -3q-32 -4 -65 -13t-63 -25q-30 -14 -57 -35t-51 -45q-22 -20 -43 -43t-37 -49q-16 -28 -28 -58t-18 -62 q-1 -7 -1 -14t1 -15zM512 688q0 -4 3 -8t9 -6q10 -1 21 -1t22 1q23 2 43 6q40 10 80 21t78 29q36 16 72 36t64 46q20 16 34 38t22 46q1 4 1 8q0 8 -3 18q-4 14 -12 24q-10 12 -23 20t-27 12q-7 3 -14 3q-4 0 -7 -1q-11 -2 -23 -4q-24 -8 -49 -19t-49 -23q-28 -14 -56 -31 t-54 -37q-14 -10 -28 -19t-28 -19t-26 -21t-22 -25q-14 -20 -19 -45t-9 -49z" />
<glyph unicode="F" horiz-adv-x="1092" d="M-160 188q2 22 17 40t29 34q12 10 26 18t30 6q4 0 7 -3t4 -8l2 -10t1 -9q-2 -8 -5 -15t-7 -14t-7 -14t-3 -15q-2 -18 -1 -39t11 -37q14 -24 35 -43t45 -29q28 -10 59 -10t61 2q32 4 63 12t63 16q30 10 62 18t60 26q28 16 53 40t45 50q26 34 47 71t41 73q16 34 30 68 t30 68q16 32 30 66t36 64q18 30 44 54t50 50q12 12 25 23t25 23t23 24t21 26q2 4 1 9t-3 10t-5 9t-7 6q-16 6 -33 9l-34 6t-34 5t-33 4q-42 6 -84 13t-86 11q-24 4 -48 7t-49 6t-49 4t-50 -1q-36 -2 -71 -12t-67 -22q-14 -6 -29 -11t-30 -11t-27 -15t-20 -21 q-10 -12 -14 -27t-6 -31t-1 -33t1 -33q0 -24 5 -50t19 -46q22 -24 51 -42t59 -32q28 -10 58 -15t58 -1q50 8 97 22t89 36q10 4 17 12t13 17t13 18t15 15l8 8t8 6t9 3t7 -3q6 -4 9 -11t5 -14t1 -15t-3 -14q-14 -24 -36 -42t-44 -32q-32 -20 -66 -39t-70 -29t-73 -12t-75 -2 q-18 0 -36 -1t-36 -1t-35 3t-35 9q-36 18 -68 46t-56 62q-18 24 -27 56t-5 62q6 40 22 81t44 71q16 18 34 31t38 25t41 21t41 19q44 22 92 38t96 28q60 14 121 25t121 13q14 1 28 1t27 -1q27 -2 54 -5t54 -7t53 -6q40 -6 80 -13t80 -9q59 -6 118 -6h30q8 0 16 2t17 4t17 3 t16 -1q6 -2 13 -7t13 -11t8 -13q1 -4 1 -7t-1 -6q-4 -12 -12 -23t-18 -20t-22 -18t-20 -19q-8 -6 -16 -13t-18 -9h-21t-22 2t-22 3t-21 -1q-12 -2 -25 -7t-19 -15q-30 -40 -53 -84t-43 -88q-2 -4 -2 -9t1 -9t3 -8t6 -4q18 -4 38 -2t36 12q6 4 8 9t4 12t4 13t6 10q8 6 20 11 t20 1q6 -4 11 -8t9 -10t5 -12t1 -12q-12 -56 -33 -108t-47 -102q-6 -12 -17 -19t-23 -7q-10 0 -18 7t-12 15q-4 6 -5 12l-2 12t-3 12t-4 10q-4 8 -12 12t-16 6q-6 0 -12 -2t-10 -6q-14 -24 -24 -50t-22 -52q-8 -20 -15 -40t-14 -39t-16 -38t-21 -37q-28 -38 -62 -74t-76 -60 q-26 -14 -55 -26t-58 -21t-59 -17t-60 -14q-84 -20 -170 -26q-46 -2 -93 -2t-95 8q-32 4 -61 15t-59 27q-16 8 -33 19t-27 27q-14 22 -22 49q-6 22 -6 44v11z" />
<glyph unicode="G" horiz-adv-x="1050" d="M-361 607q3 51 23 95q10 24 25 46t33 42t39 38t41 34q40 32 87 55t97 39q60 20 124 31t130 17q16 2 38 7t43 6t35 -3t14 -20q2 -18 -12 -26t-34 -13t-43 -7t-39 -4q-18 -4 -37 -4t-37 1t-36 0t-34 -7q-46 -16 -87 -43t-81 -57q-30 -24 -59 -51t-49 -59q-20 -34 -33 -71 t-15 -75q-2 -30 7 -60t25 -56q16 -24 41 -43t51 -37q16 -8 34 -14t36 -6q12 0 21 9t13 19q6 16 11 32t10 33l10 34t13 33q22 46 45 91t55 83t73 67t83 57q44 30 93 54t97 46q50 24 102 45t106 35q38 12 77 18t77 8q52 0 103 -4t99 -18q28 -8 54 -27t46 -43q16 -20 27 -47 t11 -53q0 -38 -7 -78t-25 -74q-20 -42 -52 -79t-68 -67q-48 -42 -102 -77t-110 -63q-54 -26 -112 -45t-116 -33q-30 -10 -62 -15t-64 -11t-63 -11t-63 -13q-10 -2 -21 -4t-21 -5t-19 -8t-15 -13q-14 -20 -20 -45t-4 -49q2 -22 12 -43t26 -37t38 -26t44 -12q30 -4 61 -1 t61 11q28 8 52 24l48 32q42 26 86 52t84 56q12 8 22 19t20 23t20 23t24 17q18 12 42 16t44 -2q8 -2 15 -7t13 -11t10 -14t4 -16q0 -30 -6 -60t-14 -60t-14 -60t-4 -60q0 -6 6 -7t14 1t17 3t15 -1q8 -2 19 -3t21 -3t15 -7t3 -13q-4 -12 -13 -20t-22 -15t-26 -12t-25 -11 q-4 -2 -9 -1t-10 3t-10 3t-9 -1q-22 -18 -40 -41t-32 -47q-14 -22 -25 -48t-21 -52t-23 -50t-31 -44q-24 -24 -50 -43t-54 -36t-57 -32t-57 -31q-50 -26 -101 -50t-103 -40q-36 -12 -74 -15t-76 -3q-20 0 -41 6t-39 18q-16 12 -26 30t-18 36q-4 12 -9 24t-8 23t-5 23t2 24 q6 34 22 66t40 56q36 36 80 63t90 51q44 24 91 40t95 34q22 8 40 11t35 7t34 10t35 20q8 4 14 14t10 22t6 23t2 19v9t-1 9t-3 7t-6 3q-14 -4 -27 -10t-25 -14t-25 -14t-27 -10q-36 -10 -74 -15t-74 -5q-42 0 -84 5t-80 23q-40 16 -77 45t-65 63q-10 14 -15 31t-9 35t-9 35 t-15 31q-12 20 -30 35t-40 25q-12 4 -25 5t-27 2t-27 2t-25 9q-32 16 -64 38t-58 46q-22 22 -41 48t-27 58q-10 38 -10 79q0 10 1 20zM138 -492q2 -10 6 -19t10 -17t13 -13t17 -9q12 -2 25 -2t26 3t26 7t25 10q36 16 71 37t65 47q30 28 56 59t46 67q16 28 25 60t13 64 q2 8 3 16t0 16t-4 14t-9 6q-20 0 -40 -3t-39 -10t-38 -15t-37 -18q-36 -18 -69 -46t-67 -56q-24 -22 -50 -45t-46 -51q-14 -22 -22 -49q-6 -22 -6 -43v-10zM310 372v-7q0 -10 4 -19q4 -10 13 -12q5 -1 10 -1t11 1q12 2 24 6t22 6q36 8 73 16t73 18t72 23t70 27q24 12 47 28 t46 33t44 35t43 36q22 16 46 32t46 32t44 33t40 39q30 32 52 71t32 81q3 13 3 26.5t-3 27.5q-6 28 -22 48q-6 10 -16 15t-20 9t-21 6t-23 4q-16 6 -33 7h-11q-12 0 -24 -1h-28t-29 -2t-29 -5t-26 -9q-28 -16 -55 -35t-53 -39t-51 -42t-51 -44q-40 -34 -80 -70t-72 -76 q-38 -50 -70 -105t-60 -111q-6 -14 -14 -27t-15 -27t-9 -28z" />
<glyph unicode="H" horiz-adv-x="1492" d="M-68 155v11q0 17 4 32q10 24 29 44t37 36q12 8 28 10t30 -4q4 -4 6 -8t3 -10t-1 -12t-2 -10q-4 -8 -11 -15t-14 -13t-13 -13t-8 -17q-4 -16 1 -35t15 -33q20 -24 44 -44t52 -30q34 -10 71 -11h11q31 0 60 5q42 10 80 28t74 42q34 24 66 54t58 64q14 20 25 43t21 46t19 47 t19 46q18 40 35 80t39 78q28 52 60 102t64 98q10 12 21 24t23 24t21 25t15 29q2 6 -1 11t-9 10t-12 8t-12 5q-52 12 -105 15t-105 7q-60 6 -121 12t-121 6q-30 0 -60 -5t-54 -19q-22 -12 -39 -33t-29 -45q-16 -36 -27 -73t-13 -75q0 -30 9 -59t19 -55q10 -20 23 -36t29 -32 q8 -8 24 -15t30 -14t22 -15t2 -18q-6 -14 -20 -21t-32 -8t-35 2t-31 9q-20 12 -37 28t-32 34t-27 39t-22 41q-16 28 -22 61q-4 20 -4 39q0 13 2 26q8 42 27 84t47 74q16 16 34 28t38 22t41 20t39 22q16 10 31 23t30 25t31 22t34 14q26 6 52 6t54 -2t55 -5t53 -5 q56 -2 113 -8t113 -8q32 -2 65 -2t65 2q10 0 19 3l18 6t18 5t19 2h10t11 -3t9 -6t4 -7q2 -26 -7 -50t-21 -48q-4 -6 -10 -11t-13 -10t-13 -11t-10 -12q-8 -18 -16 -38t-14 -40t-12 -41t-14 -41t-17 -39t-18 -39t-16 -40t-11 -40q-2 -4 0 -9t5 -9t8 -7t9 -3q40 -6 82 -14 t83 -13t82 -5t81 8q14 4 21 16t10 28t6 34t9 30q18 42 36 83t38 83q14 32 29 66t37 64q16 20 38 34t42 28q10 6 19 14t19 15t20 12t22 5q10 0 21 -3t21 -9t19 -13t17 -15q14 -14 22 -32t12 -36q6 -28 7 -57v-6q0 -26 -7 -51q-12 -42 -30 -82t-44 -76q-18 -28 -44 -50 t-52 -42q-22 -18 -48 -35t-54 -27q-6 -2 -14 -3t-15 0t-13 5t-8 10t1 11t9 10t13 9t11 10q16 14 32 26t32 25l32 26t28 29q12 14 20 30t15 32t13 32t14 32q6 12 13 24t14 23t12 24t7 25q2 20 -3 41t-15 39q-2 6 -7 12t-11 10t-13 6t-13 0q-24 -6 -43 -24t-31 -38 q-12 -22 -23 -45t-20 -47t-17 -48t-20 -48q-20 -46 -42 -91t-42 -91q-28 -60 -54 -123t-54 -125q-22 -52 -45 -103t-45 -103q-8 -20 -15 -41t-19 -37q-6 -8 -17 -18t-23 -10q-6 0 -13 3t-13 6t-10 9t-4 10q2 20 7 41t13 42t16 41l16 40q12 30 24 57t25 54t27 58t26 69 q-34 12 -77 18t-89 7h-31l-61 -1q-46 -2 -88 -2q-12 -18 -21 -42t-17 -49t-17 -50t-23 -45q-28 -44 -64 -81t-78 -67q-30 -22 -67 -37t-75 -25q-44 -12 -89 -19t-91 -9q-35 -1 -70 -1h-35q-53 1 -105 5q-34 6 -69 15t-67 25q-18 12 -34 30t-26 38q-8 20 -10 43z" />
<glyph unicode="I" horiz-adv-x="1054" d="M-2 170q0 14 8 28t16 26q12 14 26 25t30 21q10 6 23 13t25 5q6 0 9 -4t5 -8t2 -9v-9q-2 -6 -6 -9t-9 -6t-10 -5t-9 -6q-8 -10 -15 -22t-7 -24q2 -20 9 -39t21 -35q16 -20 38 -35t46 -25q30 -10 61 -14t61 0q34 4 66 18t62 28q24 12 47 27t43 33q24 20 45 44t37 50 q24 38 43 79t39 81q22 44 43 88t45 86q26 46 54 93t56 93q10 12 21 25t21 25t20 25t18 27q2 4 2 9t-2 10t-5 9t-7 6q-28 10 -59 13t-61 5q-52 6 -104 7t-104 5q-20 2 -40 5t-40 5t-41 4t-41 2q-18 0 -36 -5t-34 -13q-24 -14 -47 -30t-39 -36q-14 -18 -21 -41t-13 -45 q-4 -18 -8 -37t-7 -37t-3 -36t4 -36q8 -30 28 -55t44 -45q24 -18 53 -28t59 -18q22 -4 47 -7t47 3q26 6 49 21t43 29q8 4 13 11t11 14t11 13t13 10t18 5t16 -5q6 -8 4 -20t-8 -20q-4 -12 -14 -23t-20 -19q-24 -14 -51 -26t-55 -24q-12 -4 -26 -10t-28 -11t-28 -9t-28 -2 q-42 0 -83 12t-79 30q-30 16 -57 38t-47 50q-16 24 -25 52t-11 56q-2 22 2 45t14 43q20 38 43 75t53 67q14 14 29 25t32 22t34 20t33 19q14 8 28 19t28 20t29 16t31 9q42 6 84 7h28l56 -1q42 -2 84 -5t84 -5q24 -2 46 -5t45 -6t45 -6t46 -3q16 0 31 4l30 8t31 8t30 4 q6 0 12 -1t11 -3t9 -6t4 -8v-9q0 -19 -7 -37q-9 -22 -19 -42q-4 -10 -10 -17t-13 -14t-13 -15l-12 -16q-22 -46 -39 -93t-33 -93q-20 -52 -38 -104t-38 -104q-14 -30 -26 -61t-26 -62t-29 -61t-33 -58q-28 -40 -62 -77t-76 -61q-24 -14 -49 -24t-51 -18t-52 -15t-52 -13 q-38 -8 -77 -11t-77 -3q-40 0 -78 1t-76 7q-32 4 -63 10t-59 18q-22 10 -42 23t-34 31q-12 18 -17 38t-5 42z" />
<glyph unicode="J" horiz-adv-x="1072" d="M-251 -425q0 18 9 33q12 26 34 46t46 36q6 2 14 5t15 5t14 0t13 -6q2 -4 0 -9t-7 -10t-11 -10t-8 -9q-4 -8 -9 -14t-10 -13t-8 -14t-3 -15q0 -14 3 -29t8 -29t13 -27t18 -21q16 -12 33 -20t36 -14t37 -9t36 -5t36 -2l36 2q36 4 68 18q38 14 70 38t62 50q26 24 49 49 t41 55q24 40 43 83t37 87q24 56 45 112t43 112t44 113t46 111q38 88 80 174t90 168q16 26 35 52t38 50t38 49t37 53q8 12 15 28t7 32q-2 8 -12 13t-18 7q-36 8 -72 11t-72 7q-50 4 -100 6t-100 6q-30 2 -61 8t-63 4q-22 0 -47 -4t-45 -16q-26 -18 -49 -42t-37 -52 q-16 -36 -27 -76t-11 -82q0 -16 3 -32t8 -32t13 -30t20 -24q12 -14 29 -25t35 -19t37 -14t37 -10q32 -8 65 -9t63 9q14 4 27 12t25 19t23 21t23 20q4 2 9 7l9 9t9 7t11 3q4 -2 8 -6t7 -9t3 -10t-2 -9q-10 -24 -29 -44t-43 -34q-38 -22 -80 -37t-84 -23q-30 -4 -62 -2t-62 12 q-18 4 -37 10t-36 14t-33 19t-30 25q-28 30 -47 70t-25 82q-1 10 -1 20q0 22 6 44q9 32 25 60q26 42 61 79t71 69q22 22 47 38t51 32q26 14 55 29t59 21q29 6 58 6l22 -1q40 -3 80 -5q66 -4 131 -12t129 -14q26 -2 51 -6t51 -2q10 2 19 6t17 9t17 9t19 6q8 2 17 3l18 2 t18 -1t15 -8q4 -6 7 -13t3 -15t-2 -16l-4 -16q-4 -12 -12 -22t-16 -19t-17 -19t-15 -20q-14 -28 -26 -57t-24 -59q-56 -132 -112 -263t-108 -265q-24 -60 -46 -122t-44 -122t-45 -121t-49 -123q-18 -42 -41 -83t-51 -77t-61 -68t-71 -52q-24 -12 -50 -21t-52 -15t-53 -10 t-53 -10q-46 -8 -91 -11q-27 -2 -54 -2q-19 0 -37 1q-42 2 -81 10t-79 16q-22 4 -46 8t-42 16q-22 14 -40 34t-28 44q-9 20 -9 43z" />
<glyph unicode="K" horiz-adv-x="1672" d="M-70 195q0 17 10 29q6 6 14 12t17 9t17 4t14 -5q6 -4 6 -12t-2 -17l-4 -18t0 -17q6 -22 17 -43t29 -37q28 -22 60 -40t68 -24q32 -4 64 -4h22q44 2 82 16q20 8 37 20t32 26t30 29l29 29q24 22 48 47t42 55q14 26 26 55t22 58t21 59t23 58q44 90 98 174q14 22 31 44t34 43 t34 43t33 44q4 6 9 13t8 14t5 14t-2 15q-2 6 -8 10t-14 6t-17 3t-15 1q-68 14 -137 24t-139 16q-24 0 -49 2t-49 2t-49 -2t-49 -8q-28 -6 -55 -23t-45 -39q-26 -34 -44 -75t-24 -83q-3 -22 -3 -45q0 -19 2 -38q5 -43 21 -79q8 -16 20 -27t26 -22t28 -21t24 -24q6 -6 12 -13 t11 -15t7 -16t0 -16q-4 -6 -12 -12t-17 -8t-18 -1t-17 5q-22 12 -43 26t-40 30t-36 35t-29 41q-24 42 -34 92q-6 30 -6 62q0 19 2 38q2 22 9 44t18 42t25 39t28 35t32 28t37 22l38 20t37 20t34 24t32 26t33 22t37 14q26 3 52 3h13q33 -1 66 -6l66 -10t65 -9q24 -2 48 -6 l48 -8t48 -7t48 -5q30 0 61 6t61 12q18 2 36 9t36 7q6 0 12 -5t6 -11q0 -18 -3 -35t-9 -33q-14 -28 -28 -54t-29 -53t-30 -53t-29 -54q-20 -40 -38 -83t-34 -87q-2 -6 -5 -16t-5 -18t-1 -14t7 -2q20 8 37 21t32 27t31 29t32 29q74 58 149 118t151 116q46 32 92 62t96 56 q12 8 24 15t25 13t26 9t27 3q10 -2 22 -7t22 -12t18 -17t14 -20q16 -34 23 -73q4 -25 4 -48q0 -13 -1 -27q-6 -46 -23 -91t-45 -81q-18 -22 -40 -42t-45 -39t-48 -35t-51 -32q-12 -8 -30 -12t-32 4q-6 2 -8 7t-3 12t1 13t6 10q14 14 31 25t35 21t36 21t32 27q12 10 20 22 t15 25t13 27l12 28q16 30 32 62t24 66q4 16 1 36t-11 36q-4 10 -15 17t-23 9q-16 0 -32 -7t-32 -15q-46 -28 -90 -59t-88 -65q-26 -22 -53 -46t-49 -52q-4 -8 -8 -17t-7 -19t-5 -20l-4 -20q-12 -42 -26 -84t-27 -83t-25 -84t-20 -85q-4 -24 -8 -47t-6 -47t-1 -48t7 -46 q2 -12 10 -23t18 -21t23 -16t25 -8t22 3t21 13t21 15t20 11t20 9t19 8t19 4t20 -3q4 -2 6 -9t1 -15t-4 -15t-9 -13q-24 -24 -54 -45t-64 -29q-24 -5 -49 -5q-13 0 -26 1q-39 4 -73 16q-16 6 -34 13t-34 16t-28 22t-20 29q-8 26 -12 54t-3 57t6 58t9 57q10 42 25 81t33 77 t36 73t34 71q-26 -10 -55 -30t-61 -44t-67 -50t-75 -46q-4 -18 -8 -37t-10 -39t-14 -39t-20 -35q-32 -50 -72 -98t-88 -84q-38 -30 -83 -51t-91 -31q-68 -12 -139 -14q-36 -1 -71 -1t-70 1q-44 0 -86 8t-84 20q-12 2 -24 6t-23 8t-22 11t-17 17q-10 10 -15 22t-8 26t-5 27 t-2 27q-2 14 -2 31z" />
<glyph unicode="L" horiz-adv-x="1214" d="M-92 92q4 22 17 43t31 35q22 16 48 25t54 11q23 2 46 2l46 -2q46 -4 90 -8q18 0 36 -5t36 -7q14 0 29 1t29 7q16 8 28 21t22 27q14 20 25 41t19 43q12 26 25 53t19 55q2 6 -2 15t-10 11q-12 8 -28 9t-30 3q-38 8 -77 14t-77 18q-26 10 -53 24t-49 32q-20 18 -37 38 t-23 44q-10 30 -12 63t8 63q14 38 37 72t53 58q34 26 74 43t80 27q46 14 93 19t95 11q12 2 24 3t22 -3q2 0 5 -2t5 -5t2 -6t-2 -3q-12 -8 -26 -10t-28 -6q-32 -8 -64 -14t-62 -14q-22 -8 -44 -17t-42 -23q-26 -18 -52 -40t-44 -48q-16 -22 -26 -49t-14 -53q-2 -18 2 -36 t12 -34q14 -20 31 -39t37 -33q26 -16 53 -27t55 -17q26 -6 53 -7t55 -1h22t22 8q6 6 12 14t10 17t9 18t9 17q22 34 44 70t44 68l52 76t58 72q20 22 46 41t52 37q24 16 50 32t54 26q20 8 42 9t44 1q20 0 43 1h4q20 0 37 -9q24 -8 44 -25t32 -37q10 -18 11 -39v-8 q0 -16 -3 -31q-8 -30 -23 -58t-33 -52q-22 -32 -47 -60t-53 -50q-16 -14 -34 -25l-36 -22t-36 -21l-36 -20q-18 -12 -36 -22l-36 -20t-35 -21t-31 -25q-20 -20 -37 -41t-32 -44t-31 -45t-34 -42q-16 -16 -33 -31t-35 -29t-36 -29t-34 -31q-4 -6 -7 -14t1 -16q6 -10 17 -18 t21 -12q28 -14 56 -24t56 -16q36 -8 72 -13t72 -7q17 -1 33.5 -1t33.5 1q33 2 65 8q18 2 37 9t31 19q16 18 24 42t10 48q2 16 -4 32t-16 28q-8 14 -22 26t-28 20q-18 10 -37 15t-39 5q-22 0 -43 -4t-39 -12q-10 -6 -19 -12t-17 -13l-16 -14t-16 -13q-10 -6 -21 -10t-21 -2 q-4 0 -7 6t-1 10q12 20 26 40t32 32q26 16 57 24t61 10q26 2 52 -3t50 -11q14 -6 28 -10t28 -10t26 -14t20 -18q18 -22 27 -52t5 -58t-20 -53t-36 -45q-30 -30 -65 -54t-73 -40t-78 -25t-82 -11q-14 0 -29 1t-29 4t-29 7t-29 8q-22 4 -45 10t-45 14q-34 8 -68 20t-66 24 q-8 4 -15 8t-14 9t-14 8t-15 3q-36 -2 -70 -13t-68 -21q-10 -4 -20 -11t-19 -13t-19 -10t-22 -6q-24 -4 -49 -4h-16q-33 2 -67 8q-20 2 -42 9t-40 21q-14 10 -22 27q-6 14 -6 28v7zM-21 111q-1 -5 -1 -9q0 -6 2 -10q2 -8 10 -14t14 -8q12 -6 24 -9t24 -3q22 -2 44 -3h9 q17 0 33 3q16 2 32 7t32 11q2 2 7 4t9 5t6 6t0 5q-10 16 -27 28t-35 16q-26 8 -56 9t-58 -1q-16 -2 -32 -6t-26 -14q-8 -6 -11 -17zM870 598q-2 -6 5 -12q5 -4 10 -4h3q20 6 35 18t31 24q30 20 58 41t54 45q22 20 42 41t36 45q14 22 26 46t16 52v6q0 11 -5 22q-7 14 -15 28 q-4 8 -13 17t-19 9h-7q-11 0 -22 -4q-15 -6 -27 -16q-18 -12 -31 -31t-27 -37q-18 -24 -34 -49t-32 -51q-14 -24 -29 -47t-27 -49q-10 -22 -18 -46t-10 -48z" />
<glyph unicode="M" horiz-adv-x="1768" d="M-68 270v14q0 45 11 89q13 51 35 99q20 44 53 82t69 72q42 38 88 72t98 58q42 18 87 27q31 6 62 6q14 0 27 -1q42 -2 83 -16t73 -38q12 -8 20 -19t14 -24t11 -27t7 -28q4 -20 0 -42t-10 -42q-10 -22 -17 -45t-17 -45t-23 -42t-31 -36q-30 -26 -65 -48t-72 -40t-75 -34 l-76 -32q-10 -4 -21 -7t-23 -3t-22 3t-18 9q-6 4 -2 9t11 10t16 10t15 7q22 10 45 17t47 13t46 14t44 20q34 20 64 49t54 61q24 30 42 66t24 74q4 28 -4 57t-24 51q-12 20 -33 33t-43 17t-47 -2t-47 -14q-42 -18 -82 -38t-74 -50q-48 -40 -90 -88t-76 -102q-28 -42 -50 -91 t-30 -101q-3 -15 -3 -30q0 -18 4 -36q7 -34 19 -64q12 -26 33 -49t47 -37q22 -14 51 -18t57 -2q34 4 69 16t65 30q42 24 79 55t71 65q16 18 31 39t30 43t29 43t28 43q46 64 91 129t91 129q42 58 84 119t88 117q30 36 63 70t69 62q22 16 48 26t52 18q16 4 32 6t30 -4 q16 -4 30 -15t16 -25q6 -26 6 -52v-14q-2 -34 -10 -68q-14 -52 -38 -101t-46 -99l-40 -80t-41 -80l-42 -80t-39 -80q-4 -6 -7 -13t-6 -15t-4 -15t3 -13q2 -6 7 -7t11 0t11 3t9 6q18 22 34 47t30 50t29 51t31 50q32 48 65 95t67 93q44 58 88 119t94 117q30 32 63 63t71 51 q12 6 26 10t28 6q9 1 19 1h9q14 -1 26 -7q12 -4 19 -14t12 -21t8 -23t5 -24q4 -16 4 -34v-12q-2 -24 -10 -46q-6 -22 -16 -43t-22 -42t-23 -41t-21 -42q-34 -64 -67 -128t-67 -126q-24 -50 -51 -99t-49 -99q-4 -14 -10 -28t-10 -29t-6 -29t0 -28q2 -22 15 -40t31 -28t40 -10 t44 4t42 15t38 23q8 4 14 11t13 14l13 13t14 10q4 4 11 6t13 3t11 0t5 -5q2 -8 0 -16t-6 -15t-10 -13t-12 -10q-28 -24 -60 -43t-66 -33q-14 -6 -30 -15t-31 -16t-32 -11q-11 -3 -22 -3q-5 0 -11 1q-44 2 -88 20t-78 44q-30 28 -52 68t-28 82q-4 18 -1 36t8 36t12 35t13 35 q8 18 18 35t21 35t22 35t21 35q2 6 5 12t4 12t1 12t-2 10t-7 4t-9 -2t-9 -6t-7 -6q-18 -16 -31 -36t-27 -38q-48 -62 -94 -126t-94 -126q-18 -20 -35 -42t-34 -43t-37 -40t-40 -35q-22 -14 -49 -21t-53 -1q-24 6 -47 23t-33 39q-6 12 -7 25t0 25t4 25t5 25q10 48 26 92 t34 88q24 60 52 120t58 118q12 22 25 42l26 40t25 40t22 42q4 8 3 20t-9 20q-2 2 -5 2t-6 -2t-7 -5t-6 -5q-36 -46 -71 -95t-69 -99q-40 -54 -77 -112t-77 -112q-16 -24 -33 -47t-34 -45t-35 -44t-38 -40q-40 -38 -86 -71t-96 -57q-34 -18 -73 -25t-79 -11q-14 -2 -29 -5 t-30 -4t-30 0t-29 5q-18 8 -36 15t-34 19t-29 25t-23 29q-28 42 -41 92t-13 98z" />
<glyph unicode="N" horiz-adv-x="1564" d="M-62 302q0 32 5 63t13 61q8 34 20 69t30 63q30 40 66 74t76 64q30 26 65 47t73 33q22 8 45 15t46 11t46 4t47 -4q20 -6 38 -14t35 -21t32 -28t25 -31q20 -28 28 -65q5 -25 5 -49q0 -12 -1 -24q-6 -44 -24 -88t-46 -78q-46 -52 -102 -97t-116 -81q-10 -4 -21 -6t-23 -2 t-24 2t-22 4q-6 2 -14 4t-15 5t-10 6t1 7q6 8 15 9t19 2t21 1t19 4q18 6 37 14t37 16t35 19t31 23q36 30 62 67t48 77q16 30 27 63t11 67q2 26 -7 51t-23 45q-14 18 -32 30t-40 18q-16 6 -34 4t-36 -8q-20 -8 -42 -14t-43 -14t-40 -18t-37 -24q-42 -36 -75 -83t-61 -95 q-26 -46 -46 -94t-28 -98q-5 -24 -5 -48q0 -12 1 -24q4 -36 16 -70q4 -16 11 -34t16 -34t20 -30t25 -24q16 -10 33 -15t36 -7t39 -2h38q30 2 59 10t55 22q34 20 66 45t60 55q34 34 62 74t56 78q32 44 62 87t58 89q38 64 71 130t71 128q18 28 35 57t35 58t37 56t41 53 q18 22 44 38t54 22q12 3 25 3q11 0 22 -2q25 -5 41 -19q20 -18 33 -44t13 -52q2 -24 -1 -50t-8 -51t-12 -49t-13 -50q-4 -22 -11 -43t-15 -42l-16 -42t-12 -43q-2 -6 -4 -13t-3 -13t0 -13t3 -11t6 -3t7 5t7 9t6 7q16 36 29 74t29 72q22 52 45 104t53 98q22 32 48 61t54 55 q16 12 33 24t37 14q18 2 36 -5t32 -17q18 -14 34 -33t20 -41q4 -18 4 -37q0 -12 -2 -25q-4 -32 -12 -60q-12 -42 -29 -81t-41 -73q-22 -32 -51 -59t-61 -51q-22 -16 -47 -29t-51 -21q-8 -4 -18 -2t-14 8t0 13t10 11q14 14 34 24t36 22q16 14 31 28t27 28q36 46 62 96 q14 24 27 51t19 53q8 28 12 57t0 57q0 14 -7 26t-19 16q-14 6 -31 3t-29 -13q-16 -10 -26 -29t-18 -37q-24 -50 -45 -102t-45 -104q-22 -50 -47 -101t-47 -101q-28 -62 -55 -124t-57 -124q-14 -28 -25 -58t-23 -59t-27 -56t-37 -51q-8 -10 -22 -16t-29 -10t-31 -5t-32 -1 q-12 0 -24 2t-24 5t-23 9t-19 14t-12 20t-7 24t-3 25t2 25q6 70 23 138t37 134q12 44 27 86t31 83t32 83t28 84q6 18 10 36t0 36q0 2 -3 2t-7 -2t-8 -5t-6 -5q-16 -24 -29 -52t-27 -54q-32 -54 -64 -110t-64 -110q-24 -40 -46 -82t-52 -78q-26 -36 -57 -69t-65 -61 q-42 -34 -86 -63t-90 -57q-26 -14 -53 -28t-55 -22q-22 -6 -45 -7t-45 3l-36 8t-35 8t-34 11t-31 17q-34 26 -61 62t-47 76q-14 32 -19 68t-7 72z" />
<glyph unicode="O" horiz-adv-x="1166" d="M-4 360q0 26 2 54t10 52q20 52 45 102t61 90q50 58 109 105t123 87q58 38 122 67t130 55q50 18 102 31t106 21q50 6 101 6t101 -4q2 0 7 -1t9 -4t6 -5t0 -6q-4 -4 -9 -6t-11 -2h-13t-13 -2q-14 0 -28 -1t-28 -1t-27 -2t-27 -4q-30 -10 -57 -25t-53 -31q-52 -34 -102 -71 t-94 -79q-40 -40 -77 -85t-69 -95q-38 -64 -72 -132t-60 -138q-18 -44 -29 -92t-13 -96q-2 -22 5 -43t21 -35q14 -18 35 -30t43 -16t47 -1t47 11q14 6 31 11t33 11t31 13t27 17q46 30 90 61t86 65q32 26 62 53t60 56t58 58t58 59q22 22 44 45t42 47t38 49t32 53q10 24 18 49 t12 51t7 53t5 53q0 20 -6 41t-20 33q-16 14 -37 17t-41 3q-46 -2 -91 -10t-89 -20q-20 -4 -37 -17t-33 -31q-4 -4 -9 -5t-11 0t-11 3t-9 6q-2 2 -3 6t0 9t4 8l5 5l44 28t44 24q42 20 82 33t84 21q12 2 27 3t29 0t29 -3t25 -8q14 -6 27 -17t23 -24t18 -28t10 -31q7 -33 7 -68 q0 -17 -2 -35q-5 -53 -21 -103q-22 -68 -56 -132t-74 -124q-36 -56 -77 -110t-91 -96q-62 -52 -132 -95t-144 -77q-54 -26 -113 -41t-117 -29q-16 -4 -31 -8t-31 -6t-32 -2t-30 2q-48 12 -94 31t-84 49q-32 26 -55 61t-37 73q-8 22 -12 45t-6 46t-3 47t-3 48z" />
<glyph unicode="P" horiz-adv-x="1386" d="M-82 136q-1 7 -1 14t1 14q2 14 8 28q8 16 21 31t27 27q10 8 21 15t23 5q10 -2 18 -11t8 -19q-2 -6 -5 -10t-8 -8l-10 -8t-7 -10q-8 -18 -12 -39t-2 -39q4 -20 15 -40t29 -32q20 -14 46 -19t50 -9q32 -6 64 -10q16 -2 32 -2l32 2q32 2 64 11t60 23q32 16 61 40t53 50 q26 30 47 65t41 69q28 52 53 105t51 103q30 56 59 112t63 108q20 30 41 57t43 54t44 55t40 56q8 12 12 27t4 27q-2 8 -7 14t-11 6q-31 3 -62 3q-16 0 -31 -1q-47 -2 -93 -6q-44 -6 -87 -14t-85 -24q-46 -16 -91 -38t-87 -50q-38 -24 -72 -54t-64 -62q-30 -36 -58 -74 t-44 -80q-14 -34 -20 -73q-2 -15 -2 -29q0 -24 6 -46q6 -16 14 -31t20 -28t25 -25t27 -22q10 -8 21 -12t22 -6t23 -4l24 -4q8 0 16 2t16 3t15 1t11 -6q4 -4 1 -9t-9 -10t-13 -8t-13 -5q-18 -2 -37 -4t-37 -2t-36 3t-36 9q-36 14 -66 42t-56 58q-18 24 -32 52t-18 58 q-5 27 -5 56v9q1 33 11 65q14 44 35 86t51 78q34 40 77 72t89 56q48 28 99 48t105 32q62 14 127 18t129 8q28 2 56 1t56 -1q26 0 51 1l50 2t49 1t50 -4q46 -6 91 -17t87 -31q32 -16 61 -40t51 -52q18 -22 29 -48t15 -54q2 -19 1 -37q0 -23 -2 -47q-5 -42 -17 -82 q-6 -26 -21 -50t-33 -46q-22 -26 -49 -49t-57 -39q-32 -18 -68 -29t-74 -17q-16 -2 -33 -1t-34 3t-33 4t-34 2q-16 0 -33 -1t-29 -9q-20 -14 -31 -34t-23 -40q-10 -16 -19 -35t-17 -37t-18 -36t-22 -34q-26 -32 -58 -60t-66 -52q-34 -22 -71 -41t-75 -29q-44 -10 -90 -10 t-90 -2q-36 0 -71 4t-71 6q-34 4 -69 5t-67 9t-62 23t-56 37q-14 14 -21 33t-11 39zM926 468q-1 -2 -1 -3q0 -2 2 -4q3 -3 7 -5t9 -4t9 -2q26 2 53 5t49 15q36 20 65 48t55 60q24 30 43 63t29 69q6 21 6 44v11q-2 29 -8 57q-4 28 -13 55t-23 51q-10 16 -24 32t-32 24 q-2 1 -4 1l-4 -1l-8 -4t-7 -6t-7 -8q-14 -16 -29 -35t-25 -41q-20 -44 -33 -90t-29 -92q-12 -36 -24 -71t-22 -69q-4 -12 -10 -24t-11 -25t-9 -25t-4 -26z" />
<glyph unicode="Q" horiz-adv-x="1180" d="M-210 -310q-1 3 -1 7q0 8 4 17q5 12 12 22t17 20l18 18q24 20 48 37t49 33t50 31t49 29q64 40 128 78t132 68q52 24 105 41t107 35t106 37t102 47q52 28 98 70t76 94q32 54 50 115t18 123q0 64 -19 126t-49 118q-18 36 -50 65t-68 49q-24 12 -53 12t-55 -6 q-64 -20 -128 -46t-120 -62q-36 -22 -65 -55t-49 -71t-31 -82q-9 -37 -9 -74v-14q2 -16 8 -30t14 -28t17 -28t19 -28q8 -10 17 -20t19 -19t20 -19t18 -20q4 -8 9 -16l10 -16t6 -16t-3 -14q-6 -10 -14 -15t-18 -7t-21 -2h-21q-22 4 -47 7t-49 9t-45 17t-35 29q-18 28 -31 59 t-20 65t-9 69t-2 69q2 24 9 48t17 47t24 45t30 42q18 24 38 47t43 43t48 38t51 30q38 18 77 30t79 20t81 14t81 10q34 4 70 4h24q48 -2 92 -16q26 -6 52 -15t51 -21t47 -27t42 -33q42 -38 70 -88t44 -104q6 -26 11 -53t5 -54t-4 -53t-12 -50q-30 -82 -77 -156t-111 -134 q-28 -28 -62 -49t-71 -39t-75 -33t-74 -33q-50 -22 -101 -42t-102 -38t-102 -37t-103 -39q-20 -10 -44 -16t-46 -14t-42 -19t-32 -31q-6 -10 1 -20t21 -17t30 -14t28 -11q58 -24 118 -42t120 -32t121 -23t121 -11q22 0 42 4t41 8t41 8t40 2q6 0 14 -3t14 -8t8 -11t-2 -12 q-32 -40 -74 -74t-90 -56q-40 -18 -87 -22q-23 -2 -46.5 -2t-46.5 2q-24 2 -49 7t-49 13t-47 16t-47 14q-24 8 -47 16t-46 15t-47 14t-48 13q-22 4 -47 2t-49 -2q-26 -2 -52 -9t-53 -12t-54 -7t-53 4q-14 4 -26 14t-21 24t-14 29t-7 31z" />
<glyph unicode="R" horiz-adv-x="1390" d="M-90 160q4 26 18 50t30 44q10 12 24 19t26 5q12 0 22 -10t10 -22q0 -4 -3 -8t-7 -7l-8 -6t-6 -7q-4 -10 -9 -21t-8 -21t-5 -21t0 -21q4 -24 19 -46t35 -36q10 -6 22 -10t24 -7t25 -4t25 -3q36 -4 73 -8q18 -2 36.5 -2t36.5 2q30 4 60 14t56 26q38 26 72 59t60 71 q22 32 41 67t36 71l34 72t35 70q16 30 31 61t30 61t31 59t36 57q18 28 39 54t43 51l44 50t40 53q10 14 15 31t5 35q0 8 -7 15t-15 9q-26 6 -54 7t-54 -1q-44 -4 -89 -10t-87 -18q-54 -16 -107 -35t-101 -49q-54 -32 -104 -73t-90 -89q-34 -40 -60 -88t-42 -98 q-10 -28 -8 -60t14 -58q14 -30 40 -53t54 -39q10 -6 22 -8t24 -2h25t25 -2q4 0 10 1t11 2t10 0t7 -5t1 -9t-5 -9t-9 -7t-9 -5q-26 -8 -55 -11t-57 1q-28 6 -53 18t-47 30q-28 20 -54 46t-42 56q-14 26 -19 54t-5 58t5 62t19 60q20 46 46 89t62 79q40 40 89 72t101 54 q58 26 120 41t122 23q32 6 62 7t61 2t62 1h61q34 2 69 3t71 1q22 -2 47 -2t47 -4q34 -4 66 -12t62 -20q28 -12 56 -27t52 -35q20 -16 39 -35t31 -43q12 -20 18 -45q4 -19 4 -37v-12q0 -24 -2 -48t-6 -47t-11 -46t-17 -45q-10 -20 -23 -36t-28 -31t-32 -29t-35 -26 q-10 -10 -22 -15t-25 -10t-26 -9t-25 -12q-6 -2 -10 -8t-6 -14q-4 -16 -4 -34t-2 -36q-2 -20 -5 -39l-6 -38l-6 -38t-1 -37q0 -24 5 -47t17 -43q6 -12 20 -22t28 -14q12 -4 25 -3t25 5q8 4 16 10t15 12t15 12t16 10q14 6 28 9t30 1q6 0 12 -8t4 -14q-6 -18 -20 -35t-28 -29 q-20 -14 -42 -22l-44 -16q-16 -4 -33 -6q-8 -1 -16.5 -1t-16.5 1q-24 2 -47 6t-45 14q-12 4 -25 8t-26 10t-24 14t-19 20q-18 22 -24 51t-6 57q0 36 8 73t16 73q2 10 6 19l8 18l8 18t6 19v10v11t-2 9t-6 4q-16 8 -35 6t-37 -6q-14 -2 -31 -7t-27 -19q-18 -24 -32 -50 t-26 -53t-26 -54t-30 -51q-18 -26 -42 -49t-50 -41q-36 -24 -75 -45t-81 -35q-26 -8 -53 -10t-55 -4h-46h-48q-50 2 -103 5t-105 7q-26 2 -54 7t-56 15q-20 8 -44 19t-38 29q-16 18 -23 42q-5 19 -5 36v10zM922 468q4 -8 14 -12q7 -3 13 -3l7 1q28 2 57 8t53 20q28 16 49 39 t41 47q24 26 45 54t35 60q8 20 10 43t2 45q-2 30 -8 61t-16 59q-10 24 -23 46t-29 40q-8 8 -19 11q-5 1 -9 1q-6 0 -12 -2q-16 -6 -28 -20t-20 -28q-14 -24 -24 -50t-18 -52q-16 -44 -30 -89t-28 -89q-14 -36 -29 -72t-25 -72q-4 -10 -8 -23q-2 -6 -2 -12t2 -11z" />
<glyph unicode="S" horiz-adv-x="1162" d="M-80 236q-1 6 -1 13q0 10 2 20q3 17 8 33t12 31t13 31q14 30 30 58t42 48q18 14 38 24t41 18t43 15t44 15q36 12 75 20t77 12q28 2 56 2t54 -4q28 -6 56 -13t50 -23q22 -14 40 -34t26 -44q8 -22 5 -46t-9 -46q-6 -24 -18 -47t-28 -41q-20 -20 -46 -31t-50 -21 q-4 -2 -10 -3t-11 -1t-9 1t-6 5t0 9t5 9l6 8t7 8q14 18 30 32t28 30t22 33t14 37q2 12 -2 24t-10 22q-12 20 -25 39t-33 31q-28 14 -59 21t-63 9q-28 0 -56 -7t-56 -17q-28 -8 -58 -19t-54 -31q-28 -24 -48 -55t-36 -63q-10 -20 -17 -43t-7 -47q-2 -26 2 -52t14 -50 q12 -24 32 -46t42 -40q16 -14 34 -25t38 -17t41 -4.5t43 4.5q28 4 57 12t55 20t52 27t46 35q26 24 47 52t43 56q22 32 45 64t43 64q16 26 30 51t26 51q12 22 24 43t18 43q2 4 3 9t0 10t-2 9t-5 4q-8 4 -16 3l-16 -2t-16 -3t-16 -2q-42 0 -84 1t-84 7q-36 2 -72 6t-68 18 q-32 12 -60 32t-48 46q-16 20 -23 45t-7 49v28t3 28t8 26t13 22q28 32 66 52t78 34q20 8 42 13t45 9t45 6t44 6q34 4 66 6t66 2q8 0 19 1t21 1t19 -2t17 -8q4 -6 0 -9t-12 -6t-17 -5t-15 -4q-22 -4 -44 -2t-42 0q-30 -2 -60 -5t-60 -9q-22 -6 -45 -13t-43 -19 q-20 -14 -37 -33t-31 -39q-14 -18 -25 -39t-11 -43q2 -24 11 -47t27 -39q22 -20 51 -32t57 -20q26 -8 53 -8t53 -2q28 -2 57 -4t57 0q14 0 28 5t28 11q16 8 31 17t25 23q10 10 16 22t12 23t12 23t14 24l52 72t56 68q22 22 47 42t49 38q16 10 33 16t35 12q8 4 19 8 q6 2 10.5 2t8.5 -2q14 -6 25 -16t15 -24q8 -26 9 -56v-7q0 -26 -7 -49q-8 -32 -23 -60t-35 -52q-14 -18 -30 -32t-33 -29t-34 -29t-31 -32q-12 -12 -18 -30l-12 -36q-16 -38 -28 -79t-28 -79q-20 -42 -43 -84t-51 -82q-30 -40 -62 -78t-72 -70q-34 -28 -76 -51t-86 -37 q-50 -16 -102 -23t-104 -9h-16q-24 0 -46 4q-30 6 -62 10q-18 2 -37 3t-38 3t-38 5t-37 9q-32 12 -65 29t-53 43q-26 30 -43 68t-21 78zM1116 818v-4q0 -6 4 -14q2 -3 6 -3h2q6 1 13 5t14 9t11 9q10 10 18 23t14 27q6 10 10 21t4 23q1 5 1 10q0 7 -2 14q-3 12 -9 24 q0 2 -3 5t-6 4l-6 2h-2t-1 -1q-16 -22 -26 -48l-20 -52q-2 -8 -7 -17t-9 -19t-6 -18z" />
<glyph unicode="T" horiz-adv-x="1254" d="M-70 592q-1 10 -1 20t1 20q2 20 10 40q12 34 28 68t36 62q20 24 48 42t54 36q34 20 69 40t73 34q40 16 75 28t75 24q10 2 23 4l26 4l26 4t23 2q44 3 88 3l44 -1l132 -4q30 -2 62 -7t62 -9q46 -4 92 -10t92 -8q23 -1 46 -1h23q35 1 69 3q12 2 25 4t25 5t25 5t25 0 q6 0 12 -6t6 -12q0 -14 -3 -27t-9 -25q-8 -12 -15 -23t-16 -22t-18 -21t-21 -16t-24 -9t-25 -4t-26 -1h-27q-19 -1 -38.5 -1t-39.5 1q-40 2 -78 2h-16h-15t-14 -1t-13 -7q-32 -22 -59 -52t-53 -62q-32 -38 -65 -79t-59 -85q-30 -48 -53 -100t-47 -102q-6 -16 -14 -31 t-14 -31l-12 -32t-8 -32q-2 -26 3 -52t15 -50q6 -20 17 -39t27 -29q22 -12 48 -14t50 0t47 10t45 18q22 12 42 26t36 30q28 24 52 51t46 55q20 30 39 60t35 62q14 24 27 50t21 54q4 16 5 33t-3 31q-4 18 -10 35t-20 27q-18 10 -38 11t-40 -1q-22 -4 -43 -12t-39 -20 q-22 -18 -42 -39t-36 -47q-8 -14 -15 -30t-12 -32t-11 -33t-14 -33q-4 -6 -6 -14t-6 -14l-8 -12t-12 -8q-4 0 -6 3t-4 9t-2 13v11q0 28 3 56t11 54q10 26 28 49t36 45q18 20 38 39t44 33q18 12 39 19t43 11q24 2 50 2t50 -8q22 -6 41 -19t35 -29q16 -18 28 -39t18 -45 q4 -26 3 -52t-9 -50q-10 -36 -27 -70t-37 -66q-24 -36 -51 -73t-63 -65q-42 -32 -92 -57t-100 -41q-46 -16 -95 -21t-97 -7q-28 0 -58 3t-58 15q-14 6 -31 14t-32 18t-28 22t-21 28q-12 22 -21 47t-14 50t-8 51t-3 52v13q0 32 8 62q10 37 24 71q10 32 26 62t36 56 q28 38 60 73t66 67q14 16 31 29t34 27t33 27t32 29q6 6 9 17t-3 17q-8 12 -24 17t-30 7q-54 12 -109 21t-109 13q-40 4 -81 5h-12q-35 0 -69 -5q-28 -4 -54 -18l-52 -28q-20 -10 -42 -22t-36 -32q-14 -14 -21 -35t-13 -41q-4 -12 -9 -24t-9 -25t-7 -25t-3 -26q2 -22 11 -44 t21 -40q12 -20 29 -39t37 -31q18 -12 39 -17t43 -5t45 5t45 11q6 2 9 6t5 8t6 7t8 3q8 4 19 2t17 -8q4 -6 3 -16t-5 -16q-10 -12 -24 -20t-28 -14q-26 -10 -55 -19t-57 -13q-24 -2 -47 -3t-45 7q-28 8 -55 22t-49 32q-16 16 -27 36t-21 40q-8 16 -15 33t-7 35z" />
<glyph unicode="U" horiz-adv-x="1256" d="M-102 704q-2 10 -2 21q0 16 4 34q6 29 20 51q10 16 22 28t25 24t26 22t27 20q28 24 57 46t63 36q38 16 81 24t85 14t85 8t85 2q26 2 53 2t53 -6q30 -8 59 -19t57 -27q22 -14 44 -31t38 -37q20 -28 34 -58t20 -62q4 -26 -2 -51t-14 -49q-18 -56 -42 -110t-48 -106 q-14 -30 -32 -56t-32 -56t-24 -62t-22 -62q-4 -14 -11 -27t-13 -26t-12 -27t-10 -28q-2 -14 -1 -31t9 -31q6 -10 18 -16t22 -8q20 -4 40 -2l40 4t41 3t41 2t40 6t38 15q42 24 78 63t58 85q24 46 45 98t39 107t34 110t30 107q16 66 30 125t27 104t23 75t20 36q16 6 36 9t41 2 t38 -9t25 -26q-8 -22 -21 -67t-33 -106t-46 -134t-56 -149q-26 -62 -55 -123t-62 -119t-68 -109t-75 -93l-25 -25t-27 -24t-30 -19t-32 -14q-64 -20 -132 -24q-23 -1 -45 -1q-45 0 -89 5q-44 6 -86 24t-74 48q-12 12 -22 28t-16 33t-9 36t-3 35q0 30 6 60t15 59t19 57l20 56 q16 44 34 86t37 84t38 85t33 87l12 32t10 33t5 34t-1 33q-4 26 -22 50t-40 38q-24 18 -54 27t-60 13q-12 0 -24 -2t-24 -6l-24 -8l-24 -8q-34 -10 -70 -19t-70 -25q-24 -10 -50 -21t-51 -23t-49 -27t-44 -33q-8 -10 -16 -22t-12 -26t-6 -29t-2 -29q0 -26 11 -51t27 -41 q20 -18 46 -27t52 -11q28 -2 56 4t54 16q42 16 83 34t77 42q4 4 7 9t5 11t4 13t6 11q6 6 12 11t14 5q8 -2 14 -7t8 -11q4 -8 6 -15t3 -14t0 -13t-5 -12q-24 -30 -56 -54t-66 -44q-30 -16 -64 -30t-68 -20t-68 -7h-8q-30 0 -58 7q-30 8 -56 22t-46 36q-22 24 -37 55t-19 63z " />
<glyph unicode="V" horiz-adv-x="1140" d="M-87 661q1 41 7 79q6 34 20 66t32 60q22 32 47 62t55 54q40 26 84 46t88 34q38 12 75 21t75 9q22 0 42 -8t38 -18q20 -12 35 -28t25 -34q10 -12 16 -28t12 -31l12 -30t16 -29q6 -8 18 -10t20 4q14 6 26 17t23 22l22 22l21 21l24 24t23 24t24 24t27 20q18 14 39 21t43 11 q12 2 25 -1t23 -9q12 -10 21 -23t11 -27q2 -20 -2 -40t-14 -36q-14 -26 -35 -47t-43 -37q-14 -8 -28 -15t-28 -12t-29 -10t-29 -13q-8 -4 -17 -8t-18 -10t-16 -12t-11 -14q-6 -16 -9 -32t-4 -33t-1 -34t-4 -33q-10 -50 -23 -101t-29 -101q-16 -42 -37 -84t-39 -84 q-6 -14 -14 -28t-15 -29t-13 -28t-10 -25q10 8 22 20t24 28l24 32t24 30q22 28 45 54t45 54l104 124t100 126q28 34 54 71t51 74t51 74t54 71q26 32 54 63t58 57q12 12 24 23t25 21t27 18t28 12q16 5 33 5q9 0 18 -1q27 -4 49 -14q16 -8 26 -24t16 -34q6 -16 6 -34t-6 -34 t-19 -28t-29 -20q-12 -6 -28 -5t-32 1q-4 0 -11 3t-13 5t-11 3t-9 -3q-32 -36 -62 -75t-57 -79t-56 -79t-59 -77q-48 -56 -96 -113t-97 -112t-100 -109t-105 -104q-32 -30 -67 -56t-72 -51t-74 -48t-75 -45q-20 -12 -41 -22t-45 -18q-7 -1 -15 -1h-8q-13 1 -23 5q-6 0 -11 2 t-10 5t-8 6t-3 7q2 14 7 25t11 22t13 23t13 22q18 38 36 75t34 75q16 34 32 69t28 71q10 24 16 49t16 49q16 42 36 83t38 83q8 20 20 40t23 40t19 41t10 45q2 8 -5 10t-16 4t-19 3t-16 5q-24 18 -48 38t-42 44q-10 14 -18 32t-16 35t-17 33t-21 28q-8 8 -17 10t-19 2t-21 -2 t-19 -4q-26 -10 -53 -20t-53 -21t-50 -26t-46 -33q-38 -32 -67 -75t-49 -89q-12 -32 -16 -66q-1 -10 -1 -19q0 -24 7 -47q4 -12 11 -22t16 -19t20 -15t21 -10q28 -8 58 -4t54 14q36 18 67 44t55 56q12 16 21 33t18 35t16 36t15 36q2 6 4 14t3 15t3 14t6 15q2 4 5 9t7 9t9 7 t9 3q6 0 11 -3t9 -8t7 -10t3 -11q1 -14 1 -28q0 -21 -2 -43q-3 -37 -15 -69q-10 -26 -20 -51t-23 -49t-28 -46t-33 -42q-32 -30 -74 -47t-86 -23q-10 -1 -21 -1q-26 0 -52 7q-37 10 -67 28q-24 14 -43 37t-27 49q-9 35 -9 72v7zM736 842h24t24 4q22 8 45 18t43 24 q18 14 35 32t29 38q8 12 14 26t6 28q0 12 -6 23t-14 17t-19 9q-5 1 -9 1q-6 0 -10 -2q-20 -6 -38 -18t-32 -28q-20 -22 -35 -49t-29 -55q-8 -16 -15 -34t-13 -34z" />
<glyph unicode="W" horiz-adv-x="1438" d="M-100 720q2 26 9 53t21 49q16 24 39 42t45 36l52 40t56 34q34 16 70 25t72 17q38 8 77 12t77 4q42 2 84 2t82 -8q30 -6 59 -19t55 -29q28 -16 55 -36t47 -46q16 -22 24 -49t10 -53q2 -24 -3 -49t-11 -49q-14 -42 -31 -84t-35 -84q-10 -20 -21 -40t-23 -40t-23 -40 t-19 -42q-18 -40 -32 -83t-30 -85q-4 -12 -9 -21t-10 -19t-9 -21t-6 -21q-2 -14 4 -29t16 -25q10 -8 26 -9t30 -1q10 0 20 5t20 9q6 4 15 8t11 12q4 18 5 35t1 35t1 36t3 34q6 46 13 92t21 90q12 40 30 77t38 71q18 30 40 58t46 52q20 18 41 35t45 25q14 4 30 1t26 -11 q16 -12 26 -30t14 -36q8 -28 8 -58v-58q-2 -22 -4 -43t-10 -41q-6 -24 -18 -48t-26 -48q-14 -28 -31 -57t-37 -55q-14 -20 -32 -37t-34 -35q-14 -16 -27 -32t-25 -34q-2 -4 -6 -9t-7 -11t-4 -11t3 -9q10 -12 28 -18t36 -6q20 0 38 9t36 21q22 16 44 35t42 41q24 26 46 54 l44 56q8 14 15 28t15 28q2 4 5 8t6 7t4 7t1 8q-2 6 -5 11t-8 10t-9 10t-8 11q-10 24 -20 50t-18 54q-8 26 -15 55t-9 57q-2 26 1 52t5 52l4 32t6 32l12 44t16 44q6 18 15 37t21 35q16 18 36 35t40 33q10 8 22 17t26 13q14 2 29 -1t27 -7q18 -6 34 -14t28 -20q14 -12 25 -28 t17 -34q8 -22 13 -45t7 -45q0 -32 -3 -64t-9 -62q-4 -20 -12 -38l-16 -36q-12 -34 -25 -67t-29 -65q-12 -30 -26 -59t-30 -57q-2 -4 -5 -7t-6 -5t-6 -5t-3 -7q0 -12 5 -23t7 -21q2 -6 5 -10t5 -9t3 -9t1 -10q-2 -8 -10 -16t-18 -10q-12 -4 -24 0t-22 6l-4 4t-3 4t-3 3t-2 -1 q-10 -8 -18 -18t-16 -21t-16 -21l-16 -20q-20 -20 -40 -38l-40 -36q-10 -10 -21 -22l-22 -24t-22 -22t-25 -18q-20 -14 -45 -21t-51 -9q-26 -6 -52 -10t-52 0q-12 2 -20 9t-14 15q-4 4 -5 7t-2 7t-2 7t-5 5t-10 -3t-12 -7q-8 -6 -17 -13t-17 -13t-17 -12t-19 -10 q-26 -8 -53 -12q-18 -3 -36 -3q-9 0 -19 1q-24 2 -49 10t-47 22q-24 14 -46 34t-36 44q-14 26 -21 54t-7 58q0 20 8 41t14 41l24 76t26 74q20 58 45 113t47 111q12 32 26 63t24 63q6 24 9 50t3 50q-2 14 -7 27t-13 23q-14 16 -30 30t-34 24t-40 14t-44 6q-16 0 -31 -5 t-31 -7q-28 -6 -55 -10t-53 -12q-36 -14 -69 -32t-67 -36q-16 -8 -33 -16l-34 -16t-33 -18t-28 -24q-16 -16 -24 -40t-12 -48q-2 -16 2 -33t10 -33q8 -14 19 -26t27 -20q20 -12 42 -18t46 -8q22 0 44 8l44 16q24 6 48 13t48 17q20 12 41 25t39 27q4 4 8 10l8 12t7 11t9 9 q4 4 12 6t12 -4q8 -8 13 -20t5 -24t-6 -25t-14 -21q-20 -20 -43 -35t-47 -29q-30 -16 -59 -32t-61 -24t-64 -9h-21l-43 1q-26 2 -51 9t-45 21q-22 14 -39 36t-29 44q-12 20 -19 42t-7 44zM837 298v-10q0 -19 3 -36v-12t1 -11t3 -9t8 -4q6 2 10 6t7 9t6 11t5 12q18 24 34 49 t30 51q14 24 27 48t23 48q8 22 16 46t12 48q4 16 7 34t3 34q0 12 -1 24t-9 20q-4 6 -12 4t-14 -6q-10 -6 -18 -17t-14 -21l-28 -44t-26 -46q-12 -26 -22 -54t-22 -56q-8 -18 -15 -35t-9 -37q-4 -22 -5 -46zM1182 682q0 -28 1 -55t7 -53q2 -20 10 -38t14 -36q4 -14 8 -27 t10 -25q2 -4 3 -10t4 -12t6 -9t7 -3q8 0 13 4t9 10t7 13t7 11q16 36 29 73t25 75q12 42 25 85t21 87q4 26 4 53t-2 53t-7 52t-15 48q-4 8 -13 14q-7 4 -14 4h-5q-14 -4 -24 -14l-20 -20q-16 -20 -29 -41t-25 -43l-21 -42t-17 -44q-8 -26 -12 -54t-6 -56z" />
<glyph unicode="X" horiz-adv-x="1346" d="M-46 96q0 22 8 42t20 36q26 34 57 63t65 53q42 32 87 59t91 49t94 38l96 32q34 12 69 22t69 20q16 26 31 55t33 55q14 20 29 39l30 38t30 39t27 40q10 16 18 34t8 36q2 8 1 17t-2 17t-5 16t-10 12q-6 6 -16 9t-19 4t-20 2t-19 1q-66 10 -131 20t-131 12q-38 2 -77 2 t-75 -12q-30 -10 -58 -28t-44 -44q-28 -46 -42 -98t-18 -106q0 -14 2 -29t7 -29t12 -28t15 -26q4 -10 13 -17l18 -14t17 -14t12 -17q4 -6 5 -12t1 -13t-3 -13t-7 -8q-8 -6 -19 -9t-21 -5t-20 0t-18 8q-38 32 -67 75t-41 91q-6 22 -7 47t1 50t8 49t16 46t24 39t32 33t37 30 t37 28q22 20 50 33t54 27q18 8 35 18t34 19t35 16t36 9q27 1 52 1h26q38 -1 77 -5t78 -10t77 -10l24 -4t23 -5t22 -8t19 -13q18 -16 29 -40t11 -50q2 -18 -1 -36t-7 -36l-8 -36l-8 -36q46 38 91 78t95 72q46 32 96 58t100 50q28 14 57 24t59 16q12 4 26 7t28 5q9 1 18 1h9 q13 -1 27 -5q20 -4 34 -22t24 -36t13 -40q2 -13 2 -26q0 -8 -1 -16q-4 -24 -14 -48t-26 -44q-30 -32 -66 -60t-74 -52q-54 -34 -110 -62t-114 -52q-24 -10 -48 -17t-49 -14l-50 -14t-49 -17q-30 -12 -58 -27t-58 -29q-4 -16 -10 -31t-8 -31q-8 -46 -15 -91t-9 -91 q-1 -23 -1 -46.5t1 -46.5q2 -47 8 -93q0 -6 2 -13t5 -14t7 -13t10 -8q24 -10 52 -10t52 8q14 4 26 12t23 18t21 20t22 16q18 14 36 26t40 18q12 4 28 5t28 -7q6 -4 10 -10t7 -14t3 -15t-4 -13q-4 -8 -12 -13t-17 -8l-18 -6t-17 -7q-36 -20 -72 -39t-74 -33q-28 -10 -57 -14 t-59 -4q-16 0 -32 -1q-8 -1 -16 -1l-16 1q-16 1 -32 4t-30 11q-26 14 -47 38t-31 54q-6 22 -7 45t-1 46t2 47t2 48q-10 -18 -17 -36t-15 -36t-17 -35t-21 -31q-26 -28 -60 -46t-70 -32q-40 -14 -82 -20t-84 -10q-52 -6 -103 -8h-25q-38 0 -76 4q-24 4 -45 12t-37 24 q-12 14 -16 33q-3 13 -3 25q0 6 1 12zM-3 92q0 -3 -1 -7q0 -6 2 -12q2 -9 4 -17q4 -6 11 -9t15 -5t17 -2h17q26 0 51 3t51 11q36 10 74 23t70 33q36 20 68 45t58 55q36 42 64 89t56 95q4 8 7 19t5 21q-38 -10 -77 -20t-79 -24q-28 -8 -57 -20t-57 -26q-30 -12 -58 -27 t-56 -31q-34 -22 -69 -44t-65 -48q-14 -14 -26 -30t-18 -36q-2 -8 -4 -17t-3 -19zM828 560q60 20 122 38t122 40q54 20 107 43t103 49q40 22 79 47t73 55q22 20 39 44t27 52q2 9 2 20q0 8 -1 17q-3 21 -13 35q-2 4 -8 6t-12 3q-3 0 -6.5 0.5t-6.5 -0.5q-7 -1 -13 -1h-24 t-24 -1t-24 -4t-22 -9q-70 -40 -134 -92t-126 -104q-68 -56 -132 -117t-128 -121z" />
<glyph unicode="Y" horiz-adv-x="1318" d="M-108 562q12 48 32 94t48 88q24 36 58 66t70 58q42 32 87 61t93 53q34 16 69 30t73 20q31 5 63 5h11q38 -1 72 -11q48 -12 95 -33t87 -51q24 -18 41 -46t27 -56q10 -32 11 -66v-8q0 -30 -7 -58q-4 -18 -10 -37t-15 -37l-18 -36t-19 -36q-30 -66 -65 -129t-65 -127 q-18 -42 -37 -86t-31 -90q-2 -8 -2 -17t1 -17t4 -16t9 -12q26 -18 57 -24t61 -4q44 2 85 14t79 30q30 14 58 34t44 46q40 62 70 130t56 136q12 36 21 71t18 71t17 72t16 70q8 28 14 57l12 58t14 57t18 56q2 8 6 17t10 17t13 14t15 8q26 6 53 1t49 -17q8 -4 14 -11t10 -14 t5 -16v-6q0 -6 -1 -11q-8 -40 -22 -80t-29 -80t-31 -79t-30 -79q-18 -48 -34 -96t-32 -97t-33 -97t-37 -96q-22 -52 -52 -103t-62 -101q-26 -40 -52 -84l-52 -88t-54 -86t-62 -80q-24 -28 -52 -56t-59 -55t-63 -51t-64 -42q-62 -40 -128 -67t-138 -41q-44 -10 -75 -17 t-56 -12t-47 -8t-48 -3q-12 0 -25 1t-25 6t-20 13t-12 20q-4 10 1 22t14 24t22 21t23 11q24 10 44 10t42 -1t51 0t73 15q62 18 122 43t114 59t100 79t88 91q42 48 78 101t74 103q6 10 11 20t11 20q-12 -6 -24 -13t-26 -9q-24 -4 -48 -7t-48 -5t-48 -3t-48 3q-26 4 -51 9 t-50 14t-48 19t-43 24q-14 10 -24 23t-17 28t-11 31t-6 32v15q0 43 9 85q11 50 25 98q12 34 26 67t29 65l30 64t29 66q12 28 25 58t24 59t21 59t14 62q2 12 0 25t-7 25t-12 24t-15 22q-6 10 -14 20t-17 19t-20 16t-21 7q-23 4 -47 4q-20 0 -40 -3q-43 -7 -83 -23 q-34 -12 -68 -27t-67 -32t-63 -37t-58 -46q-22 -20 -41 -45t-34 -52t-28 -55t-25 -58q-6 -16 -10 -35t-4 -37t3 -36t11 -34q10 -14 23 -24t28 -17t33 -12t34 -9q22 -6 46 -7t44 7q32 14 59 37t49 49q12 12 21 28t17 32t17 32t17 32l20 32t20 31t21 30t25 27q6 4 15 8t18 5 t18 -1t17 -6q6 -6 8 -13t2 -16t-2 -18t-2 -17q-10 -42 -21 -84t-31 -80t-46 -72t-62 -58q-36 -26 -80 -40t-88 -18h-15q-36 0 -72 8q-43 10 -81 26q-30 14 -56 36t-40 50q-13 24 -13 52q0 29 7 62z" />
<glyph unicode="Z" horiz-adv-x="902" d="M-166 -512q-1 10 -1 20q0 22 6 43q9 31 21 59q18 34 42 64t50 58q30 32 63 62t69 58q30 26 63 51t71 41q32 12 67 16t71 4q14 2 30 -3t31 -10t30 -7t29 4q14 4 24 14t18 23t15 26t13 25q12 26 21 55t9 59q0 26 -9 53t-27 47q-14 16 -38 25t-48 13q-14 4 -30 1t-30 -9 q-10 -6 -19 -13t-18 -15l-18 -16t-19 -12q-6 -6 -15 -12t-17 -10t-16 -6t-16 2q-8 2 -11 10t-4 17t0 19t1 18q4 22 13 43t23 39q20 26 41 49t44 45l46 44t45 44q20 20 41 38t42 37t39 39t34 42q8 14 13 28t8 30t4 32t1 32q0 14 -3 30t-15 26q-14 12 -33 16t-35 2 q-12 -2 -22 -8t-20 -13t-20 -13t-20 -10q-24 -8 -49 -13t-51 -5q-28 2 -56 8t-52 22q-24 18 -42 45t-32 55q-6 16 -8 33t4 33q16 34 38 66t48 60q8 6 22 6t22 -6q6 -6 10 -12t7 -13l6 -14t7 -13q12 -20 24 -39t28 -35q8 -8 20 -12t24 -6q25 -3 51 -3q13 0 26 1q39 2 77 2 q42 2 85 6q29 3 57 3q14 0 28 -1h24t24 -2t24 -5t22 -9q6 -4 8 -10t3 -12q0 -3 0.5 -6.5t-0.5 -6.5q-1 -7 -3 -13q-12 -36 -28 -72t-40 -66q-22 -30 -46 -56t-50 -52t-52 -51t-52 -49q-14 -16 -31 -30t-33 -27t-32 -28t-28 -33q-12 -16 -17 -39t-1 -43q6 -20 23 -35t33 -25 t33 -18t34 -15l34 -14t33 -15q18 -8 38 -16t39 -16t37 -18t34 -22q18 -16 27 -38t15 -46q8 -24 11 -51t-3 -53q-4 -28 -19 -56t-31 -54q-18 -30 -36 -61t-36 -61t-39 -58t-45 -54q-30 -32 -63 -60t-67 -55t-70 -52t-72 -49q-50 -36 -104 -68t-112 -54q-36 -12 -75 -15 q-13 -1 -26 -1q-25 0 -49 4q-28 4 -57 17t-51 35q-22 24 -37 56t-19 64zM-110 -482q0 -22 1 -44t9 -42q6 -16 18 -32t30 -24q22 -12 48 -14q13 -1 26 -1l26 1q32 4 63 11t55 25q16 12 29 28t26 33t24 35t23 34t25 31l26 30t24 31t21 34q22 40 36 84l28 88q8 20 18 43t18 43 q-26 6 -56 10t-58 4q-32 0 -67 -2t-65 -16q-36 -14 -66 -38l-60 -48q-32 -28 -62 -58t-58 -64q-18 -22 -35 -49t-29 -55q-8 -18 -12 -38t-6 -40z" />
<glyph unicode="a" horiz-adv-x="736" d="M15 202v14q0 27 3 52q8 36 22 71t34 65q26 38 60 70t72 58q28 20 61 33t67 21q32 6 67 6t69 -4q26 -2 53 -2t53 -2t52 -7t50 -15q8 -4 14 -12t9 -18t4 -21t-1 -19q-4 -24 -11 -45t-17 -42l-20 -42t-18 -41q-14 -36 -32 -70t-30 -70q-4 -14 -7 -31t1 -33q4 -10 14 -20 t24 -14q10 -4 23 1t23 11q30 14 54 38q4 6 9 13t9 15t8 15t10 11q2 2 6 4t7 3t7 1t4 -2q9 -14 9 -32q0 -13 -5 -22q-18 -30 -42 -57t-54 -45q-28 -18 -61 -29t-67 -11q-30 0 -58 11t-54 25q-6 4 -11 10t-10 13t-9 15t-10 12q-4 6 -9 10t-9 4q-12 -4 -20 -12t-18 -14 q-8 -8 -15 -17t-15 -18t-16 -17t-18 -12q-24 -8 -53 -11q-12 -1 -24 -1q-16 0 -31 2q-24 4 -46 17t-38 29q-20 20 -36 43t-24 49q-8 32 -9 66zM213 154v-9q0 -17 3 -33q2 -10 7 -20t15 -12h5q9 0 18 6q11 8 19 16q30 36 59 75t51 83q24 46 41 95t27 99q2 7 2 14q0 11 -4 22 q-6 18 -16 32q-4 7 -13 7h-2q-11 -1 -19 -3q-20 -8 -37 -19t-29 -27q-24 -30 -42 -64t-32 -70q-16 -36 -28 -73t-20 -75q-4 -22 -5 -44z" />
<glyph unicode="b" horiz-adv-x="696" d="M-23 136q0 12 5 20q2 6 6 8t8 5t8 5t8 6q16 16 32 34t26 40q10 20 18 42t14 44t13 45t13 43q28 76 57 152t55 152q10 30 18 60t17 61t18 60t23 57q6 12 14 21t18 17t21 15t21 15q12 6 26 10t28 4q8 0 18 -1t19 -3t17 -6t14 -10q14 -14 18 -35t2 -41q-2 -16 -6 -33 t-10 -33t-13 -32t-11 -32q-12 -38 -28 -76l-32 -76t-32 -75t-30 -75q-22 -60 -40 -119t-36 -119q-14 -40 -22 -82t-8 -86q-2 -14 4 -28t18 -22t23 -13t23 -7t28 -1t36 5q12 2 24 9t18 17q8 10 12 19t14 19q-2 14 -10 28t-16 29l-16 30t-12 27l-16 60t-8 60q-2 30 2 60t12 60 q8 24 19 49t29 43q18 16 43 28t49 10q14 -2 30 -6t31 -11t27 -17t20 -22q12 -18 19 -37t11 -39t5 -41t-1 -41q-2 -22 -9 -43t-16 -41t-19 -41t-18 -41q-4 -14 -10 -29t-14 -27q-6 -8 -5 -12t5 -6t9 -3t9 -1q8 -4 17 -5t17 1q12 4 20 11t18 11q6 0 13 2t11 -2q2 -5 2 -9 q0 -3 -1 -7q-3 -8 -9 -12q-12 -12 -27 -18t-31 -10q-20 -6 -42 -8t-42 -6q-8 -2 -17 1t-19 5t-18 -1t-14 -15q-8 -14 -21 -27t-27 -21q-20 -12 -40 -22t-42 -12q-30 -6 -62 -6t-62 6q-24 4 -45 16t-39 28q-10 8 -16 18t-12 21t-13 21t-15 18q-6 8 -16 13t-20 5q-8 2 -15 -3 t-15 -9q-10 -6 -17 -16t-17 -14q-4 -2 -10 1t-6 9q-5 16 -5 30zM460 372q0 -22 2 -42q0 -26 5 -53t15 -51q2 -10 8 -18t10 -16q5 -9 10 -9h1q5 1 10 6t8 13t5 10q12 18 20 37t14 39q6 22 10 44q3 15 3 29q0 7 -1 15q-2 16 -8 32t-16 28q-6 6 -16 10q-5 2 -9.5 2t-8.5 -2 q-16 -4 -31 -12t-23 -22q-8 -18 -8 -40z" />
<glyph unicode="c" horiz-adv-x="602" d="M-68 53q-1 4 -1 8t1 7q4 6 9 11t10 9l10 8t11 10q8 10 18 22t14 24q4 6 6 12t2 12q4 20 5 40l2 40t5 39t12 37q14 36 40 67t52 61q26 26 54 53t62 43q16 8 34 14t36 9t37 6t37 7q18 2 37 3h13q12 0 24 -1q12 -2 27 -4t28 -5t26 -8t25 -13q18 -14 28 -38t14 -46 q4 -14 4 -29q0 -10 -2 -20q-4 -25 -12 -49q-2 -10 -9 -22t-19 -16q-30 -6 -61 -3t-63 7q-10 0 -20 4t-16 14q-4 6 -5 13t-2 15l-2 16t-5 14t-9 11t-11 10t-13 7t-13 0q-10 -4 -17 -10t-13 -15l-12 -18t-12 -19q-20 -32 -40 -66t-32 -70q-10 -30 -14 -60t-2 -60q2 -18 8 -38 t20 -32q18 -14 41 -21t45 -7q32 2 64 11t60 23q26 12 45 33t39 41q6 4 9 11t7 13t9 12t11 10q4 2 10 3t11 1t10 -2t7 -8q6 -16 2 -36t-12 -34q-12 -20 -30 -34t-38 -22q-38 -18 -77 -32t-79 -22q-34 -6 -68 -9q-15 -1 -29 -1l-39 2q-14 2 -26 5t-25 8t-25 11l-24 12 q-18 8 -35 19t-35 17q-14 4 -28 5t-26 -3q-6 -2 -10 -6t-9 -10t-10 -10t-11 -8q-8 -2 -17 -2t-15 6q-6 4 -8 13z" />
<glyph unicode="d" horiz-adv-x="796" d="M-46 103q2 11 8 19q4 8 12 15t17 14t16 13t15 14q4 6 7 14t5 16q14 36 25 73t29 71q20 40 44 77t54 69q26 28 56 50t64 36q14 6 30 8t31 3t31 0t32 -1q22 0 43 -7t43 -9h13t9 6q18 34 31 70t27 72l20 60t19 60t20 59t23 57q6 10 16 16t20 8q9 3 19 3l9 -1l28 -4 q10 -2 22 -2t23 -1t21 -4t18 -11q8 -6 11 -16t4 -20v-7q0 -7 -1 -13l-4 -20q-8 -34 -19 -67t-23 -66t-25 -66t-25 -65q-30 -84 -59 -167t-61 -165q-6 -20 -15 -38t-17 -36t-16 -37t-10 -39q-4 -14 3 -29t15 -27q4 -8 13 -15t19 -9q12 -2 24 2l24 8q8 4 15 2t11 -6t4 -9 t-2 -7q-18 -16 -42 -23t-46 -13q-24 -6 -50 -8t-52 0q-16 2 -33 9t-31 17q-8 6 -13 14t-11 17t-11 18t-11 15l-9 9t-9 3q-18 -12 -33 -26t-25 -32q-14 -26 -33 -42t-41 -16q-14 0 -28 -2q-5 -1 -9 -1q-9 0 -17 3q-24 6 -46 18t-42 24q-22 12 -43 28t-33 32q-2 2 -6 3t-8 1 t-9 -1t-7 -3q-6 -2 -10 -5t-8 -8t-8 -8t-10 -5t-16 1t-14 9q-3 7 -3 14q0 3 1 7zM233 152q1 -28 9 -54q0 -4 4 -9t9 -8t10 -5t9 -2q24 6 46 19t38 31q24 30 40 66l32 72q18 42 35 84t27 88q4 20 4 43t-10 41q-2 6 -6 10t-10 6t-11 3t-11 1q-20 -6 -37 -20t-31 -30 q-26 -36 -48 -76t-42 -80q-14 -30 -29 -61t-23 -63q-5 -24 -5 -48v-8z" />
<glyph unicode="e" horiz-adv-x="602" d="M-54 108q-1 3 -1 5q0 6 3 12q4 9 8 17q8 14 17 27t19 25q4 6 9 10t5 12q4 10 1 22t-1 22q6 30 12 59t20 53q18 34 42 63t54 55q26 22 57 40t63 32q26 12 53 20t53 12q10 1 21 1q15 0 30 -2q25 -3 49 -9q10 -4 23 -7t24 -7t22 -10t19 -16q16 -18 23 -44t5 -52 q-2 -28 -15 -54t-29 -50q-10 -18 -26 -33t-34 -25q-24 -14 -48 -24t-49 -20l-50 -20t-51 -22q-6 -4 -15 -7t-17 -6t-15 -8t-11 -11q-8 -16 -8 -34t4 -36q2 -12 10 -22t20 -16q24 -10 51 -14t53 -4q22 2 45 8t43 16q30 14 56 36t52 42q16 12 28 27t28 27q6 4 15 7t13 -3 q8 -8 8 -23q0 -9 -6 -15q-30 -32 -66 -61t-74 -53q-24 -14 -50 -25t-52 -17t-51 -11t-51 -5q-8 -1 -16 -1q-17 0 -36 3q-28 4 -54 8q-22 6 -44 18t-42 28q-6 6 -12 13t-11 15l-10 16t-11 14l-12 12t-14 6q-10 0 -17 -6t-13 -12q-4 -2 -7 -6t-5 -8t-5 -7t-7 -1q-8 0 -14 8 t-8 16zM243 257q1 -5 3 -9t6 -4q4 -2 9 -2q6 0 14 3q13 5 23 11q22 14 43 30t39 36q16 16 29 35t21 39q10 26 18 52t10 52q1 5 1 9q0 11 -4 21q-5 14 -15 26q-4 4 -13 4t-15 -2q-10 -4 -18 -10t-16 -14q-20 -22 -40 -46t-38 -50q-12 -20 -21 -41t-17 -45q-6 -18 -11 -38 t-7 -40q0 -4 -1 -8v-4.5v-4.5z" />
<glyph unicode="f" horiz-adv-x="414" d="M-82 -176q2 26 8 52q6 28 16 55t20 53t20 53t18 55v12t-6 8q-4 0 -9 -2t-9 -4t-9 -4t-9 -4q-8 0 -16 2t-10 8q-2 8 0 18t6 16q18 28 40 51t42 47q12 14 26 27t22 29q6 14 10 29t7 30l6 30t7 29q26 84 54 168l56 168q8 24 14 49t12 49t15 48t21 44q6 10 15 17t20 11t23 7 t24 7q8 0 17 1t18 1t17 -3t12 -9q20 -20 30 -48t12 -56v-24q0 -43 -5 -87q-7 -57 -21 -111q-14 -50 -38 -97t-48 -93q-10 -18 -23 -34t-25 -32t-23 -33t-17 -35q-8 -24 -13 -48t-8 -49t-4 -49t-3 -50q0 -10 2 -23t10 -19q12 -10 28 -15t32 -1q4 0 7 5l6 10t5 10t6 9 q10 8 20 15t22 3q4 0 8 -3t7 -8t4 -10t-1 -9q-8 -20 -21 -38t-33 -28q-14 -8 -31 -13t-35 -8t-36 -7t-34 -8q-4 0 -9 -1t-9 -1t-8 -2t-6 -6q-10 -20 -18 -43l-16 -46l-16 -46t-18 -45q-10 -18 -23 -35t-31 -29q-14 -8 -33 -14q-9 -3 -18.5 -3t-18.5 3q-16 4 -30 20t-18 32 q-6 21 -6 42v10zM212 566v-11q0 -17 4 -33q6 -22 16 -42q4 -6 14 -6t14 4q18 14 33 32t25 40q20 44 37 91t31 93q8 30 15 62t9 64q1 7 1 14.5t-1 16.5q-2 17 -8 31q-4 8 -14 13q-7 4 -13 4q-3 0 -5 -1q-14 -4 -26 -13t-18 -23q-8 -14 -13 -31l-10 -34t-10 -35t-11 -34 q-10 -30 -23 -60t-23 -62l-16 -40t-8 -40z" />
<glyph unicode="g" horiz-adv-x="734" d="M-48 72q-1 5 -1 10q0 7 2 14q3 12 9 24t16 21t18 21q4 14 9 29t9 31q6 16 9 32t7 32l8 32t12 30q16 32 39 61t51 53q28 26 62 47t68 39q28 12 58 22t60 12q12 0 26 -2t27 -6l26 -8t27 -6q10 -2 21 -7t23 -5q6 0 12 5t12 7q20 4 41 6t41 0q8 -2 18 -3t18 -4t16 -8t12 -13 t5 -17t-1 -18t-4 -19t-4 -18q-12 -46 -28 -92t-32 -90q-14 -38 -30 -75t-32 -75q-2 -6 -7 -13l-10 -14t-7 -14t2 -15q2 -6 9 -7t15 -1t16 2t14 4q22 6 44 16t42 22q12 10 22 22t24 22q4 2 11 4t9 -2q6 -8 6 -19t-6 -19q-8 -16 -22 -27t-28 -21q-30 -20 -62 -40t-64 -36 q-14 -8 -29 -13t-29 -10t-28 -12t-26 -17q-8 -8 -13 -18t-8 -22t-7 -24t-12 -20q-30 -42 -62 -82t-74 -70q-26 -20 -58 -30t-64 -14q-7 -1 -15 -1q-15 0 -30 3q-23 4 -41 16q-14 12 -23 32t-9 40q-2 22 4 45t20 41q10 14 23 24l26 20t27 19t26 21q20 16 41 32t35 36q4 4 0 9 t-10 7q-4 2 -8 -3t-10 -5q-22 -2 -45 -4t-45 2q-24 2 -48 10t-44 24q-4 4 -6 11t-3 15l-2 16t-5 14q-4 4 -11 2t-11 -4q-6 -6 -9 -13t-7 -13q-2 -4 -5 -8t-6 -7t-7 -5t-8 -2q-10 2 -15 12t-7 20zM141 -236q1 -16 9 -28q6 -8 18 -9h5q9 0 15 3q18 8 33 22t25 30t15 35t5 39 q2 6 -3 13t-11 9q-6 4 -12 4t-12 -4q-14 -8 -26 -19t-24 -23l-20 -20t-14 -22q-3 -11 -3 -24v-6zM222 114q2 -8 12 -17q8 -7 16 -7h4q18 0 35 9t29 23q32 38 58 82t48 90q20 40 38 84t26 88q0 6 -3 11t-7 10t-10 9t-10 8q-6 6 -14 8t-16 2q-14 -4 -27 -11t-25 -15 q-14 -14 -27 -30t-23 -34q-18 -30 -33 -62t-29 -64q-10 -26 -18 -53t-14 -53q-4 -20 -9 -39q-3 -11 -3 -21q0 -9 2 -18z" />
<glyph unicode="h" horiz-adv-x="792" d="M-53 116q1 8 5 12q10 14 22 25l24 22t23 23t21 26q30 46 52 95t44 99q20 50 39 102t37 104q8 28 16 57l16 58l16 58t20 57q14 36 34 70t42 66q4 6 12 9t16 3q18 2 37 2t39 -4q6 -2 14 -4t15 -5t13 -7t8 -10q10 -26 7 -54t-7 -56q-12 -58 -31 -115t-39 -115q-4 -14 -9 -27 t-11 -26t-11 -26t-7 -27q-2 -4 4 -10t12 -6q8 4 16 9t15 11t15 11t16 9q12 6 25 12t26 11t26 8t27 3q26 0 52 -9t46 -27q10 -10 19 -23t15 -26t10 -28t2 -29q-2 -22 -9 -44t-17 -42t-21 -40t-21 -40q-8 -16 -17 -31t-19 -30t-19 -30t-13 -31q-6 -18 -5 -38t7 -36 q2 -8 10 -14t16 -8q12 -2 24 0t22 8q18 10 35 25t33 31q8 6 13 15t11 17l12 16t14 16q6 4 16 5t12 -5q4 -6 4 -14v-5q-2 -11 -8 -19q-28 -34 -59 -64t-65 -58q-16 -14 -35 -25t-39 -15q-17 -4 -36 -4q-9 0 -18 1q-28 3 -54 9q-10 2 -22 4t-23 5t-20 8t-15 15q-8 12 -13 26 t-8 29t-4 31t-1 30q0 30 5 58t13 56q6 16 14 30t17 28t18 29t15 29t11 29t5 29q0 4 -1 8t-3 8t-5 7t-7 1q-16 -2 -31 -12t-25 -22q-26 -32 -47 -68t-39 -72q-14 -28 -25 -57t-22 -57t-23 -57t-26 -57q-4 -8 -9 -16l-10 -16t-12 -14t-17 -8q-12 -4 -25 -5t-27 -1t-28 2l-28 4 q-18 2 -37 7t-33 15q-8 6 -10 16t-4 18v9t1 9t0 8t-3 6q-2 4 -6 3t-8 -3l-8 -4t-8 0q-6 2 -12 8t-10 12q-1 4 -1 9v5z" />
<glyph unicode="i" horiz-adv-x="390" d="M-46 116q-1 4 -1 8.5t1 9.5q2 10 6 18q2 6 7 11t10 9l10 8t9 10q16 26 33 54t31 58q22 46 39 96t39 98q8 24 19 46t25 42q2 4 9 6t11 2h50t48 -6q14 -2 28 -9t22 -19q8 -10 9 -23t-1 -25q-6 -36 -17 -71t-25 -69q-6 -20 -15 -38t-18 -37l-18 -38t-15 -39q-8 -28 -15 -60 q-5 -25 -5 -50v-14q0 -8 8 -13t16 -7q14 -4 29 -5t29 5q6 2 11 7t11 10t11 11t11 8q6 4 14 4t12 -4q4 -2 7 -7t5 -10t2 -9t-4 -8q-20 -22 -48 -39t-56 -27q-30 -10 -62 -15q-18 -3 -35 -3q-14 0 -27 2q-28 2 -54 10t-46 24q-10 8 -15 17t-8 20l-6 22t-9 21q-2 4 -4 10t-6 6 t-6 -3t-3 -6t-3 -7t-4 -6q-4 -4 -13 -9t-17 -3t-11 10t-5 16zM254 884q0 14 7 28t19 24q10 12 26 16t32 10q6 4 13 8t15 4q10 -2 20 -3t19 -3t18 -5t15 -11q14 -16 20 -40q4 -18 4 -36v-12q-2 -16 -13 -31t-25 -23q-18 -14 -42 -20q-18 -4 -36 -4h-12q-18 2 -34 13t-28 25 q-10 12 -15 28q-4 11 -4 23q0 4 1 9z" />
<glyph unicode="j" horiz-adv-x="360" d="M-302 -224q4 18 10 35t16 31q12 16 30 27t34 23l56 48t58 46q22 18 47 35t43 39q10 14 15 30t9 32q2 2 0 1t-3 -2l-4 -4l-3 -3q-4 -4 -6 -10t-6 -11t-8 -9t-10 -4q-4 0 -8 4t-6 10t-4 13t-4 11q-2 8 -5 15t1 15q8 14 21 24t23 22t24 24t22 28q12 28 23 58t22 59t21 59 t22 60q10 26 21 51t27 47q6 8 17 10t19 4h16h16q16 -2 33 -2t31 -6q14 -4 26 -13t18 -23q8 -12 8 -27t-4 -27q-8 -40 -24 -78t-30 -76q-14 -36 -30 -69t-28 -67q-6 -16 -9 -33t-5 -35q0 -6 -1 -14t-2 -15t0 -14t5 -13q4 -4 9 -6t10 -3t12 -1h11q10 0 21 1t19 5q10 4 17 14 t17 16l12 4t12 0t11 -7t7 -11q2 -4 3 -9t-3 -9q-8 -12 -20 -22t-24 -16q-30 -14 -61 -25t-61 -19q-20 -8 -41 -12t-39 -14q-12 -6 -23 -16t-17 -22q-4 -6 -6 -13t-3 -14l-2 -14t-5 -15q-8 -16 -20 -30l-24 -28q-22 -24 -41 -49t-45 -45q-16 -16 -37 -26t-43 -18 q-18 -6 -38 -9t-42 -3q-14 0 -29 1t-27 9t-20 20t-14 26q-6 12 -8 26t-2 28zM-219 -236q1 -16 9 -28q6 -8 18 -9h5q9 0 15 3q18 8 33 22t25 30t15 35t5 39q2 6 -3 13t-11 9q-6 4 -12 4t-12 -4q-14 -8 -26 -19t-24 -23l-20 -20t-14 -22q-3 -11 -3 -24v-6zM252 865q-1 7 -1 13 t1 12q2 12 9 23t15 21q6 8 16 13t20 9q12 6 26 11t28 7q4 1 8 1h5q7 -1 13 -3q10 -2 21 -4t19 -10q10 -10 16 -24l12 -28l4 -20q1 -5 1 -10t-1 -10q-4 -10 -9 -22t-13 -20q-10 -10 -22 -18t-26 -12t-28 -6t-28 -2q-10 0 -22 4t-20 12q-12 6 -22 17t-16 23q-4 10 -6 23z" />
<glyph unicode="k" horiz-adv-x="790" d="M-56 110q2 10 4 18q6 10 16 19t18 17q14 12 27 23t25 25q12 16 23 35t21 37q12 24 23 47t21 47q16 36 29 72t25 72l36 100l36 100q16 44 28 89t30 87q8 20 18 39t26 35q12 12 28 21t34 13q5 1 11 1q11 0 22 -3q17 -4 33 -10q12 -6 26 -16t20 -24q6 -16 4 -34l-4 -36 q-4 -30 -9 -61t-13 -61q-10 -34 -23 -68t-29 -66q-6 -14 -14 -28l-16 -28t-15 -28t-13 -30q0 -2 2 -4t5 -3l6 -2t5 -1q12 4 22 14t22 16q14 8 29 17t31 17l28 12t30 6q16 2 35 0t35 -8q16 -8 29 -23t25 -29q10 -12 21 -25t13 -27q4 -20 1 -39t-7 -37q-10 -28 -23 -54 t-29 -52q-6 -10 -13 -20t-17 -16q-18 -12 -39 -20t-39 -16q-6 -4 -14 -7l-16 -6t-14 -7t-12 -10q-8 -12 -9 -29t3 -31q2 -12 8 -22t16 -18q12 -8 26 -15t30 -11q12 -4 27 -6t29 0q12 0 23 6t21 12q16 12 31 24t27 28q6 4 9 11l6 14t7 13t10 12l8 8t9 7t11 4t10 -3q4 -2 7 -6 t4 -10q0 -3 0.5 -6t-0.5 -6q-1 -6 -3 -10q-8 -12 -16 -21t-18 -18l-20 -18t-20 -17q-16 -18 -33 -38t-39 -36q-16 -8 -35 -16t-39 -10q-12 -3 -24 -3q-6 0 -13 1q-19 2 -37 6q-24 6 -46 14t-44 18q-12 6 -24 13t-22 17q-12 14 -22 30t-14 34q-6 22 -8 46t-2 46q0 14 1 29 t7 27q4 12 14 19t20 15q16 12 34 23t32 23q10 8 19 18t15 20q6 12 9 24t3 22t-2 19t-10 13q-6 4 -13 0t-13 -8q-12 -8 -23 -19l-21 -21q-12 -14 -26 -29t-22 -31q-26 -52 -46 -106t-42 -108q-6 -14 -11 -28l-10 -28t-11 -28t-14 -26t-20 -20t-26 -10q-22 -6 -44 -4l-44 4 q-16 2 -33 4t-33 8q-10 4 -19 12t-13 18v13t1 14t1 14t-2 11t-5 2t-7 -5l-8 -6t-8 -3q-6 0 -14 4t-12 10q-3 7 -3 13q0 4 1 7z" />
<glyph unicode="l" horiz-adv-x="434" d="M12 150q-1 4 -1 8q0 8 3 17q4 13 6 25q6 28 16 53t22 51t25 51t23 51q28 72 56 143t54 141q10 28 19 56t19 56l20 56t24 54q6 12 20 17t28 7q30 4 61 5h7q27 0 52 -7q6 -2 12 -7t9 -11t5 -14t2 -14q-6 -26 -14 -53t-19 -53t-21 -52t-20 -54l-56 -144t-58 -144 q-12 -26 -25 -51t-26 -51t-25 -52t-22 -52q-6 -22 -9 -45t3 -45q4 -12 16 -19t24 -7q14 -2 27 6t27 14q10 6 21 15t23 13q6 0 16 -2t10 -10q2 -12 -2 -27t-14 -23q-24 -20 -54 -32t-62 -20q-26 -6 -54 -9q-8 -1 -15 -1q-20 0 -39 6q-24 6 -44 23t-34 39q-16 20 -23 44 t-13 48z" />
<glyph unicode="m" horiz-adv-x="1076" d="M-54 106q0 10 4 22t10 22q6 12 16 23t18 23q16 24 34 48t36 50l36 56t32 60q4 12 7 24t5 25l4 26t8 25q4 12 13 23t21 17t26 8t26 4q14 4 29 8t29 0q20 -2 38 -9t36 -17q4 -2 7 -6l6 -8t6 -7t7 -5q8 -2 18 0t16 6q8 4 15 9t14 11t13 12t14 10q12 6 26 11t28 7t30 4t30 -6 q12 -8 23 -18t22 -21t21 -22t20 -21q6 -4 10 -10t9 -11t10 -8t11 -1q14 6 25 15t21 20l20 22t22 21q14 10 30 21t32 15q20 6 41 7h6q18 0 33 -5q20 -6 37 -19t31 -27q12 -12 24 -27t14 -33q2 -30 -7 -61t-19 -59q-14 -40 -33 -77t-37 -75q-4 -12 -11 -23t-13 -22t-11 -23 t-7 -24q-2 -14 3 -27t13 -23q6 -8 17 -11t21 -1q18 8 34 21t32 25q4 2 7 6l6 8t7 8t8 4q6 2 15 -1t11 -9q7 -12 7 -26q0 -11 -7 -20q-16 -20 -40 -33t-50 -21q-28 -12 -59 -19t-61 -9q-8 -1 -16 -1l-24 2q-20 3 -38 9q-16 6 -29 17t-25 23q-12 14 -25 30t-15 34q-4 26 4 51 t14 49q10 34 23 68t27 66q4 6 9 13t10 13l10 12t9 14q6 16 9 32t1 32q0 6 -6 11t-12 5q-10 -2 -19 -9t-15 -15q-20 -24 -36 -51t-34 -53q-20 -34 -42 -70t-42 -72l-20 -40t-19 -40t-19 -39t-24 -37q-10 -14 -25 -26t-33 -16q-26 -6 -56 -9t-56 5q-6 2 -10 5t-7 9t-4 12 t-1 12q-2 20 3 41t11 41q8 38 24 75t30 73q10 26 21 50t19 50q6 16 7 32t-1 32l-4 8t-5 8t-6 5t-7 1q-18 -12 -31 -32t-25 -38q-28 -44 -54 -89t-48 -91q-10 -18 -17 -39t-14 -41t-15 -40t-18 -38l-8 -16t-10 -14t-13 -10t-15 -6q-20 -4 -38 -5t-37 1l-38 4t-39 2 q-6 0 -15 1t-13 5q-4 14 -4 29v29q0 4 2 8l4 8t3 8t1 8q-2 2 -4 2t-5 -2l-6 -4t-5 -4l-5 -5l-6 -6t-5 -4t-6 -1q-8 4 -13 15t-5 21z" />
<glyph unicode="n" horiz-adv-x="738" d="M-70 82q0 8 4 16q4 10 13 17t15 17q14 16 26 31t24 33q20 24 39 47t33 51q18 34 30 70t26 72q6 14 11 30t10 31t12 29t17 26q6 8 15 13t19 8t20 5l20 4q14 2 31 3t31 -3q16 -6 29 -19t25 -23l4 -8t5 -8t5 -7t6 -5q10 -2 20 5t18 11q8 6 16 13t15 14t15 13t16 10 q20 10 41 17q16 5 32 5h9q28 -2 55 -12t47 -28q18 -16 29 -41t15 -51q2 -26 -5 -53t-17 -53q-6 -22 -16 -42l-20 -40t-19 -40t-17 -40q-10 -24 -20 -50t-10 -52q0 -6 3 -12t7 -10t9 -7t11 -3q18 0 35 11t33 23q6 4 10 10t7 13t7 13t10 12q2 2 6 4t8 3t7 1t5 -4q5 -9 5 -19 q0 -15 -7 -27q-10 -20 -24 -36t-32 -28q-24 -18 -51 -30t-57 -18q-20 -4 -40 -4h-14q-28 2 -54 8q-22 4 -44 13t-38 25q-16 18 -23 41t-5 47q0 16 4 33t9 34t11 33l12 32q8 26 18 52t18 52q4 6 8 13l8 14t6 14t2 13q0 4 -2 8t-6 7t-8 4t-8 1q-12 -4 -20 -15t-16 -23 q-24 -32 -46 -66t-38 -72q-10 -18 -16 -39t-12 -43t-13 -42t-17 -40q-16 -28 -38 -54t-52 -40q-12 -4 -26 -6t-28 -2t-29 2t-27 4q-10 2 -17 8t-13 14q-8 12 -11 25t-11 23q-2 6 -8 11t-12 5q-4 0 -8 -3t-8 -7t-8 -7t-8 -5q-8 -2 -17 -1t-15 7t-6 14z" />
<glyph unicode="o" horiz-adv-x="624" d="M-30 132q2 6 6 10t8 9t7 10t5 11q4 8 4 17v19t1 19t5 19q12 40 27 80t39 76q26 40 59 75t71 63q30 20 64 33t68 19q27 5 54 5h9q31 -1 61 -7q28 -6 55 -16t47 -30q6 -6 7 -14t0 -18t-1 -19t4 -17q2 -6 6 -9t9 -6t9 -6t8 -9q8 -18 15 -39t9 -43q0 -28 -2 -57t-10 -57 q-4 -16 -13 -31t-18 -29t-18 -29t-13 -33q-2 -2 -1 -6t4 -8t7 -6t8 -2q20 -2 25 -11t-3 -21t-28 -23t-50 -15q-10 -2 -20 1l-20 6t-20 5t-20 2q-6 -2 -11 -6t-10 -9l-10 -10t-11 -7q-26 -12 -54 -20t-56 -10q-12 -1 -24 -1l-36 2q-30 3 -58 11q-14 4 -25 11t-22 15l-22 16 t-21 16q-10 6 -19 13t-21 11q-10 2 -22 0t-20 0q-8 0 -15 2t-9 8q-3 6 -3 15q0 12 5 25zM208 110q0 -14 7 -27t17 -23q10 -12 24 -23t28 -11q20 0 39 10t35 22q14 10 27 23t19 29q0 4 -2 8t-6 7t-8 7t-6 8q-10 24 -19 49t-9 51q-1 13 -1 26q0 19 2 39q3 33 11 65q6 18 16 34 t22 30q14 14 31 26t35 24q2 2 8 2t11 1t8 4t1 13q0 10 -8 16l-16 12q-6 4 -14 8q-5 3 -10 3q-2 0 -4 -1q-22 -10 -43 -24t-37 -32q-24 -28 -43 -62t-35 -68q-16 -28 -30 -59t-24 -63q-8 -30 -17 -61t-9 -63zM421 301q0 -4 -1 -9q0 -9 2 -18q2 -14 6 -28t10 -28q0 -2 3 -5 t5 -6t5 -4t5 -1q4 4 7 9t5 10t3 11t3 10q10 24 21 47t17 47q4 16 4 33t-4 33q-2 6 -11 11t-15 5q-12 -4 -23 -12t-17 -18q-8 -14 -13 -29t-9 -31q-2 -14 -3 -27z" />
<glyph unicode="p" horiz-adv-x="722" d="M-102 -288q4 12 11 21t14 19l14 20t11 20q16 50 25 101t21 103q6 34 16 71t16 75q0 4 -3 7t-7 1t-7 -6t-5 -8t-4 -7t-6 -5q-8 -6 -18 -10t-18 2q-8 4 -7 14t5 18q2 4 6 7t9 6t10 5t9 6q20 24 44 49t40 53q10 16 16 32t12 33t11 33t11 32q6 18 11 34l10 32t11 32t14 32 q12 20 29 35t31 31q8 8 15 16t17 10q22 6 44 8q11 1 22 1l22 -1q10 0 19 -7t13 -15q6 -14 4 -30l-4 -32t-10 -33t-12 -35q0 -4 -1 -8t-1 -9t2 -8t4 -3q6 -2 10 0t8 5t7 7t7 6q16 12 29 26t27 26q18 14 35 29t37 25q18 8 38 12t40 4q18 2 37 -3t37 -11q20 -6 39 -16t33 -26 q10 -12 13 -28t3 -32q0 -24 -7 -48t-17 -46t-22 -43t-25 -42t-25 -42t-24 -43q-14 -30 -25 -61t-17 -65q-2 -8 1 -19t11 -17q8 -8 20 -13t24 -3q4 0 8 3t7 7t7 8t8 6q6 2 14 2t14 -4q6 -6 9 -15t-3 -15q-10 -14 -27 -21t-33 -9q-26 -8 -54 -13t-56 1q-22 4 -41 18t-35 32 q-14 16 -24 37t-12 43q-2 20 5 40t15 38q16 44 37 85t39 83l16 52t12 52q2 10 2 23t-6 23q-8 10 -21 18t-25 6q-18 -2 -34 -14t-30 -24q-28 -28 -55 -56t-49 -60q-30 -42 -58 -87t-48 -93q-22 -54 -40 -109t-36 -109t-35 -110t-37 -110q-4 -10 -6 -21t-5 -22t-8 -21t-13 -18 q-16 -16 -38 -25t-42 -11h-9l-27 4q-18 6 -32 18q-10 8 -13 21q-2 8 -2 15q0 4 1 8z" />
<glyph unicode="q" horiz-adv-x="708" d="M-52 133q0 9 4 13q8 10 19 15t21 11q8 8 16 15t12 17q8 18 9 38t5 40l8 48t12 48q8 26 19 50t25 46q12 18 28 35t34 31q16 10 33 18t35 16q18 6 37 11t37 9q16 4 33 3t33 -3q12 -2 27 -5t25 -13q12 -12 18 -28l12 -32q6 -14 11 -29t13 -29q2 -4 8 -6t10 2q12 14 18 32 t16 36q12 22 24 46t30 44q8 10 21 16t25 8l36 4h9q13 0 25 -4t19 -14t13 -20t9 -22t3 -24q0 -16 -4 -32l-8 -32q-14 -32 -30 -63t-30 -63q-10 -22 -18 -43t-16 -41q-16 -42 -33 -85t-29 -87q-2 -6 -4 -13t-4 -11t-1 -6t7 0q10 4 22 9t24 11q6 4 12 10t12 8q8 2 16 2t14 -4 q8 -4 13 -12t5 -16q0 -10 -4 -21t-12 -17q-18 -14 -39 -26t-45 -14q-8 -2 -18 -5t-20 -5t-19 -3t-15 3q-4 0 -8 -4t-6 -8l-10 -20t-7 -15t-6 -15t-11 -20q-12 -26 -27 -52t-29 -52q-6 -10 -13 -18t-9 -18q0 -6 1 -11t3 -10t3 -9t1 -10q0 -10 -2 -19t-8 -17q-8 -12 -21 -22 t-25 -18q-14 -6 -28 -9t-30 -5q-12 -2 -26 -3h-6q-10 0 -20 3q-8 2 -18 9t-12 17q-4 8 1 17t9 19q10 28 22 56l24 56q6 14 14 28t15 28t12 28t9 30q0 4 -2 6t-6 4t-8 3t-8 3l-28 8t-29 7t-29 7t-28 12q-26 12 -49 28t-43 36q-16 14 -26 32t-18 36q-2 4 -3 8t-2 9t-2 8t-5 7 q-2 2 -7 -2t-7 -6q-8 -6 -14 -14t-16 -12q-6 -2 -14 -2t-12 4q-4 6 -4 15zM180 74q2 -16 6 -33t14 -29q8 -12 23 -19t31 -11q6 -1 13 -1q11 0 22 2q19 3 35 9q10 6 15 15t11 17q8 16 15 34t13 34q12 34 25 66t25 66l12 52t8 52q1 17 1 35v17q-1 26 -3 52q-2 18 -6 36t-10 34 q-4 10 -10 18t-14 12q-6 2 -15 2t-15 -2q-14 -4 -27 -10t-23 -14q-14 -12 -26 -27t-20 -31q-10 -16 -17 -36t-15 -38q-8 -26 -17 -52t-17 -52q-6 -24 -14 -48t-12 -48q-4 -26 -6 -51t-2 -51z" />
<glyph unicode="r" horiz-adv-x="544" d="M-44 157q0 13 6 21q6 12 13 22t16 21t16 20t15 21q22 32 42 64t40 66q10 16 22 31t16 33q4 20 3 40t-7 40q-2 4 -6 8t-9 8l-10 8t-7 8q-2 8 -6 16t-6 15l-4 14t-2 17q0 18 4 35t12 33q8 14 22 24t30 16q14 6 32 8q9 1 17.5 1t16.5 -1q18 -2 36 -8t30 -20q10 -12 11 -28 t1 -32q0 -8 -2 -15t-4 -15t-5 -16t-3 -16q0 -6 4 -12t8 -6q6 -2 11 0t10 3t10 3t9 2h54t52 -6l20 -4t19 -6t17 -9t14 -11q14 -18 20 -42t6 -46q-2 -26 -12 -50l-20 -48q-8 -22 -17 -46t-18 -46t-21 -44t-28 -42q-6 -8 -16 -20t-12 -24q-4 -10 0 -22t12 -20q6 -8 17 -12 t21 -6t22 -3.5t22 3.5q6 2 10 6t8 9l8 10t8 7q10 4 20 5t18 -5q5 -5 5 -13q0 -11 -5 -19q-16 -20 -36 -37t-42 -29q-26 -12 -55 -18t-57 -8q-14 0 -29 -1q-8 -1 -15 -1l-15 1q-15 1 -29 5t-26 8q-12 8 -21 18t-17 22t-15 24t-11 26q-8 18 -10 39t2 41q4 32 17 63t25 61 q18 40 40 77t38 77q4 6 6 12l4 12t2 12t-4 10q-6 12 -20 14t-26 4q-10 0 -21 -2t-17 -12q-12 -16 -20 -32l-16 -32l-16 -32t-18 -32q-18 -28 -35 -57t-35 -58t-37 -57t-39 -54q-4 -6 -9 -11t-13 -7t-17 0t-13 8q-6 8 -6 21z" />
<glyph unicode="s" horiz-adv-x="578" d="M-50 112q4 12 9 22t13 18q20 24 43 48t43 48l41 41t37 45q16 22 31 47t25 51q18 44 20 90q0 8 -3 14t-6 13t-5 14t-2 13q0 18 4 35t14 31q12 14 28 25t34 15h5q8 0 17 -4q12 -6 18 -16q4 -4 2 -12t-6 -14q0 -4 -4 -8l-7 -7l-6 -6t-3 -7q-2 -12 -1 -25t9 -23q6 -8 16 -16 t20 -15t21 -14t21 -15q20 -18 42 -36t42 -38t39 -41t33 -47q8 -16 13 -34t5 -36q0 -16 -4 -33t-12 -31q-18 -30 -40 -58t-46 -54q-22 -22 -46 -42t-50 -34q-20 -12 -43 -15t-45 -5q-13 -1 -27 -1q-27 0 -55 5q-18 2 -34 10l-32 16q-18 10 -36 18t-34 20q-4 6 -7 12l-6 12 l-6 12t-7 12q-2 2 -8 2t-8 -2q-4 -2 -6 -6t-5 -8t-6 -7t-7 -5q-8 -2 -17 1t-15 7q-3 3 -3 7q0 5 3 11zM106 70q0 -4 6 -5t10 -1h32t32 6q14 6 26 16t22 20q18 20 35 42t29 46q16 30 30 62t22 66q2 8 2 16t-2 16q-4 16 -10 30q-6 20 -17 38t-23 36q-4 8 -10 16t-12 12 q-1 1 -3 1h-2q-3 -1 -5 -3q-16 -26 -30 -54t-26 -54q-6 -12 -13 -22t-13 -21t-10 -22t-4 -23q0 -4 4 -5t10 -1h12t8 -4q10 -10 15 -25t5 -31q2 -14 -1 -29t-9 -27q-6 -18 -15 -34t-23 -28q-4 -6 -11 -9t-15 -5l-16 -4t-14 -4l-10 -5t-6 -7z" />
<glyph unicode="t" horiz-adv-x="560" d="M-56 128q-1 5 -1 10.5t1 10.5q2 11 8 19t13 15t15 14t15 13t13 14q14 20 25 41t21 43q16 36 30 75t30 77q8 20 17 38t15 38q2 10 2 21t-4 19q-2 6 -9 7t-11 3q-8 6 -14 12t-10 14q-2 10 -2 20t2 20q2 6 7 13t11 9t12 2t13 -1t13 -1h12q6 2 13 4t9 6q16 26 27 54t23 56 q8 18 15 37t14 37t15 36t18 34t26 29t34 17q34 8 71 8t71 -8q12 -2 21 -14t11 -24t0 -22t-5 -20t-7 -20t-8 -22q-4 -18 -12 -37t-12 -35q-6 -22 -8 -45t2 -45q2 -4 5 -6t7 -4t8 -3t8 -3q4 -4 11 -6t9 -8q4 -12 3 -25t-3 -25q-2 -6 -6 -12t-10 -8t-13 -3t-14 0t-14 1t-13 -2 q-6 0 -10 -4l-8 -8q-4 -6 -7 -14t-7 -16q-26 -52 -51 -105t-49 -107q-8 -16 -16 -33l-16 -34t-14 -34t-8 -35q-4 -24 0 -48t14 -46q4 -8 16 -13t22 -7q16 -2 34 0t32 8q18 6 33 18t29 24q12 10 23 23t21 25q4 8 9 16l10 16t10 15t13 13q6 4 16 4t16 -4q8 -6 12 -16 q2 -5 2 -10t-2 -10q-18 -32 -42 -61t-50 -57q-12 -16 -27 -30t-33 -24q-24 -14 -51 -27t-55 -17q-26 -8 -51 -9h-17q-17 0 -34 1q-22 0 -44 4t-40 12q-22 10 -41 27t-37 35q-4 4 -7 9t-6 11t-6 11t-9 9q-10 6 -24 5t-26 -1q-6 0 -12 -2t-12 0t-12 7t-8 11z" />
<glyph unicode="u" horiz-adv-x="690" d="M-37 106q0 6 3 14q2 4 2 7t1 6t3 6t4 7q6 8 10 10t8 6t7 14t9 34q4 18 10 46t15 57t17 56t14 43t10 32t8 33t10 33t14 30q12 18 31 30t39 22q10 6 23 9q8 2 15 2q5 0 10 -1q20 -2 41 -8t41 -18q10 -6 18 -17t6 -23q-2 -18 -8 -38t-14 -39t-16 -37t-14 -38 q-16 -46 -34 -93t-36 -93q-2 -8 -6 -15t-7 -14t-5 -14t-2 -15q0 -6 2 -12t6 -12t9 -10t11 -6q16 -2 32 5t28 17q18 18 33 41t27 47q20 42 37 87t35 91q14 38 28 79t34 79q6 12 14 24t20 16q24 10 50 11t50 -3q18 -2 36 -10t30 -22q10 -10 15 -27t1 -31q-6 -22 -15 -44 t-19 -44t-20 -43t-18 -43q-14 -40 -28 -81t-24 -81q-4 -18 -8 -38t2 -38q2 -8 13 -10t19 -2q12 0 23 6t21 12q4 2 9 6t9 7t10 6t10 3q10 0 21 -4t15 -14q3 -8 3 -19v-5q-1 -14 -11 -22q-20 -18 -46 -29t-50 -19q-26 -8 -52 -11t-50 -3q-20 2 -38 9t-34 17q-14 10 -27 22 t-19 28q-2 4 -1 9t2 9l2 8t-1 10q0 4 -1 9t-5 3q-12 -4 -20 -14t-18 -16q-18 -14 -35 -29t-37 -27q-18 -10 -38 -21t-42 -13q-15 -4 -31 -4h-10q-21 2 -41 6q-20 2 -40 10t-34 22q-6 6 -9 12t-5 13t-4 13t-6 12q-2 4 -6 1t-14 -1q-6 0 -13 2t-9 6q-5 8 -5 16z" />
<glyph unicode="v" horiz-adv-x="658" d="M-58 170q-1 3 -1 5.5t1 4.5q2 4 5 8t7 8t8 10q2 4 6 8t9 7l10 6t9 7l28 36t24 38q18 30 30 62t26 64q12 32 21 65t23 63l5 10t6 11t7 9t10 4q20 4 41 4l27 -2q34 -4 68 -12q8 0 13 -6t7 -14q2 -12 0 -25t-4 -25q-12 -46 -25 -94t-27 -94q-6 -20 -15 -37t-15 -37 q-8 -20 -16 -41t-12 -43q-2 -14 -2 -29t6 -25q8 -12 22 -18t26 -6q18 0 31 4t29 12q10 4 22 13t20 17q8 6 12 12t7 10t4 7t5 7q-10 10 -16 17t-10 19q-2 8 -7 17t-7 17q-6 26 -10 53t-6 53q0 24 -1 48t1 46q4 24 7 48t17 42q10 16 27 25t35 17q16 10 33 18t35 8t37 -5 t33 -15q18 -12 35 -28t23 -38q8 -24 5 -51t-11 -51q-10 -36 -28 -69t-38 -65q-14 -20 -31 -37t-31 -35q-4 -4 -7 -8t-1 -8q10 -12 23 -23t29 -13q20 -6 41 -4t39 10q6 4 11 10t9 13l8 14t8 13q4 4 9 8t9 2q6 -2 8 -9q1 -4 1 -7t-1 -6q-4 -10 -7 -21t-7 -21t-9 -19t-15 -17 q-8 -6 -19 -10t-23 -6t-24 -2t-24 -2q-16 0 -33 3t-33 11q-6 2 -12 7t-11 11t-10 11t-11 7q-4 2 -6 0t-4 -5t-4 -7t-4 -6q-10 -6 -19 -14l-18 -16t-17 -17t-18 -15q-26 -16 -53 -28t-55 -26q-18 -10 -40 -14t-44 -4q-18 0 -36 2t-34 10q-12 8 -22 20t-18 26q-6 10 -10 22 t-7 25t-7 25t-10 22q-2 6 -7 12t-9 4q-4 -4 -8 -11l-8 -14t-8 -11t-8 0q-2 4 -6 8t-8 10t-7 11t-3 9zM437 310v-7q0 -22 5 -43q2 -6 10 -8q4 -1 7.5 -1t6.5 1q8 4 12 13t8 17q8 16 14 31t8 31q4 24 6 47q1 12 1 23.5t-1 23.5q0 8 -3 18t-13 14h-4l-12 -5q-8 -7 -14 -13 q-6 -8 -12 -18t-10 -20q-4 -12 -5 -25t-1 -27q-2 -26 -3 -52z" />
<glyph unicode="w" horiz-adv-x="1030" d="M-64 147q0 9 4 17q4 14 13 26t15 24q14 22 27 41t23 41q14 26 26 52t20 52q6 14 9 27l6 26l6 26t9 27q8 18 20 36t26 30q12 12 27 18t31 10q10 2 21 2t21 -2l36 -8t32 -14q8 -4 15 -14t9 -20t-2 -20t-6 -20q-8 -24 -16 -47t-18 -47q-14 -42 -30 -86t-34 -86 q-6 -18 -15 -34t-15 -34q-2 -4 0 -9t4 -9t6 -7t8 -5q6 -4 12 -5t12 -1q6 -2 13 -4t13 2q8 4 14 13t12 15q10 10 19 20t15 22q12 22 21 46t19 48l24 60t24 58q10 26 23 50t23 48q4 8 6 16t5 16t6 15t9 13q8 12 22 17t28 7q16 4 32 3t32 -3t33 -6t31 -14q10 -4 15 -13t9 -19 q4 -8 3 -18t-1 -18q-2 -12 -5 -22t-7 -20q-16 -42 -36 -84t-36 -84q-14 -32 -27 -66t-23 -68q-2 -10 -3 -20t1 -20q4 -10 11 -18t17 -10q16 0 31 7t27 17q12 8 20 21t14 25q16 26 28 53t24 53q16 38 30 75t28 75q12 28 22 57t20 57q6 12 11 25t15 19q12 10 27 13t29 5 q18 2 37 1t37 -5q14 -4 29 -10t27 -16q8 -10 11 -22t3 -24q2 -8 -1 -18t-7 -18q-14 -38 -31 -73t-31 -73q-14 -32 -25 -66t-21 -66q-4 -10 -13 -30t-19 -44t-18 -44t-10 -30q0 -6 4 -10t11 -5t15 0t16 3q4 2 9 5t11 6t11 6t9 5q12 10 23 20t25 18q6 4 15 5t17 -1q6 -2 13 -5 t9 -11q4 -6 4 -16t-4 -18q-2 -8 -9 -14t-13 -12q-14 -8 -27 -14t-27 -10q-20 -6 -40 -10l-40 -8q-16 -2 -32 -2t-32 2q-10 2 -20 5t-18 9q-12 6 -24 14t-20 18q-6 8 -10 17t-6 19q0 4 1 8t2 9t1 9v8q-2 4 -8 6t-10 0q-16 -10 -28 -24t-26 -26t-30 -24t-34 -20 q-12 -8 -25 -14t-27 -8q-8 -2 -16 -3t-16 -3q-10 0 -21 -2t-21 0q-12 2 -24 7t-20 13q-10 6 -16 15t-14 15q-6 4 -12 5t-12 -1q-8 -2 -14 -7t-12 -9q-24 -8 -48 -18t-48 -14q-22 -6 -45 -8t-47 -2q-16 0 -33 2t-33 6q-18 4 -36 7t-30 15q-6 4 -9 11t-5 14l-4 14t-4 15 q-4 10 -6 20t-8 18q-2 4 -4 10t-6 6t-7 -3l-6 -6t-7 -5t-8 -2q-8 2 -16 8t-12 14q-4 6 -4 15z" />
<glyph unicode="x" horiz-adv-x="822" d="M1 89q1 11 7 15q12 6 26 6t28 -4q6 -2 11 -6t9 -9t9 -9t11 -4q14 -2 29 1t27 13q24 18 43 43t37 49q24 28 46 59t42 65q14 28 26 57t16 59q2 16 -3 33t-13 29q-4 6 -9 10t-11 8t-12 5t-12 -1q-8 -4 -15 -11t-13 -15t-10 -17t-10 -17q-2 -6 -4 -13t-3 -14t-3 -14t-6 -13 q-8 -12 -20 -22t-26 -14q-14 -2 -29 1t-27 9q-8 6 -17 16t-9 20q0 14 9 25t17 19q26 24 54 46t60 38q34 18 70 33t74 23q5 1 9 1q12 0 26 -4q19 -5 35 -13q20 -6 39 -17t33 -25q4 -4 5 -9l2 -10t2 -9t3 -8q4 -4 11 -3t11 3q14 4 27 11t23 15q8 4 14 10t13 11l14 10t15 7 q22 8 45 10t45 0q16 0 33 -4t27 -16q14 -10 23 -25q7 -12 7 -25v-6q-4 -26 -19 -49t-33 -41q-26 -22 -56 -37t-60 -25q-10 -4 -23 0t-23 8l-9 9t-3 9q2 6 10 7t14 5q16 8 31 16t27 20q10 10 18 21t10 25q2 6 -2 13t-10 11q-10 6 -22 11t-22 1t-16 -11t-12 -15l-12 -16 l-12 -16q-16 -22 -33 -45t-33 -47q-14 -20 -30 -40t-28 -44q-10 -20 -18 -44t-14 -46q-2 -18 -5 -35t3 -33q6 -14 18 -24t26 -14q14 -6 29 -5t29 5q4 0 6 4t5 8t6 7t7 1q4 0 8 -2t8 -6t5 -9t-1 -9q-6 -16 -21 -27t-31 -19q-18 -8 -38 -11t-38 -3q-9 -1 -18 -1l-18 1 q-18 2 -34 8q-18 6 -34 16t-30 22t-25 26t-23 26l-9 9t-11 3q-12 -2 -21 -12t-19 -16q-26 -16 -51 -32t-53 -28q-16 -8 -32 -13t-34 -7q-14 0 -27 3t-23 11q-14 10 -22 25t-12 29q-1 5 -1 12v7z" />
<glyph unicode="y" horiz-adv-x="666" d="M3 165q1 23 5 45q8 34 22 66t26 64q8 24 15 48t14 49t16 49t19 46q10 18 26 31t34 21q14 6 29 6t29 -4q20 -4 41 -11t39 -19q8 -6 15 -16t7 -20q-2 -30 -13 -59t-19 -57q-12 -30 -25 -61t-25 -63q-10 -26 -21 -51t-17 -51q-2 -16 -2 -33t8 -33q4 -8 14 -10t20 -2 q12 2 24 7t20 13q22 22 37 47t31 51q14 22 25 46t23 48q14 32 27 66t25 66q4 14 7 29t7 29l8 28t10 26q4 10 13 18t19 10q22 4 45 3t45 -5q18 -4 36 -11t30 -21q8 -10 8 -23t-2 -25q-8 -32 -22 -64t-26 -64q-14 -42 -29 -84t-27 -84q-10 -28 -19 -56t-11 -58q-2 -6 1 -15 t11 -9q6 -2 12 0t12 5t11 6t13 3h7t10 -1t8 -3t3 -6q2 -4 0 -7t-6 -6l-8 -6t-8 -5q-18 -12 -37 -22t-37 -24q-14 -8 -28 -19t-24 -25q-12 -14 -21 -29t-17 -30t-18 -29t-22 -28q-26 -28 -57 -53t-65 -47q-20 -14 -44 -27t-50 -19q-22 -8 -47 -12t-49 -4q-16 0 -32 4t-32 12 q-10 4 -14 16l-8 24q-2 10 -3 23t3 23q8 20 19 37t23 31q14 14 33 25t35 23q14 8 29 16t25 20q8 10 9 23t1 25q0 6 -2 11t-8 7q-10 2 -20 3t-20 1t-21 2t-21 4q-10 4 -22 7t-24 8t-22 11t-18 14q-6 6 -10 15t-6 18t-3 19t-1 18q-1 15 -1 30v15zM89 -234q1 -14 5 -28 q0 -6 7 -10t13 -6q8 0 17 3t17 7q14 10 27 20t23 24q12 16 21 34t13 38q3 8 3 17q0 15 -7 25q-3 3 -8 3h-3q-7 -1 -11 -3q-22 -10 -44 -21t-38 -27q-10 -8 -20 -22t-14 -28q-1 -8 -1 -17v-9z" />
<glyph unicode="z" horiz-adv-x="558" d="M-254 -562v10q0 29 10 58q12 34 32 62q28 40 65 74t75 64q34 26 70 51t76 39q29 9 63 9h7q38 -1 78 -9q10 8 15 18t13 20q12 18 21 38t11 40q2 18 -1 39t-15 35t-30 20t-38 6q-8 0 -16 -3t-15 -6t-14 -8t-15 -9q-6 -4 -12 -9t-12 -9l-12 -8t-12 -6q-10 -2 -21 0t-17 10 q-8 10 -11 24t1 28q6 22 18 43t26 37q18 20 36 37t36 35t37 35t37 35q22 24 46 50t40 56q10 18 13 39t-1 41q-2 10 -11 16t-17 8q-10 0 -21 -4t-21 -6q-14 -4 -27 -10t-27 -12t-27 -10t-29 -4q-24 0 -48 7t-44 23q-20 14 -35 36t-23 46q-2 16 -1 32t7 30q14 26 32 51t40 45 q2 4 8 7t12 4q3 0 5.5 0.5t5.5 -0.5q5 -1 9 -5q10 -6 16 -16t11 -21l10 -22t11 -21q6 -6 9 -15t11 -11q30 -6 60 -4t58 2q28 -2 54 -1t53 1t53 -2t52 -8q6 -2 10 -7t7 -11t3 -14v-14q-8 -30 -23 -60t-35 -56q-22 -26 -46 -52t-48 -51t-49 -49t-49 -50q-8 -8 -16 -14t-15 -14 t-13 -16t-8 -18q-4 -12 3 -25t17 -23q18 -16 41 -26t45 -22l36 -16t37 -15t36 -16t33 -21q6 -8 12 -17t9 -19t6 -21t5 -21q2 -20 3 -43t-7 -43q-12 -30 -26 -60t-30 -58t-35 -55t-41 -49q-66 -70 -144 -128t-160 -108q-36 -22 -76 -34t-82 -14q-32 0 -64 8t-56 28 q-22 18 -36 46t-14 56zM-202 -552q4 -20 12 -38q4 -12 14 -23t22 -13q30 -6 61 -6t59 10q14 4 24 12t18 18t17 20t17 20q24 28 49 56t41 60q14 28 24 52t18 54q2 8 5 18t7 20t7 19t5 17q-12 0 -30 1t-36 1t-35 -1t-29 -3q-28 -8 -52 -20t-46 -30q-30 -22 -57 -49t-51 -57 q-20 -22 -37 -46t-25 -52q-4 -12 -3 -24q-1 -8 1 -16z" />
<glyph unicode="&#xa0;" />
<glyph unicode="&#xe0;" horiz-adv-x="1274" d="M16 10v454h202q26 0 48 -8t40 -21t33 -32t25 -41q16 -34 22 -63t5 -58t-8 -57t-19 -60q-16 -52 -55 -82t-93 -32h-50h-50h-49h-51zM78 62q32 0 63 -4t58 -2t50 13t41 41q20 30 32 68t11 77t-16 75t-45 58q-22 16 -45 21t-47 6t-49 -1t-53 -2v-350zM438 232q0 48 13 89 t43 79q20 24 38 38t39 22t44 11t53 3q26 -2 50 -7t44 -16t37 -29t29 -42q6 -12 11 -27t5 -27h-28h-28q-6 18 -10 31t-11 23t-19 16t-36 14q-18 6 -36 10t-37 2t-36 -9t-35 -21q-16 -10 -28 -26t-21 -36t-15 -41t-8 -44t0 -45t8 -43t17 -39t27 -30q22 -22 49 -33t56 -10 t56 12t49 33q12 12 19 24t12 24t6 27t1 33h-140v52h196v-240h-38l-16 58q-8 -10 -18 -20t-20 -18t-21 -14t-27 -8q-16 -4 -30 -6t-28 -2t-29 1t-31 3q-38 6 -66 23t-50 49q-20 36 -30 75t-10 81zM922 10v454h60v-400h232v-54h-292z" />
<glyph unicode="&#x2000;" horiz-adv-x="682" />
<glyph unicode="&#x2001;" horiz-adv-x="1365" />
<glyph unicode="&#x2002;" horiz-adv-x="682" />
<glyph unicode="&#x2003;" horiz-adv-x="1365" />
<glyph unicode="&#x2004;" horiz-adv-x="455" />
<glyph unicode="&#x2005;" horiz-adv-x="341" />
<glyph unicode="&#x2006;" horiz-adv-x="227" />
<glyph unicode="&#x2007;" horiz-adv-x="227" />
<glyph unicode="&#x2008;" horiz-adv-x="170" />
<glyph unicode="&#x2009;" horiz-adv-x="273" />
<glyph unicode="&#x200a;" horiz-adv-x="75" />
<glyph unicode="&#x202f;" horiz-adv-x="273" />
<glyph unicode="&#x205f;" horiz-adv-x="341" />
<glyph unicode="&#xe000;" horiz-adv-x="590" d="M0 0v590h590v-590h-590z" />
</font>
</defs>
</svg>
