<?xml version="1.0" encoding="utf-8"?>
<!-- Generator: Adobe Illustrator 16.0.0, SVG Export Plug-In . SVG Version: 6.00 Build 0)  -->
<!DOCTYPE svg PUBLIC "-//W3C//DTD SVG 1.1//EN" "http://www.w3.org/Graphics/SVG/1.1/DTD/svg11.dtd">
<svg version="1.1" id="Layer_1" xmlns="http://www.w3.org/2000/svg" xmlns:xlink="http://www.w3.org/1999/xlink" x="0px" y="0px"
	 width="62px" height="15px" viewBox="0 0 62 15" enable-background="new 0 0 62 15" xml:space="preserve">
<g>
	<g>
		<g>
			<path fill="#FFFFFF" d="M19.836,12.586V1.849h4.028c0.82,0,1.478,0.108,1.974,0.326c0.496,0.217,0.884,0.552,1.165,1.003
				c0.28,0.452,0.421,0.925,0.421,1.418c0,0.459-0.125,0.891-0.374,1.296s-0.625,0.732-1.128,0.981
				c0.649,0.19,1.148,0.516,1.498,0.975s0.524,1.001,0.524,1.625c0,0.504-0.106,0.971-0.319,1.402c-0.212,0.432-0.475,0.766-0.787,1
				s-0.705,0.412-1.176,0.531s-1.048,0.18-1.732,0.18H19.836z M21.257,6.361h2.322c0.63,0,1.082-0.041,1.355-0.124
				c0.361-0.107,0.634-0.286,0.816-0.535c0.184-0.249,0.275-0.562,0.275-0.938c0-0.356-0.085-0.67-0.256-0.941
				c-0.171-0.271-0.415-0.456-0.732-0.557c-0.317-0.1-0.862-0.15-1.633-0.15h-2.146V6.361z M21.257,11.319h2.673
				c0.459,0,0.781-0.018,0.967-0.051c0.327-0.059,0.601-0.156,0.82-0.293s0.4-0.336,0.542-0.598s0.212-0.562,0.212-0.904
				c0-0.399-0.103-0.748-0.308-1.043c-0.205-0.296-0.49-0.503-0.854-0.623c-0.364-0.119-0.887-0.18-1.571-0.18h-2.483V11.319z"/>
		</g>
		<g>
			<path fill="#FFFFFF" d="M29.471,12.586l4.124-10.737h1.531l4.395,10.737h-1.618l-1.253-3.252h-4.49l-1.179,3.252H29.471z
				 M32.569,8.177h3.64l-1.121-2.974c-0.342-0.903-0.596-1.646-0.762-2.227c-0.137,0.688-0.33,1.372-0.579,2.051L32.569,8.177z"/>
		</g>
		<g>
			<path fill="#FFFFFF" d="M49.065,8.822l1.422,0.358c-0.299,1.168-0.834,2.057-1.607,2.67c-0.775,0.613-1.721,0.92-2.839,0.92
				c-1.157,0-2.099-0.236-2.823-0.707c-0.725-0.473-1.277-1.154-1.656-2.047c-0.378-0.895-0.566-1.854-0.566-2.879
				c0-1.118,0.213-2.094,0.641-2.926c0.427-0.833,1.035-1.465,1.824-1.897c0.787-0.432,1.656-0.647,2.604-0.647
				c1.074,0,1.977,0.273,2.709,0.82s1.243,1.315,1.531,2.307l-1.398,0.33c-0.25-0.781-0.611-1.351-1.084-1.707
				c-0.475-0.356-1.07-0.535-1.787-0.535c-0.826,0-1.516,0.198-2.07,0.594c-0.554,0.396-0.943,0.927-1.168,1.593
				c-0.225,0.667-0.336,1.354-0.336,2.062c0,0.914,0.133,1.711,0.398,2.392s0.68,1.19,1.242,1.526
				c0.561,0.338,1.169,0.506,1.823,0.506c0.796,0,1.47-0.229,2.021-0.688S48.87,9.725,49.065,8.822z"/>
		</g>
		<g>
			<path fill="#FFFFFF" d="M52.929,12.586V1.849h1.421v5.325l5.332-5.325h1.927L57.104,6.2l4.702,6.387h-1.875l-3.823-5.435
				L54.35,8.866v3.721H52.929z"/>
		</g>
	</g>
	<g>
		<g>
			<path fill="#FFFFFF" d="M7.331,14.639c-3.936,0-7.137-3.203-7.137-7.139s3.202-7.138,7.137-7.138
				c3.936,0,7.138,3.202,7.138,7.138S11.267,14.639,7.331,14.639z M7.331,1.13c-3.512,0-6.369,2.857-6.369,6.37
				s2.857,6.37,6.369,6.37c3.512,0,6.37-2.857,6.37-6.37S10.843,1.13,7.331,1.13z"/>
		</g>
		<g>
			<polygon fill="#FFFFFF" points="7.629,11.793 4.891,7.5 7.629,3.207 8.278,3.621 5.803,7.5 8.278,11.379 			"/>
		</g>
	</g>
</g>
</svg>
