<?xml version="1.0" encoding="utf-8"?>
<!-- Generator: Adobe Illustrator 16.0.0, SVG Export Plug-In . SVG Version: 6.00 Build 0)  -->
<!DOCTYPE svg PUBLIC "-//W3C//DTD SVG 1.1//EN" "http://www.w3.org/Graphics/SVG/1.1/DTD/svg11.dtd">
<svg version="1.1" id="Layer_1" xmlns="http://www.w3.org/2000/svg" xmlns:xlink="http://www.w3.org/1999/xlink" x="0px" y="0px"
	 width="279.074px" height="94.005px" viewBox="0 0 279.074 94.005" enable-background="new 0 0 279.074 94.005"
	 xml:space="preserve">
<g>
	<path fill="#FFFFFF" d="M50.279,3.342C43.975,1.09,33.805,0.014,19.828,0.014H0v93.992h30.122c11.634,0,20.772-1.656,27.251-5.1
		c6.525-3.414,11.862-8.783,15.97-15.9c3.976-7.133,6.004-15.434,6.004-24.828c0-10.893-2.542-20.307-7.666-28.131
		C66.577,12.171,59.373,6.586,50.279,3.342 M10.075,10.208h6.025c13.164,0,22.845,0.879,28.541,2.568
		c7.593,2.408,13.494,6.713,17.777,12.922c4.275,6.229,6.428,13.842,6.428,22.66c0,8.324-2.027,15.541-5.88,21.336
		c-3.931,5.756-9.349,9.848-16.18,12.074c-4.936,1.564-13.845,2.322-26.564,2.322H10.075V10.208z"/>
	<rect x="96.779" fill="#FFFFFF" width="10.448" height="94.005"/>
	<path fill="#FFFFFF" d="M179.205,47.837c4.523-1.971,8.098-4.979,10.528-8.941c2.394-3.814,3.683-8.467,3.683-13.637
		c0-6.143-1.881-11.396-5.374-15.686c-3.491-4.207-8.106-6.976-13.788-8.322c-3.682-0.887-10.777-1.248-21.043-1.248h-19.074v94.001
		h10.396v-43.09h4.438l33.382,43.09h12.938l-33.439-43.09C169.144,50.761,174.951,49.773,179.205,47.837 M159.97,40.763
		l-15.438-0.076V10.208h15.855c6.266,0,10.754,0.531,13.472,1.623c2.54,1.064,4.686,2.816,6.325,5.264
		c1.654,2.395,2.395,5.119,2.395,8.143c0,3.141-0.74,5.908-2.365,8.381c-1.58,2.488-3.844,4.285-6.67,5.465
		C170.58,40.242,166.07,40.763,159.97,40.763"/>
	<path fill="#F05228" d="M267.806,64.759V0h-2.725l-52.578,74.757h44.943v19.248h10.359V74.757h11.268v-9.998H267.806z
		 M257.447,64.759h-25.818l25.818-36.646V64.759z"/>
</g>
</svg>
