<?xml version="1.0" encoding="utf-8"?>
<!-- Generator: Adobe Illustrator 16.0.0, SVG Export Plug-In . SVG Version: 6.00 Build 0)  -->
<!DOCTYPE svg PUBLIC "-//W3C//DTD SVG 1.1//EN" "http://www.w3.org/Graphics/SVG/1.1/DTD/svg11.dtd">
<svg version="1.1" id="Layer_1" xmlns="http://www.w3.org/2000/svg" xmlns:xlink="http://www.w3.org/1999/xlink" x="0px" y="0px"
	 width="60px" height="60px" viewBox="0 0 60 60" enable-background="new 0 0 60 60" xml:space="preserve">
<g>
	<path fill="#FFFFFF" d="M11.823,10.208C10.54,9.749,8.468,9.53,5.62,9.53H1.583V28.67h6.135c2.371,0,4.23-0.336,5.551-1.038
		c1.328-0.694,2.414-1.787,3.25-3.238c0.81-1.452,1.224-3.143,1.224-5.056c0-2.218-0.516-4.136-1.561-5.729
		C15.144,12.004,13.675,10.868,11.823,10.208 M3.636,11.605h1.229c2.68,0,4.652,0.181,5.812,0.523
		c1.543,0.49,2.746,1.367,3.619,2.631c0.871,1.268,1.307,2.82,1.307,4.615c0,1.697-0.411,3.166-1.196,4.347
		c-0.801,1.171-1.904,2.005-3.295,2.458c-1.006,0.319-2.82,0.474-5.41,0.474H3.636V11.605z"/>
	<rect x="21.294" y="9.526" fill="#FFFFFF" width="2.129" height="19.145"/>
	<path fill="#FFFFFF" d="M38.081,19.269c0.92-0.4,1.648-1.014,2.143-1.821c0.488-0.777,0.75-1.724,0.75-2.776
		c0-1.252-0.383-2.322-1.094-3.195c-0.711-0.856-1.653-1.421-2.809-1.694c-0.75-0.182-2.193-0.255-4.285-0.255h-3.885V28.67h2.117
		v-8.774h0.902l6.799,8.774h2.637l-6.811-8.774C36.03,19.865,37.214,19.664,38.081,19.269 M34.161,17.828l-3.143-0.017v-6.206h3.229
		c1.277,0,2.189,0.109,2.744,0.331c0.518,0.218,0.953,0.573,1.289,1.071c0.336,0.488,0.486,1.043,0.486,1.659
		c0,0.641-0.15,1.203-0.48,1.706c-0.322,0.507-0.783,0.875-1.359,1.114C36.325,17.721,35.403,17.828,34.161,17.828"/>
	<path fill="#FFFFFF" d="M56.124,22.715V9.526h-0.555L44.86,24.753h9.152v3.917h2.111v-3.917h2.293v-2.038H56.124z M54.013,22.715
		h-5.258l5.258-7.463V22.715z"/>
	<polygon fill="#F05528" points="2.108,36.043 11.849,36.043 11.849,38.168 4.581,38.168 4.581,41.858 10.964,41.858 10.964,43.875 
		4.581,43.875 4.581,50.134 2.108,50.134 	"/>
	<rect x="13.106" y="36.043" fill="#F05528" width="2.469" height="14.091"/>
	<polygon fill="#F05528" points="18.593,36.043 21.058,36.043 21.058,48.003 28.229,48.003 28.229,50.134 18.593,50.134 	"/>
	<polygon fill="#F05528" points="29.88,36.043 33.364,36.043 37.243,47.081 37.286,47.081 41.075,36.043 44.509,36.043 
		44.509,50.134 42.163,50.134 42.163,39.254 42.128,39.254 38.21,50.134 36.179,50.134 32.265,39.254 32.235,39.254 32.235,50.134 
		29.88,50.134 	"/>
	<path fill="#F05528" d="M49.087,45.439c0,2.167,1.604,3.017,3.582,3.017c2.16,0,2.975-1.061,2.975-2.129
		c0-1.087-0.586-1.525-1.167-1.737c-0.982-0.373-2.273-0.634-4.203-1.171c-2.416-0.647-3.125-2.099-3.125-3.561
		c0-2.828,2.625-4.156,5.158-4.156c2.936,0,5.41,1.56,5.41,4.503h-2.475c-0.111-1.814-1.336-2.487-3.039-2.487
		c-1.145,0-2.576,0.419-2.576,1.831c0,0.998,0.662,1.546,1.672,1.827c0.221,0.05,3.342,0.868,4.062,1.079
		c1.863,0.554,2.746,2.135,2.746,3.592c0,3.159-2.796,4.428-5.611,4.428c-3.213,0-5.822-1.543-5.875-5.035H49.087z"/>
</g>
</svg>
