<?xml version="1.0" encoding="utf-8"?>
<!-- Generator: Adobe Illustrator 16.0.0, SVG Export Plug-In . SVG Version: 6.00 Build 0)  -->
<!DOCTYPE svg PUBLIC "-//W3C//DTD SVG 1.1//EN" "http://www.w3.org/Graphics/SVG/1.1/DTD/svg11.dtd">
<svg version="1.1" id="Layer_1" xmlns="http://www.w3.org/2000/svg" xmlns:xlink="http://www.w3.org/1999/xlink" x="0px" y="0px"
	 width="60px" height="60px" viewBox="0 0 60 60" enable-background="new 0 0 60 60" xml:space="preserve">
<g>
	<polygon fill="#F05528" points="17.214,36.111 28.386,36.111 28.386,38.191 23.997,38.191 23.997,49.903 21.577,49.903 
		21.577,38.191 17.214,38.191 	"/>
	<polygon fill="#F05528" points="30.073,36.111 32.583,36.111 36.04,47.027 36.079,47.027 39.618,36.111 42.071,36.111 
		37.358,49.903 34.665,49.903 	"/>
	<path fill="#FFFFFF" d="M12.167,10.778c-1.254-0.456-3.281-0.681-6.072-0.681H2.132v18.78h6.012c2.332,0,4.162-0.334,5.455-1.012
		c1.293-0.68,2.363-1.76,3.174-3.178c0.805-1.429,1.207-3.087,1.207-4.962c0-2.169-0.502-4.056-1.529-5.618
		C15.429,12.537,13.989,11.414,12.167,10.778 M4.142,12.145h1.201c2.637,0,4.566,0.171,5.697,0.512
		c1.52,0.479,2.705,1.341,3.562,2.581c0.848,1.241,1.289,2.766,1.289,4.528c0,1.662-0.41,3.104-1.186,4.262
		c-0.777,1.145-1.869,1.963-3.232,2.4c-0.977,0.312-2.764,0.474-5.301,0.474H4.142V12.145z"/>
	<rect x="21.474" y="10.097" fill="#FFFFFF" width="2.086" height="18.78"/>
	<path fill="#FFFFFF" d="M37.925,19.66c0.904-0.399,1.621-0.998,2.109-1.785c0.473-0.766,0.723-1.689,0.723-2.724
		c0-1.229-0.363-2.276-1.066-3.137c-0.699-0.833-1.627-1.394-2.742-1.661c-0.756-0.175-2.158-0.254-4.215-0.254h-3.814v18.778h2.092
		v-8.603h0.875l6.662,8.603h2.588l-6.674-8.603C35.913,20.241,37.083,20.042,37.925,19.66 M34.085,18.243l-3.074-0.018v-6.08h3.156
		c1.258,0,2.154,0.106,2.686,0.322c0.518,0.213,0.943,0.566,1.262,1.046c0.342,0.483,0.479,1.028,0.479,1.638
		c0,0.618-0.137,1.179-0.459,1.67c-0.312,0.489-0.775,0.86-1.336,1.086C36.208,18.143,35.296,18.243,34.085,18.243"/>
	<path fill="#FFFFFF" d="M55.628,23.039V10.099h-0.555l-10.5,14.933h8.988v3.846h2.066v-3.846h2.24v-1.993H55.628z M53.562,23.039
		h-5.158l5.158-7.322V23.039z"/>
</g>
</svg>
