<?xml version="1.0" encoding="utf-8"?>
<!-- Generator: Adobe Illustrator 16.0.0, SVG Export Plug-In . SVG Version: 6.00 Build 0)  -->
<!DOCTYPE svg PUBLIC "-//W3C//DTD SVG 1.1//EN" "http://www.w3.org/Graphics/SVG/1.1/DTD/svg11.dtd">
<svg version="1.1" id="Layer_1" xmlns="http://www.w3.org/2000/svg" xmlns:xlink="http://www.w3.org/1999/xlink" x="0px" y="0px"
	 width="60px" height="60px" viewBox="0 0 60 60" enable-background="new 0 0 60 60" xml:space="preserve">
<g>
	<g>
		<path fill="#F05528" d="M48.034,23.821l6.697-7.521l-1.395,7.521H48.034z M55.466,23.821l2.461-13.303h-0.568L43.72,25.873h9.236
			l-0.82,4.431h2.131l0.818-4.431h2.088l1.846-2.052H55.466z"/>
		<path fill="#F05528" d="M54.577,30.681h-2.895l0.82-4.429h-9.621L57.19,10.143h1.191l-2.461,13.3h3.945l-2.525,2.81h-1.941
			L54.577,30.681z M52.591,29.925h1.359l0.818-4.43h2.232l1.168-1.297h-3.156l2.445-13.22L44.563,25.495h8.846L52.591,29.925z
			 M53.651,24.198h-6.459l8.156-9.162L53.651,24.198z M48.878,23.442h4.145l1.09-5.881L48.878,23.442z"/>
	</g>
	<g>
		<polygon fill="#FFFFFF" points="49.122,10.877 49.813,10.877 39.694,22.234 37.901,30.609 37.317,30.609 39.116,22.234 
			33.753,10.877 34.39,10.877 39.472,21.709 		"/>
		<polygon fill="#FFFFFF" points="38.206,30.986 36.853,30.986 38.718,22.281 33.155,10.498 34.628,10.498 39.573,21.029 
			48.952,10.498 50.653,10.498 40.042,22.412 		"/>
	</g>
	<g>
		<polygon fill="#FFFFFF" points="49.122,10.877 49.813,10.877 39.694,22.234 37.901,30.609 37.317,30.609 39.116,22.234 
			33.753,10.877 34.39,10.877 39.472,21.709 		"/>
		<polygon fill="#FFFFFF" points="38.511,31.363 36.382,31.363 38.323,22.326 32.56,10.121 34.868,10.121 39.673,20.353 
			48.78,10.121 51.493,10.121 40.392,22.588 		"/>
	</g>
	<g>
		<path fill="#FFFFFF" d="M29.034,19.887c0.57-0.224,1.09-0.54,1.561-0.954c0.469-0.414,0.854-0.926,1.146-1.535
			c0.295-0.605,0.445-1.317,0.445-2.13c0-1.029-0.182-1.836-0.539-2.414c-0.361-0.582-0.799-1.018-1.312-1.315
			c-0.521-0.292-1.066-0.478-1.646-0.553c-0.582-0.07-1.082-0.108-1.508-0.123h-6.898h-0.756h-0.148L2.589,29.738l-0.77,0.865
			h13.549l-1.457,6.997h0.82l1.453-6.991h7.848c1.045,0,2.004-0.132,2.871-0.4c0.867-0.266,1.604-0.654,2.213-1.162
			c0.609-0.506,1.08-1.134,1.424-1.88c0.34-0.746,0.512-1.597,0.512-2.557c0-1.214-0.301-2.198-0.896-2.955
			c-0.602-0.756-1.537-1.188-2.809-1.3V20.3C27.901,20.245,28.462,20.108,29.034,19.887 M25.247,20.05l-6.939-0.023l1.795-8.623
			l7.244,0.026c0.516,0,1.027,0.05,1.533,0.15c0.51,0.101,0.965,0.291,1.371,0.566c0.406,0.278,0.736,0.663,0.992,1.161
			c0.258,0.498,0.389,1.151,0.389,1.96c0,0.757-0.152,1.437-0.455,2.034c-0.305,0.599-0.736,1.1-1.299,1.506
			s-1.236,0.716-2.02,0.926C27.073,19.945,26.204,20.05,25.247,20.05 M28.729,21.239c0.531,0.277,0.965,0.678,1.285,1.203
			s0.479,1.248,0.479,2.168c0,1.051-0.199,1.921-0.602,2.614c-0.406,0.688-0.914,1.245-1.52,1.67
			c-0.609,0.426-1.271,0.725-1.99,0.899c-0.721,0.175-1.393,0.263-2.016,0.263h-3.258h-4.826l1.949-9.451h6.658
			c0.697,0,1.383,0.035,2.041,0.11C27.597,20.79,28.196,20.963,28.729,21.239 M3.263,30.057l16.033-18.088l-3.803,18.086
			L3.263,30.057z"/>
		<path fill="#FFFFFF" d="M15.036,37.981h-1.59l1.457-7H0.978L19.21,10.484h7.971c0.496,0.017,1.016,0.058,1.555,0.125
			c0.627,0.081,1.225,0.283,1.785,0.602c0.57,0.326,1.057,0.812,1.447,1.442c0.396,0.639,0.596,1.518,0.596,2.614
			c0,0.863-0.162,1.637-0.482,2.294c-0.314,0.653-0.732,1.211-1.238,1.655c-0.496,0.44-1.059,0.784-1.67,1.022
			c-0.08,0.03-0.158,0.06-0.238,0.087c0.627,0.244,1.133,0.613,1.516,1.094c0.648,0.823,0.977,1.896,0.977,3.19
			c0,1.008-0.18,1.921-0.541,2.714c-0.365,0.799-0.879,1.477-1.527,2.014c-0.643,0.537-1.432,0.95-2.342,1.232
			c-0.895,0.277-1.902,0.416-2.984,0.416h-7.541L15.036,37.981z M14.378,37.225h0.045l1.41-6.789h-0.016l0.727-3.531L14.378,37.225z
			 M16.743,29.681h7.623c0.59,0,1.238-0.087,1.926-0.254c0.67-0.163,1.297-0.445,1.861-0.843c0.562-0.39,1.033-0.912,1.412-1.553
			c0.367-0.63,0.553-1.444,0.553-2.421c0-0.846-0.143-1.508-0.424-1.972c-0.285-0.462-0.666-0.819-1.139-1.064
			c-0.492-0.253-1.053-0.416-1.666-0.483c-0.646-0.07-1.32-0.108-2-0.108h-6.355L16.743,29.681z M18.632,13.287L4.101,29.681
			l11.09-0.005L18.632,13.287z M18.772,19.651l6.477,0.022c0.912,0,1.76-0.103,2.512-0.306c0.732-0.198,1.373-0.489,1.898-0.865
			c0.508-0.368,0.904-0.83,1.182-1.373c0.275-0.543,0.414-1.17,0.414-1.862c0-0.74-0.117-1.341-0.344-1.785
			c-0.23-0.439-0.523-0.784-0.875-1.024c-0.359-0.246-0.775-0.419-1.23-0.507c-0.475-0.097-0.967-0.145-1.459-0.145l-6.939-0.024
			L18.772,19.651z"/>
	</g>
	<g>
		<path fill="#FFFFFF" d="M29.034,19.887c0.57-0.224,1.09-0.54,1.561-0.954c0.469-0.414,0.854-0.926,1.146-1.535
			c0.295-0.605,0.445-1.317,0.445-2.13c0-1.029-0.182-1.836-0.539-2.414c-0.361-0.582-0.799-1.018-1.312-1.315
			c-0.521-0.292-1.066-0.478-1.646-0.553c-0.582-0.07-1.082-0.108-1.508-0.123h-6.898h-0.756h-0.148L2.589,29.738l-0.77,0.865
			h13.549l-1.457,6.997h0.82l1.453-6.991h7.848c1.045,0,2.004-0.132,2.871-0.4c0.867-0.266,1.604-0.654,2.213-1.162
			c0.609-0.506,1.08-1.134,1.424-1.88c0.34-0.746,0.512-1.597,0.512-2.557c0-1.214-0.301-2.198-0.896-2.955
			c-0.602-0.756-1.537-1.188-2.809-1.3V20.3C27.901,20.245,28.462,20.108,29.034,19.887z M25.247,20.05l-6.939-0.023l1.795-8.623
			l7.244,0.026c0.516,0,1.027,0.05,1.533,0.15c0.51,0.101,0.965,0.291,1.371,0.566c0.406,0.278,0.736,0.663,0.992,1.161
			c0.258,0.498,0.389,1.151,0.389,1.96c0,0.757-0.152,1.437-0.455,2.034c-0.305,0.599-0.736,1.1-1.299,1.506
			s-1.236,0.716-2.02,0.926C27.073,19.945,26.204,20.05,25.247,20.05z M28.729,21.239c0.531,0.277,0.965,0.678,1.285,1.203
			s0.479,1.248,0.479,2.168c0,1.051-0.199,1.921-0.602,2.614c-0.406,0.688-0.914,1.245-1.52,1.67
			c-0.609,0.426-1.271,0.725-1.99,0.899c-0.721,0.175-1.393,0.263-2.016,0.263h-3.258h-4.826l1.949-9.451h6.658
			c0.697,0,1.383,0.035,2.041,0.11C27.597,20.79,28.196,20.963,28.729,21.239z M3.263,30.057l16.033-18.088l-3.803,18.086
			L3.263,30.057z"/>
		<path fill="#FFFFFF" d="M15.345,38.359h-2.363l1.455-6.999H0.134L19.04,10.104h0.898l0.684-0.77l-0.162,0.77h6.721
			c0.52,0.019,1.049,0.063,1.602,0.131c0.676,0.086,1.324,0.305,1.926,0.647c0.627,0.357,1.156,0.887,1.582,1.573
			c0.432,0.698,0.65,1.645,0.65,2.812c0,0.922-0.172,1.75-0.518,2.459c-0.338,0.697-0.785,1.297-1.328,1.772
			c-0.387,0.342-0.811,0.631-1.264,0.859c0.354,0.227,0.658,0.502,0.912,0.826c0.707,0.894,1.066,2.044,1.066,3.426
			c0,1.062-0.197,2.028-0.58,2.87c-0.389,0.851-0.936,1.571-1.629,2.149c-0.682,0.567-1.516,1.005-2.473,1.303
			c-0.932,0.287-1.975,0.431-3.096,0.431h-7.234L15.345,38.359z M17.208,29.301h7.158c0.561,0,1.176-0.081,1.836-0.24
			c0.625-0.153,1.209-0.417,1.736-0.785c0.514-0.359,0.951-0.84,1.301-1.435c0.334-0.569,0.502-1.321,0.502-2.23
			c0-0.773-0.123-1.369-0.373-1.773c-0.25-0.409-0.57-0.711-0.986-0.928c-0.449-0.231-0.965-0.38-1.533-0.443
			c-0.631-0.069-1.293-0.104-1.959-0.104h-6.045L17.208,29.301z M17.972,14.604L4.94,29.301l9.941-0.003L17.972,14.604z
			 M19.237,19.275l6.014,0.02c0.879,0,1.691-0.098,2.41-0.291c0.691-0.188,1.289-0.458,1.775-0.809
			c0.467-0.337,0.814-0.74,1.066-1.237c0.248-0.488,0.375-1.057,0.375-1.69c0-0.68-0.104-1.223-0.305-1.613
			c-0.199-0.386-0.447-0.676-0.75-0.887c-0.324-0.22-0.682-0.365-1.09-0.446c-0.455-0.091-0.92-0.139-1.387-0.139l-6.635-0.022
			L19.237,19.275z"/>
	</g>
</g>
</svg>
