<?xml version="1.0" encoding="utf-8"?>
<!-- Generator: Adobe Illustrator 16.0.0, SVG Export Plug-In . SVG Version: 6.00 Build 0)  -->
<!DOCTYPE svg PUBLIC "-//W3C//DTD SVG 1.1//EN" "http://www.w3.org/Graphics/SVG/1.1/DTD/svg11.dtd">
<svg version="1.1" id="Layer_1" xmlns="http://www.w3.org/2000/svg" xmlns:xlink="http://www.w3.org/1999/xlink" x="0px" y="0px"
	 width="63px" height="15px" viewBox="0 0 63 15" enable-background="new 0 0 63 15" xml:space="preserve">
<g>
	<path fill="#FFFFFF" d="M0.055,12.544V1.807h2.139l2.542,7.603c0.234,0.708,0.405,1.238,0.513,1.59
		c0.122-0.391,0.312-0.965,0.571-1.722L8.39,1.807h1.912v10.737h-1.37V3.558l-3.12,8.986H4.53L1.424,3.403v9.141H0.055z"/>
	<path fill="#FFFFFF" d="M12.912,7.314c0-1.782,0.479-3.178,1.436-4.186c0.957-1.009,2.192-1.513,3.706-1.513
		c0.991,0,1.885,0.237,2.681,0.711s1.403,1.134,1.82,1.98c0.418,0.848,0.626,1.809,0.626,2.883c0,1.089-0.22,2.062-0.659,2.922
		s-1.062,1.51-1.868,1.952c-0.806,0.441-1.675,0.663-2.607,0.663c-1.011,0-1.914-0.244-2.71-0.732s-1.399-1.155-1.809-2
		S12.912,8.257,12.912,7.314z M14.376,7.337c0,1.294,0.348,2.312,1.043,3.058c0.696,0.744,1.569,1.116,2.619,1.116
		c1.069,0,1.949-0.375,2.64-1.127s1.037-1.819,1.037-3.201c0-0.874-0.148-1.637-0.443-2.289c-0.296-0.651-0.728-1.157-1.297-1.516
		c-0.569-0.359-1.207-0.539-1.915-0.539c-1.006,0-1.871,0.346-2.597,1.037C14.739,4.566,14.376,5.721,14.376,7.337z"/>
	<path fill="#FFFFFF" d="M25.783,12.544V1.807h4.761c0.957,0,1.685,0.097,2.183,0.289c0.498,0.193,0.896,0.534,1.194,1.022
		c0.297,0.488,0.446,1.027,0.446,1.618c0,0.762-0.247,1.404-0.739,1.927c-0.494,0.522-1.256,0.854-2.285,0.996
		c0.375,0.181,0.661,0.358,0.856,0.534c0.415,0.381,0.808,0.856,1.179,1.429l1.868,2.922h-1.787l-1.421-2.234
		c-0.415-0.645-0.757-1.137-1.025-1.479s-0.51-0.581-0.721-0.719c-0.213-0.136-0.429-0.231-0.649-0.285
		c-0.161-0.034-0.425-0.051-0.791-0.051h-1.648v4.768H25.783z M27.204,6.546h3.055c0.648,0,1.156-0.067,1.523-0.202
		c0.365-0.134,0.645-0.349,0.834-0.645c0.191-0.295,0.286-0.616,0.286-0.963c0-0.508-0.185-0.925-0.554-1.253
		c-0.368-0.326-0.95-0.49-1.746-0.49h-3.398V6.546z"/>
	<path fill="#FFFFFF" d="M37.373,12.544V1.807h7.764v1.267h-6.343v3.289h5.939v1.26h-5.939v3.654h6.592v1.268H37.373z"/>
</g>
<g>
	<g>
		<path fill="#FFFFFF" d="M55.808,14.277c-3.937,0-7.139-3.203-7.139-7.139S51.871,0,55.808,0c3.936,0,7.138,3.202,7.138,7.138
			S59.743,14.277,55.808,14.277z M55.808,0.769c-3.512,0-6.369,2.857-6.369,6.37s2.857,6.37,6.369,6.37s6.368-2.857,6.368-6.37
			S59.319,0.769,55.808,0.769z"/>
	</g>
	<g>
		<polygon fill="#FFFFFF" points="55.51,11.432 54.861,11.018 57.336,7.138 54.861,3.259 55.51,2.846 58.248,7.138 		"/>
	</g>
</g>
</svg>
