<?xml version="1.0" encoding="utf-8"?>
<!-- Generator: Adobe Illustrator 16.0.0, SVG Export Plug-In . SVG Version: 6.00 Build 0)  -->
<!DOCTYPE svg PUBLIC "-//W3C//DTD SVG 1.1//EN" "http://www.w3.org/Graphics/SVG/1.1/DTD/svg11.dtd">
<svg version="1.1" id="Layer_1" xmlns="http://www.w3.org/2000/svg" xmlns:xlink="http://www.w3.org/1999/xlink" x="0px" y="0px"
	 width="124px" height="94.162px" viewBox="0 0 124 94.162" enable-background="new 0 0 124 94.162" xml:space="preserve">
<g>
	<path fill="#FFFFFF" d="M1.726,14.083c0-4.44,1.237-7.897,3.711-10.372C7.91,1.237,11.355,0,15.771,0
		c4.527,0,8.016,1.216,10.465,3.646c2.449,2.432,3.674,5.836,3.674,10.215c0,3.18-0.535,5.786-1.605,7.82
		c-1.07,2.035-2.616,3.619-4.639,4.75c-2.022,1.133-4.543,1.698-7.561,1.698c-3.068,0-5.607-0.488-7.617-1.466
		c-2.01-0.977-3.64-2.523-4.889-4.639C2.35,19.909,1.726,17.263,1.726,14.083z M10.131,14.12c0,2.746,0.51,4.72,1.531,5.919
		c1.021,1.2,2.409,1.8,4.166,1.8c1.806,0,3.204-0.587,4.193-1.763c0.989-1.175,1.484-3.284,1.484-6.327
		c0-2.561-0.517-4.432-1.549-5.613c-1.033-1.181-2.434-1.771-4.203-1.771c-1.695,0-3.056,0.601-4.082,1.8
		C10.644,9.364,10.131,11.35,10.131,14.12z"/>
	<path fill="#FFFFFF" d="M52.139,0.464h8.387V16.67c0,1.607-0.25,3.124-0.751,4.552c-0.501,1.428-1.287,2.677-2.356,3.746
		c-1.07,1.069-2.193,1.82-3.368,2.253c-1.633,0.605-3.594,0.908-5.882,0.908c-1.324,0-2.768-0.093-4.333-0.278
		c-1.565-0.186-2.873-0.553-3.924-1.104c-1.052-0.55-2.013-1.331-2.885-2.345c-0.872-1.014-1.469-2.059-1.791-3.134
		c-0.52-1.73-0.779-3.264-0.779-4.599V0.464h8.387v16.592c0,1.483,0.411,2.643,1.234,3.477c0.822,0.834,1.963,1.251,3.423,1.251
		c1.447,0,2.582-0.411,3.405-1.232c0.822-0.822,1.234-1.987,1.234-3.495L52.139,0.464L52.139,0.464z"/>
	<path fill="#FFFFFF" d="M66.203,27.665V0.464h14.009c2.599,0,4.583,0.223,5.956,0.668c1.373,0.445,2.48,1.271,3.321,2.477
		c0.841,1.207,1.262,2.676,1.262,4.407c0,1.51-0.321,2.812-0.966,3.905c-0.643,1.096-1.528,1.983-2.654,2.663
		c-0.718,0.434-1.701,0.792-2.951,1.076c1,0.335,1.729,0.669,2.188,1.003c0.309,0.223,0.757,0.699,1.344,1.43
		c0.588,0.73,0.98,1.294,1.178,1.69l4.07,7.882h-9.498l-4.492-8.312c-0.568-1.076-1.076-1.774-1.521-2.097
		c-0.606-0.42-1.294-0.631-2.06-0.631h-0.742v11.04H66.203z M74.646,11.485h3.543c0.384,0,1.125-0.123,2.228-0.371
		c0.558-0.111,1.013-0.396,1.362-0.854c0.354-0.457,0.529-0.983,0.529-1.577c0-0.878-0.277-1.552-0.834-2.022
		c-0.558-0.47-1.604-0.705-3.137-0.705h-3.691V11.485z"/>
	<path fill="#FFFFFF" d="M2.839,33.481h7.849L20.93,48.53V33.481h7.923v27.202H20.93L10.743,45.747v14.936H2.839V33.481z"/>
	<path fill="#FFFFFF" d="M34.419,33.481h22.525v5.808H42.843v4.323h13.081v5.548H42.843v5.362h14.51v6.16H34.419V33.481z"/>
	<path fill="#FFFFFF" d="M59.078,33.481h7.982l2.875,15.228l4.207-15.228h7.955l4.217,15.208l2.877-15.208h7.942l-5.995,27.202
		h-8.242l-4.771-17.127l-4.753,17.127H65.13L59.078,33.481z"/>
	<path fill="#FFFFFF" d="M98.414,51.685l7.997-0.502c0.173,1.299,0.524,2.289,1.058,2.969c0.865,1.103,2.104,1.651,3.711,1.651
		c1.199,0,2.125-0.28,2.773-0.845c0.65-0.562,0.975-1.215,0.975-1.957c0-0.705-0.31-1.336-0.928-1.893
		c-0.619-0.558-2.055-1.082-4.305-1.578c-3.688-0.827-6.314-1.93-7.887-3.303c-1.582-1.373-2.375-3.123-2.375-5.25
		c0-1.397,0.405-2.72,1.217-3.961c0.81-1.244,2.026-2.222,3.654-2.933c1.627-0.712,3.855-1.067,6.688-1.067
		c3.476,0,6.126,0.646,7.95,1.938c1.824,1.293,2.91,3.351,3.257,6.17l-7.923,0.464c-0.211-1.225-0.653-2.115-1.327-2.672
		c-0.675-0.557-1.604-0.835-2.792-0.835c-0.979,0-1.715,0.207-2.208,0.621c-0.495,0.415-0.742,0.919-0.742,1.513
		c0,0.434,0.204,0.823,0.612,1.169c0.396,0.359,1.336,0.693,2.82,1.002c3.674,0.792,6.305,1.593,7.896,2.402
		c1.589,0.812,2.746,1.815,3.469,3.017c0.726,1.199,1.086,2.541,1.086,4.025c0,1.744-0.481,3.354-1.446,4.824
		c-0.965,1.473-2.313,2.589-4.045,3.349c-1.732,0.763-3.916,1.142-6.551,1.142c-4.626,0-7.83-0.891-9.611-2.672
		C99.657,56.692,98.648,54.431,98.414,51.685z"/>
</g>
</svg>
