<?xml version="1.0" encoding="utf-8"?>
<!-- Generator: Adobe Illustrator 16.0.0, SVG Export Plug-In . SVG Version: 6.00 Build 0)  -->
<!DOCTYPE svg PUBLIC "-//W3C//DTD SVG 1.1//EN" "http://www.w3.org/Graphics/SVG/1.1/DTD/svg11.dtd">
<svg version="1.1" id="Layer_1" xmlns="http://www.w3.org/2000/svg" xmlns:xlink="http://www.w3.org/1999/xlink" x="0px" y="0px"
	 width="85px" height="41px" viewBox="-1.123 0 85 41" enable-background="new -1.123 0 85 41" xml:space="preserve">
<g>
	<g>
		<path fill="#FFFFFF" d="M21.355,9.266c0-2.922,0.814-5.196,2.441-6.824C25.425,0.814,27.691,0,30.597,0
			c2.979,0,5.273,0.8,6.885,2.399c1.611,1.599,2.417,3.839,2.417,6.72c0,2.092-0.353,3.807-1.056,5.146
			c-0.704,1.339-1.722,2.38-3.052,3.125c-1.331,0.744-2.989,1.116-4.975,1.116c-2.019,0-3.688-0.321-5.011-0.964
			c-1.323-0.643-2.395-1.66-3.217-3.052C21.766,13.098,21.355,11.357,21.355,9.266z M26.886,9.29c0,1.807,0.336,3.104,1.007,3.894
			c0.672,0.79,1.585,1.185,2.74,1.185c1.188,0,2.108-0.387,2.76-1.159c0.65-0.773,0.977-2.161,0.977-4.163
			c0-1.685-0.341-2.915-1.02-3.692c-0.68-0.777-1.602-1.166-2.766-1.166c-1.114,0-2.01,0.395-2.686,1.184
			C27.224,6.161,26.886,7.467,26.886,9.29z"/>
		<path fill="#FFFFFF" d="M55.772,0.306h5.518v10.662c0,1.057-0.164,2.056-0.494,2.994c-0.33,0.939-0.846,1.761-1.551,2.465
			c-0.703,0.703-1.441,1.197-2.215,1.481c-1.074,0.398-2.363,0.598-3.869,0.598c-0.871,0-1.822-0.061-2.852-0.183
			c-1.031-0.122-1.89-0.363-2.582-0.726c-0.691-0.362-1.324-0.876-1.897-1.543c-0.574-0.667-0.968-1.354-1.179-2.062
			c-0.342-1.139-0.512-2.147-0.512-3.025V0.306h5.517v10.916c0,0.976,0.27,1.738,0.812,2.287c0.541,0.549,1.291,0.823,2.252,0.823
			c0.951,0,1.697-0.271,2.24-0.812c0.541-0.541,0.811-1.307,0.811-2.299V0.306H55.772z"/>
		<path fill="#FFFFFF" d="M66.276,18.201V0.306h9.217c1.709,0,3.014,0.146,3.918,0.439c0.902,0.293,1.631,0.836,2.186,1.63
			c0.553,0.793,0.83,1.76,0.83,2.898c0,0.993-0.213,1.85-0.637,2.57c-0.422,0.72-1.006,1.304-1.746,1.752
			c-0.473,0.284-1.119,0.521-1.941,0.707c0.658,0.221,1.14,0.44,1.439,0.66c0.203,0.146,0.498,0.46,0.885,0.941
			c0.385,0.48,0.645,0.851,0.773,1.111l2.678,5.186H77.63l-2.955-5.469c-0.375-0.708-0.709-1.168-1.002-1.379
			c-0.398-0.277-0.85-0.416-1.354-0.416h-0.488V18.2L66.276,18.201L66.276,18.201z M71.831,7.557h2.33
			c0.252,0,0.74-0.081,1.465-0.244c0.367-0.073,0.666-0.261,0.898-0.562c0.229-0.301,0.348-0.647,0.348-1.038
			c0-0.577-0.184-1.021-0.549-1.33c-0.367-0.31-1.055-0.464-2.064-0.464h-2.428V7.557z"/>
		<path fill="#FFFFFF" d="M0,22.306h5.164l6.738,9.901v-9.901h5.213v17.896h-5.213l-6.701-9.826v9.826H0V22.306z"/>
		<path fill="#FFFFFF" d="M22.026,22.306h14.82v3.821h-9.277v2.844h8.605v3.65h-8.605v3.526h9.545v4.054H22.026V22.306z"/>
		<path fill="#FFFFFF" d="M39.5,22.306h5.252l1.892,10.019l2.768-10.019h5.232l2.774,10.004l1.894-10.004h5.225l-3.943,17.896
			h-5.424L52.03,28.933l-3.127,11.269h-5.424L39.5,22.306z"/>
		<path fill="#FFFFFF" d="M66.629,34.282l5.261-0.33c0.114,0.854,0.346,1.506,0.696,1.952c0.567,0.726,1.383,1.087,2.44,1.087
			c0.789,0,1.396-0.185,1.824-0.556c0.428-0.369,0.642-0.8,0.642-1.287c0-0.465-0.203-0.879-0.609-1.246
			c-0.407-0.364-1.352-0.711-2.832-1.036c-2.426-0.546-4.155-1.271-5.188-2.175c-1.041-0.901-1.562-2.056-1.562-3.453
			c0-0.92,0.268-1.788,0.801-2.606c0.531-0.817,1.334-1.461,2.404-1.93c1.07-0.468,2.537-0.701,4.4-0.701
			c2.287,0,4.029,0.426,5.229,1.275c1.201,0.85,1.914,2.204,2.144,4.059l-5.213,0.306c-0.14-0.808-0.431-1.394-0.873-1.759
			c-0.443-0.366-1.055-0.549-1.836-0.549c-0.644,0-1.127,0.137-1.453,0.41c-0.326,0.272-0.488,0.604-0.488,0.993
			c0,0.285,0.135,0.543,0.402,0.771c0.262,0.236,0.879,0.457,1.854,0.66c2.418,0.52,4.147,1.047,5.195,1.58
			c1.045,0.532,1.807,1.194,2.28,1.983c0.478,0.789,0.715,1.672,0.715,2.647c0,1.146-0.315,2.205-0.95,3.174
			c-0.636,0.97-1.522,1.703-2.662,2.203s-2.576,0.75-4.31,0.75c-3.045,0-5.151-0.586-6.323-1.758
			C67.444,37.575,66.784,36.086,66.629,34.282z"/>
	</g>
</g>
</svg>
