<?xml version="1.0" encoding="utf-8"?>
<!-- Generator: Adobe Illustrator 16.0.0, SVG Export Plug-In . SVG Version: 6.00 Build 0)  -->
<!DOCTYPE svg PUBLIC "-//W3C//DTD SVG 1.1//EN" "http://www.w3.org/Graphics/SVG/1.1/DTD/svg11.dtd">
<svg version="1.1" id="Layer_1" xmlns="http://www.w3.org/2000/svg" xmlns:xlink="http://www.w3.org/1999/xlink" x="0px" y="0px"
	 width="32.881px" height="32.881px" viewBox="0 0 32.881 32.881" enable-background="new 0 0 32.881 32.881" xml:space="preserve">
<g>
	<path fill="#FFFFFF" d="M16.242,0.441C7.406,0.551,0.332,7.802,0.441,16.639C0.55,25.476,7.8,32.549,16.637,32.44
		c8.836-0.109,15.91-7.36,15.801-16.197C32.329,7.406,25.078,0.332,16.242,0.441z M16.601,29.438
		c-7.179,0.09-13.072-5.658-13.16-12.836C3.352,9.422,9.1,3.53,16.279,3.441c7.179-0.089,13.07,5.659,13.16,12.838
		C29.526,23.459,23.778,29.351,16.601,29.438z M12.354,9.49l12.086,6.852l-11.914,7.147L12.354,9.49z"/>
</g>
</svg>
