<?xml version="1.0" encoding="utf-8"?>
<!-- Generator: Adobe Illustrator 16.0.0, SVG Export Plug-In . SVG Version: 6.00 Build 0)  -->
<!DOCTYPE svg PUBLIC "-//W3C//DTD SVG 1.1//EN" "http://www.w3.org/Graphics/SVG/1.1/DTD/svg11.dtd">
<svg version="1.1" id="Layer_1" xmlns="http://www.w3.org/2000/svg" xmlns:xlink="http://www.w3.org/1999/xlink" x="0px" y="0px"
	 width="440px" height="77px" viewBox="0 0 440 77" enable-background="new 0 0 440 77" xml:space="preserve">
<g enable-background="new    ">
	<g>
		<path fill="#FFFFFF" d="M74.648,3.65h14.57c3.173,0,5.55,0.755,7.13,2.264c1.58,1.51,2.37,3.657,2.37,6.443
			c0,2.864-0.86,5.103-2.583,6.715c-1.722,1.612-4.352,2.418-7.885,2.418h-4.799v10.526h-8.804L74.648,3.65L74.648,3.65z
			 M83.451,15.745H85.6c1.689,0,2.877-0.294,3.561-0.881c0.684-0.587,1.025-1.338,1.025-2.254c0-0.891-0.297-1.645-0.89-2.264
			c-0.595-0.619-1.709-0.929-3.349-0.929h-2.496V15.745L83.451,15.745z"/>
		<path fill="#FFFFFF" d="M103.42,32.017V3.65h14.607c2.709,0,4.779,0.232,6.211,0.696c1.433,0.465,2.586,1.326,3.464,2.584
			c0.877,1.257,1.315,2.789,1.315,4.595c0,1.574-0.336,2.932-1.007,4.073c-0.671,1.142-1.594,2.067-2.769,2.776
			c-0.749,0.452-1.774,0.826-3.078,1.123c1.044,0.349,1.805,0.697,2.281,1.045c0.322,0.233,0.789,0.729,1.402,1.492
			c0.612,0.762,1.021,1.349,1.229,1.762l4.244,8.22h-9.903l-4.687-8.669c-0.593-1.122-1.121-1.851-1.586-2.186
			c-0.632-0.438-1.348-0.658-2.147-0.658h-0.774v11.513L103.42,32.017L103.42,32.017z M112.224,15.144h3.696
			c0.4,0,1.174-0.128,2.322-0.387c0.58-0.116,1.055-0.412,1.422-0.89c0.367-0.478,0.551-1.025,0.551-1.645
			c0-0.916-0.29-1.619-0.871-2.109c-0.581-0.49-1.67-0.735-3.27-0.735h-3.852L112.224,15.144L112.224,15.144z"/>
		<path fill="#FFFFFF" d="M132.347,17.853c0-4.631,1.29-8.235,3.87-10.815s6.172-3.87,10.777-3.87c4.721,0,8.359,1.268,10.912,3.802
			c2.555,2.535,3.832,6.086,3.832,10.652c0,3.315-0.559,6.033-1.674,8.155c-1.117,2.122-2.729,3.773-4.838,4.953
			c-2.109,1.181-4.738,1.771-7.885,1.771c-3.199,0-5.847-0.508-7.943-1.527c-2.096-1.019-3.795-2.632-5.098-4.837
			C132.999,23.929,132.347,21.167,132.347,17.853z M141.113,17.892c0,2.863,0.531,4.922,1.596,6.173s2.512,1.877,4.344,1.877
			c1.883,0,3.342-0.613,4.373-1.839c1.032-1.226,1.548-3.425,1.548-6.598c0-2.671-0.538-4.621-1.616-5.854
			c-1.076-1.231-2.537-1.847-4.381-1.847c-1.769,0-3.188,0.626-4.258,1.877S141.113,15.001,141.113,17.892z"/>
		<path fill="#FFFFFF" d="M166.576,3.65h13.021c2.567,0,4.642,0.349,6.222,1.045c1.579,0.696,2.886,1.696,3.918,2.999
			c1.031,1.304,1.78,2.819,2.245,4.547c0.465,1.729,0.695,3.561,0.695,5.496c0,3.031-0.344,5.382-1.035,7.053
			c-0.689,1.67-1.647,3.069-2.874,4.198c-1.226,1.129-2.541,1.881-3.946,2.254c-1.922,0.518-3.664,0.774-5.225,0.774h-13.021V3.65
			L166.576,3.65z M175.341,10.075v15.499h2.148c1.832,0,3.134-0.203,3.907-0.609c0.774-0.406,1.381-1.115,1.819-2.129
			c0.438-1.012,0.658-2.653,0.658-4.924c0-3.006-0.491-5.063-1.471-6.173c-0.98-1.109-2.606-1.664-4.876-1.664H175.341z"/>
		<path fill="#FFFFFF" d="M215.744,3.65h8.747v16.9c0,1.676-0.262,3.258-0.785,4.747c-0.521,1.488-1.342,2.791-2.457,3.906
			c-1.116,1.114-2.288,1.897-3.512,2.35c-1.703,0.632-3.748,0.947-6.135,0.947c-1.379,0-2.885-0.098-4.518-0.291
			c-1.631-0.192-2.996-0.575-4.092-1.149c-1.098-0.573-2.1-1.39-3.01-2.444c-0.908-1.059-1.531-2.146-1.865-3.27
			c-0.543-1.805-0.812-3.402-0.812-4.795V3.65h8.746v17.303c0,1.547,0.428,2.755,1.287,3.625c0.857,0.87,2.047,1.305,3.57,1.305
			c1.508,0,2.691-0.429,3.549-1.285c0.857-0.857,1.287-2.072,1.287-3.645V3.65L215.744,3.65z"/>
		<path fill="#FFFFFF" d="M249.178,20.408l7.684,2.321c-0.518,2.155-1.33,3.954-2.439,5.398c-1.107,1.444-2.484,2.535-4.131,3.271
			c-1.645,0.736-3.738,1.103-6.279,1.103c-3.082,0-5.602-0.446-7.555-1.344c-1.955-0.896-3.643-2.472-5.061-4.728
			c-1.42-2.256-2.129-5.144-2.129-8.663c0-4.692,1.248-8.298,3.744-10.818c2.496-2.521,6.027-3.78,10.594-3.78
			c3.574,0,6.383,0.723,8.428,2.167c2.043,1.444,3.562,3.664,4.557,6.656l-7.74,1.722c-0.27-0.864-0.555-1.496-0.852-1.896
			c-0.49-0.671-1.09-1.188-1.799-1.549c-0.709-0.36-1.504-0.541-2.381-0.541c-1.986,0-3.51,0.799-4.566,2.396
			c-0.799,1.186-1.199,3.047-1.199,5.585c0,3.144,0.479,5.299,1.434,6.465s2.295,1.749,4.023,1.749c1.676,0,2.943-0.471,3.803-1.413
			C248.17,23.567,248.793,22.201,249.178,20.408z"/>
		<path fill="#FFFFFF" d="M259.125,3.65h26.645v7.005h-8.938v21.361h-8.768v-21.36h-8.938V3.65H259.125z"/>
		<path fill="#FFFFFF" d="M290.084,3.65h8.783v28.366h-8.783V3.65z"/>
		<path fill="#FFFFFF" d="M304.053,17.853c0-4.631,1.289-8.235,3.869-10.815s6.174-3.87,10.777-3.87
			c4.723,0,8.357,1.268,10.914,3.802c2.555,2.535,3.83,6.086,3.83,10.652c0,3.315-0.561,6.033-1.674,8.155
			c-1.117,2.122-2.729,3.773-4.838,4.953c-2.107,1.181-4.738,1.771-7.887,1.771c-3.197,0-5.846-0.508-7.941-1.527
			c-2.098-1.02-3.795-2.632-5.1-4.837C304.705,23.929,304.053,21.167,304.053,17.853z M312.816,17.892
			c0,2.863,0.533,4.922,1.598,6.173s2.512,1.877,4.344,1.877c1.885,0,3.342-0.613,4.373-1.839c1.033-1.226,1.549-3.425,1.549-6.598
			c0-2.671-0.539-4.621-1.615-5.854c-1.076-1.231-2.537-1.848-4.383-1.848c-1.768,0-3.188,0.626-4.258,1.877
			C313.354,12.932,312.816,15.001,312.816,17.892z"/>
		<path fill="#FFFFFF" d="M338.223,3.65h8.188l10.68,15.693V3.65h8.264v28.366h-8.264l-10.623-15.575v15.575h-8.242L338.223,3.65
			L338.223,3.65z"/>
	</g>
	<g>
		<path fill="#FFFFFF" d="M62.224,68.834h-9.951l-1.383,4.684h-8.95L52.602,45.15h9.561l10.659,28.367h-9.179L62.224,68.834z
			 M60.404,62.701l-3.131-10.197l-3.101,10.197H60.404z"/>
		<path fill="#FFFFFF" d="M92.71,45.15h8.746V62.05c0,1.677-0.26,3.259-0.783,4.746c-0.521,1.488-1.342,2.791-2.456,3.906
			c-1.114,1.114-2.286,1.897-3.512,2.35c-1.704,0.632-3.748,0.947-6.135,0.947c-1.38,0-2.886-0.099-4.518-0.291
			c-1.634-0.192-2.996-0.575-4.095-1.149c-1.097-0.572-2.1-1.39-3.009-2.443c-0.909-1.059-1.532-2.146-1.867-3.271
			c-0.542-1.805-0.812-3.401-0.812-4.795V45.15h8.746v17.303c0,1.547,0.429,2.756,1.286,3.625c0.856,0.871,2.048,1.306,3.568,1.306
			c1.509,0,2.692-0.429,3.551-1.284c0.857-0.856,1.286-2.072,1.286-3.646V45.15H92.71z"/>
		<path fill="#FFFFFF" d="M107.378,45.15h13.023c2.566,0,4.639,0.35,6.221,1.045c1.58,0.695,2.885,1.695,3.918,2.998
			c1.031,1.305,1.779,2.82,2.244,4.549s0.697,3.561,0.697,5.494c0,3.031-0.346,5.383-1.035,7.055
			c-0.691,1.67-1.648,3.068-2.875,4.197c-1.225,1.129-2.541,1.881-3.947,2.254c-1.922,0.518-3.662,0.773-5.223,0.773h-13.023V45.15
			L107.378,45.15z M116.144,51.574v15.5h2.148c1.83,0,3.135-0.203,3.908-0.609c0.772-0.406,1.379-1.115,1.817-2.129
			c0.438-1.012,0.658-2.652,0.658-4.924c0-3.006-0.49-5.062-1.472-6.174c-0.981-1.109-2.604-1.664-4.877-1.664H116.144z"/>
		<path fill="#FFFFFF" d="M138.435,45.15h8.783v28.365h-8.783V45.15L138.435,45.15z"/>
		<path fill="#FFFFFF" d="M152.403,59.354c0-4.631,1.289-8.235,3.869-10.815s6.174-3.869,10.779-3.869
			c4.721,0,8.357,1.269,10.912,3.802c2.555,2.534,3.832,6.086,3.832,10.651c0,3.315-0.56,6.033-1.674,8.155
			c-1.117,2.121-2.73,3.772-4.838,4.953c-2.108,1.18-4.738,1.77-7.887,1.77c-3.197,0-5.848-0.508-7.941-1.527
			c-2.096-1.02-3.795-2.632-5.098-4.837C153.057,65.43,152.403,62.668,152.403,59.354z M161.169,59.393
			c0,2.861,0.531,4.922,1.597,6.172c1.065,1.252,2.515,1.877,4.346,1.877c1.884,0,3.343-0.612,4.373-1.838
			c1.031-1.227,1.55-3.426,1.55-6.6c0-2.67-0.539-4.62-1.615-5.854c-1.078-1.23-2.539-1.849-4.383-1.849
			c-1.771,0-3.189,0.626-4.259,1.878C161.706,54.432,161.169,56.502,161.169,59.393z"/>
		<path fill="#FFFFFF" d="M182.028,45.15h9.162l6.385,20.414l6.304-20.414h8.896l-10.533,28.365h-9.5L182.028,45.15z"/>
		<path fill="#FFFFFF" d="M215.985,45.15h8.784v28.365h-8.784V45.15z"/>
		<path fill="#FFFFFF" d="M229.529,64.131l8.338-0.521c0.184,1.354,0.551,2.388,1.105,3.099c0.902,1.146,2.193,1.722,3.871,1.722
			c1.25,0,2.215-0.293,2.895-0.882c0.676-0.586,1.016-1.266,1.016-2.041c0-0.733-0.322-1.393-0.969-1.973s-2.143-1.13-4.488-1.646
			c-3.844-0.865-6.586-2.014-8.223-3.445c-1.652-1.432-2.479-3.256-2.479-5.476c0-1.458,0.422-2.835,1.268-4.132
			s2.117-2.314,3.811-3.059c1.695-0.74,4.021-1.111,6.977-1.111c3.625,0,6.391,0.675,8.293,2.021c1.9,1.35,3.031,3.492,3.396,6.434
			l-8.264,0.484c-0.219-1.277-0.68-2.207-1.383-2.787s-1.676-0.869-2.912-0.869c-1.02,0-1.787,0.215-2.305,0.646
			c-0.516,0.432-0.773,0.959-0.773,1.577c0,0.451,0.215,0.856,0.641,1.22c0.414,0.373,1.395,0.723,2.939,1.045
			c3.832,0.824,6.576,1.66,8.232,2.506s2.863,1.893,3.617,3.145c0.756,1.252,1.133,2.65,1.133,4.199c0,1.816-0.504,3.496-1.51,5.029
			c-1.006,1.535-2.412,2.699-4.219,3.492c-1.805,0.793-4.082,1.188-6.83,1.188c-4.824,0-8.164-0.929-10.023-2.785
			S229.773,66.996,229.529,64.131z"/>
		<path fill="#FFFFFF" d="M278.137,45.15h8.746V62.05c0,1.677-0.264,3.259-0.783,4.746c-0.521,1.488-1.342,2.791-2.459,3.906
			c-1.113,1.114-2.283,1.897-3.512,2.35c-1.703,0.632-3.746,0.947-6.135,0.947c-1.381,0-2.887-0.099-4.518-0.291
			c-1.633-0.192-2.996-0.575-4.094-1.149c-1.096-0.572-2.1-1.39-3.008-2.443c-0.91-1.059-1.533-2.146-1.867-3.271
			c-0.543-1.805-0.812-3.401-0.812-4.795V45.15h8.746v17.303c0,1.547,0.428,2.756,1.285,3.625c0.859,0.871,2.049,1.306,3.57,1.306
			c1.51,0,2.693-0.429,3.551-1.284c0.859-0.856,1.287-2.072,1.287-3.646V45.15H278.137z"/>
		<path fill="#FFFFFF" d="M292.668,45.15h23.488v6.057h-14.705v4.509h13.643v5.786h-13.643v5.592h15.133v6.424h-23.916V45.15
			L292.668,45.15z"/>
		<path fill="#FFFFFF" d="M321.305,45.15h8.768v21.381h13.678v6.984h-22.445V45.15z"/>
		<path fill="#FFFFFF" d="M347.734,45.15h8.768v21.381h13.68v6.984h-22.443V45.15H347.734z"/>
		<path fill="#FFFFFF" d="M374.145,45.15h23.49v6.057H382.93v4.509h13.641v5.786H382.93v5.592h15.131v6.424h-23.916V45.15
			L374.145,45.15z"/>
	</g>
</g>
</svg>
