<?xml version="1.0" encoding="utf-8"?>
<!-- Generator: Adobe Illustrator 16.0.0, SVG Export Plug-In . SVG Version: 6.00 Build 0)  -->
<!DOCTYPE svg PUBLIC "-//W3C//DTD SVG 1.1//EN" "http://www.w3.org/Graphics/SVG/1.1/DTD/svg11.dtd">
<svg version="1.1" id="Layer_1" xmlns="http://www.w3.org/2000/svg" xmlns:xlink="http://www.w3.org/1999/xlink" x="0px" y="0px"
	 width="430px" height="77px" viewBox="0 0 430 77" enable-background="new 0 0 430 77" xml:space="preserve">
<g enable-background="new    ">
	<path fill="#FFFFFF" d="M106.051,9.836c-0.282,1.598-0.423,2.584-0.47,2.96c-0.094,0.471-0.141,0.894-0.188,1.175
		c-0.376,0.518-0.799,0.752-1.316,0.752c-0.47,0-1.034-0.328-1.598-1.08c-0.517-0.705-0.752-1.27-0.752-1.692
		c0-0.094,0-0.282,0.047-0.517c0-0.188,0.094-0.471,0.188-0.94c0-0.141,0.047-0.329,0.094-0.517
		c-1.034,0.047-2.068,0.094-3.102,0.141c-2.397,0.094-4.606,0.235-6.674,0.376c0.047,0.564,0.094,1.034,0.188,1.457
		c0.141,1.316,0.235,2.162,0.235,2.444c0,0.705-0.376,1.128-1.128,1.269c-1.034,0-1.786-0.235-2.256-0.705
		c-0.47-0.47-0.658-0.893-0.658-1.315v-0.658l-0.282-2.209c-1.786,0.188-3.431,0.329-4.888,0.517
		c-0.893,0.188-1.645,0.329-2.303,0.423c-0.564,0.142-1.175,0.188-1.739,0.188s-1.128-0.376-1.598-1.222
		c-0.517-0.752-0.752-1.41-0.752-1.975c0-0.281,0.141-0.423,0.423-0.47c3.76-0.376,7.285-0.705,10.48-0.893l-0.376-3.384
		c-0.047-0.188-0.094-0.423-0.094-0.611c-0.047-0.141-0.047-0.234-0.047-0.329c0-0.846,0.423-1.269,1.269-1.269
		c0.658,0,1.269,0.094,1.88,0.235c0.611,0.141,0.987,0.376,1.175,0.752c0,0.188-0.047,0.563-0.094,1.128
		c0,0.705,0.047,1.785,0.235,3.195c2.96-0.188,5.827-0.329,8.553-0.47c0.705,0,1.363-0.047,1.974-0.094
		c0.047-0.658,0.141-1.363,0.235-2.021c0.141-1.222,0.235-1.974,0.329-2.35c0.376-0.705,1.034-1.081,1.88-1.081
		c0.799,0,1.363,0.235,1.645,0.611c0.282,0.423,0.517,0.846,0.611,1.315c0,0.142-0.094,0.47-0.188,0.987
		c-0.094,0.329-0.188,1.128-0.376,2.35c2.067-0.094,3.478-0.141,4.276-0.234c0.47-0.048,1.41-0.188,2.773-0.424
		c0.423,0,1.222,0.329,2.35,0.94c1.128,0.799,1.739,1.457,1.739,1.927c0,1.034-0.517,1.598-1.551,1.598
		c-0.611,0-1.269-0.047-1.974-0.234c-0.658-0.095-1.269-0.188-1.88-0.188C110.798,9.695,108.683,9.742,106.051,9.836z
		 M108.448,16.604c1.175,0.752,1.786,1.691,1.786,2.772c0,0.61-0.282,1.269-0.752,1.927c-0.517,1.081-2.773,2.726-6.721,4.935
		c-3.995,2.35-7.849,4.7-11.561,7.144c-3.76,2.35-5.64,4.136-5.64,5.357c0,1.035,1.269,1.646,3.807,1.787
		c7.52,0,13.958-0.329,19.222-0.987c3.995-0.611,6.062-1.269,6.157-1.927c0.564,0,1.128,0.188,1.692,0.658
		c0.564,0.423,0.846,1.082,0.846,1.974c0,0.471-0.282,0.894-0.752,1.27c-1.175,0.658-3.572,1.269-7.237,1.785
		c-5.593,0.611-12.172,0.94-19.739,0.987c-5.546-0.188-8.413-1.974-8.601-5.264c0-1.598,0.658-3.102,1.974-4.559
		c2.162-2.35,8.271-6.251,18.234-11.749c2.585-1.41,3.901-2.397,3.901-2.867c0-0.563-0.564-0.893-1.692-0.893
		c-2.35,0-5.593,0.423-9.729,1.269c-2.35,0.376-5.357,1.175-9.023,2.35c-0.705,0.188-1.175,0.282-1.41,0.282
		c-0.47,0-1.034-0.188-1.645-0.611c-0.611-0.375-0.893-0.799-0.893-1.269c0-0.517,0.188-1.128,0.658-1.786
		c0.47-0.563,0.752-0.893,0.94-0.893c0.282,0.141,0.705,0.188,1.175,0.188c0.47-0.047,3.384-0.563,8.742-1.551
		c5.357-0.893,9.681-1.362,12.971-1.362C106.099,15.57,107.227,15.946,108.448,16.604z"/>
	<path fill="#FFFFFF" d="M160.9,15.664c-0.47,0-1.269-0.094-2.303-0.282c-1.034-0.094-1.974-0.188-2.773-0.234
		c-2.303,0.047-5.592,0.281-9.917,0.705v0.234c0.47,0.564,1.363,1.598,2.632,3.102c1.88,2.491,3.76,4.794,5.64,6.862
		c1.786,2.067,3.525,3.807,5.264,5.122c1.692,1.223,3.149,2.021,4.277,2.397c0.517,0.094,0.893,0.234,1.175,0.376
		c0.282,0.188,0.47,0.705,0.47,1.457c0,0.47-0.094,0.846-0.282,1.175c-0.188,0.329-0.47,0.657-0.893,1.128
		c-0.376,0.328-0.893,0.517-1.457,0.517c-0.846,0-2.256-0.846-4.277-2.491c-2.021-1.598-4.371-4.088-7.096-7.378
		c-2.632-3.196-4.418-5.405-5.358-6.533c-0.094-0.047-0.141-0.094-0.188-0.188l-0.094,6.814c0,4.136,0.094,7.849,0.376,11.139
		c0.094,0.704,0.235,1.456,0.47,2.303c0.094,0.282,0.188,0.61,0.329,0.986c0.094,0.282,0.188,0.611,0.188,0.987
		c0,0.47-0.235,0.846-0.611,1.081c-0.376,0.282-0.799,0.423-1.222,0.423c-2.256,0-3.337-1.222-3.337-3.572v-3.572
		c0.047-2.538,0.094-5.546,0.094-9.023v-8.46c-0.282,0.235-0.517,0.471-0.752,0.705c-1.739,1.928-3.431,4.136-5.123,6.674
		c-1.645,2.726-3.102,5.311-4.323,7.802c-1.222,2.443-2.115,3.948-2.632,4.559c-0.517,0.423-0.987,0.658-1.41,0.658
		c-1.175,0-2.256-1.081-3.29-3.244c0.423-0.282,0.893-0.658,1.41-1.128c0.282-0.235,1.175-1.598,2.773-4.089
		c1.598-2.443,3.619-5.264,6.109-8.506c2.397-3.196,4.277-5.358,5.687-6.533c0.563-0.517,1.081-0.939,1.551-1.222v-0.188
		c-3.666,0.424-6.392,0.752-8.083,1.034c-2.068,0.423-3.525,0.752-4.371,0.94c-0.94,0.234-1.598,0.329-2.021,0.329
		c-0.752,0-1.363-0.376-1.88-1.175c-0.611-0.847-0.893-1.552-0.893-2.162c0-0.518,0.188-0.894,0.611-1.081
		c0.329-0.094,1.175-0.188,2.491-0.376c1.833-0.188,5.217-0.518,10.151-1.081c1.316-0.094,2.632-0.235,3.995-0.376
		c0-2.632-0.047-4.371-0.141-5.217c-0.047-0.752-0.141-1.41-0.235-2.067c-0.141-0.518-0.188-0.94-0.188-1.27
		c0-0.47,0.376-1.034,1.175-1.645c0.752-0.658,1.41-0.987,1.927-0.987c0.47,0,0.94,0.188,1.504,0.471
		c0.517,0.281,0.799,0.657,0.799,1.033c0,0.188-0.094,0.658-0.282,1.363c-0.235,0.752-0.376,1.645-0.423,2.772
		c-0.094,1.175-0.141,2.679-0.141,4.465v0.705c2.726-0.188,5.545-0.423,8.459-0.611c0.846-0.094,1.598-0.188,2.162-0.376
		c0.517-0.094,0.893-0.141,1.081-0.141c0.987,0,2.021,0.329,3.149,0.987c1.081,0.704,1.645,1.409,1.692,2.067
		C162.451,15.052,161.887,15.664,160.9,15.664z M159.114,8.708c-0.564,0.564-1.175,0.8-1.88,0.8c-0.141,0-0.282-0.142-0.423-0.423
		c-0.188-0.282-0.611-0.8-1.363-1.504c-0.799-0.611-1.457-1.034-1.974-1.316c-0.564-0.282-1.034-0.517-1.504-0.705
		c-0.564-0.234-0.799-0.611-0.799-1.081c0-0.657,0.188-1.269,0.611-1.833c0.376-0.563,0.987-0.846,1.833-0.846
		c1.081,0.094,2.35,0.893,3.854,2.35c1.504,1.504,2.256,2.585,2.303,3.149C159.772,7.674,159.537,8.144,159.114,8.708z"/>
	<path fill="#FFFFFF" d="M181.159,7.815c1.316,0,2.397,0.282,3.196,0.752c0.752,0.518,1.269,1.081,1.645,1.739
		c0.376,0.657,0.564,1.315,0.564,2.067c0,1.128-0.658,2.82-1.927,4.982c-0.752,1.315-1.645,2.584-2.632,3.9
		c0.188,0.234,0.564,0.563,1.081,0.939c0.658,0.564,1.41,1.27,2.35,2.162c0.893,0.94,1.41,1.504,1.598,1.598
		c0.094,0.095,0.235,0.188,0.376,0.282s0.235,0.142,0.235,0.235c0,0.752-0.094,1.41-0.282,1.88c-0.282,0.563-0.564,0.986-0.94,1.222
		c-0.376,0.188-0.846,0.282-1.363,0.282c-0.141,0-0.282-0.142-0.47-0.518c-0.188-0.281-0.564-0.846-1.222-1.738
		c-0.658-0.894-1.457-1.833-2.303-2.82c-0.094-0.094-0.188-0.141-0.235-0.234c-0.047,0.657-0.094,1.456-0.094,2.35
		c-0.047,1.504-0.047,3.337-0.047,5.499c0,2.913,0,4.887,0.047,6.016c0,1.081,0.235,2.35,0.611,3.807
		c0.094,0.281,0.188,0.61,0.188,0.893c0,0.47-0.188,0.799-0.47,1.081c-0.282,0.188-0.658,0.329-1.128,0.329
		c-2.115,0-3.149-1.034-3.149-3.055v-8.601c0-2.444-0.047-4.277-0.047-5.546c-0.658,0.658-1.175,1.175-1.551,1.457
		c-0.94,0.799-1.739,1.175-2.303,1.175c-1.222-0.188-1.927-1.41-2.115-3.666c0.564-0.188,1.175-0.563,1.927-1.034
		c0.611-0.47,1.88-1.645,3.76-3.571c1.88-1.974,3.384-3.854,4.512-5.593c1.128-1.738,1.692-2.914,1.692-3.571
		c0-0.752-0.423-1.128-1.269-1.128c-2.538,0.047-4.981,0.517-7.378,1.362c-0.752,0.376-1.128,0.518-1.128,0.518
		c-1.175-0.142-1.833-1.223-1.927-3.243l0.094-0.282c2.303-0.752,4.418-1.269,6.345-1.598l-0.047-0.094
		c-0.47-0.705-0.94-1.222-1.41-1.599c-0.47-0.375-0.846-0.657-1.081-0.752c-0.188-0.094-0.376-0.188-0.47-0.234
		c-0.188-0.188-0.235-0.47-0.235-0.846c0-0.611,0.188-1.223,0.658-1.786c0.376-0.564,0.987-0.846,1.786-0.846
		c0.376,0,0.893,0.281,1.457,0.846c0.658,0.563,1.315,1.457,2.067,2.585c0.658,1.128,0.987,1.927,0.987,2.396H181.159z
		 M201.555,14.019c-0.141,0.846-0.282,1.88-0.423,3.055c-0.141,1.222-0.611,3.9-1.457,7.942c-0.893,4.089-2.067,7.707-3.524,10.856
		c-1.457,3.149-2.914,5.546-4.371,7.144c-1.504,1.598-2.538,2.396-3.195,2.396c-1.034,0-2.021-1.128-2.961-3.384
		c0.282-0.141,0.611-0.282,0.987-0.423c0.235-0.141,0.658-0.47,1.316-1.034c1.692-1.787,3.337-4.277,4.888-7.473
		c1.504-3.289,2.679-7.144,3.525-11.561c0.752-4.418,1.175-7.802,1.175-10.151c0-0.752,0.47-1.176,1.457-1.176
		c0.752,0,1.41,0.188,1.974,0.518c0.752,0.47,1.128,0.986,1.128,1.457C202.025,12.467,201.837,13.079,201.555,14.019z
		 M192.485,21.915c0,1.974,0.047,3.148,0.141,3.524c0,0.376,0.094,0.658,0.188,0.94c0.047,0.328,0.141,0.517,0.235,0.61
		c0,0.705-0.188,1.41-0.47,2.115c-0.235,0.752-0.799,1.081-1.645,1.081c-0.94-0.047-1.645-0.658-2.021-1.786
		c-0.329-1.034-0.47-5.546-0.47-13.582c0-1.974,0.047-4.7,0.188-8.271c0-0.329-0.047-0.705-0.047-1.175
		c-0.047-0.471-0.094-0.752-0.094-0.94c0-0.987,0.611-1.504,1.833-1.504c0.564,0.047,1.269,0.376,2.162,0.94l0.047,0.047
		c4.935-0.94,9.118-1.41,12.548-1.41c1.081,0,2.068,0.235,2.914,0.611c0.752,0.47,1.41,1.033,1.88,1.645
		c0.423,0.658,0.658,1.598,0.658,2.726c0,4.229,0.047,9.822,0.141,16.778c0,1.081,0,2.067,0.094,3.008
		c-0.094,1.034-0.329,1.786-0.658,2.256c-0.564,0.47-1.363,0.752-2.303,0.799c-0.282,0-0.752-0.235-1.316-0.799
		c-0.564-0.564-0.846-1.081-0.846-1.551c0-0.282,0.141-0.611,0.517-1.081c0-0.376,0.047-2.679,0.094-6.956
		c0-4.229,0.047-8.177,0.047-11.843c0-0.564-0.047-1.034-0.141-1.457c-0.282-0.517-0.799-0.799-1.551-0.846
		c-3.337,0.047-6.909,0.563-10.715,1.504c-0.47,0.188-0.846,0.282-1.081,0.282c-0.047,0.094-0.047,0.188-0.047,0.281
		c-0.282,3.055-0.376,5.357-0.376,6.956C192.391,17.543,192.391,19.94,192.485,21.915z M209.075,40.103
		c0.188-0.094,0.329-0.188,0.47-0.235c0.376,0,0.752,0,1.222,0.095c0.376,0,0.705,0.234,1.034,0.657
		c0.282,0.376,0.47,0.847,0.47,1.363s-0.423,0.987-1.269,1.363c-1.739,0.799-3.713,1.222-5.875,1.222c-1.88,0-3.29-0.47-4.23-1.363
		c-0.987-1.033-1.457-2.537-1.457-4.606c0-2.961,0.094-6.345,0.329-10.151c0.047-1.081,0.094-1.833,0.094-2.303
		c0.047-0.47,0.517-0.705,1.41-0.799c0.658,0.047,1.363,0.234,2.115,0.563c0.658,0.329,1.034,0.752,1.034,1.223
		c0,0.188-0.094,0.423-0.188,0.704c-0.188,0.564-0.282,1.175-0.376,1.927c-0.282,3.29-0.423,6.439-0.423,9.495
		c0,0.705,0.094,1.269,0.376,1.645c0.282,0.235,0.752,0.376,1.41,0.376C206.443,41.277,207.712,40.854,209.075,40.103z"/>
	<path fill="#FFFFFF" d="M253.678,1.612c0.705,0.47,1.082,1.033,1.129,1.691c0,0.423-0.142,0.752-0.33,0.94
		c-0.188,0.234-0.328,0.376-0.328,0.423c-0.752,1.269-1.881,2.772-3.338,4.465c0.564,0,1.176-0.047,1.74-0.047
		c0.846,0,1.645,0.094,2.35,0.281c0.658,0.188,1.363,0.611,2.067,1.223c0.563,0.704,0.894,1.456,0.894,2.303
		c0,1.974-0.283,3.854-0.752,5.687c-0.564,1.833-1.176,2.772-1.787,2.772c-0.704,0-1.409-0.234-2.114-0.799
		c-0.657-0.47-0.94-0.893-0.94-1.316c0-0.141,0-0.281,0.047-0.47c0-0.047,0.048-0.188,0.142-0.423
		c0.705-1.786,1.081-3.431,1.081-4.935c-0.047-0.47-0.423-0.752-1.081-0.799c-5.827,0-11.421,0.423-16.731,1.175
		c-5.264,0.705-8.553,1.269-9.869,1.691c-0.846,0.235-1.41,0.377-1.738,0.424c0.047,1.222,0.141,2.35,0.234,3.289
		c0.094,1.081,0.188,1.739,0.188,2.021c0,0.705-0.423,1.128-1.175,1.315c-1.034,0-1.833-0.188-2.35-0.657
		c-0.471-0.518-0.658-0.987-0.658-1.457l-0.799-8.084c0-0.141-0.047-0.282-0.047-0.47c-0.047-0.094-0.047-0.188-0.047-0.282
		c0-0.846,0.422-1.315,1.362-1.315c0.657,0,1.315,0.094,1.974,0.234c0.658,0.142,1.034,0.423,1.176,0.799
		c0,0.142-0.047,0.329-0.047,0.611c8.834-1.504,16.777-2.396,23.921-2.679c-0.235-0.235-0.376-0.47-0.376-0.752
		c0-0.188,0-0.423,0.047-0.705c0.471-0.564,1.081-1.504,1.833-2.914s1.269-2.537,1.551-3.289C251,1.188,251.188,1,251.562,1
		C252.314,1,253.02,1.236,253.678,1.612z M240.613,26.426c-0.188,0.563-0.33,1.175-0.518,1.832
		c-0.188,0.752-0.799,2.351-1.879,4.794c-1.082,2.444-2.586,4.606-4.465,6.486c-1.881,1.881-3.713,3.337-5.594,4.277
		c-1.832,0.939-3.148,1.457-3.994,1.457c-1.034,0-2.021-1.128-2.961-3.384c0.376-0.047,0.799-0.142,1.27-0.235
		c0.375-0.094,0.939-0.282,1.738-0.563c2.35-1.081,4.512-2.539,6.58-4.372c1.973-1.88,3.524-4.089,4.652-6.674
		c1.033-2.585,1.551-4.559,1.551-5.921c0-0.705,0.423-1.081,1.27-1.081c0.657,0,1.268,0.188,1.785,0.517
		c0.658,0.47,1.034,0.893,1.034,1.269C241.035,25.11,240.895,25.627,240.613,26.426z M229.052,10.071
		c-0.47,0.47-1.034,0.705-1.646,0.705c-0.141,0-0.281-0.141-0.375-0.47c-0.188-0.329-0.564-0.894-1.223-1.739
		c-0.658-0.658-1.222-1.175-1.645-1.504c-0.471-0.282-0.939-0.563-1.316-0.752c-0.517-0.234-0.752-0.563-0.752-1.034
		c0-0.563,0.188-1.081,0.611-1.645c0.329-0.47,0.846-0.752,1.598-0.752c0.939,0.094,2.068,0.94,3.385,2.538
		c1.314,1.598,1.973,2.726,1.973,3.337C229.662,9.131,229.428,9.554,229.052,10.071z M249.448,18.249
		c0.94,0.752,1.457,1.41,1.457,1.88c0,0.141-0.047,0.376-0.095,0.752c-0.094,0.376-0.094,0.658-0.094,0.846l0.047,10.245
		c0,0.188,0.047,0.564,0.142,1.081c0,0.47-0.282,1.081-0.799,1.739c-0.563,0.752-1.034,1.128-1.362,1.128
		c-0.518,0-1.035-0.188-1.552-0.658c-0.517-0.376-0.799-0.705-0.799-0.893c0-0.188,0-0.47,0.047-0.799
		c0-0.376,0.048-0.658,0.048-0.847V21.35c0-0.423-0.095-0.705-0.236-0.893c-0.188-0.188-0.469-0.329-0.893-0.329
		c-2.914,0.047-6.627,0.47-11.044,1.315c-0.658,0.142-1.504,0.329-2.444,0.518c-0.281,0.094-0.517,0.188-0.705,0.188l-0.047,0.142
		c-0.234,1.785-0.328,3.102-0.328,4.041c0,1.363,0,2.538,0.047,3.572c0,1.034,0.047,1.598,0.094,1.786
		c0,0.188,0.047,0.376,0.094,0.47c0.047,0.141,0.094,0.235,0.141,0.282c0,0.657-0.188,1.362-0.469,2.067
		c-0.283,0.752-0.8,1.081-1.599,1.081c-0.94-0.047-1.599-0.611-1.974-1.739c-0.141-0.563-0.188-3.102-0.188-7.52v-4.793
		c0-0.329-0.048-0.705-0.048-1.128c-0.047-0.424-0.094-0.705-0.094-0.894c0-0.939,0.563-1.409,1.786-1.409
		c0.563,0.047,1.222,0.328,2.021,0.799c6.814-1.27,12.36-1.928,16.685-1.928C247.756,16.979,248.508,17.403,249.448,18.249z
		 M240.096,8.708c-0.47,0.518-0.986,0.752-1.645,0.752c-0.094,0-0.234-0.141-0.329-0.517s-0.423-0.987-0.894-1.833
		c-0.563-0.752-1.033-1.269-1.409-1.645c-0.376-0.329-0.752-0.611-1.034-0.846c-0.518-0.188-0.752-0.518-0.752-0.987
		c0-0.563,0.188-1.128,0.611-1.645c0.328-0.471,0.846-0.752,1.598-0.752c0.799,0.141,1.738,1.033,2.867,2.679
		c1.033,1.691,1.598,2.866,1.645,3.524C240.754,7.815,240.52,8.238,240.096,8.708z M255.417,39.962
		c0.188-0.095,0.329-0.142,0.47-0.235c0.377,0,0.799,0.047,1.223,0.141c0.375,0,0.705,0.188,1.033,0.611
		c0.329,0.376,0.518,0.846,0.518,1.363c0,0.517-0.471,0.986-1.316,1.362c-3.102,0.846-6.627,1.27-10.574,1.27
		c-2.068,0-3.666-0.424-4.699-1.223c-1.129-0.939-1.646-2.303-1.646-4.088c0-1.504,0.048-3.103,0.142-4.983
		c0-0.517,0.047-0.893,0.047-1.128c0-0.47,0.47-0.752,1.315-0.799c0.658,0.047,1.315,0.235,2.021,0.564
		c0.658,0.329,1.035,0.704,1.035,1.175c0,0.188-0.095,0.376-0.236,0.61c-0.094,0.282-0.188,0.564-0.234,0.894
		c-0.188,1.504-0.281,2.866-0.281,4.277c0,0.47,0.188,0.846,0.562,1.128c0.377,0.188,1.035,0.282,2.068,0.282
		C249.59,41.184,252.456,40.761,255.417,39.962z"/>
	<path fill="#FFFFFF" d="M297.105,16.086c0.518-0.047,1.504-0.188,3.008-0.47c0.471,0,1.316,0.376,2.539,1.034
		c1.221,0.893,1.879,1.598,1.879,2.067c0,1.128-0.562,1.692-1.645,1.739c-0.658,0-1.363-0.047-2.115-0.188
		c-0.705-0.094-1.41-0.188-2.066-0.188c-2.256,0-6.062,0.141-11.422,0.376c-4.512,0.281-8.318,0.61-11.514,1.081
		c-0.094,0.188-0.188,0.376-0.281,0.517c-0.283,0.376-0.471,0.799-0.658,1.316c-2.209,6.955-3.338,13.064-3.385,18.422
		c0,0.142,0.047,0.424,0.236,0.847c0.094,0.376,0.188,0.705,0.188,0.893c0,0.705-0.424,1.081-1.27,1.081
		c-0.752,0-1.363-0.235-1.738-0.658c-0.471-0.376-0.799-0.939-0.893-1.645c-0.188-0.658-0.236-1.692-0.236-3.102
		c0-3.76,0.847-9.4,2.633-16.826c-0.564-0.094-1.081-0.517-1.457-1.269c-0.564-0.847-0.799-1.552-0.799-2.162
		c0-0.282,0.141-0.471,0.47-0.564c3.807-0.47,7.331-0.799,10.527-1.081h0.047c-0.799-1.222-1.456-2.585-2.021-3.994
		c-0.424-1.128-0.705-2.021-0.799-2.773c-0.752,0.095-1.41,0.188-2.021,0.282c-0.752,0.141-1.316,0.282-1.785,0.376
		c-0.471,0.094-0.94,0.142-1.41,0.142c-0.611,0-1.129-0.377-1.598-1.223c-0.518-0.846-0.752-1.504-0.752-2.021
		c0-0.282,0.141-0.47,0.422-0.517c3.525-0.377,6.768-0.705,9.682-0.94c1.692-0.094,3.29-0.188,4.842-0.329
		c-0.377-0.329-0.705-0.611-0.988-0.846c-0.516-0.329-0.986-0.611-1.362-0.799c-0.517-0.188-0.752-0.564-0.752-1.034
		c0-0.611,0.188-1.222,0.61-1.786c0.377-0.517,0.94-0.799,1.74-0.799c0.986,0.141,2.161,0.987,3.477,2.585
		c0.752,0.987,1.316,1.786,1.646,2.396c3.854-0.188,6.298-0.329,7.331-0.423c0.471-0.047,1.41-0.188,2.82-0.423
		c0.471,0,1.27,0.376,2.396,1.034c1.176,0.799,1.787,1.457,1.787,1.927c0,1.034-0.518,1.598-1.553,1.645
		c-0.609,0-1.268-0.047-2.02-0.234c-0.658-0.095-1.316-0.188-1.928-0.188h-1.08c-0.094,0.188-0.141,0.282-0.236,0.376
		c-0.188,0.376-0.328,0.658-0.375,0.799c-0.658,1.692-1.598,3.619-2.727,5.828C294.756,16.275,296.307,16.18,297.105,16.086z
		 M288.13,16.604c0.563-0.94,1.222-2.304,2.067-4.089c0.564-1.128,0.988-2.162,1.316-3.008c-1.504,0.094-3.195,0.141-5.076,0.234
		c-2.256,0.142-4.276,0.282-6.109,0.423c0.047,0.329,0.141,0.658,0.235,0.987c0.188,0.987,0.563,1.974,1.128,3.008
		s1.08,1.786,1.457,2.209c0.188,0.235,0.328,0.423,0.517,0.563C285.217,16.838,286.721,16.745,288.13,16.604z"/>
	<path fill="#FFFFFF" d="M324.697,24.734c1.033,0,1.973,0.188,2.818,0.564c0.705,0.376,1.363,0.893,1.928,1.456
		c0.518,0.611,0.799,1.223,0.799,1.786c0,1.128-0.094,2.773-0.188,4.981c-0.094,2.256-0.236,4.324-0.33,6.393v0.799
		c0,0.094-0.047,0.188-0.047,0.281c0.236,0.282,0.377,0.518,0.377,0.752c0,0.894-0.471,1.363-1.316,1.41
		c-0.564,0-1.176-0.094-1.738-0.188c-0.564-0.142-1.129-0.188-1.645-0.188c-0.658,0-1.74,0.047-3.244,0.142
		c-1.551,0.094-2.82,0.234-3.76,0.47c-0.094,0-0.188,0.047-0.234,0.047c-0.188,0.329-0.518,0.563-0.939,0.658
		c-1.035,0-1.74-0.235-2.209-0.611c-0.471-0.517-0.658-0.987-0.658-1.363l-0.564-14.664c-0.047-0.281-0.047-0.563-0.047-0.846
		c-0.047-0.234-0.047-0.376-0.047-0.47c0-0.846,0.424-1.269,1.27-1.269c0.609,0,1.221,0.094,1.832,0.234
		c0.564,0.141,0.893,0.329,1.033,0.564C320.326,25.063,322.629,24.734,324.697,24.734z M318.775,39.962
		c0.939-0.095,1.832-0.142,2.678-0.188c1.363-0.094,2.209-0.188,2.586-0.188c0.281-0.048,0.799-0.142,1.504-0.235
		c0.188-1.458,0.328-3.102,0.422-4.982c0.143-2.021,0.236-3.666,0.236-4.888c0-0.94-0.705-1.41-2.021-1.41
		c-1.785,0-3.713,0.423-5.688,1.222c-0.281,0.095-0.469,0.188-0.609,0.282c0,0.893,0,1.88,0.047,3.008
		c0.047,2.443,0.094,4.605,0.188,6.627c0,0.281,0,0.563,0.047,0.799C318.352,40.009,318.588,39.962,318.775,39.962z M337.996,2.598
		c1.082,0,2.068,0.188,2.914,0.564c0.799,0.376,1.504,0.893,2.068,1.504c0.564,0.658,0.846,1.269,0.846,1.927
		c0,0.939-0.047,2.35-0.094,4.229c-0.047,1.927-0.094,3.76-0.141,5.546v0.799c0,0.141-0.047,0.235-0.094,0.329
		c0.422,0.423,0.658,0.752,0.658,0.986c0,1.034-0.471,1.552-1.363,1.552c-0.564,0-1.176-0.048-1.834-0.188
		c-0.658-0.094-1.221-0.188-1.738-0.188c-1.129,0-3.008,0.094-5.592,0.234c-2.586,0.188-4.701,0.471-6.393,0.752
		c-0.375,0.094-0.705,0.188-0.939,0.282c-0.141,0.047-0.236,0.047-0.33,0.047c-0.188,0.329-0.516,0.564-0.986,0.658
		c-1.033,0-1.832-0.235-2.35-0.705c-0.471-0.47-0.658-0.94-0.658-1.41l-0.799-14.192c0-0.282-0.047-0.518-0.047-0.8
		c-0.047-0.188-0.047-0.376-0.047-0.47c0-0.893,0.422-1.363,1.363-1.363c0.658,0,1.314,0.095,1.973,0.235
		c0.611,0.188,0.988,0.423,1.176,0.752C330.242,2.974,334.379,2.598,337.996,2.598z M329.02,16.979
		c1.551-0.141,3.055-0.281,4.465-0.423c2.303-0.094,3.76-0.188,4.371-0.281c0.283,0,0.705-0.048,1.27-0.142
		c0.094-1.315,0.188-2.772,0.281-4.418c0.094-1.785,0.141-3.148,0.141-4.183c0-0.939-0.752-1.456-2.16-1.456
		c-3.197,0-6.58,0.375-10.105,1.08c-0.658,0.142-1.174,0.282-1.645,0.424h-0.047c0,0.846,0.047,1.785,0.094,2.819
		c0.094,2.35,0.188,4.465,0.281,6.345c0,0.234,0,0.423,0.047,0.611C327.047,17.214,328.08,17.074,329.02,16.979z M345.375,24.076
		c1.035,0,1.975,0.188,2.82,0.518c0.705,0.376,1.363,0.893,1.926,1.504c0.564,0.563,0.848,1.175,0.848,1.786
		c0,1.033-0.047,2.631-0.096,4.699c-0.094,2.209-0.141,4.276-0.188,6.203v0.8c0,0.094-0.047,0.188-0.047,0.281
		c0.471,0.376,0.752,0.752,0.752,1.081c0,0.894-0.469,1.363-1.316,1.41c-0.562,0-1.174-0.094-1.738-0.188
		c-0.564-0.142-1.127-0.188-1.645-0.188c-0.752,0-1.928,0.047-3.572,0.188c-1.691,0.094-3.102,0.234-4.135,0.517
		c-0.143,0-0.236,0.047-0.33,0.047c-0.094,0.517-0.469,0.846-1.08,0.987c-1.035,0-1.74-0.235-2.162-0.658
		c-0.471-0.518-0.658-0.94-0.658-1.316l-0.705-15.227c-0.047-0.282-0.047-0.611-0.047-0.893c-0.047-0.235-0.047-0.424-0.047-0.518
		c0-0.799,0.424-1.222,1.316-1.222c0.611,0,1.221,0.094,1.832,0.235c0.518,0.094,0.846,0.281,1.035,0.563
		C340.816,24.311,343.213,24.076,345.375,24.076z M339.547,39.304c1.035-0.141,2.021-0.235,2.961-0.282
		c1.504-0.141,2.492-0.236,2.867-0.236c0.234-0.047,0.564-0.094,1.035-0.141c0.141-1.504,0.281-3.195,0.375-5.123
		c0.094-1.974,0.141-3.571,0.141-4.746c0-0.94-0.705-1.41-2.02-1.41c-1.975,0-4.043,0.282-6.205,0.799
		c-0.234,0.094-0.422,0.142-0.516,0.142c0,1.033,0.047,2.161,0.094,3.478c0.094,2.538,0.188,4.841,0.281,6.861
		c0,0.282,0,0.518,0.047,0.752C338.938,39.351,339.266,39.304,339.547,39.304z"/>
</g>
</svg>
