<?xml version="1.0" encoding="utf-8"?>
<!-- Generator: Adobe Illustrator 16.0.0, SVG Export Plug-In . SVG Version: 6.00 Build 0)  -->
<!DOCTYPE svg PUBLIC "-//W3C//DTD SVG 1.1//EN" "http://www.w3.org/Graphics/SVG/1.1/DTD/svg11.dtd">
<svg version="1.1" id="Layer_1" xmlns="http://www.w3.org/2000/svg" xmlns:xlink="http://www.w3.org/1999/xlink" x="0px" y="0px"
	 width="8.258px" height="10.007px" viewBox="0 0 8.258 10.007" enable-background="new 0 0 8.258 10.007" xml:space="preserve">
<g>
	<g>
		<path fill-rule="evenodd" clip-rule="evenodd" fill="#FFFFFF" d="M0,10.007C0,6.669,0,3.347,0,0
			c0.091-0.005,0.177-0.015,0.263-0.015c1.646,0,3.29-0.004,4.935,0.007C5.331-0.007,5.497,0.058,5.59,0.151
			C6.44,0.98,7.278,1.82,8.11,2.666c0.082,0.086,0.152,0.229,0.152,0.346c0.01,2.265,0.006,4.529,0.006,6.795
			c0,0.062-0.006,0.123-0.01,0.2C5.506,10.007,2.77,10.007,0,10.007z M4.922,3.319c0-0.971,0-1.9,0-2.818c-1.494,0-2.954,0-4.409,0
			c0,3.02,0,6.016,0,9.02c2.425,0,4.823,0,7.241,0c0-2.064,0-4.119,0-6.201C6.823,3.319,5.899,3.319,4.922,3.319z M5.44,2.806
			c0.697,0,1.383,0,2.051,0C6.803,2.124,6.118,1.444,5.44,0.771C5.44,1.427,5.44,2.112,5.44,2.806z"/>
		<path fill-rule="evenodd" clip-rule="evenodd" fill="#FFFFFF" d="M1.585,4.593c0-0.154,0-0.293,0-0.451c1.69,0,3.373,0,5.08,0
			c0,0.146,0,0.291,0,0.451C4.969,4.593,3.286,4.593,1.585,4.593z"/>
		<path fill-rule="evenodd" clip-rule="evenodd" fill="#FFFFFF" d="M6.68,5.944c0,0.155,0,0.289,0,0.447c-1.697,0-3.388,0-5.096,0
			c0-0.145,0-0.283,0-0.447C3.273,5.944,4.963,5.944,6.68,5.944z"/>
		<path fill-rule="evenodd" clip-rule="evenodd" fill="#FFFFFF" d="M1.584,8.209c0-0.155,0-0.294,0-0.451c1.692,0,3.375,0,5.081,0
			c0,0.146,0,0.291,0,0.451C4.969,8.209,3.285,8.209,1.584,8.209z"/>
		<path fill-rule="evenodd" clip-rule="evenodd" fill="#FFFFFF" d="M4.116,2.323c0,0.152,0,0.293,0,0.451c-0.843,0-1.683,0-2.535,0
			c0-0.152,0-0.293,0-0.451C2.426,2.323,3.266,2.323,4.116,2.323z"/>
	</g>
</g>
</svg>
