<?xml version="1.0" encoding="utf-8"?>
<!-- Generator: Adobe Illustrator 16.0.0, SVG Export Plug-In . SVG Version: 6.00 Build 0)  -->
<!DOCTYPE svg PUBLIC "-//W3C//DTD SVG 1.1//EN" "http://www.w3.org/Graphics/SVG/1.1/DTD/svg11.dtd">
<svg version="1.1" id="Layer_1" xmlns="http://www.w3.org/2000/svg" xmlns:xlink="http://www.w3.org/1999/xlink" x="0px" y="0px"
	 width="84.539px" height="60.199px" viewBox="287.019 0 84.539 60.199" enable-background="new 287.019 0 84.539 60.199"
	 xml:space="preserve">
<g>
	<g>
		<g>
			<path fill="#FFFFFF" d="M171.245,1.006C169.344,0.329,166.27,0,162.056,0h-5.985v28.379h9.088c3.516,0,6.276-0.496,8.227-1.533
				c1.972-1.031,3.586-2.655,4.826-4.808c1.205-2.152,1.814-4.665,1.814-7.487c0-3.286-0.77-6.135-2.313-8.506
				C176.168,3.673,173.991,1.985,171.245,1.006z M159.108,3.08h1.82c3.973,0,6.898,0.258,8.619,0.773
				c2.287,0.722,4.072,2.036,5.363,3.898c1.295,1.889,1.939,4.183,1.939,6.851c0,2.513-0.609,4.69-1.771,6.443
				c-1.187,1.728-2.824,2.965-4.889,3.635c-1.484,0.477-4.182,0.709-8.02,0.709h-3.064V3.08H159.108z"/>
		</g>
		<g>
			<rect x="185.29" fill="#FFFFFF" width="3.15" height="28.379"/>
		</g>
		<g>
			<path fill="#FFFFFF" d="M210.175,14.447c1.362-0.599,2.446-1.508,3.178-2.706c0.716-1.16,1.108-2.552,1.108-4.118
				c0-1.849-0.563-3.44-1.618-4.736c-1.06-1.269-2.451-2.106-4.162-2.513C207.563,0.109,205.423,0,202.325,0h-5.758v28.379h3.141
				v-13.01h1.338l10.074,13.01h3.912l-10.095-13.01C207.134,15.324,208.887,15.027,210.175,14.447z M204.368,12.308l-4.66-0.025
				V3.08h4.789c1.885,0,3.24,0.168,4.065,0.497c0.765,0.309,1.414,0.844,1.907,1.578c0.496,0.734,0.722,1.553,0.722,2.468
				c0,0.947-0.226,1.785-0.719,2.533c-0.468,0.74-1.156,1.288-2.011,1.643C207.573,12.153,206.204,12.308,204.368,12.308z"/>
		</g>
		<g>
			<path fill="#FFFFFF" d="M236.92,19.551V0h-0.82l-15.875,22.566h13.577v5.812h3.118v-5.812h3.402V19.55L236.92,19.551
				L236.92,19.551z M233.802,19.551h-7.798l7.798-11.07V19.551z"/>
		</g>
	</g>
</g>
<g>
	<g>
		<g>
			<path fill="#FFFFFF" d="M302.336,1.006C300.435,0.329,297.361,0,293.148,0h-5.986v28.379h9.089c3.517,0,6.276-0.496,8.226-1.533
				c1.973-1.031,3.586-2.655,4.828-4.808c1.203-2.152,1.813-4.665,1.813-7.487c0-3.286-0.771-6.135-2.313-8.506
				C307.261,3.673,305.082,1.985,302.336,1.006z M290.2,3.08h1.819c3.974,0,6.898,0.258,8.619,0.773
				c2.287,0.722,4.072,2.036,5.364,3.898c1.296,1.889,1.938,4.183,1.938,6.851c0,2.513-0.607,4.69-1.771,6.443
				c-1.186,1.728-2.822,2.965-4.887,3.635c-1.486,0.477-4.184,0.709-8.02,0.709h-3.064L290.2,3.08L290.2,3.08z"/>
		</g>
		<g>
			<rect x="316.382" fill="#FFFFFF" width="3.15" height="28.379"/>
		</g>
		<g>
			<path fill="#FFFFFF" d="M341.267,14.447c1.363-0.599,2.447-1.508,3.178-2.706c0.715-1.16,1.109-2.552,1.109-4.118
				c0-1.849-0.563-3.44-1.619-4.736c-1.059-1.269-2.451-2.106-4.162-2.513C338.654,0.109,336.515,0,333.416,0h-5.758v28.379h3.143
				v-13.01h1.336l10.076,13.01h3.912l-10.096-13.01C338.226,15.324,339.978,15.027,341.267,14.447z M335.458,12.308l-4.658-0.025
				V3.08h4.787c1.885,0,3.24,0.168,4.066,0.497c0.764,0.309,1.414,0.844,1.906,1.578c0.496,0.734,0.723,1.553,0.723,2.468
				c0,0.947-0.227,1.785-0.719,2.533c-0.467,0.74-1.156,1.288-2.01,1.643C338.664,12.153,337.294,12.308,335.458,12.308z"/>
		</g>
		<g>
			<path fill="#FFFFFF" d="M368.013,19.551V0h-0.82l-15.875,22.566h13.576v5.812h3.119v-5.812h3.402V19.55L368.013,19.551
				L368.013,19.551z M364.894,19.551h-7.797l7.797-11.07V19.551z"/>
		</g>
	</g>
</g>
<g>
	<g>
		<path fill="#E85125" d="M155.786,39.309h14.441v3.157H159.45v5.464h9.463v2.99h-9.463v9.279h-3.664V39.309z"/>
	</g>
	<g>
		<path fill="#E85125" d="M173.153,39.309h3.659V60.2h-3.659V39.309z"/>
	</g>
	<g>
		<path fill="#E85125" d="M181.282,39.309h3.653v17.733h10.636v3.157h-14.289V39.309z"/>
	</g>
	<g>
		<path fill="#E85125" d="M198.016,39.309h5.171l5.742,16.367h0.067l5.615-16.367h5.09V60.2h-3.476V44.076h-0.056l-5.809,16.123
			h-3.011l-5.799-16.123h-0.05v16.123h-3.488V39.309H198.016z"/>
	</g>
	<g>
		<path fill="#E85125" d="M226.495,53.24c0,3.209,2.375,4.472,5.301,4.472c3.209,0,4.416-1.571,4.416-3.157
			c0-1.611-0.869-2.256-1.732-2.578c-1.449-0.554-3.369-0.939-6.225-1.727c-3.584-0.967-4.635-3.119-4.635-5.29
			c0-4.194,3.888-6.153,7.649-6.153c4.347,0,8.021,2.307,8.021,6.676h-3.674c-0.16-2.693-1.976-3.699-4.508-3.699
			c-1.688,0-3.818,0.632-3.818,2.72c0,1.488,0.983,2.294,2.484,2.72c0.329,0.064,4.952,1.275,6.021,1.598
			c2.762,0.813,4.072,3.158,4.072,5.322c0,4.68-4.146,6.562-8.318,6.562c-4.762,0-8.633-2.281-8.715-7.462h3.66V53.24z"/>
	</g>
</g>
<g>
	<path d="M15.458,86.826c-1.9-0.678-4.975-1.006-9.188-1.006H0.284v28.379h9.089c3.515,0,6.276-0.496,8.226-1.533
		c1.972-1.031,3.586-2.655,4.827-4.809c1.205-2.151,1.814-4.664,1.814-7.486c0-3.286-0.77-6.135-2.313-8.506
		C20.382,89.493,18.204,87.807,15.458,86.826z M3.322,88.9h1.82c3.973,0,6.898,0.258,8.619,0.772
		c2.287,0.722,4.072,2.036,5.364,3.897c1.295,1.89,1.939,4.184,1.939,6.852c0,2.514-0.609,4.689-1.772,6.443
		c-1.186,1.728-2.823,2.965-4.888,3.635c-1.485,0.477-4.182,0.709-8.02,0.709H3.322V88.9z"/>
</g>
<g>
	<rect x="29.503" y="85.82" width="3.151" height="28.379"/>
</g>
<g>
	<path d="M54.389,100.268c1.362-0.599,2.446-1.508,3.178-2.705c0.716-1.16,1.108-2.553,1.108-4.119c0-1.849-0.563-3.439-1.618-4.735
		c-1.06-1.269-2.451-2.106-4.162-2.513c-1.118-0.266-3.258-0.375-6.356-0.375H40.78v28.38h3.142v-13.011h1.336L55.333,114.2h3.912
		L49.15,101.189C51.348,101.145,53.101,100.848,54.389,100.268z M48.582,98.128l-4.66-0.024V88.9h4.789
		c1.885,0,3.24,0.168,4.065,0.496c0.765,0.31,1.414,0.845,1.907,1.578c0.496,0.734,0.722,1.553,0.722,2.469
		c0,0.947-0.226,1.785-0.719,2.533c-0.468,0.739-1.156,1.287-2.011,1.643C51.787,97.975,50.417,98.128,48.582,98.128z"/>
</g>
<g>
	<path fill="#E85125" d="M81.134,105.371V85.82h-0.82l-15.875,22.566h13.577v5.813h3.118v-5.813h3.402v-3.016H81.134z
		 M78.016,105.371h-7.798l7.798-11.07V105.371z"/>
</g>
<g>
	<g>
		<path fill="#E85125" d="M310.183,39.225h17.027V42.4h-6.686v17.85h-3.686V42.4h-6.656V39.225L310.183,39.225z"/>
	</g>
	<g>
		<path fill="#E85125" d="M329.781,39.225h3.832l5.268,16.646h0.059l5.391-16.646h3.744l-7.184,21.024h-4.104L329.781,39.225z"/>
	</g>
</g>
<path fill="#E85125" d="M63.542,32.593l8.461-9.503l-1.752,9.503H63.542z M72.925,32.593l3.109-16.795h-0.711L58.099,35.189h11.66
	l-1.025,5.588h2.678l1.037-5.588h2.627l2.35-2.598L72.925,32.593L72.925,32.593z"/>
<g>
	<polygon fill="#FFFFFF" points="64.712,15.778 52.847,29.101 46.603,15.778 44.781,15.778 51.796,30.66 49.437,41.639 
		51.115,41.639 53.443,30.802 66.822,15.778 	"/>
	<path fill="#FFFFFF" d="M41.421,16.685c-0.703-0.404-1.459-0.661-2.248-0.762c-0.643-0.072-1.322-0.143-1.973-0.162H27.142
		L4.134,41.631h17.588l-1.85,8.833h1.984l1.83-8.825h9.539c1.361,0,2.627-0.181,3.754-0.535c1.152-0.352,2.152-0.873,2.975-1.556
		c0.814-0.687,1.459-1.54,1.914-2.538c0.461-0.994,0.693-2.143,0.693-3.41c0-1.646-0.418-3.003-1.24-4.033
		c-0.479-0.606-1.125-1.071-1.932-1.388c0.109-0.037,0.219-0.076,0.326-0.116c0.813-0.332,1.52-0.769,2.096-1.293
		c0.643-0.558,1.172-1.258,1.572-2.083c0.402-0.846,0.607-1.818,0.607-2.891c0-1.379-0.252-2.489-0.748-3.298
		C42.746,17.696,42.132,17.086,41.421,16.685z M40.396,31.089c0.352,0.585,0.527,1.431,0.527,2.511c0,1.221-0.232,2.25-0.689,3.056
		c-0.482,0.817-1.084,1.478-1.787,1.963c-0.707,0.503-1.502,0.86-2.363,1.065c-0.896,0.211-1.717,0.318-2.434,0.318h-9.641
		l2.271-11.015h8.029c0.762,0,1.59,0.049,2.533,0.149c0.768,0.079,1.475,0.285,2.102,0.613
		C39.537,30.061,40.027,30.514,40.396,31.089z M8.031,40.002l18.4-20.766l-4.365,20.766H8.031z M42.359,21.796
		c0,0.888-0.176,1.678-0.525,2.353c-0.332,0.673-0.836,1.257-1.5,1.736c-0.648,0.474-1.453,0.847-2.391,1.106
		c-0.945,0.246-2.016,0.37-3.182,0.37l-8.188-0.02l2.059-9.969l8.777,0.034c0.617,0,1.238,0.062,1.848,0.184
		c0.578,0.115,1.104,0.33,1.559,0.639c0.455,0.317,0.816,0.742,1.105,1.295C42.21,20.092,42.359,20.856,42.359,21.796z"/>
</g>
</svg>
