<?xml version="1.0" encoding="utf-8"?>
<!-- Generator: Adobe Illustrator 16.0.0, SVG Export Plug-In . SVG Version: 6.00 Build 0)  -->
<!DOCTYPE svg PUBLIC "-//W3C//DTD SVG 1.1//EN" "http://www.w3.org/Graphics/SVG/1.1/DTD/svg11.dtd">
<svg version="1.1" id="Layer_1" xmlns="http://www.w3.org/2000/svg" xmlns:xlink="http://www.w3.org/1999/xlink" x="0px" y="0px"
	 width="84.539px" height="60.199px" viewBox="0 0 84.539 60.199" enable-background="new 0 0 84.539 60.199" xml:space="preserve">
<g>
	<g>
		<g>
			<path fill="#ffffff" d="M171.245,1.006C169.344,0.329,166.27,0,162.057,0h-5.986v28.379h9.09c3.516,0,6.275-0.496,8.227-1.533
				c1.973-1.031,3.588-2.655,4.826-4.808c1.205-2.152,1.813-4.665,1.813-7.487c0-3.286-0.77-6.135-2.313-8.506
				C176.168,3.673,173.991,1.985,171.245,1.006z M159.107,3.08h1.819c3.974,0,6.898,0.258,8.619,0.773
				c2.287,0.722,4.072,2.036,5.363,3.898c1.295,1.889,1.938,4.183,1.938,6.851c0,2.513-0.608,4.69-1.771,6.443
				c-1.188,1.728-2.824,2.965-4.89,3.635c-1.483,0.477-4.183,0.709-8.021,0.709h-3.063V3.08H159.107z"/>
		</g>
		<g>
			<rect x="185.29" fill="#ffffff" width="3.149" height="28.379"/>
		</g>
		<g>
			<path fill="#ffffff" d="M210.175,14.447c1.362-0.599,2.446-1.508,3.179-2.706c0.715-1.16,1.107-2.552,1.107-4.118
				c0-1.849-0.563-3.44-1.618-4.736c-1.06-1.269-2.45-2.106-4.161-2.513C207.563,0.109,205.423,0,202.325,0h-5.759v28.379h3.142
				v-13.01h1.338l10.074,13.01h3.912l-10.095-13.01C207.134,15.324,208.887,15.027,210.175,14.447z M204.368,12.308l-4.66-0.025
				V3.08h4.789c1.885,0,3.239,0.168,4.065,0.497c0.765,0.309,1.414,0.844,1.905,1.578c0.496,0.734,0.724,1.553,0.724,2.468
				c0,0.947-0.228,1.785-0.719,2.533c-0.47,0.74-1.156,1.288-2.013,1.643C207.573,12.153,206.204,12.308,204.368,12.308z"/>
		</g>
		<g>
			<path fill="#ffffff" d="M236.92,19.551V0h-0.82l-15.875,22.566h13.577v5.812h3.118v-5.812h3.402V19.55L236.92,19.551
				L236.92,19.551z M233.802,19.551h-7.798l7.798-11.07V19.551z"/>
		</g>
	</g>
</g>
<g>
	<g>
		<g>
			<path fill="#ffffff" d="M15.317,0.98c-1.9-0.677-4.975-1.006-9.188-1.006H0.144v28.379h9.089c3.517,0,6.276-0.496,8.226-1.533
				c1.975-1.031,3.588-2.655,4.828-4.808c1.203-2.152,1.813-4.665,1.813-7.487c0-3.286-0.771-6.135-2.313-8.506
				C20.242,3.647,18.063,1.959,15.317,0.98z M3.182,3.055h1.819c3.974,0,6.896,0.258,8.619,0.773
				c2.285,0.722,4.07,2.036,5.362,3.898c1.296,1.889,1.938,4.183,1.938,6.851c0,2.513-0.607,4.69-1.771,6.443
				c-1.188,1.728-2.82,2.965-4.887,3.635c-1.486,0.477-4.186,0.709-8.021,0.709H3.179L3.182,3.055L3.182,3.055z"/>
		</g>
		<g>
			<rect x="29.363" y="-0.025" fill="#ffffff" width="3.15" height="28.379"/>
		</g>
		<g>
			<path fill="#ffffff" d="M54.248,14.422c1.363-0.599,2.447-1.508,3.18-2.706c0.715-1.16,1.107-2.552,1.107-4.118
				c0-1.849-0.563-3.44-1.618-4.736c-1.06-1.269-2.45-2.106-4.161-2.513c-1.12-0.265-3.26-0.374-6.358-0.374H40.64v28.379h3.143
				v-13.01h1.336l10.076,13.01h3.912l-10.096-13.01C51.207,15.299,52.96,15.001,54.248,14.422z M48.439,12.283l-4.658-0.025V3.055
				h4.787c1.885,0,3.24,0.168,4.066,0.497c0.764,0.309,1.414,0.844,1.904,1.578c0.496,0.734,0.725,1.553,0.725,2.468
				c0,0.947-0.229,1.785-0.72,2.533c-0.468,0.74-1.155,1.288-2.011,1.643C51.646,12.127,50.275,12.283,48.439,12.283z"/>
		</g>
		<g>
			<path fill="#ffffff" d="M80.994,19.525V-0.025h-0.818L64.301,22.541h13.575v5.812h3.118v-5.812h3.402v-3.016L80.994,19.525
				L80.994,19.525z M77.876,19.525h-7.798l7.798-11.07V19.525z"/>
		</g>
	</g>
</g>
<g>
	<g>
		<path fill="#ffffff" d="M156.3,39.307h14.44v3.157h-10.776v5.464h9.463v2.99h-9.463v9.279H156.3V39.307z"/>
	</g>
	<g>
		<path fill="#ffffff" d="M173.666,39.307h3.66v20.893h-3.66V39.307z"/>
	</g>
	<g>
		<path fill="#ffffff" d="M181.796,39.307h3.653V57.04h10.635v3.157h-14.288V39.307z"/>
	</g>
	<g>
		<path fill="#ffffff" d="M198.529,39.307h5.172l5.742,16.367h0.065l5.615-16.367h5.09v20.893h-3.478V44.074h-0.055l-5.811,16.123
			h-3.01l-5.801-16.123h-0.05v16.123h-3.487V39.307H198.529z"/>
	</g>
	<g>
		<path fill="#ffffff" d="M227.009,53.238c0,3.209,2.375,4.472,5.302,4.472c3.209,0,4.416-1.571,4.416-3.157
			c0-1.611-0.869-2.256-1.731-2.578c-1.449-0.554-3.369-0.938-6.226-1.727c-3.584-0.967-4.636-3.119-4.636-5.29
			c0-4.194,3.888-6.153,7.649-6.153c4.347,0,8.021,2.309,8.021,6.676h-3.675c-0.159-2.691-1.976-3.697-4.509-3.697
			c-1.688,0-3.816,0.632-3.816,2.72c0,1.488,0.982,2.294,2.482,2.722c0.33,0.063,4.953,1.273,6.021,1.598
			c2.762,0.813,4.071,3.158,4.071,5.322c0,4.68-4.146,6.562-8.317,6.562c-4.763,0-8.633-2.281-8.715-7.462h3.659L227.009,53.238
			L227.009,53.238z"/>
	</g>
</g>
<g>
	<path d="M15.458,86.826c-1.9-0.678-4.975-1.006-9.188-1.006H0.284v28.379h9.089c3.515,0,6.276-0.496,8.226-1.533
		c1.972-1.031,3.586-2.655,4.827-4.809c1.205-2.151,1.814-4.664,1.814-7.486c0-3.286-0.77-6.135-2.313-8.506
		C20.382,89.493,18.204,87.807,15.458,86.826z M3.322,88.9h1.82c3.973,0,6.898,0.258,8.619,0.771
		c2.287,0.724,4.072,2.036,5.364,3.896c1.295,1.892,1.939,4.186,1.939,6.854c0,2.516-0.609,4.688-1.772,6.443
		c-1.186,1.728-2.823,2.965-4.888,3.635c-1.485,0.479-4.182,0.709-8.02,0.709H3.322V88.9z"/>
</g>
<g>
	<rect x="29.503" y="85.82" width="3.151" height="28.379"/>
</g>
<g>
	<path d="M54.389,100.268c1.362-0.599,2.446-1.508,3.178-2.705c0.718-1.16,1.108-2.553,1.108-4.119c0-1.849-0.563-3.438-1.618-4.733
		c-1.06-1.271-2.451-2.104-4.162-2.515c-1.117-0.266-3.258-0.375-6.354-0.375h-5.76v28.382h3.142v-13.013h1.336L55.333,114.2h3.912
		L49.15,101.189C51.348,101.145,53.102,100.848,54.389,100.268z M48.582,98.128l-4.66-0.024V88.9h4.789
		c1.885,0,3.24,0.168,4.064,0.496c0.766,0.31,1.414,0.845,1.908,1.578c0.496,0.732,0.721,1.553,0.721,2.469
		c0,0.947-0.225,1.785-0.719,2.533c-0.469,0.737-1.156,1.287-2.012,1.643C51.787,97.975,50.417,98.128,48.582,98.128z"/>
</g>
<g>
	<path fill="#ffffff" d="M81.134,105.371V85.82h-0.819l-15.875,22.564h13.576v5.813h3.118v-5.813h3.402v-3.016L81.134,105.371
		L81.134,105.371z M78.016,105.371h-7.798l7.798-11.07V105.371z"/>
</g>
<g>
	<g>
		<path fill="#ffffff" d="M23.164,39.199h17.027v3.176h-6.686v17.85h-3.688v-17.85h-6.656L23.164,39.199L23.164,39.199z"/>
	</g>
	<g>
		<path fill="#ffffff" d="M42.763,39.199h3.832l5.268,16.646h0.061l5.391-16.646h3.744l-7.186,21.024h-4.104L42.763,39.199z"/>
	</g>
</g>
<path fill="#ffffff" d="M211.201-48.855l8.461-9.503l-1.752,9.503H211.201z M220.584-48.855l3.109-16.795h-0.711l-17.224,19.392
	h11.659l-1.024,5.588h2.679l1.037-5.588h2.627l2.35-2.6L220.584-48.855L220.584-48.855z"/>
<g>
	<polygon fill="#ffffff" points="212.371,-65.67 200.507,-52.347 194.263,-65.67 192.44,-65.67 199.455,-50.788 197.097,-39.81 
		198.774,-39.81 201.103,-50.646 214.481,-65.67 	"/>
	<path fill="#ffffff" d="M189.08-64.763c-0.703-0.404-1.459-0.661-2.248-0.762c-0.643-0.072-1.322-0.143-1.973-0.162h-10.059
		l-23.008,25.87h17.588l-1.85,8.833h1.984l1.83-8.825h9.539c1.36,0,2.627-0.181,3.754-0.535c1.151-0.352,2.151-0.873,2.975-1.556
		c0.814-0.687,1.459-1.54,1.914-2.538c0.461-0.994,0.693-2.143,0.693-3.41c0-1.646-0.418-3.001-1.24-4.033
		c-0.479-0.606-1.125-1.071-1.932-1.388c0.108-0.037,0.219-0.076,0.325-0.116c0.813-0.332,1.521-0.769,2.097-1.293
		c0.643-0.558,1.171-1.258,1.571-2.083c0.402-0.846,0.607-1.818,0.607-2.891c0-1.379-0.252-2.489-0.748-3.298
		C190.405-63.752,189.791-64.362,189.08-64.763z M188.055-50.359c0.353,0.585,0.527,1.431,0.527,2.511
		c0,1.221-0.232,2.25-0.689,3.058c-0.481,0.815-1.084,1.478-1.787,1.963c-0.706,0.503-1.502,0.858-2.362,1.063
		c-0.896,0.211-1.717,0.318-2.435,0.318h-9.641l2.271-11.015h8.029c0.762,0,1.59,0.049,2.532,0.149
		c0.769,0.079,1.476,0.285,2.103,0.613C187.196-51.387,187.686-50.934,188.055-50.359z M155.69-41.446l18.399-20.766l-4.365,20.766
		H155.69z M190.018-59.652c0,0.888-0.176,1.678-0.524,2.353c-0.332,0.673-0.836,1.257-1.5,1.736
		c-0.647,0.474-1.453,0.847-2.392,1.106c-0.944,0.246-2.016,0.37-3.182,0.37l-8.188-0.02l2.059-9.969l8.777,0.034
		c0.617,0,1.238,0.062,1.848,0.184c0.578,0.115,1.104,0.33,1.559,0.639c0.455,0.317,0.816,0.742,1.105,1.295
		C189.869-61.356,190.018-60.592,190.018-59.652z"/>
</g>
</svg>
