<?xml version="1.0" encoding="utf-8"?>
<!-- Generator: Adobe Illustrator 16.0.0, SVG Export Plug-In . SVG Version: 6.00 Build 0)  -->
<!DOCTYPE svg PUBLIC "-//W3C//DTD SVG 1.1//EN" "http://www.w3.org/Graphics/SVG/1.1/DTD/svg11.dtd">
<svg version="1.1" id="Layer_1" xmlns="http://www.w3.org/2000/svg" xmlns:xlink="http://www.w3.org/1999/xlink" x="0px" y="0px"
	 width="84.539px" height="60.199px" viewBox="0 0 84.539 60.199" enable-background="new 0 0 84.539 60.199" xml:space="preserve">
<g>
	<g>
		<g>
			<path fill="#FFFFFF" d="M171.245,1.006C169.344,0.329,166.27,0,162.057,0h-5.986v28.379h9.089c3.516,0,6.276-0.496,8.228-1.533
				c1.971-1.031,3.586-2.655,4.825-4.808c1.205-2.152,1.813-4.665,1.813-7.487c0-3.286-0.77-6.135-2.312-8.506
				C176.168,3.673,173.991,1.985,171.245,1.006z M159.107,3.08h1.82c3.973,0,6.898,0.258,8.619,0.773
				c2.287,0.722,4.072,2.036,5.363,3.898c1.295,1.889,1.939,4.183,1.939,6.851c0,2.513-0.609,4.69-1.771,6.443
				c-1.188,1.728-2.824,2.965-4.889,3.635c-1.484,0.477-4.183,0.709-8.021,0.709h-3.063V3.08H159.107z"/>
		</g>
		<g>
			<rect x="185.29" fill="#FFFFFF" width="3.149" height="28.379"/>
		</g>
		<g>
			<path fill="#FFFFFF" d="M210.175,14.447c1.362-0.599,2.446-1.508,3.179-2.706c0.715-1.16,1.107-2.552,1.107-4.118
				c0-1.849-0.562-3.44-1.618-4.736c-1.06-1.269-2.45-2.106-4.161-2.513C207.562,0.109,205.423,0,202.325,0h-5.759v28.379h3.142
				v-13.01h1.338l10.074,13.01h3.912l-10.095-13.01C207.134,15.324,208.887,15.027,210.175,14.447z M204.368,12.308l-4.66-0.025
				V3.08h4.789c1.885,0,3.239,0.168,4.065,0.497c0.765,0.309,1.414,0.844,1.906,1.578c0.496,0.734,0.723,1.553,0.723,2.468
				c0,0.947-0.227,1.785-0.719,2.533c-0.469,0.74-1.156,1.288-2.012,1.643C207.573,12.153,206.204,12.308,204.368,12.308z"/>
		</g>
		<g>
			<path fill="#FFFFFF" d="M236.92,19.551V0h-0.82l-15.875,22.566h13.577v5.812h3.118v-5.812h3.402V19.55L236.92,19.551
				L236.92,19.551z M233.802,19.551h-7.798l7.798-11.07V19.551z"/>
		</g>
	</g>
</g>
<g>
	<g>
		<g>
			<path fill="#FFFFFF" d="M302.336,1.006C300.436,0.329,297.361,0,293.148,0h-5.986v28.379h9.089c3.517,0,6.276-0.496,8.226-1.533
				c1.974-1.031,3.587-2.655,4.828-4.808c1.203-2.152,1.813-4.665,1.813-7.487c0-3.286-0.771-6.135-2.313-8.506
				C307.261,3.673,305.082,1.985,302.336,1.006z M290.2,3.08h1.819c3.974,0,6.897,0.258,8.619,0.773
				c2.286,0.722,4.071,2.036,5.363,3.898c1.296,1.889,1.938,4.183,1.938,6.851c0,2.513-0.607,4.69-1.771,6.443
				c-1.187,1.728-2.821,2.965-4.887,3.635c-1.486,0.477-4.185,0.709-8.021,0.709h-3.063L290.2,3.08L290.2,3.08z"/>
		</g>
		<g>
			<rect x="316.382" fill="#FFFFFF" width="3.15" height="28.379"/>
		</g>
		<g>
			<path fill="#FFFFFF" d="M341.267,14.447c1.363-0.599,2.447-1.508,3.179-2.706c0.715-1.16,1.108-2.552,1.108-4.118
				c0-1.849-0.562-3.44-1.619-4.736c-1.059-1.269-2.45-2.106-4.161-2.513C338.654,0.109,336.515,0,333.416,0h-5.758v28.379h3.143
				v-13.01h1.336l10.076,13.01h3.912l-10.096-13.01C338.226,15.324,339.978,15.027,341.267,14.447z M335.458,12.308l-4.658-0.025
				V3.08h4.787c1.885,0,3.24,0.168,4.066,0.497c0.764,0.309,1.414,0.844,1.905,1.578c0.496,0.734,0.724,1.553,0.724,2.468
				c0,0.947-0.228,1.785-0.719,2.533c-0.468,0.74-1.156,1.288-2.011,1.643C338.664,12.153,337.294,12.308,335.458,12.308z"/>
		</g>
		<g>
			<path fill="#FFFFFF" d="M368.013,19.551V0h-0.819l-15.875,22.566h13.575v5.812h3.119v-5.812h3.402V19.55L368.013,19.551
				L368.013,19.551z M364.894,19.551h-7.797l7.797-11.07V19.551z"/>
		</g>
	</g>
</g>
<g>
	<g>
		<path fill="#E85125" d="M155.786,39.309h14.44v3.157H159.45v5.464h9.463v2.99h-9.463v9.279h-3.664V39.309z"/>
	</g>
	<g>
		<path fill="#E85125" d="M173.152,39.309h3.66V60.2h-3.66V39.309z"/>
	</g>
	<g>
		<path fill="#E85125" d="M181.282,39.309h3.653v17.733h10.635v3.157h-14.288V39.309z"/>
	</g>
	<g>
		<path fill="#E85125" d="M198.016,39.309h5.172l5.742,16.367h0.066l5.615-16.367h5.09V60.2h-3.477V44.076h-0.056l-5.81,16.123
			h-3.01l-5.8-16.123h-0.05v16.123h-3.488V39.309H198.016z"/>
	</g>
	<g>
		<path fill="#E85125" d="M226.495,53.24c0,3.209,2.375,4.472,5.301,4.472c3.209,0,4.416-1.571,4.416-3.157
			c0-1.611-0.869-2.256-1.731-2.578c-1.449-0.554-3.369-0.938-6.226-1.727c-3.584-0.967-4.635-3.119-4.635-5.29
			c0-4.194,3.888-6.153,7.649-6.153c4.347,0,8.021,2.308,8.021,6.676h-3.674c-0.16-2.692-1.976-3.698-4.509-3.698
			c-1.688,0-3.817,0.632-3.817,2.72c0,1.488,0.983,2.294,2.483,2.721c0.33,0.063,4.953,1.274,6.021,1.598
			c2.762,0.812,4.072,3.158,4.072,5.322c0,4.68-4.146,6.562-8.318,6.562c-4.762,0-8.633-2.281-8.715-7.462h3.66L226.495,53.24
			L226.495,53.24z"/>
	</g>
</g>
<g>
	<path d="M15.458,86.826c-1.9-0.678-4.975-1.006-9.188-1.006H0.284v28.379h9.089c3.515,0,6.276-0.496,8.226-1.533
		c1.972-1.031,3.586-2.655,4.827-4.809c1.205-2.151,1.814-4.664,1.814-7.486c0-3.286-0.77-6.135-2.313-8.506
		C20.382,89.493,18.204,87.807,15.458,86.826z M3.322,88.9h1.82c3.973,0,6.898,0.258,8.619,0.771
		c2.287,0.723,4.072,2.036,5.364,3.896c1.295,1.891,1.939,4.185,1.939,6.853c0,2.515-0.609,4.688-1.772,6.443
		c-1.186,1.728-2.823,2.965-4.888,3.635c-1.485,0.478-4.182,0.709-8.02,0.709H3.322V88.9z"/>
</g>
<g>
	<rect x="29.503" y="85.82" width="3.151" height="28.379"/>
</g>
<g>
	<path d="M54.389,100.268c1.362-0.599,2.446-1.508,3.178-2.705c0.717-1.16,1.108-2.553,1.108-4.119c0-1.849-0.563-3.438-1.618-4.734
		c-1.06-1.27-2.451-2.105-4.162-2.514c-1.117-0.266-3.258-0.375-6.355-0.375H40.78v28.381h3.142v-13.012h1.336L55.333,114.2h3.912
		L49.15,101.189C51.348,101.145,53.102,100.848,54.389,100.268z M48.582,98.128l-4.66-0.024V88.9h4.789
		c1.885,0,3.24,0.168,4.064,0.496c0.766,0.31,1.414,0.845,1.908,1.578c0.496,0.733,0.721,1.553,0.721,2.469
		c0,0.947-0.225,1.785-0.719,2.533c-0.468,0.738-1.156,1.287-2.011,1.643C51.787,97.975,50.417,98.128,48.582,98.128z"/>
</g>
<g>
	<path fill="#E85125" d="M81.134,105.371V85.82h-0.819l-15.875,22.565h13.576v5.813h3.118v-5.813h3.402v-3.016L81.134,105.371
		L81.134,105.371z M78.016,105.371h-7.798l7.798-11.07V105.371z"/>
</g>
<g>
	<g>
		<path fill="#E85125" d="M310.183,39.225h17.027V42.4h-6.686v17.85h-3.687V42.4h-6.656L310.183,39.225L310.183,39.225z"/>
	</g>
	<g>
		<path fill="#E85125" d="M329.781,39.225h3.832l5.268,16.646h0.06l5.391-16.646h3.744l-7.185,21.024h-4.104L329.781,39.225z"/>
	</g>
</g>
<path fill="#E85125" d="M67.594,30.315l9.782-10.987L75.35,30.315H67.594z M78.441,30.315l3.594-19.417h-0.822L61.302,33.317H74.78
	l-1.184,6.46h3.097l1.198-6.46h3.037l2.717-3.004L78.441,30.315L78.441,30.315z"/>
<g>
	<polygon fill="#FFFFFF" points="70.033,8.78 56.317,24.183 49.099,8.78 46.992,8.78 55.102,25.986 52.375,38.678 54.314,38.678 
		57.007,26.149 72.473,8.78 	"/>
	<path fill="#FFFFFF" d="M43.107,9.83c-0.813-0.467-1.687-0.765-2.599-0.882c-0.744-0.083-1.528-0.165-2.281-0.187H26.6L0,38.669
		h20.333l-2.139,10.212h2.293l2.116-10.203h11.028c1.574,0,3.037-0.208,4.34-0.619c1.332-0.405,2.487-1.008,3.439-1.798
		c0.941-0.794,1.687-1.781,2.213-2.935c0.531-1.149,0.8-2.477,0.8-3.942c0-1.902-0.482-3.471-1.434-4.662
		c-0.554-0.7-1.301-1.238-2.233-1.604c0.126-0.043,0.252-0.088,0.376-0.134c0.94-0.384,1.757-0.889,2.423-1.495
		c0.744-0.645,1.354-1.454,1.817-2.408c0.466-0.978,0.702-2.102,0.702-3.342c0-1.594-0.291-2.877-0.865-3.812
		C44.639,10.998,43.93,10.293,43.107,9.83z M41.922,26.481c0.407,0.676,0.608,1.654,0.608,2.902c0,1.411-0.268,2.602-0.795,3.534
		c-0.558,0.943-1.253,1.708-2.067,2.27c-0.816,0.581-1.736,0.992-2.731,1.229c-1.036,0.244-1.984,0.369-2.814,0.369H22.977
		l2.625-12.734h9.282c0.881,0,1.839,0.057,2.928,0.171c0.888,0.093,1.706,0.331,2.431,0.71
		C40.93,25.293,41.495,25.816,41.922,26.481z M4.505,36.786l21.273-24.008l-5.047,24.008H4.505z M44.191,15.738
		c0,1.027-0.203,1.94-0.607,2.721c-0.383,0.778-0.966,1.453-1.733,2.006c-0.75,0.548-1.68,0.979-2.764,1.279
		c-1.092,0.284-2.331,0.427-3.679,0.427l-9.466-0.023l2.38-11.525l10.147,0.04c0.713,0,1.431,0.071,2.136,0.212
		c0.668,0.133,1.275,0.381,1.802,0.739c0.526,0.366,0.944,0.858,1.278,1.497C44.02,13.768,44.191,14.651,44.191,15.738z"/>
</g>
</svg>
