<?xml version="1.0" encoding="utf-8"?>
<!-- Generator: Adobe Illustrator 16.0.0, SVG Export Plug-In . SVG Version: 6.00 Build 0)  -->
<!DOCTYPE svg PUBLIC "-//W3C//DTD SVG 1.1//EN" "http://www.w3.org/Graphics/SVG/1.1/DTD/svg11.dtd">
<svg version="1.1" id="Layer_1" xmlns="http://www.w3.org/2000/svg" xmlns:xlink="http://www.w3.org/1999/xlink" x="0px" y="0px"
	 width="84.539px" height="60.199px" viewBox="0 0 84.539 60.199" enable-background="new 0 0 84.539 60.199" xml:space="preserve">
<g>
	<g>
		<g>
			<path fill="#FFFFFF" d="M171.245,1.006C169.344,0.329,166.27,0,162.057,0h-5.986v28.379h9.091c3.516,0,6.274-0.496,8.229-1.532
				c1.971-1.031,3.586-2.655,4.823-4.809c1.205-2.151,1.812-4.665,1.812-7.486c0-3.286-0.77-6.136-2.312-8.507
				C176.168,3.673,173.991,1.985,171.245,1.006z M159.107,3.08h1.818c3.975,0,6.898,0.258,8.619,0.773
				c2.287,0.722,4.072,2.036,5.363,3.897c1.295,1.89,1.938,4.184,1.938,6.852c0,2.513-0.607,4.689-1.771,6.442
				c-1.188,1.729-2.824,2.966-4.89,3.636c-1.483,0.477-4.184,0.709-8.021,0.709h-3.062V3.08H159.107z"/>
		</g>
		<g>
			<rect x="185.29" fill="#FFFFFF" width="3.149" height="28.379"/>
		</g>
		<g>
			<path fill="#FFFFFF" d="M210.175,14.447c1.362-0.599,2.446-1.508,3.179-2.706c0.715-1.16,1.107-2.552,1.107-4.118
				c0-1.849-0.562-3.439-1.618-4.735c-1.06-1.27-2.45-2.106-4.161-2.514C207.562,0.109,205.423,0,202.325,0h-5.759v28.379h3.142
				v-13.01h1.338l10.074,13.01h3.912l-10.095-13.01C207.134,15.324,208.887,15.027,210.175,14.447z M204.368,12.308l-4.66-0.025
				V3.08h4.789c1.885,0,3.239,0.168,4.065,0.497c0.765,0.31,1.414,0.844,1.904,1.578c0.496,0.734,0.725,1.553,0.725,2.468
				c0,0.947-0.229,1.785-0.719,2.533c-0.471,0.74-1.156,1.288-2.014,1.643C207.572,12.153,206.204,12.308,204.368,12.308z"/>
		</g>
		<g>
			<path fill="#FFFFFF" d="M236.92,19.552V0h-0.82l-15.875,22.566h13.577v5.812h3.118v-5.812h3.402V19.55L236.92,19.552
				L236.92,19.552z M233.803,19.552h-7.799l7.799-11.07V19.552z"/>
		</g>
	</g>
</g>
<g>
	<g>
		<g>
			<path d="M15.317,1.006C13.417,0.329,10.342,0,6.129,0H0.143v28.379h9.089c3.517,0,6.276-0.496,8.226-1.532
				c1.974-1.031,3.586-2.655,4.828-4.809c1.203-2.151,1.813-4.665,1.813-7.486c0-3.286-0.771-6.136-2.313-8.507
				C20.243,3.673,18.063,1.985,15.317,1.006z M3.181,3.08H5c3.974,0,6.897,0.258,8.619,0.773c2.286,0.722,4.071,2.036,5.363,3.897
				c1.296,1.89,1.938,4.184,1.938,6.852c0,2.513-0.606,4.689-1.771,6.442c-1.187,1.729-2.821,2.966-4.887,3.636
				c-1.486,0.477-4.185,0.709-8.021,0.709H3.179L3.181,3.08L3.181,3.08z"/>
		</g>
		<g>
			<rect x="29.363" width="3.149" height="28.379"/>
		</g>
		<g>
			<path d="M54.248,14.447c1.363-0.599,2.447-1.508,3.178-2.706c0.715-1.16,1.109-2.552,1.109-4.118
				c0-1.849-0.562-3.439-1.619-4.735c-1.059-1.27-2.451-2.106-4.162-2.514C51.635,0.109,49.496,0,46.396,0h-5.757v28.379h3.142
				v-13.01h1.336l10.076,13.01h3.912L49.01,15.369C51.207,15.324,52.959,15.027,54.248,14.447z M48.439,12.308l-4.658-0.025V3.08
				h4.787c1.885,0,3.24,0.168,4.062,0.497c0.768,0.31,1.414,0.844,1.906,1.578c0.496,0.734,0.727,1.553,0.727,2.468
				c0,0.947-0.229,1.785-0.723,2.533c-0.467,0.74-1.152,1.288-2.01,1.643C51.645,12.153,50.275,12.308,48.439,12.308z"/>
		</g>
		<g>
			<path d="M80.994,19.552V0h-0.82L64.299,22.566h13.576v5.812h3.119v-5.812h3.402V19.55L80.994,19.552L80.994,19.552z
				 M77.875,19.552h-7.797l7.797-11.07V19.552z"/>
		</g>
	</g>
</g>
<g>
	<g>
		<path fill="#E85125" d="M155.786,39.309h14.44v3.156H159.45v5.465h9.463v2.989h-9.463v9.279h-3.664V39.309z"/>
	</g>
	<g>
		<path fill="#E85125" d="M173.152,39.309h3.66V60.2h-3.66V39.309z"/>
	</g>
	<g>
		<path fill="#E85125" d="M181.282,39.309h3.653v17.732h10.635v3.157h-14.288V39.309z"/>
	</g>
	<g>
		<path fill="#E85125" d="M198.016,39.309h5.172l5.742,16.367h0.066l5.615-16.367h5.09V60.2h-3.477V44.076h-0.058l-5.812,16.123
			h-3.01l-5.8-16.123h-0.05v16.123h-3.488V39.309H198.016z"/>
	</g>
	<g>
		<path fill="#E85125" d="M226.495,53.24c0,3.209,2.375,4.472,5.301,4.472c3.209,0,4.416-1.569,4.416-3.155
			c0-1.611-0.869-2.258-1.731-2.578c-1.447-0.556-3.369-0.938-6.226-1.729c-3.584-0.967-4.635-3.119-4.635-5.29
			c0-4.192,3.888-6.151,7.649-6.151c4.347,0,8.021,2.308,8.021,6.676h-3.674c-0.16-2.692-1.976-3.698-4.509-3.698
			c-1.688,0-3.817,0.632-3.817,2.72c0,1.488,0.983,2.294,2.483,2.723c0.33,0.062,4.953,1.272,6.021,1.598
			c2.763,0.812,4.072,3.158,4.072,5.322c0,4.68-4.146,6.562-8.318,6.562c-4.762,0-8.633-2.28-8.715-7.462h3.66L226.495,53.24
			L226.495,53.24z"/>
	</g>
</g>
<g>
	<path d="M15.458,86.826c-1.9-0.678-4.975-1.006-9.188-1.006H0.284v28.379h9.089c3.515,0,6.276-0.496,8.226-1.533
		c1.972-1.03,3.586-2.654,4.827-4.809c1.205-2.151,1.814-4.664,1.814-7.486c0-3.286-0.77-6.135-2.313-8.506
		C20.382,89.493,18.204,87.807,15.458,86.826z M3.322,88.9h1.82c3.973,0,6.898,0.258,8.619,0.771
		c2.287,0.724,4.072,2.036,5.364,3.897c1.295,1.89,1.939,4.184,1.939,6.852c0,2.516-0.609,4.689-1.772,6.443
		c-1.186,1.728-2.823,2.965-4.888,3.635c-1.485,0.479-4.182,0.709-8.02,0.709H3.322V88.9z"/>
</g>
<g>
	<rect x="29.503" y="85.82" width="3.151" height="28.379"/>
</g>
<g>
	<path d="M54.389,100.268c1.362-0.6,2.446-1.508,3.178-2.705c0.719-1.16,1.108-2.553,1.108-4.119c0-1.849-0.563-3.438-1.618-4.733
		c-1.06-1.271-2.451-2.104-4.162-2.515c-1.117-0.266-3.258-0.375-6.354-0.375h-5.76v28.382h3.142v-13.013h1.336L55.333,114.2h3.912
		L49.15,101.189C51.348,101.145,53.102,100.848,54.389,100.268z M48.582,98.128l-4.66-0.022V88.9h4.789
		c1.885,0,3.24,0.168,4.064,0.496c0.766,0.31,1.414,0.845,1.908,1.578c0.496,0.731,0.721,1.553,0.721,2.469
		c0,0.947-0.225,1.785-0.719,2.533c-0.47,0.736-1.156,1.287-2.013,1.643C51.787,97.975,50.417,98.128,48.582,98.128z"/>
</g>
<g>
	<path fill="#E85125" d="M81.134,105.371V85.82h-0.819l-15.875,22.564h13.576v5.812h3.118v-5.812h3.402v-3.017L81.134,105.371
		L81.134,105.371z M78.016,105.371h-7.798l7.798-11.07V105.371z"/>
</g>
<g>
	<g>
		<path fill="#E85125" d="M23.165,39.225h17.026V42.4h-6.687v17.85h-3.686V42.4h-6.656v-3.176H23.165L23.165,39.225z"/>
	</g>
	<g>
		<path fill="#E85125" d="M42.762,39.225h3.832l5.268,16.646h0.061l5.395-16.646h3.744l-7.188,21.023H49.77L42.762,39.225z"/>
	</g>
</g>
<path fill="#E85125" d="M67.544-39.705l8.461-9.504l-1.752,9.504H67.544z M76.927-39.705l3.109-16.796h-0.711L62.102-37.109h11.66
	l-1.025,5.588h2.68l1.037-5.588h2.627l2.352-2.599L76.927-39.705L76.927-39.705z"/>
<g>
	<polygon fill="#FFFFFF" points="68.714,-56.52 56.85,-43.197 50.605,-56.52 48.783,-56.52 55.798,-41.638 53.439,-30.659 
		55.117,-30.659 57.445,-41.496 70.824,-56.52 	"/>
	<path fill="#FFFFFF" d="M45.423-55.613c-0.702-0.404-1.459-0.661-2.248-0.763c-0.643-0.071-1.322-0.143-1.973-0.161H31.144
		L8.136-30.668h17.588l-1.85,8.833h1.984l1.83-8.824h9.539c1.361,0,2.627-0.182,3.754-0.535c1.152-0.353,2.152-0.873,2.975-1.557
		c0.813-0.687,1.459-1.54,1.914-2.537c0.461-0.994,0.692-2.144,0.692-3.41c0-1.646-0.418-3.003-1.24-4.033
		c-0.479-0.606-1.125-1.071-1.932-1.388c0.107-0.037,0.219-0.076,0.324-0.116c0.812-0.332,1.521-0.77,2.098-1.293
		c0.644-0.559,1.172-1.258,1.57-2.083c0.402-0.847,0.607-1.818,0.607-2.892c0-1.379-0.254-2.488-0.748-3.298
		C46.748-54.602,46.134-55.213,45.423-55.613z M44.398-41.21c0.352,0.585,0.524,1.432,0.524,2.512c0,1.221-0.229,2.25-0.688,3.056
		c-0.481,0.817-1.084,1.479-1.788,1.963c-0.707,0.503-1.502,0.86-2.363,1.065c-0.896,0.211-1.717,0.317-2.434,0.317h-9.64
		l2.271-11.015h8.029c0.762,0,1.59,0.049,2.533,0.149c0.768,0.078,1.475,0.284,2.103,0.612
		C43.539-42.237,44.029-41.784,44.398-41.21z M12.033-32.297l18.4-20.766l-4.365,20.766H12.033z M46.361-50.503
		c0,0.889-0.176,1.679-0.525,2.354c-0.332,0.673-0.836,1.257-1.5,1.736c-0.648,0.474-1.453,0.847-2.391,1.105
		c-0.945,0.246-2.016,0.37-3.182,0.37l-8.188-0.021l2.059-9.969l8.777,0.034c0.617,0,1.238,0.062,1.848,0.184
		c0.578,0.115,1.104,0.33,1.56,0.64c0.455,0.316,0.815,0.742,1.104,1.295C46.212-52.207,46.361-51.442,46.361-50.503z"/>
</g>
</svg>
