<?xml version="1.0" encoding="utf-8"?>
<!-- Generator: Adobe Illustrator 16.0.0, SVG Export Plug-In . SVG Version: 6.00 Build 0)  -->
<!DOCTYPE svg PUBLIC "-//W3C//DTD SVG 1.1//EN" "http://www.w3.org/Graphics/SVG/1.1/DTD/svg11.dtd">
<svg version="1.1" id="Layer_1" xmlns="http://www.w3.org/2000/svg" xmlns:xlink="http://www.w3.org/1999/xlink" x="0px" y="0px"
	 width="43.051px" height="85.826px" viewBox="0 0 43.051 85.826" enable-background="new 0 0 43.051 85.826" xml:space="preserve">
<rect display="none" width="43.051" height="85.826"/>
<g>
	<path fill="#FFFFFF" d="M29.922,50.71l3.4-3.818l-0.709,3.818H29.922z M33.695,50.71l1.248-6.754h-0.291l-6.922,7.795h4.689
		L32.004,54h1.082l0.412-2.249h1.062l0.938-1.041H33.695z"/>
	<polygon fill="#FFFFFF" points="25.088,54.539 24.005,54.539 24.991,49.951 22.066,43.755 23.238,43.755 25.676,48.95 
		30.299,43.755 31.677,43.755 26.042,50.083 	"/>
	<path fill="#FFFFFF" d="M13.324,58.091h-1.197l0.738-3.555H5.604l9.598-10.79h0.459l0.344-0.392l-0.082,0.392h3.413
		c0.262,0.009,0.532,0.032,0.811,0.065c0.347,0.043,0.675,0.153,0.979,0.328c0.317,0.182,0.587,0.45,0.805,0.799
		c0.217,0.354,0.328,0.836,0.328,1.429c0,0.468-0.087,0.89-0.262,1.249c-0.172,0.351-0.398,0.656-0.674,0.898
		c-0.197,0.174-0.411,0.319-0.642,0.438c0.179,0.111,0.333,0.254,0.464,0.419c0.36,0.452,0.541,1.036,0.541,1.737
		c0,0.539-0.1,1.031-0.296,1.457c-0.196,0.434-0.476,0.799-0.828,1.092c-0.343,0.289-0.768,0.512-1.253,0.662
		c-0.474,0.146-1.004,0.219-1.572,0.219h-3.673L13.324,58.091z M14.272,53.492h3.632c0.285,0,0.598-0.04,0.934-0.121
		c0.318-0.079,0.613-0.213,0.881-0.397c0.264-0.185,0.484-0.427,0.662-0.729c0.168-0.289,0.254-0.671,0.254-1.134
		c0-0.393-0.062-0.694-0.188-0.899c-0.129-0.206-0.293-0.36-0.503-0.472c-0.229-0.117-0.49-0.191-0.777-0.223
		c-0.322-0.037-0.657-0.054-0.995-0.054h-3.069L14.272,53.492z M14.66,46.03l-6.616,7.462l5.046-0.003L14.66,46.03z M15.301,48.403
		l3.056,0.009c0.444,0,0.856-0.05,1.224-0.147c0.351-0.096,0.653-0.234,0.899-0.41c0.238-0.172,0.414-0.377,0.542-0.629
		c0.126-0.248,0.19-0.537,0.19-0.856c0-0.347-0.054-0.621-0.155-0.819c-0.102-0.195-0.227-0.343-0.379-0.449
		c-0.167-0.111-0.348-0.186-0.556-0.229c-0.23-0.044-0.466-0.068-0.703-0.068l-3.367-0.012L15.301,48.403z"/>
	<path fill="#CCCBCB" d="M26.908,22.125c-5.042,0.193-10.442,0.028-15.622,0.083v-3.967c0-1.849-0.468-4.175,1.074-4.464
		c1.091-0.204,2.474,0,3.637,0h7.274c1.045,0,2.826-0.155,3.306,0.331c0.591,0.601,0.331,2.655,0.331,3.884V22.125z M13.021,19.728
		h5.869v-3.637h-5.869V19.728z"/>
	<path fill="#CCCBCB" d="M32.857,14.108c0.193,2.534,0.029,5.427,0.084,8.1c-1.68-0.828-3.316-1.697-4.959-2.562v-2.974
		C29.615,15.824,31.284,15.012,32.857,14.108"/>
	<path fill="#CCCBCB" d="M11.368,23.2h15.54c0.396,2.13-1.788,1.817-3.885,1.817h-7.604c-2.036,0-4.427,0.483-4.133-1.569
		C11.279,23.331,11.272,23.213,11.368,23.2"/>
	<g>
		<path fill="#FFFFFF" d="M21.525,36.727c-9.743,0-17.67-7.927-17.67-17.67c0-9.743,7.927-17.67,17.67-17.67
			s17.67,7.927,17.67,17.67C39.195,28.8,31.27,36.727,21.525,36.727z M21.525,2.387c-9.192,0-16.67,7.478-16.67,16.67
			c0,9.192,7.478,16.67,16.67,16.67s16.67-7.478,16.67-16.67C38.195,9.865,30.717,2.387,21.525,2.387z"/>
	</g>
</g>
<g display="none">
	<path display="inline" fill="#797052" d="M11.798,44.378c-0.683-0.259-1.775-0.381-3.284-0.381H6.379V54.81h3.244
		c1.257,0,2.238-0.19,2.939-0.586c0.703-0.395,1.277-1.01,1.722-1.83c0.429-0.82,0.648-1.775,0.648-2.855
		c0-1.252-0.276-2.338-0.828-3.236C13.557,45.394,12.779,44.752,11.798,44.378 M7.465,45.167h0.65c1.416,0,2.461,0.104,3.074,0.298
		c0.819,0.274,1.453,0.771,1.915,1.486c0.464,0.714,0.694,1.594,0.694,2.604c0,0.963-0.219,1.791-0.633,2.459
		c-0.426,0.662-1.01,1.129-1.743,1.387c-0.535,0.182-1.495,0.27-2.866,0.27H7.465V45.167z"/>
	<rect x="16.812" y="43.993" display="inline" fill="#797052" width="1.126" height="10.816"/>
	<path display="inline" fill="#797052" d="M25.695,49.496c0.488-0.224,0.871-0.571,1.133-1.028c0.26-0.438,0.396-0.973,0.396-1.568
		c0-0.705-0.201-1.311-0.578-1.805c-0.375-0.484-0.875-0.803-1.484-0.955c-0.398-0.103-1.162-0.146-2.27-0.146h-2.058V54.81h1.123
		v-4.957h0.478l3.598,4.957h1.396l-3.604-4.957C24.609,49.834,25.236,49.722,25.695,49.496 M23.619,48.683l-1.66-0.008v-3.509h1.707
		c0.676,0,1.158,0.063,1.452,0.188c0.274,0.125,0.503,0.324,0.684,0.606c0.179,0.274,0.257,0.588,0.257,0.937
		c0,0.36-0.078,0.679-0.254,0.963c-0.17,0.289-0.414,0.496-0.719,0.632C24.766,48.625,24.277,48.683,23.619,48.683"/>
	<path display="inline" fill="#797052" d="M35.246,51.444v-7.451h-0.294l-5.669,8.602h4.845v2.215h1.118v-2.215h1.212v-1.15H35.246z
		 M34.128,51.444h-2.782l2.782-4.215V51.444z"/>
	<polygon display="inline" fill="#797052" points="6.655,58.974 11.812,58.974 11.812,60.174 7.965,60.174 7.965,62.258 
		11.344,62.258 11.344,63.399 7.965,63.399 7.965,66.933 6.655,66.933 	"/>
	<rect x="12.475" y="58.976" display="inline" fill="#797052" width="1.309" height="7.959"/>
	<polygon display="inline" fill="#797052" points="15.381,58.974 16.686,58.974 16.686,65.731 20.481,65.731 20.481,66.933 
		15.381,66.933 	"/>
	<polygon display="inline" fill="#797052" points="21.354,58.974 23.199,58.974 25.252,65.208 25.275,65.208 27.279,58.974 
		29.098,58.974 29.098,66.933 27.855,66.933 27.855,60.788 27.838,60.788 25.766,66.933 24.688,66.933 22.618,60.788 22.602,60.788 
		22.602,66.933 21.354,66.933 	"/>
	<path display="inline" fill="#797052" d="M31.521,64.28c0,1.227,0.851,1.707,1.896,1.707c1.144,0,1.577-0.602,1.577-1.203
		c0-0.616-0.312-0.862-0.62-0.98c-0.521-0.213-1.203-0.357-2.226-0.662c-1.278-0.367-1.653-1.187-1.653-2.012
		c0-1.6,1.392-2.35,2.731-2.35c1.551,0,2.859,0.881,2.859,2.545h-1.309c-0.057-1.025-0.707-1.403-1.607-1.403
		c-0.605,0-1.361,0.235-1.361,1.035c0,0.56,0.35,0.869,0.885,1.028c0.115,0.027,1.767,0.492,2.148,0.611
		c0.984,0.312,1.453,1.207,1.453,2.029c0,1.785-1.479,2.499-2.969,2.499c-1.703,0-3.083-0.87-3.108-2.845H31.521z"/>
	<g display="inline">
		<path fill="#797052" d="M21.742,36.727c-9.743,0-17.67-7.927-17.67-17.67c0-9.743,7.927-17.67,17.67-17.67
			c9.742,0,17.67,7.927,17.67,17.67C39.412,28.8,31.484,36.727,21.742,36.727z M21.742,2.387c-9.192,0-16.67,7.478-16.67,16.67
			c0,9.192,7.478,16.67,16.67,16.67c9.191,0,16.67-7.478,16.67-16.67C38.412,9.865,30.934,2.387,21.742,2.387z"/>
	</g>
	<path display="inline" fill="#797052" d="M31.738,12.207h-0.096c-0.012,0-0.091,0.007-0.098,0c-0.016-0.018,0.016-0.081,0-0.097
		c-0.018-0.015-0.081,0.016-0.097,0c-0.017-0.015,0.016-0.082,0-0.097c-0.019-0.016-0.081,0.017-0.097,0
		c-0.018-0.016,0.016-0.08,0-0.096c-0.018-0.017-0.082,0.016-0.098,0s0.016-0.084,0-0.098c-0.012-0.008-0.082,0-0.098,0
		c-0.012,0-0.092,0.008-0.098,0c-0.015-0.017,0.018-0.081,0-0.096c-0.017-0.017-0.08,0.016-0.097,0
		c-0.017-0.017,0.017-0.081,0-0.097s-0.08,0.016-0.097,0c-0.018-0.016,0.016-0.081,0-0.097c-0.018-0.016-0.081,0.016-0.098,0
		c-0.016-0.014,0.018-0.084,0-0.096c-0.012-0.01-0.08,0-0.097,0c-0.011,0-0.091,0.006-0.097,0c-0.016-0.019,0.015-0.081,0-0.097
		c-0.018-0.016-0.081,0.016-0.098,0s0.017-0.082,0-0.098c-0.018-0.015-0.08,0.017-0.098,0c-0.018-0.015,0.018-0.081,0-0.096
		c-0.018-0.017-0.081,0.015-0.097,0c-0.015-0.015,0.016-0.084,0-0.098c-0.011-0.008-0.081,0-0.099,0c-0.012,0-0.09,0.009-0.097,0
		c-0.014-0.017,0.017-0.08,0-0.096c-0.017-0.016-0.081,0.017-0.096,0c-0.017-0.016,0.015-0.082,0-0.096
		c-0.019-0.017-0.081,0.015-0.097,0c-0.017-0.017,0.016-0.082,0-0.097c-0.017-0.016-0.082,0.015-0.099,0
		c-0.017-0.016,0.015-0.078,0-0.097h-0.192c0.013-0.02-0.018-0.081,0-0.097c0.012-0.012,0.078,0.003,0.097,0
		c0.026-0.007,0.069,0,0.097,0H29.9h0.191h0.098c0.021-0.013,0.08,0.016,0.098,0c0.016-0.016-0.014-0.078,0-0.097h0.193h0.193h0.098
		c0.026,0,0.068-0.007,0.097,0c0.009,0.002-0.009,0.089,0,0.097c0.009,0.009,0.082-0.001,0.097,0c0.023,0.001,0.076-0.01,0.098,0
		c0.013,0.006-0.012,0.085,0,0.097c0.008,0.009,0.082-0.001,0.097,0c0.018,0.001,0.083-0.012,0.098,0
		c0.017,0.011-0.015,0.082,0,0.097c0.013,0.014,0.086-0.016,0.097,0c0.015,0.021-0.017,0.077,0,0.097
		c0.014,0.015,0.082-0.017,0.098,0c0.016,0.015-0.014,0.077,0,0.096c0.021,0.012,0.078-0.015,0.097,0c0.007,0.006,0,0.085,0,0.096
		v0.098c0.007,0.005,0.095-0.007,0.097,0c0.008,0.028,0,0.068,0,0.096v0.098c0,0.028-0.006,0.068,0,0.097
		c0.004,0.016-0.011,0.086,0,0.096c0.015,0.014,0.088-0.015,0.098,0c0.016,0.023-0.012,0.074,0,0.097v0.193v0.194v0.097v0.097
		H31.738z"/>
	<path display="inline" fill="#797052" d="M29.803,13.465c-0.012,0.02,0.018,0.081,0,0.097c-0.012,0.011-0.078-0.004-0.097,0
		c-0.028,0.007-0.067,0-0.097,0h-0.098h-0.193c-0.012,0.019,0.018,0.081,0,0.096c-0.01,0.01-0.082,0-0.096,0
		c-0.033,0.002-0.066-0.001-0.099,0c-0.032,0.002-0.063,0-0.097,0H28.93h-0.193h-0.098h-0.097c-0.022,0-0.075-0.008-0.097,0
		c-0.012,0.006,0.011,0.087,0,0.098c-0.018,0.016-0.078-0.014-0.098,0h-0.193h-0.094h-0.194H27.77c-0.012,0-0.09,0.008-0.097,0
		c-0.017-0.02,0.013-0.076,0-0.098c-0.021-0.011-0.081,0.017-0.099,0c-0.016-0.015,0.018-0.08,0-0.096
		c-0.016-0.016-0.08,0.016-0.096,0c-0.015-0.014,0.016-0.087,0-0.097c-0.015-0.011-0.078,0-0.099,0c-0.022,0-0.073,0.01-0.096,0
		c-0.013-0.006,0.01-0.086,0-0.097c-0.017-0.016-0.078,0.015-0.097,0c-0.018-0.012,0.015-0.082,0-0.097
		c-0.018-0.016-0.082,0.016-0.098,0s0.016-0.08,0-0.097c-0.016-0.016-0.078,0.016-0.098,0c-0.016-0.014,0.016-0.081,0-0.097
		c-0.016-0.015-0.077,0.013-0.096,0c-0.021-0.012-0.082,0.017-0.098,0c-0.017-0.014,0.016-0.084,0-0.096
		c-0.02-0.015-0.081,0.015-0.099,0c-0.015-0.017,0.017-0.08,0-0.098c-0.015-0.016-0.08,0.018-0.097,0
		c-0.015-0.014,0.017-0.083,0-0.096c-0.018-0.014-0.08,0.017-0.097,0c-0.01-0.01,0.013-0.092,0-0.096c-0.021-0.009-0.073,0-0.097,0
		c-0.016,0-0.086,0.008-0.098,0c-0.017-0.014,0.016-0.082,0-0.098c-0.017-0.016-0.08,0.017-0.097,0c-0.019-0.016,0.017-0.08,0-0.097
		c-0.019-0.015-0.082,0.017-0.098,0c-0.017-0.016,0.017-0.08,0-0.096c-0.015-0.014-0.086,0.015-0.097,0
		c-0.016-0.023,0.012-0.074,0-0.097H25.93c-0.022,0-0.074,0.01-0.097,0c-0.013-0.006,0.011-0.086,0-0.097
		c-0.017-0.016-0.08,0.016-0.097,0c-0.018-0.015,0.016-0.081,0-0.096c-0.014-0.014-0.086,0.015-0.098,0
		c-0.011-0.017,0.016-0.085,0-0.098c-0.021-0.014-0.08,0.017-0.098,0c-0.014-0.013,0.018-0.086,0-0.096
		c-0.021-0.015-0.072,0.013-0.098,0c-0.02-0.012-0.08,0.015-0.098,0c-0.013-0.014,0.018-0.087,0-0.097
		c-0.021-0.015-0.076,0.016-0.096,0c-0.018-0.013,0.016-0.083,0-0.097c-0.016-0.017-0.08,0.016-0.098,0
		c-0.016-0.017,0.018-0.081,0-0.097c-0.016-0.015-0.076,0.013-0.096,0c-0.017-0.011,0.014-0.083,0-0.097
		c-0.011-0.009-0.084,0-0.099,0c-0.017-0.001-0.084,0.01-0.097,0c-0.016-0.013,0.015-0.083,0-0.096
		c-0.014-0.014-0.086,0.014-0.098,0c-0.013-0.02,0.016-0.081,0-0.097s-0.08,0.016-0.097,0c-0.015-0.015,0.015-0.087,0-0.098
		c-0.021-0.013-0.078,0.016-0.097,0c-0.018-0.013,0.013-0.079,0-0.096h0.193h0.096c0.021-0.013,0.082,0.015,0.098,0
		c0.011-0.01-0.012-0.092,0-0.098c0.021-0.008,0.074,0,0.098,0c0.031,0,0.065,0.004,0.098,0c0.031-0.002,0.064,0,0.097,0h0.097
		h0.098h0.193c0.032,0,0.063,0.003,0.098,0c0.014,0,0.088,0.01,0.097,0c0.017-0.016-0.013-0.076,0-0.096h0.192h0.389h0.193
		c0.014,0.02-0.018,0.08,0,0.096c0.014,0.015,0.086-0.015,0.096,0c0.012,0.018-0.014,0.087,0,0.098c0.014,0.01,0.08,0,0.099,0
		c0.011,0,0.091-0.008,0.097,0c0.015,0.015-0.016,0.084,0,0.096c0.019,0.016,0.08-0.016,0.097,0c0.015,0.014-0.017,0.087,0,0.098
		c0.022,0.014,0.077-0.016,0.098,0c0.017,0.013-0.016,0.081,0,0.097c0.017,0.015,0.078-0.016,0.097,0
		c0.018,0.013-0.015,0.081,0,0.096c0.01,0.01,0.084-0.001,0.098,0c0.021,0.001,0.078-0.01,0.096,0c0.016,0.008-0.012,0.085,0,0.097
		c0.018,0.017,0.08-0.015,0.098,0c0.017,0.014-0.015,0.081,0,0.097c0.015,0.013,0.088-0.016,0.097,0
		c0.016,0.021-0.015,0.077,0,0.097c0.015,0.016,0.082-0.016,0.099,0c0.016,0.016-0.013,0.077,0,0.097h0.098
		c0.022,0,0.074-0.01,0.096,0c0.014,0.005-0.01,0.086,0,0.096c0.018,0.017,0.08-0.016,0.098,0c0.018,0.015-0.016,0.082,0,0.098
		c0.014,0.013,0.088-0.016,0.098,0c0.012,0.015-0.016,0.084,0,0.096c0.019,0.015,0.08-0.016,0.097,0
		c0.011,0.011-0.013,0.091,0,0.097c0.021,0.01,0.073,0,0.098,0c0.017,0,0.084-0.01,0.097,0c0.018,0.012-0.014,0.082,0,0.097
		c0.015,0.013,0.088-0.015,0.098,0c0.012,0.016-0.016,0.084,0,0.096c0.02,0.015,0.08-0.015,0.097,0c0.017,0.017-0.016,0.081,0,0.097
		c0.017,0.017,0.081-0.016,0.097,0c0.016,0.015-0.016,0.086,0,0.098c0.016,0.008,0.08,0,0.098,0c0.012,0,0.091-0.009,0.098,0
		c0.014,0.016-0.017,0.083,0,0.096c0.02,0.015,0.08-0.016,0.098,0c0.014,0.013-0.017,0.086,0,0.096c0.02,0.014,0.08-0.016,0.097,0
		c0.017,0.018-0.017,0.081,0,0.098c0.014,0.013,0.086-0.016,0.097,0c0.016,0.022-0.012,0.072,0,0.096h0.098
		c0.012,0,0.09-0.008,0.097,0c0.015,0.018-0.017,0.081,0,0.097c0.018,0.016,0.081-0.016,0.097,0c0.018,0.016-0.016,0.084,0,0.097
		c0.02,0.015,0.081-0.016,0.098,0c0.015,0.014-0.016,0.087,0,0.097c0.021,0.014,0.078-0.016,0.098,0
		c0.017,0.014-0.016,0.081,0,0.097c0.017,0.017,0.078-0.013,0.097,0H29.803z"/>
	<path display="inline" fill="#797052" d="M24.671,14.143h-0.192h-0.098h-0.193c-0.024,0-0.076-0.01-0.098,0
		c-0.012,0.005,0.01,0.086,0,0.097c-0.016,0.016-0.078-0.013-0.097,0H23.8h-0.194h-0.098h-0.191c-0.021,0.013-0.082-0.016-0.098,0
		c-0.014,0.013,0.016,0.087,0,0.096c-0.02,0.013-0.074-0.005-0.097,0c-0.028,0.006-0.067,0-0.099,0h-0.097H22.83h-0.193
		c-0.013-0.019,0.016-0.08,0-0.096c-0.009-0.01-0.082,0.001-0.097,0c-0.022-0.001-0.078,0.01-0.099,0
		c-0.014-0.008,0.014-0.085,0-0.097c-0.016-0.017-0.078,0.016-0.096,0c-0.018-0.014,0.014-0.081,0-0.097
		c-0.015-0.013-0.088,0.016-0.098,0c-0.014-0.021,0.018-0.078,0-0.097c-0.014-0.016-0.082,0.016-0.098,0
		c-0.014-0.015,0.018-0.083,0-0.097c-0.01-0.009-0.082,0-0.096,0c-0.013,0-0.092,0.009-0.098,0c-0.015-0.018,0.016-0.08,0-0.096
		c-0.017-0.016-0.081,0.016-0.099,0c-0.015-0.016,0.018-0.082,0-0.097c-0.016-0.016-0.079,0.016-0.096,0
		c-0.016-0.016,0.017-0.08,0-0.097c-0.016-0.016-0.08,0.017-0.097,0c-0.017-0.016,0.013-0.077,0-0.097h-0.097
		c-0.023,0-0.076,0.01-0.098,0c-0.012-0.006,0.01-0.086,0-0.096c-0.016-0.017-0.079,0.015-0.096,0c-0.018-0.016,0.016-0.082,0-0.098
		c-0.014-0.013-0.087,0.016-0.097,0c-0.012-0.016,0.015-0.085,0-0.097c-0.02-0.013-0.081,0.017-0.098,0
		c-0.01-0.01,0.013-0.091,0-0.096c-0.021-0.009-0.073,0-0.097,0c-0.018,0-0.084,0.009-0.097,0c-0.016-0.012,0.015-0.082,0-0.097
		c-0.014-0.014-0.087,0.016-0.097,0c-0.012-0.018,0.016-0.084,0-0.098c-0.019-0.013-0.08,0.018-0.097,0
		c-0.017-0.015,0.017-0.079,0-0.095c-0.017-0.017-0.081,0.016-0.097,0c-0.014-0.015,0.016-0.086,0-0.097c-0.014-0.01-0.08,0-0.098,0
		c-0.011,0-0.09,0.008-0.097,0c-0.013-0.017,0.017-0.083,0-0.098c-0.018-0.014-0.08,0.018-0.097,0c-0.014-0.013,0.016-0.087,0-0.096
		c-0.02-0.013-0.08,0.016-0.097,0c-0.017-0.016,0.017-0.081,0-0.097c-0.014-0.014-0.086,0.015-0.097,0
		c-0.016-0.023,0.012-0.073,0-0.097H20.12c-0.024,0-0.076,0.01-0.097,0c-0.013-0.006,0.01-0.086,0-0.097
		c-0.017-0.016-0.082,0.016-0.098,0c-0.016-0.015,0.016-0.081,0-0.096c-0.014-0.014-0.086,0.015-0.098,0
		c-0.01-0.017,0.017-0.085,0-0.098c-0.018-0.014-0.079,0.018-0.096,0c-0.014-0.013,0.016-0.086,0-0.096
		c-0.022-0.015-0.072,0.013-0.098,0c-0.019-0.011-0.08,0.015-0.096,0c-0.015-0.013,0.016-0.086,0-0.097
		c-0.021-0.014-0.078,0.016-0.098,0c-0.016-0.014,0.014-0.079,0-0.097h0.098c0.027,0,0.068,0.007,0.096,0
		c0.018-0.004,0.086,0.013,0.098,0c0.008-0.007-0.008-0.096,0-0.097c0.029-0.006,0.066,0,0.096,0h0.098h0.194h0.193h0.097h0.097
		c0.012,0,0.091,0.008,0.097,0c0.017-0.019-0.012-0.074,0-0.096h0.194h0.193h0.097h0.194h0.097h0.096c0.012,0,0.092-0.008,0.098,0
		c0.016,0.018-0.012,0.074,0,0.096c0.02,0.013,0.08-0.015,0.097,0c0.014,0.014-0.015,0.086,0,0.097c0.02,0.013,0.081-0.017,0.097,0
		c0.017,0.017-0.016,0.081,0,0.097c0.014,0.013,0.088-0.016,0.096,0c0.012,0.017-0.014,0.085,0,0.097c0.013,0.009,0.082,0,0.099,0
		c0.011,0,0.092-0.008,0.098,0c0.014,0.018-0.018,0.081,0,0.096c0.017,0.017,0.08-0.016,0.096,0c0.016,0.016-0.016,0.084,0,0.098
		c0.02,0.014,0.082-0.018,0.098,0c0.014,0.013-0.016,0.087,0,0.096c0.021,0.015,0.074-0.014,0.098,0c0.014,0.01-0.015,0.083,0,0.097
		c0.008,0.01,0.082-0.001,0.096,0c0.019,0.001,0.084-0.01,0.099,0c0.017,0.013-0.017,0.082,0,0.097c0.013,0.014,0.087-0.015,0.097,0
		c0.014,0.021-0.017,0.077,0,0.097c0.014,0.016,0.082-0.016,0.098,0c0.016,0.014-0.018,0.083,0,0.096
		c0.019,0.015,0.08-0.015,0.097,0c0.015,0.015-0.017,0.087,0,0.098c0.022,0.014,0.073-0.016,0.097,0c0.017,0.01-0.014,0.083,0,0.097
		c0.01,0.008,0.084-0.001,0.098,0c0.017,0,0.084-0.01,0.098,0c0.016,0.012-0.016,0.081,0,0.095c0.014,0.015,0.086-0.014,0.098,0
		c0.014,0.022-0.017,0.078,0,0.098c0.014,0.016,0.08-0.016,0.096,0s-0.016,0.084,0,0.097c0.02,0.014,0.082-0.017,0.098,0
		c0.014,0.013-0.016,0.086,0,0.096c0.021,0.016,0.072-0.013,0.096,0c0.021,0.012,0.084-0.014,0.098,0
		c0.015,0.014-0.016,0.087,0,0.097c0.021,0.015,0.078-0.016,0.099,0c0.017,0.015-0.017,0.082,0,0.098
		c0.013,0.013,0.086-0.016,0.097,0c0.014,0.02-0.017,0.077,0,0.096c0.014,0.017,0.082-0.015,0.098,0
		c0.016,0.017-0.014,0.077,0,0.097h0.097c0.013,0,0.09-0.007,0.097,0c0.012,0.014-0.015,0.088,0,0.097
		c0.021,0.012,0.08-0.016,0.098,0c0.015,0.013-0.016,0.086,0,0.097c0.021,0.014,0.076-0.016,0.097,0
		c0.017,0.012-0.015,0.082,0,0.096s0.087-0.016,0.099,0c0.01,0.017-0.017,0.086,0,0.097c0.012,0.009,0.08,0,0.096,0
		c0.013,0,0.092-0.008,0.098,0c0.016,0.02-0.014,0.075,0,0.097c0.02,0.012,0.08-0.016,0.098,0
		C24.688,14.062,24.658,14.123,24.671,14.143"/>
	<path display="inline" fill="#797052" d="M19.539,14.724h-0.193h-0.097h-0.194h-0.193c-0.023,0-0.075-0.009-0.098,0
		c-0.012,0.005,0.011,0.087,0,0.097c-0.016,0.016-0.078-0.013-0.096,0h-0.194H18.28h-0.097h-0.194c-0.027,0-0.069-0.007-0.097,0
		c-0.01,0.003,0.008,0.089,0,0.095c-0.01,0.01-0.082,0-0.098,0c-0.031,0.003-0.064,0-0.096,0h-0.193
		c-0.014-0.018,0.016-0.079,0-0.095c-0.014-0.013-0.087,0.015-0.098,0c-0.008-0.011,0.011-0.092,0-0.097c-0.02-0.01-0.074,0-0.098,0
		c-0.015,0-0.085,0.009-0.096,0c-0.016-0.013,0.016-0.082,0-0.097c-0.014-0.013-0.086,0.016-0.097,0
		c-0.015-0.02,0.016-0.078,0-0.096c-0.015-0.017-0.082,0.014-0.097,0c-0.015-0.016,0.016-0.084,0-0.097
		c-0.019-0.016-0.082,0.017-0.097,0c-0.015-0.015,0.015-0.088,0-0.098c-0.022-0.014-0.074,0.015-0.097,0
		c-0.02-0.012-0.081,0.016-0.098,0c-0.015-0.014,0.017-0.085,0-0.096c-0.019-0.014-0.08,0.016-0.097,0
		c-0.014-0.014,0.016-0.086,0-0.097c-0.021-0.014-0.078,0.016-0.097,0c-0.016-0.014,0.016-0.081,0-0.097
		c-0.016-0.016-0.078,0.016-0.098,0c-0.016-0.013,0.016-0.082,0-0.097c-0.009-0.009-0.082,0.001-0.096,0
		c-0.022,0-0.078,0.01-0.097,0c-0.015-0.008,0.012-0.084,0-0.097c-0.017-0.017-0.079,0.016-0.097,0
		c-0.018-0.014,0.015-0.081,0-0.096c-0.015-0.014-0.088,0.016-0.098,0c-0.014-0.021,0.016-0.078,0-0.097
		c-0.014-0.016-0.081,0.015-0.098,0c-0.014-0.016,0.018-0.083,0-0.097c-0.011-0.009-0.08,0-0.096,0c-0.012,0-0.092,0.008-0.098,0
		c-0.014-0.018,0.018-0.081,0-0.097c-0.016-0.015-0.08,0.017-0.096,0c-0.017-0.015,0.016-0.082,0-0.096
		c-0.018-0.016-0.081,0.015-0.097,0c-0.017-0.017,0.016-0.082,0-0.098c-0.017-0.016-0.081,0.016-0.097,0
		c-0.016-0.016,0.013-0.077,0-0.097h-0.098c-0.012,0-0.09,0.008-0.097,0c-0.015-0.017,0.017-0.08,0-0.096s-0.081,0.016-0.097,0
		c-0.016-0.016,0.016-0.082,0-0.097c-0.017-0.017-0.081,0.015-0.097,0c-0.017-0.017,0.016-0.08,0-0.098
		c-0.017-0.015-0.081,0.018-0.098,0c-0.016-0.015,0.013-0.076,0-0.096h-0.097c-0.012,0-0.091,0.008-0.096,0
		c-0.013-0.014,0.014-0.087,0-0.096c-0.021-0.013-0.081,0.015-0.098,0c-0.014-0.014,0.016-0.087,0-0.098
		c-0.021-0.015-0.076,0.016-0.097,0c-0.017-0.012,0.014-0.082,0-0.097c-0.014-0.013-0.087,0.016-0.097,0
		c-0.008-0.01,0.01-0.091,0-0.096c-0.021-0.01-0.074,0-0.097,0h-0.097c0.012-0.019-0.017-0.081,0-0.097
		c0.015-0.016,0.08,0.016,0.097,0c0.016-0.016-0.017-0.081,0-0.097c0.012-0.012,0.078,0.005,0.097,0c0.025-0.007,0.068,0,0.097,0
		h0.097h0.193h0.194h0.097c0.012,0,0.09,0.007,0.097,0c0.016-0.019-0.013-0.075,0-0.096h0.194h0.097h0.192h0.098h0.096
		c0.029,0,0.07,0.007,0.098,0c0.018-0.005,0.085,0.011,0.098,0c0.016-0.017-0.014-0.077,0-0.098h0.193
		c0.012,0.021-0.017,0.081,0,0.098c0.016,0.015,0.08-0.016,0.096,0c0.017,0.015-0.016,0.081,0,0.096
		c0.017,0.016,0.082-0.016,0.098,0c0.017,0.016-0.016,0.081,0,0.097c0.017,0.016,0.079-0.015,0.097,0
		c0.017,0.014-0.016,0.082,0,0.097c0.017,0.016,0.077-0.013,0.097,0c0.02,0.013,0.08-0.016,0.098,0c0.015,0.014-0.018,0.083,0,0.096
		c0.018,0.016,0.079-0.015,0.097,0c0.015,0.017-0.017,0.082,0,0.097c0.015,0.017,0.08-0.015,0.097,0
		c0.016,0.016-0.018,0.082,0,0.098c0.018,0.015,0.079-0.017,0.097,0c0.014,0.012-0.017,0.086,0,0.096
		c0.021,0.014,0.076-0.016,0.097,0c0.02,0.015,0.08-0.016,0.096,0c0.017,0.017-0.015,0.081,0,0.096c0.017,0.018,0.082-0.015,0.098,0
		c0.016,0.017-0.016,0.082,0,0.098c0.018,0.015,0.08-0.017,0.098,0c0.014,0.014-0.016,0.087,0,0.097
		c0.021,0.014,0.076-0.016,0.095,0c0.019,0.012-0.014,0.083,0,0.096c0.019,0.017,0.079-0.013,0.099,0c0.02,0.013,0.08-0.015,0.096,0
		c0.016,0.015-0.016,0.086,0,0.097c0.02,0.015,0.081-0.016,0.098,0c0.014,0.015-0.016,0.087,0,0.098
		c0.021,0.014,0.077-0.016,0.097,0c0.017,0.012-0.015,0.081,0,0.096c0.017,0.017,0.081-0.016,0.097,0
		c0.016,0.017-0.016,0.081,0,0.097c0.015,0.016,0.078-0.012,0.098,0c0.019,0.012,0.08-0.016,0.097,0
		c0.014,0.014-0.015,0.086,0,0.097c0.021,0.014,0.077-0.016,0.097,0c0.016,0.012-0.016,0.082,0,0.097
		c0.016,0.016,0.08-0.016,0.097,0c0.017,0.016-0.017,0.08,0,0.096c0.017,0.017,0.078-0.012,0.097,0c0.017,0.011-0.014,0.084,0,0.097
		c0.01,0.009,0.083,0,0.098,0c0.016,0.002,0.084-0.009,0.096,0c0.016,0.013-0.014,0.083,0,0.097c0.016,0.016,0.081-0.016,0.098,0
		c0.016,0.016-0.017,0.08,0,0.097c0.016,0.016,0.082-0.017,0.097,0c0.015,0.018-0.017,0.08,0,0.097c0.014,0.013,0.087-0.015,0.097,0
		c0.012,0.017-0.016,0.084,0,0.096c0.01,0.01,0.082,0,0.097,0c0.023,0,0.074-0.008,0.098,0c0.012,0.006-0.011,0.086,0,0.098
		c0.016,0.016,0.079-0.016,0.097,0c0.016,0.015-0.016,0.08,0,0.097c0.014,0.012,0.086-0.017,0.097,0
		c0.015,0.021-0.013,0.071,0,0.096c0.019,0.013,0.079-0.015,0.097,0C19.555,14.643,19.525,14.704,19.539,14.724"/>
	<path display="inline" fill="#797052" d="M11.889,13.271h0.193c0.014,0.021-0.016,0.081,0,0.098c0.018,0.015,0.08-0.017,0.097,0
		c0.017,0.015-0.017,0.08,0,0.096c0.017,0.017,0.082-0.016,0.098,0c0.016,0.017-0.016,0.081,0,0.097
		c0.016,0.017,0.081-0.016,0.098,0c0.016,0.017-0.017,0.081,0,0.097c0.016,0.016,0.077-0.016,0.097,0
		c0.018,0.015,0.08-0.016,0.097,0c0.016,0.016-0.017,0.081,0,0.097c0.016,0.016,0.081-0.016,0.097,0s-0.016,0.08,0,0.096
		c0.016,0.017,0.08-0.016,0.097,0c0.017,0.017-0.017,0.081,0,0.097c0.017,0.016,0.081-0.016,0.097,0
		c0.017,0.016-0.013,0.078,0,0.097h0.098c0.022,0,0.074-0.008,0.097,0c0.012,0.005-0.011,0.087,0,0.097
		c0.015,0.017,0.079-0.016,0.097,0c0.016,0.016-0.016,0.081,0,0.097c0.012,0.013,0.086-0.015,0.096,0
		c0.012,0.016-0.014,0.085,0,0.096c0.02,0.015,0.081-0.015,0.098,0c0.01,0.01-0.014,0.092,0,0.098c0.021,0.009,0.074,0,0.097,0
		c0.017,0,0.084-0.01,0.097,0c0.016,0.012-0.015,0.082,0,0.097c0.014,0.012,0.086-0.017,0.097,0c0.012,0.016-0.015,0.084,0,0.096
		c0.019,0.015,0.081-0.016,0.097,0s-0.016,0.081,0,0.097c0.016,0.017,0.081-0.016,0.098,0c0.013,0.014-0.017,0.086,0,0.097
		c0.013,0.009,0.08,0,0.096,0c0.013,0,0.092-0.008,0.098,0c0.014,0.016-0.016,0.084,0,0.096c0.018,0.016,0.08-0.016,0.097,0
		c0.014,0.014-0.016,0.087,0,0.097c0.02,0.013,0.081-0.015,0.097,0c0.016,0.017-0.016,0.081,0,0.098
		c0.014,0.013,0.086-0.016,0.097,0c0.015,0.022-0.012,0.072,0,0.097c0.008,0.005,0.095-0.008,0.098,0s0.005,0.09,0,0.096
		c-0.01,0.01-0.083-0.001-0.098,0c-0.031,0.002-0.063-0.002-0.097,0c-0.031,0.002-0.064,0-0.097,0H14.02h-0.193h-0.098h-0.193
		c-0.013,0.019,0.016,0.081,0,0.097c-0.009,0.01-0.082,0-0.097,0c-0.032,0.001-0.065-0.002-0.097,0c-0.031,0.001-0.064,0-0.098,0
		h-0.096H12.76c0.013,0.019-0.017,0.081,0,0.097c0.009,0.009,0.082,0,0.097,0c0.032,0.001,0.064-0.002,0.098,0
		c0.031,0.001,0.063,0,0.097,0h0.097h0.387h0.193h0.193h0.098h0.193h0.097c0.017,0,0.083-0.01,0.098,0
		c0.015,0.01-0.012,0.082,0,0.096c-0.021,0.013-0.082-0.016-0.098,0c-0.013,0.014,0.016,0.087,0,0.097
		c-0.021,0.015-0.077-0.016-0.097,0c-0.016,0.014,0.016,0.082,0,0.098c-0.016,0.015-0.08-0.017-0.097,0
		c-0.016,0.015,0.017,0.081,0,0.096c-0.016,0.017-0.081-0.016-0.097,0c-0.016,0.017,0.016,0.08,0,0.097
		c-0.016,0.016-0.08-0.017-0.098,0c-0.016,0.016,0.018,0.081,0,0.097c-0.016,0.015-0.08-0.017-0.096,0
		c-0.017,0.015,0.016,0.081,0,0.096c-0.017,0.017-0.082-0.015-0.098,0c-0.016,0.017,0.016,0.081,0,0.097
		c-0.016,0.017-0.081-0.016-0.097,0c-0.017,0.017,0.016,0.081,0,0.097c-0.017,0.016-0.077-0.013-0.097,0
		c-0.013,0.019,0.016,0.082,0,0.097c-0.014,0.014-0.086-0.015-0.097,0c-0.015,0.022,0.015,0.077,0,0.097
		c-0.015,0.017-0.081-0.016-0.097,0c-0.016,0.017,0.016,0.08,0,0.097c-0.016,0.016-0.081-0.017-0.098,0
		c-0.014,0.013,0.016,0.087,0,0.096c-0.021,0.015-0.077-0.016-0.096,0c-0.018,0.014,0.014,0.082,0,0.097
		c-0.017,0.017-0.078-0.013-0.097,0c-0.015,0.02,0.015,0.081,0,0.097c-0.015,0.013-0.087-0.015-0.097,0
		c-0.016,0.022,0.011,0.073,0,0.096c-0.021,0.014-0.081-0.015-0.098,0c-0.016,0.017,0.017,0.081,0,0.098
		c-0.016,0.016-0.08-0.017-0.097,0c-0.017,0.016,0.017,0.08,0,0.097c-0.017,0.016-0.081-0.017-0.097,0
		c-0.016,0.016,0.016,0.08,0,0.096c-0.016,0.017-0.081-0.016-0.097,0c-0.017,0.017,0.016,0.081,0,0.097
		c-0.017,0.017-0.081-0.016-0.097,0c-0.018,0.017,0.016,0.081,0,0.098c-0.018,0.015-0.081-0.017-0.097,0
		c-0.017,0.015,0.016,0.08,0,0.096c-0.017,0.016-0.082-0.016-0.098,0s0.016,0.08,0,0.096c-0.016,0.017-0.081-0.016-0.098,0
		c-0.017,0.017,0.018,0.082,0,0.098c-0.017,0.015-0.076-0.014-0.097,0v-0.194v-0.096v-0.388v-0.388v-0.193V16.37v-0.097V16.08
		v-0.388v-0.387v-0.193v-0.098v-0.193v-0.097c-0.019-0.013-0.08,0.017-0.096,0c-0.014-0.013,0.005-0.079,0-0.097
		c-0.008-0.025,0-0.07,0-0.096v-0.097v-0.098v-0.193v-0.194c-0.014-0.019,0.016-0.08,0-0.097c-0.014-0.013-0.087,0.017-0.098,0
		c-0.012-0.018,0.006-0.074,0-0.096c-0.006-0.029,0-0.068,0-0.097v-0.097v-0.097v-0.194H11.889z"/>
	<path display="inline" fill="#797052" d="M19.346,15.499h0.097c0.013,0,0.089-0.008,0.097,0c0.003,0.003,0.003,0.094,0,0.097
		c-0.017,0.016-0.078-0.013-0.097,0c-0.013,0.019,0.016,0.081,0,0.096c-0.017,0.017-0.081-0.015-0.097,0
		c-0.016,0.017,0.016,0.081,0,0.098c-0.016,0.016-0.083-0.018-0.097,0c-0.017,0.017,0.016,0.079,0,0.097
		c-0.015,0.013-0.087-0.016-0.098,0c-0.013,0.019,0.016,0.08,0,0.096s-0.081-0.016-0.097,0c-0.018,0.016,0.016,0.08,0,0.097
		c-0.018,0.016-0.081-0.017-0.097,0c-0.016,0.016,0.017,0.082,0,0.097c-0.019,0.015-0.081-0.016-0.097,0
		c-0.014,0.013,0.016,0.087,0,0.096c-0.022,0.015-0.072-0.011-0.098,0c-0.012,0.02,0.016,0.081,0,0.097
		c-0.016,0.017-0.077-0.013-0.096,0c-0.014,0.02,0.016,0.082,0,0.098c-0.014,0.013-0.087-0.016-0.098,0
		c-0.015,0.021,0.013,0.072,0,0.096c-0.019,0.013-0.08-0.016-0.097,0c-0.014,0.013,0.016,0.086,0,0.097
		c-0.021,0.014-0.078-0.016-0.097,0c-0.017,0.014,0.015,0.081,0,0.097c-0.017,0.016-0.08-0.017-0.097,0
		c-0.017,0.016,0.017,0.081,0,0.096c-0.014,0.014-0.087-0.014-0.097,0c-0.016,0.021,0.016,0.079,0,0.097
		c-0.015,0.017-0.082-0.014-0.098,0c-0.016,0.017,0.013,0.078,0,0.097c-0.019,0.014-0.08-0.016-0.097,0
		c-0.013,0.014,0.017,0.088,0,0.097c-0.019,0.013-0.082-0.016-0.097,0c-0.016,0.016,0.015,0.081,0,0.097
		c-0.014,0.014-0.087-0.014-0.098,0c-0.015,0.023,0.013,0.072,0,0.097c-0.019,0.014-0.08-0.017-0.096,0
		c-0.017,0.016,0.013,0.077,0,0.097c-0.02,0.013-0.08-0.016-0.098,0c-0.013,0.013,0.016,0.085,0,0.097
		c-0.02,0.013-0.08-0.016-0.096,0c-0.016,0.016,0.016,0.08,0,0.097c-0.014,0.013-0.087-0.017-0.099,0
		c-0.011,0.018,0.017,0.08,0,0.096c-0.015,0.016-0.079-0.016-0.096,0c-0.014,0.014,0.015,0.086,0,0.097
		c-0.021,0.014-0.077-0.016-0.097,0c-0.017,0.014,0.016,0.082,0,0.097c-0.016,0.017-0.081-0.016-0.098,0
		c-0.015,0.016,0.017,0.081,0,0.097c-0.014,0.013-0.085-0.015-0.096,0c-0.014,0.021,0.016,0.078,0,0.096
		c-0.014,0.017-0.082-0.014-0.097,0c-0.018,0.017,0.016,0.081,0,0.098c-0.018,0.016-0.081-0.017-0.097,0
		c-0.014,0.013,0.016,0.086,0,0.097c-0.021,0.013-0.078-0.016-0.098,0c-0.016,0.013,0.016,0.081,0,0.096
		c-0.016,0.016-0.077-0.012-0.097,0v0.195h0.388h0.386h0.388h0.194h0.194h0.097h0.193h0.194h0.096h0.388h0.194h0.097h0.192
		c0.014-0.021-0.016-0.082,0-0.098c0.015-0.013,0.088,0.016,0.098,0c0.014-0.021-0.017-0.078,0-0.097
		c0.014-0.016,0.082,0.015,0.096,0c0.018-0.016-0.015-0.08,0-0.096c0.017-0.016,0.082,0.015,0.098,0
		c0.017-0.016-0.016-0.081,0-0.097c0.017-0.017,0.081,0.016,0.098,0c0.016-0.017-0.017-0.081,0-0.098
		c0.016-0.015,0.08,0.016,0.096,0c0.017-0.015-0.016-0.08,0-0.096c0.017-0.017,0.082,0.016,0.098,0c0.016-0.017-0.016-0.08,0-0.097
		s0.08,0.017,0.097,0s-0.017-0.081,0-0.097c0.017-0.016,0.081,0.016,0.097,0c0.017-0.016-0.013-0.078,0-0.097
		c0.02-0.012,0.08,0.016,0.097,0c0.014-0.012-0.015-0.086,0-0.096c0.021-0.014,0.078,0.015,0.097,0c0.016-0.014-0.015-0.082,0-0.097
		c0.016-0.016,0.08,0.016,0.098,0c0.016-0.016-0.016-0.082,0-0.097c0.016-0.016,0.08,0.016,0.097,0s-0.017-0.081,0-0.097
		c0.017-0.017,0.077,0.014,0.097,0c0.013-0.02-0.016-0.08,0-0.097c0.014-0.014,0.086,0.015,0.098,0c0.014-0.021-0.017-0.077,0-0.097
		c0.013-0.016,0.08,0.015,0.096,0c0.017-0.016-0.016-0.081,0-0.097c0.017-0.016,0.081,0.016,0.097,0
		c0.015-0.013-0.015-0.086,0-0.097c0.021-0.013,0.078,0.017,0.098,0c0.017-0.013-0.016-0.081,0-0.097
		c0.016-0.015,0.077,0.013,0.097,0c0.014-0.018-0.016-0.08,0-0.096c0.014-0.013,0.086,0.015,0.096,0
		c0.016-0.023-0.012-0.072,0-0.097c0.02-0.013,0.081,0.017,0.098,0c0.016-0.016-0.017-0.08,0-0.097c0.016-0.016,0.081,0.017,0.097,0
		c0.017-0.015-0.017-0.082,0-0.096c0.018-0.016,0.081,0.016,0.097,0c0.014-0.014-0.015-0.087,0-0.098
		c0.021-0.015,0.072,0.013,0.097,0c0.013-0.019-0.016-0.08,0-0.097c0.015-0.013,0.087,0.016,0.098,0c0.014-0.02-0.017-0.077,0-0.096
		c0.014-0.016,0.081,0.015,0.098,0c0.017-0.016-0.017-0.08,0-0.097c0.014-0.017,0.08,0.016,0.096,0c0.018-0.017-0.016-0.081,0-0.097
		c0.018-0.016,0.082,0.016,0.098,0c0.018-0.016-0.016-0.08,0-0.096c0.018-0.017,0.081,0.016,0.098,0
		c0.016-0.017-0.018-0.081,0-0.097c0.016-0.017,0.08,0.016,0.096,0c0.018-0.017-0.016-0.081,0-0.098c0.018-0.015,0.08,0.017,0.099,0
		c0.017-0.015-0.019-0.08,0-0.096c0.017-0.017,0.08,0.016,0.097,0c0.016-0.017-0.013-0.077,0-0.097h0.389h0.193h0.192h0.192h0.099
		h0.192h0.193h0.098h0.388h0.192c-0.013,0.02,0.017,0.08,0,0.097c-0.014,0.013-0.086-0.016-0.097,0
		c-0.015,0.021,0.017,0.077,0,0.096c-0.015,0.018-0.082-0.014-0.097,0c-0.018,0.018,0.016,0.08,0,0.098
		c-0.016,0.016-0.08-0.017-0.098,0c-0.017,0.016,0.018,0.08,0,0.097c-0.017,0.016-0.08-0.017-0.097,0
		c-0.019,0.016,0.017,0.08,0,0.096s-0.081-0.016-0.098,0s0.017,0.08,0,0.097c-0.017,0.016-0.08-0.017-0.097,0
		c-0.018,0.016,0.017,0.081,0,0.097c-0.018,0.016-0.08-0.016-0.098,0c-0.016,0.016,0.018,0.081,0,0.096
		c-0.016,0.017-0.081-0.015-0.098,0c-0.016,0.017,0.014,0.078,0,0.097c-0.02,0.014-0.08-0.016-0.096,0
		c-0.015,0.015,0.016,0.087,0,0.098c-0.021,0.012-0.082-0.016-0.098,0c-0.018,0.015,0.016,0.08,0,0.096
		c-0.015,0.013-0.087-0.015-0.097,0c-0.015,0.02,0.016,0.081,0,0.097c-0.017,0.017-0.082-0.016-0.099,0
		c-0.014,0.014,0.017,0.087,0,0.097c-0.02,0.012-0.08-0.017-0.098,0c-0.016,0.016,0.018,0.081,0,0.096
		c-0.014,0.014-0.086-0.014-0.096,0c-0.014,0.02,0.017,0.082,0,0.097c-0.016,0.017-0.081-0.015-0.098,0
		c-0.014,0.014,0.017,0.087,0,0.097c-0.021,0.014-0.08-0.016-0.097,0c-0.016,0.016,0.017,0.081,0,0.097
		c-0.014,0.014-0.088-0.015-0.098,0c-0.013,0.02,0.017,0.081,0,0.097c-0.017,0.017-0.08-0.016-0.097,0
		c-0.015,0.014,0.016,0.086,0,0.097c-0.02,0.014-0.082-0.017-0.098,0c-0.016,0.016,0.016,0.081,0,0.097
		c-0.014,0.013-0.086-0.016-0.097,0c-0.015,0.022,0.012,0.073,0,0.097c-0.021,0.013-0.081-0.016-0.097,0
		c-0.015,0.013,0.016,0.086,0,0.097c-0.021,0.012-0.082-0.017-0.098,0c-0.018,0.015,0.016,0.08,0,0.096
		c-0.015,0.014-0.087-0.016-0.097,0c-0.015,0.019,0.016,0.082,0,0.097c-0.019,0.016-0.081-0.016-0.099,0
		c-0.013,0.014,0.017,0.087,0,0.097c-0.021,0.014-0.076-0.017-0.096,0c-0.018,0.014,0.016,0.082,0,0.097
		c-0.018,0.016-0.081-0.017-0.098,0c-0.016,0.016,0.017,0.081,0,0.096c-0.014,0.014-0.086-0.014-0.098,0
		c-0.013,0.02,0.018,0.081,0,0.098c-0.017,0.016-0.08-0.017-0.097,0c-0.014,0.013,0.015,0.086,0,0.097
		c-0.021,0.012-0.082-0.016-0.097,0c-0.017,0.016,0.016,0.08,0,0.096c-0.014,0.013-0.087-0.016-0.098,0
		c-0.015,0.022,0.017,0.077,0,0.097c-0.013,0.017-0.081-0.016-0.097,0c-0.016,0.016,0.013,0.077,0,0.098h0.389h0.388h0.387h0.192
		h0.195h0.096h0.193h0.387h0.39h0.29h0.193c0.014-0.021-0.017-0.082,0-0.098c0.014-0.013,0.086,0.016,0.097,0
		c0.014-0.021-0.017-0.078,0-0.097c0.014-0.016,0.082,0.015,0.098,0c0.017-0.016-0.016-0.081,0-0.096
		c0.017-0.016,0.08,0.015,0.097,0c0.014-0.014-0.016-0.087,0-0.097c0.021-0.015,0.078,0.016,0.098,0
		c0.018-0.015-0.016-0.082,0-0.098c0.018-0.015,0.08,0.017,0.096,0c0.018-0.015-0.016-0.08,0-0.096c0.016-0.014,0.088,0.015,0.098,0
		c0.016-0.021-0.016-0.078,0-0.097c0.015-0.017,0.082,0.016,0.098,0c0.018-0.017-0.016-0.081,0-0.097
		c0.018-0.016,0.081,0.016,0.097,0c0.015-0.013-0.016-0.087,0-0.097c0.021-0.013,0.078,0.016,0.099,0
		c0.016-0.013-0.017-0.081,0-0.096c0.016-0.017,0.076,0.012,0.097,0c0.013-0.02-0.017-0.081,0-0.097
		c0.014-0.014,0.086,0.016,0.097,0c0.016-0.023-0.012-0.073,0-0.097c0.02-0.012,0.081,0.016,0.098,0
		c0.014-0.014-0.016-0.086,0-0.097c0.021-0.016,0.072,0.012,0.097,0c0.014-0.02-0.017-0.08,0-0.097c0.014-0.014,0.087,0.015,0.098,0
		c0.015-0.021-0.018-0.077,0-0.097c0.013-0.016,0.081,0.015,0.097,0c0.018-0.016-0.017-0.08,0-0.097
		c0.016-0.016,0.082,0.015,0.098,0c0.016-0.016-0.018-0.08,0-0.097c0.016-0.015,0.08,0.017,0.097,0c0.017-0.015-0.013-0.077,0-0.097
		c0.021-0.012,0.08,0.017,0.097,0c0.015-0.013-0.016-0.085,0-0.096c0.022-0.015,0.074,0.012,0.097,0c0.015-0.02-0.015-0.08,0-0.097
		c0.015-0.013,0.088,0.016,0.099,0c0.016-0.022-0.013-0.072,0-0.097c0.02-0.013,0.081,0.017,0.098,0
		c0.014-0.013-0.017-0.086,0-0.096c0.019-0.014,0.08,0.015,0.096,0c0.017-0.016-0.016-0.081,0-0.098
		c0.015-0.013,0.087,0.016,0.098,0c0.014-0.018-0.016-0.081,0-0.097c0.018-0.015,0.08,0.017,0.098,0
		c0.013-0.013-0.017-0.086,0-0.096c0.021-0.014,0.078,0.016,0.097,0c0.019-0.014-0.015-0.082,0-0.097
		c0.017-0.017,0.079,0.016,0.096,0c0.019-0.016-0.017-0.081,0-0.097c0.015-0.013,0.088,0.016,0.099,0
		c0.014-0.021-0.017-0.077,0-0.096c0.014-0.017,0.082,0.014,0.096,0c0.018-0.017-0.016-0.081,0-0.097
		c0.018-0.017,0.082,0.016,0.099,0c0.015-0.014-0.016-0.087,0-0.098c0.021-0.012,0.077,0.017,0.097,0
		c0.017-0.012-0.016-0.081,0-0.096c0.017-0.017,0.078,0.012,0.099,0c0.012-0.02-0.017-0.08,0-0.097c0.012-0.013,0.077,0.006,0.096,0
		c0.026-0.008,0.069,0,0.097,0h0.098h0.098h0.193h0.388h0.192h0.195h0.096h0.388H29.9c-0.014,0.02,0.016,0.08,0,0.097
		c-0.016,0.013-0.088-0.016-0.099,0c-0.012,0.019,0.017,0.081,0,0.096c-0.016,0.017-0.079-0.015-0.097,0
		c-0.014,0.014,0.016,0.087,0,0.098c-0.02,0.012-0.08-0.017-0.098,0c-0.017,0.016,0.018,0.08,0,0.097
		c-0.014,0.013-0.086-0.016-0.096,0c-0.014,0.019,0.016,0.08,0,0.096c-0.018,0.016-0.082-0.016-0.099,0
		c-0.013,0.014,0.017,0.087,0,0.097c-0.019,0.013-0.079-0.017-0.097,0c-0.017,0.016,0.018,0.081,0,0.097
		c-0.015,0.013-0.086-0.015-0.096,0c-0.015,0.019,0.016,0.081,0,0.096c-0.018,0.017-0.082-0.015-0.099,0
		c-0.015,0.014,0.017,0.087,0,0.097c-0.021,0.014-0.08-0.016-0.097,0c-0.018,0.017,0.017,0.082,0,0.098
		c-0.014,0.013-0.088-0.016-0.098,0c-0.013,0.019,0.018,0.08,0,0.096c-0.016,0.017-0.08-0.016-0.097,0
		c-0.015,0.013,0.017,0.086,0,0.097c-0.022,0.015-0.073-0.012-0.099,0c-0.012,0.02,0.017,0.08,0,0.097
		c-0.016,0.016-0.08-0.017-0.096,0c-0.017,0.016,0.016,0.081,0,0.096c-0.017,0.017-0.08-0.015-0.098,0
		c-0.016,0.017,0.018,0.082,0,0.097c-0.016,0.017-0.081-0.015-0.098,0c-0.017,0.017,0.017,0.081,0,0.097s-0.078-0.013-0.096,0
		c-0.014,0.019,0.016,0.081,0,0.097c-0.018,0.016-0.082-0.016-0.098,0c-0.018,0.016,0.016,0.081,0,0.097
		c-0.018,0.017-0.077-0.014-0.098,0c-0.012,0.019,0.017,0.08,0,0.097c-0.017,0.016-0.08-0.017-0.098,0
		c-0.017,0.016,0.018,0.081,0,0.097c-0.017,0.016-0.076-0.012-0.097,0c-0.015,0.019,0.017,0.081,0,0.097
		c-0.015,0.013-0.086-0.016-0.097,0c-0.014,0.019,0.017,0.08,0,0.097c-0.017,0.015-0.082-0.017-0.098,0
		c-0.014,0.013,0.016,0.086,0,0.096c-0.02,0.013-0.08-0.016-0.097,0s0.017,0.081,0,0.097c-0.015,0.014-0.087-0.015-0.099,0
		c-0.012,0.021,0.018,0.08,0,0.097c-0.016,0.017-0.08-0.017-0.096,0c-0.015,0.014,0.016,0.087,0,0.097
		c-0.02,0.013-0.08-0.017-0.099,0c-0.017,0.016,0.019,0.081,0,0.096c-0.013,0.014-0.086-0.014-0.097,0
		c-0.012,0.02,0.018,0.081,0,0.098c-0.016,0.016-0.08-0.017-0.096,0c-0.015,0.013,0.014,0.086,0,0.097
		c-0.02,0.012-0.082-0.016-0.098,0c-0.016,0.016,0.016,0.08,0,0.096c-0.014,0.013-0.087-0.016-0.098,0
		c-0.014,0.022,0.017,0.077,0,0.097c-0.014,0.017-0.082-0.016-0.096,0c-0.017,0.016,0.012,0.077,0,0.098h0.387h0.388h0.387h0.291
		h0.774h0.388h0.192h0.098h0.193c0.014-0.021-0.016-0.082,0-0.098c0.014-0.013,0.088,0.016,0.098,0c0.014-0.021-0.018-0.078,0-0.097
		c0.014-0.016,0.081,0.015,0.096,0c0.018-0.016-0.016-0.081,0-0.096c0.018-0.016,0.082,0.015,0.098,0
		c0.014-0.014-0.016-0.087,0-0.097c0.021-0.015,0.078,0.016,0.098,0c0.018-0.015-0.016-0.082,0-0.098
		c0.018-0.015,0.081,0.017,0.098,0c0.016-0.015-0.017-0.08,0-0.096c0.014-0.014,0.086,0.015,0.098,0
		c0.014-0.021-0.016-0.078,0-0.097c0.014-0.017,0.08,0.016,0.097,0c0.017-0.017-0.017-0.081,0-0.097
		c0.017-0.016,0.081,0.016,0.097,0c0.014-0.013-0.016-0.087,0-0.097c0.021-0.013,0.077,0.016,0.096,0
		c0.019-0.013-0.014-0.081,0-0.096c0.018-0.017,0.078,0.012,0.099,0c0.013-0.02-0.017-0.081,0-0.097
		c0.017-0.016,0.077,0.013,0.097,0c0.014-0.02-0.017-0.081,0-0.097c0.014-0.014,0.088,0.015,0.098,0
		c0.016-0.023-0.012-0.073,0-0.097c0.02-0.013,0.08,0.016,0.098,0c0.014-0.014-0.016-0.086,0-0.097c0.021-0.014,0.078,0.017,0.098,0
		c0.014-0.014-0.017-0.082,0-0.097c0.014-0.016,0.078,0.016,0.096,0c0.017-0.015-0.016-0.082,0-0.097
		c0.017-0.016,0.08,0.016,0.098,0c0.016-0.016-0.018-0.08,0-0.097c0.016-0.015,0.081,0.017,0.098,0c0.016-0.015-0.017-0.08,0-0.097
		c0.016-0.015,0.08,0.017,0.096,0c0.018-0.015-0.016-0.08,0-0.096c0.018-0.017,0.082,0.016,0.098,0c0.018-0.017-0.016-0.08,0-0.097
		c0.018-0.016,0.08,0.017,0.098,0c0.016-0.016-0.018-0.08,0-0.097c0.016-0.016,0.077,0.013,0.098,0v0.097v0.387v0.194v0.097v0.387
		v0.194v0.097v0.194v0.193V18.5v0.193v0.194v0.097v0.194v0.194v0.097v0.193v0.193v0.097v0.193v0.195v0.097v0.193v0.193v0.098v0.193
		v0.195v0.096V21.6v0.193v0.097v0.194v0.194v0.096v0.193v0.195v0.096v0.195v0.193v0.097v0.193v0.193v0.097v0.194v0.194v0.098v0.192
		v0.194v0.097v0.194v0.194v0.096v0.194v0.193v0.097v0.388v0.194v0.095c0,0.03,0.007,0.071,0,0.098c-0.006,0.017,0.012,0.085,0,0.097
		c-0.018,0.015-0.077-0.014-0.098,0v0.194c0,0.014,0.008,0.087,0,0.097c-0.016,0.015-0.078-0.014-0.098,0
		c-0.012,0.018,0.018,0.08,0,0.096c-0.014,0.014-0.086-0.015-0.098,0c-0.014,0.022,0.018,0.078,0,0.097
		c-0.014,0.017-0.08-0.016-0.096,0c-0.017,0.017,0.016,0.08,0,0.097c-0.017,0.016-0.082-0.016-0.098,0
		c-0.018,0.016,0.016,0.08,0,0.096c-0.018,0.017-0.081-0.016-0.098,0c-0.01,0.011,0.014,0.091,0,0.097c-0.021,0.01-0.073,0-0.096,0
		H31.25h-0.098c-0.012,0.02,0.018,0.081,0,0.097c-0.012,0.012-0.08-0.004-0.098,0c-0.027,0.008-0.068,0-0.097,0h-0.099h-0.191H30.57
		h-0.193h-0.193h-0.097H29.9h-0.099h-0.192h-0.098h-0.388h-0.097h-0.389h-0.097h-0.388h-0.094h-0.388h-0.099h-0.387h-0.097h-0.389
		h-0.097h-0.387h-0.098h-0.387h-0.098h-0.388h-0.097h-0.389h-0.097h-0.388h-0.098H23.8h-0.097h-0.389h-0.097H22.83h-0.098h-0.387
		H22.25h-0.388h-0.097h-0.387h-0.097h-0.388h-0.097H20.41h-0.097h-0.388h-0.098h-0.386h-0.097h-0.388h-0.097h-0.388h-0.097h-0.388
		h-0.097h-0.387h-0.099h-0.386H16.92h-0.388H16.44h-0.388h-0.098h-0.386h-0.097h-0.388h-0.098h-0.387h-0.097H14.31h-0.192H14.02
		h-0.193h-0.098h-0.193h-0.193h-0.098h-0.096c-0.029,0-0.07,0.008-0.097,0c-0.02-0.004-0.086,0.012-0.097,0
		c-0.018-0.016,0.012-0.077,0-0.097h-0.194c-0.015,0-0.087,0.009-0.097,0c-0.016-0.015,0.013-0.078,0-0.097
		c-0.02-0.012-0.081,0.017-0.097,0c-0.014-0.012,0.015-0.086,0-0.096c-0.021-0.014-0.078,0.016-0.097,0
		c-0.018-0.014,0.015-0.081,0-0.097c-0.016-0.016-0.085,0.017-0.097,0c-0.015-0.018,0.016-0.08,0-0.097
		c-0.011-0.01-0.092,0.012-0.098,0c-0.009-0.021,0-0.074,0-0.096c0-0.023,0.009-0.079,0-0.097c-0.007-0.014-0.086,0.011-0.098,0
		c-0.009-0.01,0.002-0.083,0-0.098c-0.001-0.025,0.011-0.072,0-0.096c-0.007-0.019,0.015-0.083,0-0.097
		c-0.006-0.007-0.095,0.008-0.097,0c-0.006-0.028,0-0.068,0-0.098v-0.095V26.15v-0.194v-0.194v-0.097v-0.193v-0.097V24.6v-0.387
		V24.02v-0.097v-0.387v-0.193v-0.097v-0.388v-0.194v-0.097v-0.774v-0.387v-0.193v-0.098v-0.387v-0.194v-0.096V20.05v-0.194V19.76
		v-0.195V19.47v-0.195v-0.387v-0.194v-0.095h0.194h0.388h0.193h0.098h0.193h0.387h0.193h0.193h0.098h0.193h0.097h0.194
		c0.013-0.021-0.017-0.082,0-0.098c0.014-0.013,0.086,0.016,0.097,0c0.013-0.02-0.017-0.081,0-0.097
		c0.017-0.016,0.081,0.016,0.097,0c0.014-0.013-0.016-0.087,0-0.096c0.02-0.014,0.08,0.015,0.098,0c0.016-0.016-0.018-0.081,0-0.097
		c0.012-0.015,0.086,0.015,0.096,0c0.013-0.02-0.017-0.081,0-0.098c0.016-0.015,0.081,0.017,0.097,0
		c0.014-0.013-0.016-0.086,0-0.096c0.02-0.013,0.081,0.016,0.098,0c0.016-0.017-0.017-0.08,0-0.097c0.014-0.014,0.087,0.016,0.097,0
		c0.013-0.02-0.017-0.081,0-0.097c0.016-0.016,0.08,0.016,0.097,0c0.014-0.013-0.016-0.087,0-0.097c0.019-0.012,0.081,0.016,0.097,0
		s-0.016-0.081,0-0.096c0.014-0.014,0.086,0.015,0.098,0c0.014-0.022-0.016-0.078,0-0.097c0.014-0.016,0.08,0.015,0.097,0
		c0.016-0.016-0.014-0.078,0-0.097c0.019-0.012,0.08,0.016,0.097,0c0.016-0.016-0.017-0.081,0-0.097c0.016-0.017,0.08,0.016,0.096,0
		c0.017-0.017-0.012-0.078,0-0.097c0.021-0.014,0.081,0.017,0.098,0c0.014-0.014-0.016-0.087,0-0.097c0.02-0.013,0.08,0.016,0.096,0
		c0.018-0.016-0.016-0.081,0-0.097c0.015-0.013,0.088,0.015,0.098,0c0.013-0.019-0.016-0.08,0-0.097
		c0.016-0.015,0.081,0.017,0.098,0c0.012-0.013-0.016-0.086,0-0.097c0.02-0.012,0.08,0.017,0.096,0c0.017-0.015-0.016-0.08,0-0.096
		c0.015-0.013,0.087,0.015,0.098,0c0.014-0.023-0.012-0.072,0-0.097c0.019-0.013,0.08,0.017,0.097,0c0.016-0.016-0.017-0.08,0-0.097
		c0.016-0.016,0.081,0.017,0.097,0c0.016-0.015-0.016-0.082,0-0.096c0.018-0.016,0.08,0.016,0.097,0
		c0.014-0.014-0.017-0.087,0-0.098c0.022-0.015,0.072,0.013,0.097,0c0.014-0.019-0.016-0.08,0-0.097
		c0.014-0.013,0.087,0.016,0.098,0c0.012-0.018-0.017-0.08,0-0.096c0.016-0.016,0.079,0.016,0.097,0
		c0.013-0.014-0.017-0.086,0-0.097c0.019-0.013,0.08,0.016,0.097,0c0.016-0.017-0.017-0.081,0-0.097
		c0.014-0.013,0.086,0.016,0.096,0c0.014-0.019-0.015-0.08,0-0.096c0.017-0.017,0.082,0.016,0.098,0
		c0.014-0.014-0.016-0.087,0-0.097c0.02-0.014,0.081,0.016,0.097,0c0.015-0.018-0.016-0.081,0-0.098
		c0.015-0.012,0.087,0.016,0.096,0c0.016-0.022-0.011-0.071,0-0.096h0.099c0.012-0.02-0.016-0.08,0-0.097
		c0.012-0.013,0.078,0.006,0.096,0c0.026-0.008,0.07,0,0.098,0h0.096h0.098h0.193h0.388h0.194h0.193h0.097H19.346z"/>
</g>
<line fill="none" stroke="#676868" stroke-width="2" stroke-miterlimit="10" x1="4.988" y1="196.826" x2="38.988" y2="196.826"/>
<path fill="#FFFFFF" d="M968.152,183.96l3.4-3.818l-0.709,3.818H968.152z M971.926,183.96l1.248-6.754h-0.291l-6.922,7.795h4.689
	l-0.416,2.249h1.082l0.412-2.249h1.061l0.939-1.041H971.926z"/>
<polygon fill="#FFFFFF" points="963.318,187.788 962.232,187.788 963.221,183.2 960.297,177.005 961.469,177.005 963.906,182.199 
	968.529,177.005 969.906,177.005 964.271,183.333 "/>
<path fill="#FFFFFF" d="M951.555,191.34h-1.197l0.738-3.554h-7.262l9.598-10.79h0.459l0.344-0.392l-0.082,0.392h3.412
	c0.262,0.009,0.533,0.032,0.811,0.065c0.348,0.043,0.678,0.152,0.98,0.328c0.316,0.182,0.586,0.449,0.805,0.799
	c0.219,0.354,0.328,0.836,0.328,1.429c0,0.468-0.088,0.889-0.262,1.249c-0.172,0.351-0.398,0.656-0.674,0.898
	c-0.197,0.174-0.412,0.319-0.643,0.438c0.18,0.111,0.334,0.254,0.465,0.419c0.357,0.452,0.541,1.036,0.541,1.737
	c0,0.539-0.102,1.031-0.297,1.457c-0.195,0.434-0.477,0.799-0.828,1.092c-0.342,0.289-0.77,0.512-1.252,0.662
	c-0.477,0.146-1.004,0.219-1.572,0.219h-3.674L951.555,191.34z M952.502,186.741h3.633c0.285,0,0.598-0.04,0.934-0.121
	c0.318-0.079,0.613-0.213,0.881-0.398c0.266-0.184,0.484-0.426,0.662-0.729c0.168-0.289,0.254-0.67,0.254-1.135
	c0-0.392-0.062-0.693-0.188-0.898c-0.127-0.206-0.291-0.361-0.502-0.473c-0.23-0.116-0.492-0.19-0.779-0.223
	c-0.32-0.037-0.654-0.053-0.994-0.053h-3.068L952.502,186.741z M952.891,179.28l-6.617,7.461l5.047-0.002L952.891,179.28z
	 M953.531,181.653l3.055,0.008c0.445,0,0.855-0.051,1.225-0.148c0.35-0.095,0.652-0.232,0.898-0.408
	c0.236-0.174,0.414-0.379,0.543-0.629c0.125-0.25,0.188-0.537,0.188-0.857c0-0.346-0.053-0.621-0.152-0.819
	c-0.104-0.196-0.229-0.343-0.379-0.45c-0.168-0.111-0.35-0.185-0.559-0.228c-0.229-0.044-0.465-0.069-0.703-0.069l-3.365-0.011
	L953.531,181.653z"/>
<path fill="#7A7153" d="M949.811-44.808c-0.682-0.259-1.775-0.381-3.283-0.381h-2.135v10.812h3.244c1.256,0,2.236-0.191,2.939-0.587
	c0.703-0.394,1.277-1.009,1.721-1.829c0.43-0.821,0.648-1.776,0.648-2.856c0-1.252-0.275-2.338-0.828-3.237
	C951.57-43.793,950.791-44.434,949.811-44.808 M945.479-44.02h0.65c1.416,0,2.461,0.104,3.074,0.298
	c0.818,0.275,1.453,0.77,1.914,1.486c0.465,0.714,0.695,1.594,0.695,2.605c0,0.962-0.221,1.791-0.635,2.459
	c-0.426,0.661-1.01,1.128-1.744,1.386c-0.533,0.182-1.492,0.27-2.863,0.27h-1.092V-44.02L945.479-44.02z"/>
<rect x="954.824" y="-45.193" fill="#7A7153" width="1.127" height="10.816"/>
<path fill="#7A7153" d="M963.707-39.69c0.488-0.223,0.871-0.571,1.135-1.028c0.26-0.437,0.396-0.973,0.396-1.568
	c0-0.706-0.201-1.311-0.578-1.805c-0.375-0.485-0.875-0.803-1.482-0.956c-0.4-0.102-1.162-0.146-2.271-0.146h-2.057v10.816h1.123
	v-4.957h0.477l3.598,4.957h1.396l-3.604-4.957C962.621-39.352,963.248-39.464,963.707-39.69 M961.633-40.503l-1.66-0.008v-3.509
	h1.707c0.676,0,1.158,0.064,1.451,0.189c0.273,0.124,0.504,0.324,0.684,0.606c0.18,0.274,0.258,0.588,0.258,0.937
	c0,0.36-0.078,0.678-0.256,0.963c-0.168,0.288-0.414,0.495-0.717,0.631C962.777-40.561,962.289-40.503,961.633-40.503"/>
<path fill="#7A7153" d="M973.26-37.741v-7.452h-0.295l-5.668,8.601h4.844v2.215h1.119v-2.215h1.211v-1.149H973.26z M972.141-37.741
	h-2.781l2.781-4.216V-37.741z"/>
<polygon fill="#7A7153" points="944.668,-30.212 949.824,-30.212 949.824,-29.012 945.979,-29.012 945.979,-26.928 949.355,-26.928 
	949.355,-25.787 945.979,-25.787 945.979,-22.253 944.668,-22.253 "/>
<rect x="950.486" y="-30.212" fill="#7A7153" width="1.311" height="7.959"/>
<polygon fill="#7A7153" points="953.395,-30.212 954.699,-30.212 954.699,-23.454 958.494,-23.454 958.494,-22.253 953.395,-22.253 
	"/>
<polygon fill="#7A7153" points="959.367,-30.212 961.213,-30.212 963.266,-23.978 963.289,-23.978 965.293,-30.212 967.109,-30.212 
	967.109,-22.253 965.869,-22.253 965.869,-28.398 965.852,-28.398 963.775,-22.253 962.701,-22.253 960.631,-28.398 
	960.613,-28.398 960.613,-22.253 959.367,-22.253 "/>
<path fill="#7A7153" d="M969.533-24.905c0,1.226,0.852,1.706,1.896,1.706c1.143,0,1.576-0.601,1.576-1.203
	c0-0.616-0.312-0.862-0.619-0.981c-0.521-0.212-1.203-0.357-2.225-0.662c-1.279-0.367-1.654-1.186-1.654-2.011
	c0-1.6,1.391-2.35,2.729-2.35c1.555,0,2.861,0.881,2.861,2.545h-1.307c-0.059-1.025-0.707-1.403-1.609-1.403
	c-0.604,0-1.363,0.235-1.363,1.035c0,0.559,0.352,0.869,0.887,1.029c0.115,0.027,1.768,0.491,2.148,0.611
	c0.986,0.311,1.453,1.206,1.453,2.029c0,1.785-1.479,2.499-2.967,2.499c-1.703,0-3.084-0.87-3.111-2.844H969.533z"/>
<path fill="#CCCBCB" d="M965.139,155.374c-5.043,0.193-10.443,0.027-15.623,0.083v-3.968c0-1.848-0.467-4.174,1.074-4.463
	c1.092-0.205,2.475,0,3.637,0h7.275c1.045,0,2.826-0.155,3.305,0.33c0.592,0.602,0.332,2.656,0.332,3.885V155.374z M951.25,152.978
	h5.869v-3.637h-5.869V152.978z"/>
<path fill="#CCCBCB" d="M971.088,147.356c0.191,2.535,0.027,5.428,0.084,8.101c-1.682-0.828-3.316-1.696-4.959-2.562v-2.976
	C967.846,149.073,969.514,148.263,971.088,147.356"/>
<path fill="#CCCBCB" d="M949.598,156.449h15.541c0.396,2.13-1.789,1.817-3.885,1.817h-7.605c-2.035,0-4.426,0.482-4.133-1.57
	C949.51,156.58,949.5,156.463,949.598,156.449"/>
<circle fill="none" stroke="#7A7153" stroke-miterlimit="10" cx="959.756" cy="-70.129" r="17.17"/>
<circle fill="none" stroke="#FFFFFF" stroke-miterlimit="10" cx="959.756" cy="152.308" r="17.17"/>
<path fill="#7A7153" d="M969.752-76.979h-0.098c-0.01,0-0.09,0.007-0.096,0c-0.014-0.018,0.014-0.081,0-0.097
	c-0.018-0.015-0.08,0.016-0.096,0c-0.018-0.015,0.016-0.082,0-0.097c-0.02-0.016-0.082,0.017-0.1,0c-0.016-0.016,0.018-0.08,0-0.096
	c-0.016-0.017-0.08,0.016-0.096,0s0.016-0.084,0-0.098c-0.012-0.008-0.082,0-0.098,0c-0.014,0-0.094,0.008-0.1,0
	c-0.012-0.017,0.02-0.081,0-0.096c-0.014-0.017-0.08,0.016-0.094,0c-0.016-0.017,0.014-0.081,0-0.097
	c-0.018-0.016-0.082,0.016-0.098,0c-0.018-0.016,0.016-0.081,0-0.097c-0.018-0.016-0.08,0.016-0.098,0
	c-0.016-0.014,0.018-0.084,0-0.096c-0.012-0.01-0.082,0-0.098,0c-0.01,0-0.09,0.006-0.096,0c-0.018-0.019,0.016-0.081,0-0.097
	c-0.02-0.016-0.082,0.016-0.1,0c-0.014-0.016,0.018-0.082,0-0.098c-0.016-0.015-0.08,0.017-0.096,0
	c-0.016-0.015,0.016-0.081,0-0.096c-0.016-0.017-0.082,0.015-0.096,0c-0.018-0.015,0.014-0.084,0-0.098c-0.014-0.008-0.082,0-0.1,0
	c-0.012,0-0.09,0.009-0.096,0c-0.016-0.017,0.016-0.08,0-0.096c-0.018-0.016-0.082,0.017-0.098,0c-0.018-0.016,0.016-0.082,0-0.096
	c-0.02-0.017-0.08,0.015-0.098,0c-0.016-0.017,0.018-0.082,0-0.097c-0.016-0.016-0.082,0.015-0.098,0
	c-0.014-0.016,0.014-0.078,0-0.097h-0.193c0.014-0.02-0.016-0.081,0-0.097c0.014-0.012,0.078,0.003,0.098,0
	c0.025-0.007,0.068,0,0.098,0h0.098h0.193h0.096c0.021-0.013,0.08,0.016,0.1,0c0.014-0.016-0.016-0.078,0-0.097h0.191h0.193h0.098
	c0.027,0,0.068-0.007,0.098,0c0.01,0.002-0.01,0.089,0,0.097c0.01,0.009,0.08-0.001,0.098,0c0.021,0.001,0.076-0.01,0.094,0
	c0.016,0.006-0.01,0.085,0,0.097c0.01,0.009,0.084-0.001,0.1,0c0.018,0.001,0.082-0.012,0.098,0c0.016,0.011-0.016,0.082,0,0.097
	c0.012,0.014,0.086-0.016,0.096,0c0.016,0.021-0.016,0.077,0,0.097c0.016,0.015,0.082-0.017,0.1,0c0.016,0.015-0.016,0.077,0,0.096
	c0.02,0.012,0.076-0.015,0.096,0c0.006,0.006,0,0.085,0,0.096v0.098c0.006,0.005,0.094-0.007,0.096,0c0.006,0.028,0,0.068,0,0.096
	v0.098c0,0.028-0.006,0.068,0,0.097c0.004,0.016-0.01,0.086,0,0.096c0.016,0.014,0.086-0.015,0.098,0
	c0.016,0.023-0.012,0.074,0,0.097v0.193v0.194v0.097v0.097H969.752z"/>
<path fill="#7A7153" d="M967.816-75.721c-0.014,0.02,0.016,0.081,0,0.097c-0.014,0.011-0.08-0.004-0.1,0
	c-0.025,0.007-0.066,0-0.096,0h-0.098h-0.193c-0.012,0.019,0.018,0.081,0,0.096c-0.01,0.01-0.082,0-0.096,0
	c-0.033,0.002-0.064-0.001-0.098,0c-0.033,0.002-0.064,0-0.098,0h-0.096h-0.195h-0.096h-0.1c-0.021,0-0.074-0.008-0.096,0
	c-0.012,0.006,0.01,0.087,0,0.098c-0.018,0.016-0.078-0.014-0.098,0h-0.193h-0.098h-0.193h-0.096c-0.012,0-0.09,0.008-0.098,0
	c-0.016-0.02,0.014-0.076,0-0.098c-0.02-0.011-0.08,0.017-0.1,0c-0.014-0.015,0.02-0.08,0-0.096c-0.014-0.016-0.078,0.016-0.094,0
	c-0.016-0.014,0.016-0.087,0-0.097c-0.016-0.011-0.078,0-0.1,0s-0.072,0.01-0.096,0c-0.012-0.006,0.01-0.086,0-0.097
	c-0.016-0.016-0.078,0.015-0.098,0c-0.016-0.012,0.016-0.082,0-0.097c-0.016-0.016-0.08,0.016-0.096,0s0.016-0.08,0-0.097
	c-0.016-0.016-0.078,0.016-0.098,0c-0.016-0.014,0.016-0.081,0-0.097c-0.016-0.015-0.078,0.013-0.096,0
	c-0.021-0.012-0.082,0.017-0.1,0c-0.016-0.014,0.018-0.084,0-0.096c-0.018-0.015-0.078,0.015-0.098,0
	c-0.016-0.017,0.016-0.08,0-0.098c-0.016-0.016-0.08,0.018-0.096,0c-0.016-0.014,0.016-0.083,0-0.096
	c-0.018-0.014-0.08,0.017-0.098,0c-0.01-0.01,0.014-0.092,0-0.096c-0.021-0.009-0.072,0-0.096,0c-0.016,0-0.086,0.008-0.098,0
	c-0.018-0.014,0.016-0.082,0-0.098c-0.018-0.016-0.08,0.017-0.096,0c-0.02-0.016,0.016-0.08,0-0.097c-0.02-0.015-0.082,0.017-0.1,0
	c-0.016-0.016,0.018-0.08,0-0.096c-0.014-0.014-0.086,0.015-0.098,0c-0.014-0.023,0.012-0.074,0-0.097h-0.096
	c-0.023,0-0.076,0.01-0.098,0c-0.012-0.006,0.012-0.086,0-0.097c-0.016-0.016-0.08,0.016-0.096,0c-0.02-0.015,0.016-0.081,0-0.096
	c-0.014-0.014-0.086,0.015-0.098,0c-0.012-0.017,0.016-0.085,0-0.098c-0.021-0.014-0.08,0.017-0.1,0
	c-0.012-0.013,0.02-0.086,0-0.096c-0.021-0.015-0.072,0.013-0.096,0c-0.02-0.012-0.082,0.015-0.098,0
	c-0.014-0.014,0.016-0.087,0-0.097c-0.021-0.015-0.076,0.016-0.096,0c-0.018-0.013,0.014-0.083,0-0.097
	c-0.016-0.017-0.08,0.016-0.098,0c-0.016-0.017,0.018-0.081,0-0.097c-0.016-0.015-0.078,0.013-0.096,0
	c-0.018-0.011,0.014-0.083,0-0.097c-0.012-0.009-0.084,0-0.1,0c-0.018-0.001-0.084,0.01-0.098,0c-0.016-0.013,0.016-0.083,0-0.096
	c-0.014-0.014-0.086,0.014-0.096,0c-0.014-0.02,0.016-0.081,0-0.097s-0.08,0.016-0.098,0c-0.014-0.015,0.016-0.087,0-0.098
	c-0.02-0.013-0.078,0.016-0.098,0c-0.016-0.013,0.014-0.079,0-0.096h0.195h0.096c0.02-0.013,0.082,0.015,0.098,0
	c0.01-0.01-0.014-0.092,0-0.098c0.021-0.008,0.072,0,0.098,0c0.031,0,0.062,0.004,0.096,0c0.031-0.002,0.066,0,0.098,0h0.098h0.098
	h0.193c0.031,0,0.062,0.003,0.098,0c0.014,0,0.086,0.01,0.096,0c0.018-0.016-0.012-0.076,0-0.096h0.193h0.387h0.195
	c0.012,0.02-0.02,0.08,0,0.096c0.012,0.015,0.086-0.015,0.094,0c0.014,0.018-0.012,0.087,0,0.098c0.016,0.01,0.08,0,0.1,0
	c0.012,0,0.09-0.008,0.098,0c0.014,0.015-0.016,0.084,0,0.096c0.018,0.016,0.08-0.016,0.096,0c0.014,0.014-0.016,0.087,0,0.098
	c0.021,0.014,0.078-0.016,0.098,0c0.018,0.013-0.016,0.081,0,0.097c0.018,0.015,0.078-0.016,0.098,0
	c0.016,0.013-0.016,0.081,0,0.096c0.01,0.01,0.084-0.001,0.096,0c0.023,0.001,0.08-0.01,0.098,0c0.016,0.008-0.014,0.085,0,0.097
	c0.018,0.017,0.08-0.015,0.098,0c0.016,0.014-0.016,0.081,0,0.097c0.014,0.013,0.086-0.016,0.096,0c0.016,0.021-0.016,0.077,0,0.097
	c0.014,0.016,0.082-0.016,0.098,0c0.018,0.016-0.012,0.077,0,0.097h0.1c0.021,0,0.072-0.01,0.094,0c0.016,0.005-0.008,0.086,0,0.096
	c0.02,0.017,0.082-0.016,0.1,0c0.016,0.015-0.016,0.082,0,0.098c0.014,0.013,0.086-0.016,0.096,0c0.012,0.015-0.014,0.084,0,0.096
	c0.02,0.015,0.082-0.016,0.098,0c0.01,0.011-0.012,0.091,0,0.097c0.021,0.01,0.074,0,0.098,0c0.018,0,0.084-0.01,0.098,0
	c0.016,0.012-0.016,0.082,0,0.097c0.014,0.013,0.088-0.015,0.098,0c0.012,0.016-0.016,0.084,0,0.096c0.02,0.015,0.08-0.015,0.096,0
	c0.018,0.017-0.016,0.081,0,0.097c0.018,0.017,0.082-0.016,0.098,0c0.014,0.015-0.016,0.086,0,0.098c0.014,0.008,0.078,0,0.096,0
	c0.012,0,0.092-0.009,0.098,0c0.016,0.016-0.016,0.083,0,0.096c0.021,0.015,0.08-0.016,0.1,0c0.014,0.013-0.018,0.086,0,0.096
	c0.018,0.014,0.08-0.016,0.096,0c0.018,0.018-0.016,0.081,0,0.098c0.014,0.013,0.086-0.016,0.098,0c0.014,0.022-0.012,0.072,0,0.096
	h0.098c0.01,0,0.09-0.008,0.096,0c0.014,0.018-0.018,0.081,0,0.097c0.018,0.016,0.08-0.016,0.096,0c0.02,0.016-0.016,0.084,0,0.097
	c0.021,0.015,0.082-0.016,0.1,0c0.014,0.014-0.018,0.087,0,0.097c0.02,0.014,0.076-0.016,0.098,0c0.016,0.014-0.018,0.081,0,0.097
	c0.016,0.017,0.078-0.013,0.096,0H967.816z"/>
<path fill="#7A7153" d="M962.684-75.043h-0.193h-0.096h-0.195c-0.023,0-0.074-0.01-0.096,0c-0.012,0.005,0.01,0.086,0,0.097
	c-0.016,0.016-0.078-0.013-0.098,0h-0.193h-0.193h-0.098h-0.193c-0.02,0.013-0.08-0.016-0.096,0c-0.014,0.013,0.016,0.087,0,0.096
	c-0.02,0.013-0.074-0.005-0.098,0c-0.027,0.006-0.068,0-0.098,0h-0.096h-0.1h-0.191c-0.014-0.019,0.014-0.08,0-0.096
	c-0.008-0.01-0.082,0.001-0.098,0c-0.021-0.001-0.076,0.01-0.098,0c-0.014-0.008,0.012-0.085,0-0.097
	c-0.016-0.017-0.078,0.016-0.096,0c-0.018-0.014,0.014-0.081,0-0.097c-0.016-0.013-0.088,0.016-0.098,0
	c-0.016-0.021,0.016-0.078,0-0.097c-0.016-0.016-0.082,0.016-0.1,0c-0.012-0.015,0.02-0.083,0-0.097c-0.008-0.009-0.082,0-0.094,0
	s-0.092,0.009-0.1,0c-0.014-0.018,0.018-0.08,0-0.096c-0.016-0.016-0.078,0.016-0.098,0c-0.016-0.016,0.02-0.082,0-0.097
	c-0.016-0.016-0.08,0.016-0.096,0c-0.016-0.016,0.016-0.08,0-0.097c-0.016-0.016-0.08,0.017-0.098,0
	c-0.018-0.016,0.014-0.077,0-0.097h-0.098c-0.021,0-0.074,0.01-0.096,0c-0.012-0.006,0.008-0.086,0-0.096
	c-0.018-0.017-0.08,0.015-0.096,0c-0.02-0.016,0.016-0.082,0-0.098c-0.016-0.013-0.09,0.016-0.1,0c-0.012-0.016,0.018-0.085,0-0.097
	c-0.02-0.013-0.08,0.017-0.098,0c-0.01-0.01,0.014-0.091,0-0.096c-0.02-0.009-0.072,0-0.096,0c-0.02,0-0.084,0.009-0.1,0
	c-0.014-0.012,0.018-0.082,0-0.097c-0.012-0.014-0.086,0.016-0.094,0c-0.012-0.018,0.016-0.084,0-0.098
	c-0.021-0.013-0.08,0.018-0.098,0c-0.018-0.015,0.018-0.079,0-0.095c-0.018-0.017-0.08,0.016-0.098,0
	c-0.014-0.015,0.018-0.086,0-0.097c-0.014-0.01-0.08,0-0.098,0c-0.012,0-0.09,0.008-0.098,0c-0.014-0.017,0.018-0.083,0-0.098
	c-0.02-0.014-0.08,0.018-0.098,0c-0.012-0.013,0.018-0.087,0-0.096c-0.018-0.013-0.078,0.016-0.096,0
	c-0.016-0.016,0.018-0.081,0-0.097c-0.014-0.014-0.086,0.015-0.096,0c-0.018-0.023,0.012-0.073,0-0.097h-0.1
	c-0.021,0-0.076,0.01-0.096,0c-0.014-0.006,0.01-0.086,0-0.097c-0.018-0.016-0.082,0.016-0.098,0c-0.018-0.015,0.016-0.081,0-0.096
	c-0.016-0.014-0.086,0.015-0.1,0c-0.01-0.017,0.018-0.085,0-0.098c-0.016-0.014-0.078,0.018-0.096,0
	c-0.012-0.013,0.018-0.086,0-0.096c-0.021-0.015-0.072,0.013-0.096,0c-0.021-0.011-0.08,0.015-0.098,0
	c-0.014-0.013,0.018-0.086,0-0.097c-0.021-0.014-0.078,0.016-0.098,0c-0.016-0.014,0.014-0.079,0-0.097h0.098
	c0.027,0,0.068,0.007,0.098,0c0.016-0.004,0.086,0.013,0.096,0c0.008-0.007-0.006-0.096,0-0.097c0.031-0.006,0.068,0,0.096,0h0.1
	h0.191h0.195h0.096h0.098c0.012,0,0.092,0.008,0.098,0c0.016-0.019-0.012-0.074,0-0.096h0.193h0.191h0.1h0.191h0.1h0.096
	c0.012,0,0.092-0.008,0.098,0c0.018,0.018-0.012,0.074,0,0.096c0.021,0.013,0.08-0.015,0.096,0c0.016,0.014-0.014,0.086,0,0.097
	c0.021,0.013,0.082-0.017,0.1,0c0.014,0.017-0.018,0.081,0,0.097c0.012,0.013,0.088-0.016,0.094,0c0.014,0.017-0.012,0.085,0,0.097
	c0.014,0.009,0.082,0,0.1,0c0.012,0,0.092-0.008,0.098,0c0.014,0.018-0.018,0.081,0,0.096c0.016,0.017,0.08-0.016,0.096,0
	c0.016,0.016-0.016,0.084,0,0.098c0.021,0.014,0.082-0.018,0.098,0c0.016,0.013-0.016,0.087,0,0.096c0.021,0.015,0.074-0.014,0.1,0
	c0.012,0.01-0.018,0.083,0,0.097c0.008,0.01,0.082-0.001,0.094,0c0.02,0.001,0.084-0.01,0.1,0c0.016,0.013-0.018,0.082,0,0.097
	c0.012,0.014,0.086-0.015,0.096,0c0.014,0.021-0.016,0.077,0,0.097c0.014,0.016,0.082-0.016,0.098,0
	c0.016,0.014-0.018,0.083,0,0.096c0.018,0.015,0.08-0.015,0.096,0c0.016,0.015-0.016,0.087,0,0.098c0.023,0.014,0.074-0.016,0.1,0
	c0.014,0.01-0.016,0.083,0,0.097c0.01,0.008,0.082-0.001,0.096,0c0.018,0,0.084-0.01,0.098,0c0.016,0.012-0.016,0.081,0,0.095
	c0.014,0.015,0.086-0.014,0.098,0c0.014,0.022-0.016,0.078,0,0.098c0.014,0.016,0.08-0.016,0.096,0s-0.016,0.084,0,0.097
	c0.02,0.014,0.082-0.017,0.098,0c0.016,0.013-0.016,0.086,0,0.096c0.021,0.016,0.072-0.013,0.098,0c0.018,0.012,0.082-0.014,0.098,0
	c0.014,0.014-0.016,0.087,0,0.097c0.021,0.015,0.078-0.016,0.098,0c0.016,0.015-0.016,0.082,0,0.098
	c0.012,0.013,0.086-0.016,0.096,0c0.014,0.02-0.018,0.077,0,0.096c0.014,0.017,0.082-0.015,0.098,0c0.016,0.017-0.014,0.077,0,0.097
	h0.096c0.014,0,0.09-0.007,0.1,0c0.012,0.014-0.018,0.088,0,0.097c0.018,0.012,0.08-0.016,0.096,0c0.016,0.013-0.014,0.086,0,0.097
	c0.021,0.014,0.078-0.016,0.098,0c0.016,0.012-0.016,0.082,0,0.096c0.014,0.014,0.086-0.016,0.098,0c0.01,0.017-0.018,0.086,0,0.097
	c0.012,0.009,0.08,0,0.096,0c0.012,0,0.092-0.008,0.098,0c0.018,0.019-0.014,0.075,0,0.097c0.021,0.012,0.08-0.016,0.098,0
	C962.701-75.124,962.672-75.063,962.684-75.043"/>
<path fill="#7A7153" d="M957.553-74.462h-0.193h-0.098h-0.193h-0.193c-0.021,0-0.076-0.009-0.098,0c-0.012,0.005,0.01,0.087,0,0.097
	c-0.016,0.016-0.078-0.013-0.096,0h-0.195h-0.193h-0.096h-0.195c-0.025,0-0.066-0.007-0.096,0c-0.01,0.003,0.008,0.089,0,0.095
	c-0.01,0.01-0.084,0-0.098,0c-0.031,0.003-0.064,0-0.096,0h-0.193c-0.014-0.018,0.016-0.079,0-0.095
	c-0.014-0.013-0.088,0.015-0.098,0c-0.01-0.011,0.01-0.092,0-0.097c-0.02-0.01-0.074,0-0.1,0c-0.014,0-0.084,0.009-0.094,0
	c-0.018-0.013,0.014-0.082,0-0.097c-0.016-0.013-0.086,0.016-0.1,0c-0.014-0.02,0.018-0.078,0-0.096
	c-0.014-0.017-0.082,0.014-0.096,0c-0.016-0.016,0.016-0.084,0-0.097c-0.02-0.016-0.082,0.017-0.098,0
	c-0.014-0.015,0.016-0.088,0-0.098c-0.021-0.014-0.074,0.015-0.096,0c-0.02-0.012-0.082,0.016-0.1,0
	c-0.014-0.014,0.018-0.085,0-0.096c-0.018-0.014-0.08,0.016-0.096,0c-0.016-0.014,0.014-0.086,0-0.097
	c-0.021-0.014-0.078,0.016-0.098,0c-0.016-0.014,0.018-0.081,0-0.097c-0.016-0.016-0.076,0.016-0.098,0
	c-0.016-0.013,0.016-0.082,0-0.097c-0.01-0.009-0.082,0.001-0.096,0c-0.023,0-0.078,0.01-0.098,0c-0.016-0.008,0.012-0.084,0-0.097
	c-0.018-0.017-0.078,0.016-0.098,0c-0.016-0.014,0.016-0.081,0-0.096c-0.014-0.014-0.088,0.016-0.096,0
	c-0.014-0.021,0.014-0.078,0-0.097c-0.014-0.016-0.082,0.015-0.1,0c-0.014-0.016,0.02-0.083,0-0.097c-0.012-0.009-0.078,0-0.096,0
	c-0.012,0-0.092,0.008-0.098,0c-0.014-0.018,0.018-0.081,0-0.097c-0.016-0.015-0.08,0.017-0.096,0c-0.02-0.015,0.016-0.082,0-0.096
	c-0.02-0.016-0.082,0.015-0.1,0c-0.014-0.017,0.018-0.082,0-0.098c-0.014-0.016-0.08,0.016-0.094,0c-0.016-0.016,0.01-0.077,0-0.097
	h-0.098c-0.014,0-0.092,0.008-0.1,0c-0.014-0.017,0.02-0.08,0-0.096c-0.016-0.016-0.08,0.016-0.096,0s0.016-0.082,0-0.097
	c-0.018-0.017-0.082,0.015-0.098,0c-0.018-0.017,0.016-0.08,0-0.098c-0.018-0.015-0.08,0.018-0.1,0
	c-0.014-0.015,0.016-0.076,0-0.096h-0.094c-0.012,0-0.092,0.008-0.096,0c-0.016-0.014,0.014-0.087,0-0.096
	c-0.023-0.013-0.082,0.015-0.1,0c-0.014-0.014,0.018-0.087,0-0.098c-0.021-0.015-0.076,0.016-0.098,0
	c-0.016-0.012,0.014-0.082,0-0.097c-0.014-0.013-0.086,0.016-0.096,0c-0.008-0.01,0.01-0.091,0-0.096c-0.021-0.01-0.074,0-0.1,0
	h-0.096c0.012-0.019-0.016-0.081,0-0.097c0.016-0.016,0.082,0.016,0.096,0c0.018-0.016-0.014-0.081,0-0.097
	c0.014-0.012,0.078,0.005,0.1,0c0.023-0.007,0.066,0,0.096,0h0.098h0.193h0.193h0.098c0.012,0,0.09,0.007,0.096,0
	c0.018-0.019-0.012-0.075,0-0.096h0.195h0.096h0.193h0.098h0.096c0.029,0,0.07,0.007,0.1,0c0.016-0.005,0.084,0.011,0.096,0
	c0.018-0.017-0.012-0.077,0-0.098h0.195c0.01,0.021-0.02,0.081,0,0.098c0.014,0.015,0.08-0.016,0.094,0
	c0.016,0.015-0.014,0.081,0,0.096c0.016,0.016,0.082-0.016,0.098,0c0.018,0.016-0.016,0.081,0,0.097
	c0.018,0.016,0.078-0.015,0.098,0c0.018,0.014-0.018,0.082,0,0.097c0.018,0.016,0.078-0.013,0.098,0c0.021,0.013,0.08-0.016,0.098,0
	c0.016,0.014-0.018,0.083,0,0.096c0.02,0.016,0.078-0.015,0.098,0c0.014,0.017-0.018,0.082,0,0.097c0.014,0.017,0.08-0.015,0.096,0
	c0.016,0.016-0.016,0.082,0,0.098c0.02,0.015,0.08-0.017,0.096,0c0.016,0.012-0.016,0.086,0,0.096c0.023,0.014,0.076-0.016,0.1,0
	c0.02,0.015,0.08-0.016,0.096,0c0.016,0.017-0.016,0.081,0,0.096c0.016,0.018,0.082-0.015,0.098,0c0.018,0.017-0.016,0.082,0,0.098
	c0.02,0.015,0.08-0.017,0.1,0c0.012,0.014-0.018,0.087,0,0.097c0.02,0.014,0.076-0.016,0.094,0c0.018,0.012-0.014,0.083,0,0.096
	c0.018,0.017,0.08-0.013,0.098,0c0.021,0.013,0.08-0.015,0.098,0c0.016,0.015-0.018,0.086,0,0.097c0.02,0.015,0.08-0.016,0.098,0
	c0.014,0.015-0.016,0.087,0,0.098c0.02,0.014,0.076-0.016,0.096,0c0.02,0.012-0.014,0.081,0,0.096c0.02,0.017,0.082-0.016,0.1,0
	c0.014,0.017-0.018,0.081,0,0.097c0.014,0.016,0.078-0.012,0.098,0c0.018,0.012,0.08-0.016,0.094,0c0.016,0.014-0.012,0.086,0,0.097
	c0.023,0.014,0.078-0.016,0.1,0c0.016,0.012-0.018,0.082,0,0.097c0.016,0.016,0.08-0.016,0.096,0c0.018,0.016-0.016,0.08,0,0.096
	c0.018,0.017,0.078-0.012,0.098,0c0.018,0.011-0.014,0.084,0,0.097c0.01,0.009,0.082,0,0.1,0c0.016,0.002,0.084-0.009,0.096,0
	c0.014,0.013-0.014,0.083,0,0.097c0.014,0.016,0.08-0.016,0.096,0c0.018,0.016-0.016,0.08,0,0.097c0.018,0.016,0.082-0.017,0.098,0
	c0.016,0.018-0.018,0.08,0,0.097c0.014,0.013,0.088-0.015,0.098,0c0.012,0.017-0.016,0.084,0,0.096c0.01,0.01,0.082,0,0.096,0
	c0.023,0,0.076-0.008,0.1,0c0.012,0.006-0.012,0.086,0,0.098c0.016,0.016,0.078-0.016,0.098,0c0.014,0.015-0.018,0.08,0,0.097
	c0.012,0.012,0.086-0.017,0.094,0c0.018,0.021-0.01,0.071,0,0.096c0.021,0.013,0.08-0.015,0.1,0
	C957.568-74.543,957.537-74.482,957.553-74.462"/>
<path fill="#7A7153" d="M949.902-75.915h0.191c0.014,0.021-0.016,0.081,0,0.098c0.02,0.015,0.08-0.017,0.096,0
	c0.02,0.015-0.016,0.08,0,0.096c0.02,0.017,0.082-0.016,0.1,0c0.016,0.017-0.018,0.081,0,0.097c0.016,0.017,0.082-0.016,0.098,0
	c0.016,0.017-0.016,0.081,0,0.097c0.016,0.016,0.078-0.016,0.098,0c0.02,0.015,0.08-0.016,0.096,0c0.016,0.016-0.016,0.081,0,0.097
	c0.016,0.016,0.082-0.016,0.098,0c0.016,0.016-0.016,0.08,0,0.096c0.016,0.017,0.08-0.016,0.096,0c0.02,0.017-0.016,0.081,0,0.097
	c0.02,0.016,0.082-0.016,0.1,0c0.016,0.016-0.016,0.078,0,0.097h0.098c0.021,0,0.074-0.008,0.096,0c0.012,0.005-0.01,0.087,0,0.097
	c0.016,0.017,0.08-0.016,0.098,0c0.016,0.016-0.016,0.081,0,0.097c0.012,0.013,0.086-0.015,0.096,0c0.012,0.016-0.014,0.085,0,0.096
	c0.021,0.015,0.082-0.015,0.098,0c0.012,0.01-0.014,0.092,0,0.098c0.023,0.009,0.074,0,0.098,0c0.018,0,0.084-0.01,0.098,0
	c0.016,0.012-0.016,0.082,0,0.097c0.014,0.012,0.086-0.017,0.096,0c0.012,0.016-0.014,0.084,0,0.096c0.02,0.015,0.082-0.016,0.098,0
	s-0.016,0.081,0,0.097c0.016,0.017,0.08-0.016,0.1,0c0.01,0.014-0.02,0.086,0,0.097c0.01,0.009,0.08,0,0.094,0s0.094-0.008,0.1,0
	c0.014,0.016-0.018,0.084,0,0.096c0.018,0.016,0.08-0.016,0.096,0c0.014,0.014-0.016,0.087,0,0.097c0.02,0.013,0.082-0.015,0.098,0
	c0.016,0.017-0.016,0.081,0,0.098c0.014,0.013,0.086-0.016,0.096,0c0.018,0.021-0.012,0.072,0,0.097c0.008,0.005,0.098-0.008,0.1,0
	s0.004,0.09,0,0.096c-0.012,0.01-0.082-0.001-0.1,0c-0.029,0.002-0.062-0.002-0.096,0c-0.031,0.002-0.064,0-0.098,0h-0.096h-0.193
	h-0.098h-0.193c-0.014,0.019,0.016,0.081,0,0.097c-0.01,0.01-0.082,0-0.098,0c-0.031,0.001-0.064-0.002-0.098,0
	c-0.029,0.001-0.062,0-0.098,0h-0.096h-0.389c0.014,0.019-0.016,0.081,0,0.097c0.01,0.009,0.082,0,0.098,0
	c0.031,0.001,0.064-0.002,0.098,0c0.033,0.001,0.062,0,0.096,0h0.1h0.387h0.193h0.191h0.1h0.191h0.098c0.018,0,0.084-0.01,0.098,0
	c0.016,0.01-0.012,0.082,0,0.096c-0.021,0.013-0.082-0.016-0.098,0c-0.014,0.014,0.016,0.087,0,0.097
	c-0.021,0.015-0.076-0.016-0.098,0c-0.014,0.014,0.018,0.082,0,0.098c-0.014,0.015-0.08-0.017-0.096,0
	c-0.018,0.015,0.016,0.081,0,0.096c-0.018,0.017-0.082-0.016-0.098,0c-0.016,0.017,0.016,0.08,0,0.097
	c-0.016,0.016-0.08-0.017-0.098,0c-0.016,0.016,0.018,0.081,0,0.097c-0.016,0.015-0.08-0.017-0.096,0
	c-0.018,0.015,0.016,0.081,0,0.096c-0.018,0.017-0.082-0.015-0.098,0c-0.018,0.017,0.016,0.081,0,0.097
	c-0.018,0.017-0.082-0.016-0.1,0c-0.014,0.017,0.018,0.081,0,0.097c-0.014,0.016-0.076-0.013-0.096,0
	c-0.014,0.019,0.016,0.082,0,0.097c-0.014,0.014-0.084-0.015-0.098,0c-0.014,0.022,0.016,0.077,0,0.097
	c-0.014,0.017-0.08-0.016-0.096,0c-0.016,0.017,0.016,0.08,0,0.097c-0.016,0.016-0.082-0.017-0.098,0
	c-0.014,0.013,0.016,0.087,0,0.096c-0.021,0.015-0.078-0.016-0.096,0c-0.02,0.014,0.014,0.082,0,0.097
	c-0.02,0.017-0.078-0.013-0.1,0c-0.014,0.02,0.018,0.081,0,0.097c-0.014,0.013-0.086-0.015-0.096,0c-0.016,0.022,0.01,0.073,0,0.096
	c-0.021,0.014-0.082-0.015-0.098,0c-0.016,0.017,0.016,0.081,0,0.098c-0.016,0.016-0.08-0.017-0.098,0
	c-0.016,0.016,0.018,0.08,0,0.097c-0.016,0.016-0.08-0.017-0.096,0c-0.016,0.016,0.016,0.08,0,0.096
	c-0.016,0.017-0.082-0.016-0.098,0c-0.018,0.017,0.016,0.081,0,0.097c-0.018,0.017-0.08-0.016-0.098,0
	c-0.018,0.017,0.018,0.081,0,0.098c-0.018,0.015-0.08-0.017-0.098,0c-0.016,0.015,0.018,0.08,0,0.096
	c-0.016,0.016-0.082-0.016-0.098,0c-0.016,0.016,0.016,0.08,0,0.096c-0.016,0.017-0.08-0.016-0.098,0
	c-0.016,0.017,0.018,0.082,0,0.098c-0.016,0.015-0.076-0.014-0.096,0v-0.194v-0.096v-0.388v-0.388v-0.193v-0.194v-0.097v-0.193
	v-0.388v-0.387v-0.193v-0.098v-0.193v-0.097c-0.02-0.013-0.08,0.017-0.096,0c-0.014-0.013,0.004-0.079,0-0.097
	c-0.008-0.025,0-0.07,0-0.096v-0.097v-0.098v-0.193v-0.194c-0.014-0.019,0.016-0.08,0-0.097c-0.014-0.013-0.088,0.017-0.098,0
	c-0.014-0.018,0.006-0.074,0-0.096c-0.008-0.029,0-0.068,0-0.097v-0.097v-0.097v-0.194H949.902z"/>
<path fill="#7A7153" d="M957.359-73.688h0.096c0.014,0,0.09-0.008,0.098,0c0.002,0.003,0.002,0.094,0,0.097
	c-0.018,0.016-0.078-0.013-0.098,0c-0.012,0.019,0.016,0.081,0,0.096c-0.018,0.017-0.08-0.015-0.096,0
	c-0.018,0.017,0.016,0.081,0,0.098c-0.018,0.016-0.086-0.018-0.1,0c-0.016,0.017,0.018,0.079,0,0.097
	c-0.014,0.013-0.086-0.016-0.098,0c-0.012,0.019,0.016,0.08,0,0.096s-0.08-0.016-0.096,0c-0.018,0.016,0.016,0.08,0,0.097
	c-0.018,0.016-0.082-0.017-0.098,0c-0.016,0.016,0.018,0.082,0,0.097c-0.018,0.015-0.08-0.016-0.096,0
	c-0.014,0.013,0.016,0.087,0,0.096c-0.023,0.015-0.072-0.011-0.098,0c-0.014,0.02,0.016,0.081,0,0.097
	c-0.018,0.017-0.078-0.013-0.098,0c-0.014,0.02,0.018,0.082,0,0.098c-0.014,0.013-0.088-0.016-0.098,0
	c-0.016,0.021,0.012,0.072,0,0.096c-0.02,0.013-0.078-0.016-0.098,0c-0.014,0.013,0.016,0.086,0,0.097
	c-0.02,0.014-0.078-0.016-0.096,0c-0.018,0.014,0.014,0.081,0,0.097c-0.018,0.016-0.08-0.017-0.098,0
	c-0.016,0.016,0.018,0.081,0,0.096c-0.014,0.014-0.086-0.014-0.096,0c-0.018,0.021,0.016,0.079,0,0.097
	c-0.018,0.017-0.082-0.014-0.1,0c-0.016,0.017,0.014,0.078,0,0.097c-0.02,0.014-0.08-0.016-0.098,0
	c-0.012,0.014,0.018,0.088,0,0.097c-0.018,0.013-0.08-0.016-0.096,0s0.016,0.081,0,0.097c-0.014,0.014-0.088-0.014-0.098,0
	c-0.016,0.023,0.012,0.072,0,0.097c-0.02,0.014-0.08-0.017-0.096,0c-0.018,0.016,0.012,0.077,0,0.097
	c-0.02,0.013-0.08-0.016-0.098,0c-0.016,0.013,0.016,0.085,0,0.097c-0.021,0.013-0.08-0.016-0.098,0
	c-0.016,0.016,0.018,0.08,0,0.097c-0.014,0.013-0.088-0.017-0.098,0c-0.012,0.018,0.016,0.08,0,0.096s-0.08-0.016-0.098,0
	c-0.014,0.014,0.016,0.086,0,0.097c-0.021,0.014-0.076-0.016-0.096,0c-0.018,0.014,0.016,0.082,0,0.097
	c-0.016,0.017-0.082-0.016-0.1,0c-0.014,0.016,0.018,0.081,0,0.097c-0.012,0.013-0.084-0.015-0.094,0
	c-0.016,0.021,0.016,0.078,0,0.096c-0.016,0.017-0.082-0.014-0.1,0c-0.016,0.017,0.018,0.081,0,0.098
	c-0.016,0.016-0.08-0.017-0.096,0c-0.014,0.013,0.016,0.086,0,0.097c-0.021,0.013-0.078-0.016-0.098,0
	c-0.016,0.013,0.016,0.081,0,0.096c-0.016,0.016-0.078-0.012-0.098,0v0.195h0.389h0.387h0.387h0.193h0.195h0.096h0.193h0.195h0.096
	h0.387h0.195h0.096h0.193c0.014-0.021-0.016-0.082,0-0.098c0.014-0.013,0.088,0.016,0.098,0c0.014-0.021-0.018-0.078,0-0.097
	c0.014-0.016,0.082,0.015,0.096,0c0.02-0.016-0.016-0.08,0-0.096s0.082,0.015,0.098,0c0.018-0.016-0.016-0.081,0-0.097
	c0.018-0.017,0.08,0.016,0.1,0c0.016-0.017-0.02-0.081,0-0.098c0.016-0.015,0.08,0.016,0.096,0c0.016-0.015-0.016-0.08,0-0.096
	c0.016-0.017,0.08,0.016,0.098,0c0.016-0.017-0.016-0.08,0-0.097s0.08,0.017,0.096,0c0.018-0.017-0.016-0.081,0-0.097
	c0.018-0.016,0.082,0.016,0.098,0c0.016-0.016-0.014-0.078,0-0.097c0.021-0.012,0.08,0.016,0.096,0c0.016-0.012-0.016-0.086,0-0.096
	c0.021-0.014,0.078,0.015,0.1,0c0.016-0.014-0.018-0.082,0-0.097c0.016-0.016,0.08,0.016,0.098,0c0.016-0.016-0.016-0.082,0-0.097
	c0.016-0.016,0.08,0.016,0.096,0c0.018-0.016-0.016-0.081,0-0.097c0.018-0.017,0.078,0.014,0.098,0c0.014-0.02-0.016-0.08,0-0.097
	c0.016-0.014,0.086,0.015,0.098,0c0.014-0.021-0.018-0.077,0-0.097c0.012-0.016,0.08,0.015,0.096,0c0.018-0.016-0.016-0.081,0-0.097
	c0.018-0.016,0.08,0.016,0.098,0c0.016-0.013-0.016-0.086,0-0.097c0.021-0.013,0.076,0.017,0.098,0c0.018-0.013-0.016-0.081,0-0.097
	c0.016-0.015,0.078,0.013,0.098,0c0.014-0.018-0.016-0.08,0-0.096c0.014-0.013,0.086,0.015,0.096,0c0.018-0.023-0.012-0.072,0-0.097
	c0.02-0.013,0.08,0.017,0.1,0c0.014-0.016-0.02-0.08,0-0.097c0.014-0.016,0.078,0.017,0.094,0c0.02-0.015-0.016-0.082,0-0.096
	c0.02-0.016,0.082,0.016,0.1,0c0.014-0.014-0.018-0.087,0-0.098c0.021-0.015,0.07,0.013,0.096,0c0.014-0.019-0.016-0.08,0-0.097
	c0.016-0.013,0.088,0.016,0.098,0c0.014-0.02-0.016-0.077,0-0.096c0.014-0.016,0.082,0.015,0.098,0c0.018-0.016-0.016-0.08,0-0.097
	c0.014-0.017,0.08,0.016,0.096,0c0.018-0.017-0.016-0.081,0-0.097c0.018-0.016,0.082,0.016,0.098,0c0.018-0.016-0.016-0.08,0-0.096
	c0.018-0.017,0.08,0.016,0.1,0c0.016-0.017-0.02-0.081,0-0.097c0.016-0.017,0.078,0.016,0.096,0c0.016-0.017-0.018-0.081,0-0.098
	c0.016-0.015,0.08,0.017,0.098,0c0.016-0.015-0.018-0.08,0-0.096c0.016-0.017,0.08,0.016,0.096,0c0.018-0.017-0.012-0.077,0-0.097
	h0.389h0.193h0.193h0.193h0.098h0.193h0.191h0.098h0.389h0.193c-0.016,0.02,0.016,0.08,0,0.097c-0.016,0.013-0.086-0.016-0.1,0
	c-0.014,0.021,0.02,0.077,0,0.096c-0.014,0.018-0.082-0.014-0.094,0c-0.02,0.018,0.014,0.08,0,0.098c-0.018,0.016-0.082-0.017-0.1,0
	c-0.016,0.016,0.018,0.08,0,0.097c-0.016,0.016-0.08-0.017-0.096,0c-0.018,0.016,0.016,0.08,0,0.096
	c-0.018,0.016-0.082-0.016-0.098,0s0.016,0.08,0,0.097c-0.016,0.016-0.08-0.017-0.098,0c-0.018,0.016,0.018,0.081,0,0.097
	c-0.018,0.016-0.08-0.016-0.098,0c-0.016,0.016,0.018,0.081,0,0.096c-0.016,0.017-0.082-0.015-0.098,0
	c-0.016,0.017,0.014,0.078,0,0.097c-0.02,0.014-0.08-0.016-0.096,0c-0.014,0.015,0.016,0.087,0,0.098
	c-0.02,0.012-0.082-0.016-0.098,0c-0.016,0.015,0.016,0.08,0,0.096c-0.014,0.013-0.086-0.015-0.096,0
	c-0.014,0.02,0.016,0.081,0,0.097c-0.018,0.017-0.082-0.016-0.098,0c-0.016,0.014,0.016,0.087,0,0.097
	c-0.021,0.012-0.08-0.017-0.1,0c-0.016,0.016,0.02,0.081,0,0.096c-0.014,0.014-0.086-0.014-0.096,0c-0.014,0.02,0.016,0.082,0,0.097
	c-0.016,0.017-0.082-0.015-0.098,0c-0.014,0.014,0.016,0.087,0,0.097c-0.02,0.014-0.08-0.016-0.096,0
	c-0.016,0.016,0.016,0.081,0,0.097c-0.014,0.014-0.088-0.015-0.098,0c-0.014,0.02,0.016,0.081,0,0.097
	c-0.016,0.017-0.08-0.016-0.096,0c-0.018,0.014,0.014,0.086,0,0.097c-0.021,0.014-0.082-0.017-0.1,0
	c-0.016,0.016,0.018,0.081,0,0.097c-0.014,0.013-0.086-0.016-0.098,0c-0.014,0.022,0.012,0.073,0,0.097
	c-0.02,0.013-0.08-0.016-0.096,0c-0.014,0.013,0.016,0.086,0,0.097c-0.02,0.012-0.082-0.017-0.098,0
	c-0.016,0.015,0.016,0.08,0,0.096c-0.014,0.014-0.086-0.016-0.096,0c-0.014,0.019,0.016,0.082,0,0.097
	c-0.018,0.016-0.082-0.016-0.098,0c-0.014,0.014,0.016,0.087,0,0.097c-0.021,0.014-0.078-0.017-0.096,0
	c-0.02,0.014,0.014,0.082,0,0.097c-0.02,0.016-0.082-0.017-0.1,0c-0.016,0.016,0.018,0.081,0,0.096
	c-0.014,0.014-0.086-0.014-0.098,0c-0.012,0.02,0.018,0.081,0,0.098c-0.016,0.016-0.08-0.017-0.096,0
	c-0.014,0.013,0.014,0.086,0,0.097c-0.021,0.012-0.082-0.016-0.098,0s0.016,0.08,0,0.096c-0.014,0.013-0.086-0.016-0.098,0
	c-0.014,0.021,0.018,0.077,0,0.097c-0.012,0.017-0.08-0.016-0.096,0c-0.018,0.016,0.012,0.077,0,0.098h0.387h0.389h0.387h0.193
	h0.193h0.096h0.195h0.385h0.391h0.289h0.193c0.014-0.021-0.016-0.082,0-0.098c0.014-0.013,0.086,0.016,0.098,0
	c0.014-0.021-0.016-0.078,0-0.097c0.014-0.016,0.08,0.015,0.098,0c0.016-0.016-0.018-0.081,0-0.096c0.016-0.016,0.08,0.015,0.096,0
	c0.014-0.014-0.016-0.087,0-0.097c0.021-0.015,0.078,0.016,0.098,0c0.018-0.015-0.016-0.082,0-0.098c0.018-0.015,0.08,0.017,0.098,0
	c0.018-0.015-0.018-0.08,0-0.096c0.014-0.014,0.086,0.015,0.098,0c0.014-0.021-0.016-0.078,0-0.097c0.014-0.017,0.082,0.016,0.094,0
	c0.02-0.017-0.014-0.081,0-0.097c0.02-0.016,0.082,0.016,0.1,0c0.014-0.013-0.018-0.087,0-0.097c0.021-0.013,0.078,0.016,0.098,0
	c0.016-0.013-0.016-0.081,0-0.096c0.016-0.017,0.076,0.012,0.096,0c0.016-0.02-0.016-0.081,0-0.097c0.016-0.014,0.086,0.016,0.1,0
	c0.014-0.023-0.014-0.073,0-0.097c0.02-0.012,0.078,0.016,0.096,0c0.012-0.014-0.016-0.086,0-0.097c0.021-0.016,0.074,0.012,0.096,0
	c0.016-0.02-0.014-0.08,0-0.097c0.016-0.014,0.088,0.015,0.1,0c0.014-0.021-0.02-0.077,0-0.097c0.012-0.016,0.08,0.015,0.096,0
	c0.018-0.016-0.016-0.08,0-0.097c0.016-0.016,0.082,0.015,0.098,0c0.018-0.016-0.018-0.08,0-0.097c0.018-0.015,0.08,0.017,0.096,0
	c0.02-0.015-0.012-0.077,0-0.097c0.021-0.012,0.08,0.017,0.1,0c0.012-0.013-0.018-0.085,0-0.096c0.021-0.015,0.072,0.012,0.094,0
	c0.016-0.02-0.014-0.08,0-0.097c0.016-0.013,0.09,0.016,0.1,0c0.016-0.022-0.014-0.072,0-0.097c0.02-0.013,0.082,0.017,0.098,0
	c0.014-0.013-0.016-0.086,0-0.096c0.018-0.014,0.08,0.015,0.096,0c0.016-0.016-0.016-0.081,0-0.098c0.014-0.013,0.086,0.016,0.098,0
	c0.014-0.018-0.016-0.081,0-0.097c0.018-0.015,0.08,0.017,0.098,0c0.012-0.013-0.018-0.086,0-0.096c0.021-0.014,0.078,0.016,0.096,0
	c0.02-0.014-0.014-0.082,0-0.097c0.018-0.017,0.082,0.016,0.098,0c0.018-0.016-0.016-0.081,0-0.097c0.014-0.013,0.088,0.016,0.098,0
	c0.014-0.021-0.016-0.077,0-0.096c0.014-0.017,0.082,0.014,0.096,0c0.018-0.017-0.016-0.081,0-0.097
	c0.018-0.017,0.082,0.016,0.098,0c0.016-0.014-0.016-0.087,0-0.098c0.021-0.012,0.078,0.017,0.1,0c0.014-0.012-0.018-0.081,0-0.096
	c0.014-0.017,0.078,0.012,0.096,0c0.014-0.02-0.016-0.08,0-0.097c0.014-0.013,0.08,0.006,0.098,0c0.025-0.008,0.068,0,0.096,0h0.098
	h0.098h0.193h0.387h0.193h0.195h0.096h0.387h0.195c-0.014,0.02,0.016,0.08,0,0.097c-0.016,0.013-0.088-0.016-0.098,0
	c-0.014,0.019,0.016,0.081,0,0.096c-0.018,0.017-0.08-0.015-0.1,0c-0.012,0.014,0.018,0.087,0,0.098
	c-0.016,0.012-0.08-0.017-0.094,0c-0.02,0.016,0.016,0.08,0,0.097c-0.014,0.013-0.086-0.016-0.1,0c-0.012,0.019,0.018,0.08,0,0.096
	c-0.016,0.016-0.078-0.016-0.098,0c-0.012,0.014,0.02,0.087,0,0.097c-0.018,0.013-0.078-0.017-0.096,0
	c-0.016,0.016,0.018,0.081,0,0.097c-0.014,0.013-0.086-0.015-0.096,0c-0.016,0.019,0.016,0.081,0,0.096
	c-0.02,0.017-0.082-0.015-0.1,0c-0.012,0.014,0.018,0.087,0,0.097c-0.018,0.014-0.078-0.016-0.096,0
	c-0.018,0.017,0.018,0.082,0,0.098c-0.014,0.013-0.086-0.016-0.096,0c-0.016,0.019,0.016,0.08,0,0.096
	c-0.018,0.017-0.082-0.016-0.1,0c-0.014,0.013,0.018,0.086,0,0.097c-0.021,0.015-0.072-0.012-0.098,0
	c-0.012,0.02,0.016,0.08,0,0.097c-0.016,0.016-0.08-0.017-0.096,0c-0.018,0.016,0.016,0.081,0,0.096c-0.018,0.017-0.08-0.015-0.1,0
	c-0.014,0.017,0.02,0.082,0,0.097c-0.014,0.017-0.078-0.015-0.094,0c-0.018,0.017,0.016,0.081,0,0.097
	c-0.018,0.016-0.08-0.013-0.098,0c-0.014,0.019,0.016,0.081,0,0.097c-0.018,0.016-0.08-0.016-0.098,0s0.018,0.081,0,0.097
	c-0.018,0.017-0.078-0.014-0.098,0c-0.012,0.019,0.016,0.08,0,0.097c-0.016,0.016-0.08-0.017-0.098,0
	c-0.018,0.016,0.018,0.081,0,0.097s-0.076-0.012-0.096,0c-0.014,0.019,0.016,0.081,0,0.097c-0.014,0.013-0.088-0.016-0.098,0
	c-0.012,0.019,0.018,0.08,0,0.097c-0.016,0.015-0.082-0.017-0.096,0c-0.016,0.013,0.014,0.086,0,0.096
	c-0.021,0.013-0.082-0.016-0.1,0c-0.016,0.016,0.018,0.081,0,0.097c-0.014,0.014-0.086-0.015-0.098,0
	c-0.012,0.02,0.018,0.08,0,0.097c-0.016,0.017-0.08-0.017-0.096,0c-0.014,0.014,0.016,0.087,0,0.097
	c-0.021,0.013-0.08-0.017-0.098,0c-0.016,0.016,0.018,0.081,0,0.096c-0.014,0.014-0.088-0.014-0.098,0
	c-0.012,0.02,0.018,0.081,0,0.098c-0.014,0.016-0.08-0.017-0.096,0c-0.016,0.013,0.014,0.086,0,0.097
	c-0.02,0.012-0.08-0.016-0.098,0c-0.016,0.016,0.018,0.08,0,0.096c-0.014,0.013-0.088-0.016-0.098,0
	c-0.014,0.021,0.016,0.077,0,0.097c-0.014,0.017-0.082-0.016-0.096,0c-0.016,0.016,0.012,0.077,0,0.098h0.387h0.387h0.389h0.291
	h0.773h0.387h0.193h0.098H968c0.014-0.021-0.016-0.082,0-0.098c0.014-0.013,0.088,0.016,0.098,0c0.016-0.021-0.018-0.078,0-0.097
	c0.016-0.016,0.08,0.015,0.098,0c0.014-0.016-0.018-0.081,0-0.096c0.014-0.016,0.08,0.015,0.096,0c0.014-0.014-0.014-0.087,0-0.097
	c0.023-0.015,0.078,0.016,0.098,0c0.018-0.015-0.016-0.082,0-0.098c0.018-0.015,0.082,0.017,0.098,0c0.016-0.015-0.016-0.08,0-0.096
	c0.014-0.014,0.086,0.015,0.098,0c0.014-0.021-0.016-0.078,0-0.097c0.014-0.017,0.08,0.016,0.096,0c0.018-0.017-0.016-0.081,0-0.097
	c0.018-0.016,0.082,0.016,0.1,0c0.012-0.013-0.018-0.087,0-0.097c0.021-0.013,0.076,0.016,0.094,0c0.02-0.013-0.014-0.081,0-0.096
	c0.018-0.017,0.08,0.012,0.1,0c0.012-0.02-0.016-0.081,0-0.097c0.016-0.016,0.074,0.013,0.096,0c0.014-0.02-0.016-0.081,0-0.097
	c0.014-0.014,0.088,0.015,0.098,0c0.016-0.023-0.012-0.073,0-0.097c0.02-0.013,0.08,0.016,0.098,0c0.014-0.014-0.016-0.086,0-0.097
	c0.021-0.014,0.078,0.017,0.098,0c0.014-0.014-0.018-0.082,0-0.097c0.014-0.016,0.08,0.016,0.098,0c0.016-0.015-0.016-0.082,0-0.097
	c0.016-0.016,0.08,0.016,0.096,0c0.016-0.016-0.016-0.08,0-0.097c0.016-0.015,0.082,0.017,0.098,0c0.016-0.015-0.016-0.08,0-0.097
	c0.016-0.015,0.08,0.017,0.096,0c0.018-0.015-0.016-0.08,0-0.096c0.018-0.017,0.082,0.016,0.098,0c0.018-0.017-0.016-0.08,0-0.097
	c0.018-0.016,0.08,0.017,0.1,0c0.016-0.016-0.02-0.08,0-0.097c0.016-0.016,0.074,0.013,0.098,0v0.097v0.387v0.194v0.097v0.387v0.194
	v0.097v0.194v0.193v0.097v0.193v0.194v0.097v0.194v0.194v0.097v0.193v0.193v0.097v0.193v0.195v0.097v0.193v0.193v0.098v0.193v0.195
	v0.096v0.194v0.193v0.097v0.194v0.194v0.096v0.193v0.195v0.096v0.195v0.193v0.097v0.193v0.193v0.097v0.194v0.194v0.098v0.192v0.194
	v0.097v0.194v0.194v0.096v0.194v0.193v0.097v0.388v0.194v0.095c0,0.03,0.004,0.071,0,0.098c-0.006,0.017,0.01,0.085,0,0.097
	c-0.018,0.015-0.08-0.014-0.098,0v0.194c0,0.014,0.008,0.087,0,0.097c-0.018,0.015-0.08-0.014-0.1,0
	c-0.012,0.018,0.018,0.08,0,0.096c-0.014,0.014-0.086-0.015-0.098,0c-0.014,0.022,0.018,0.078,0,0.097
	c-0.014,0.017-0.08-0.016-0.096,0c-0.016,0.017,0.016,0.08,0,0.097c-0.016,0.016-0.082-0.016-0.098,0
	c-0.016,0.016,0.016,0.08,0,0.096c-0.016,0.017-0.08-0.016-0.096,0c-0.012,0.011,0.012,0.091,0,0.097c-0.021,0.01-0.074,0-0.098,0
	h-0.098h-0.098c-0.012,0.02,0.018,0.081,0,0.097c-0.012,0.012-0.08-0.004-0.098,0c-0.027,0.008-0.068,0-0.096,0h-0.1h-0.191h-0.098
	h-0.193h-0.193h-0.096h-0.193h-0.098h-0.193h-0.098h-0.389h-0.096h-0.387h-0.1h-0.387h-0.098h-0.389h-0.096h-0.387h-0.098h-0.389
	h-0.096h-0.387h-0.1h-0.385h-0.098h-0.389h-0.098h-0.387h-0.1h-0.385h-0.098h-0.389h-0.096h-0.389h-0.098h-0.389h-0.094h-0.387h-0.1
	h-0.389h-0.096h-0.389h-0.096h-0.387h-0.1h-0.387h-0.098h-0.389h-0.098h-0.385h-0.098h-0.389h-0.096h-0.389h-0.098h-0.387h-0.096
	h-0.389H955.4h-0.387h-0.1h-0.387h-0.096h-0.389h-0.098h-0.387h-0.096h-0.391H953h-0.387h-0.098h-0.193h-0.193h-0.096h-0.193h-0.098
	h-0.193h-0.193h-0.098h-0.096c-0.029,0-0.07,0.008-0.1,0c-0.018-0.004-0.086,0.012-0.096,0c-0.018-0.016,0.012-0.077,0-0.097h-0.195
	c-0.014,0-0.086,0.009-0.096,0c-0.016-0.015,0.012-0.078,0-0.097c-0.02-0.012-0.082,0.017-0.098,0c-0.014-0.012,0.016-0.086,0-0.096
	c-0.02-0.014-0.076,0.016-0.096,0c-0.018-0.014,0.014-0.081,0-0.097c-0.016-0.016-0.086,0.017-0.098,0
	c-0.014-0.018,0.016-0.08,0-0.097c-0.01-0.01-0.092,0.012-0.098,0c-0.008-0.021,0-0.074,0-0.096c0-0.023,0.01-0.079,0-0.097
	c-0.006-0.014-0.086,0.011-0.1,0c-0.008-0.01,0.004-0.083,0-0.098c0-0.025,0.014-0.072,0-0.096c-0.006-0.019,0.018-0.083,0-0.097
	c-0.006-0.007-0.094,0.008-0.096,0c-0.006-0.028,0-0.068,0-0.098v-0.095v-0.194v-0.194v-0.194v-0.097v-0.193v-0.097v-0.775v-0.387
	v-0.194v-0.097v-0.387v-0.193v-0.097v-0.388v-0.194v-0.097v-0.774v-0.387v-0.193v-0.098v-0.387v-0.194v-0.096v-0.388v-0.194v-0.096
	v-0.195v-0.095v-0.195v-0.387v-0.194v-0.095h0.193h0.389h0.193h0.098h0.193h0.387h0.193h0.193h0.098h0.193h0.096h0.195
	c0.012-0.021-0.018-0.082,0-0.098c0.014-0.013,0.086,0.016,0.096,0c0.014-0.02-0.016-0.081,0-0.097c0.018-0.016,0.082,0.016,0.098,0
	c0.014-0.013-0.016-0.087,0-0.096c0.02-0.014,0.08,0.015,0.098,0c0.018-0.016-0.018-0.081,0-0.097c0.014-0.015,0.086,0.015,0.098,0
	c0.012-0.02-0.02-0.081,0-0.098c0.016-0.015,0.08,0.017,0.096,0c0.014-0.013-0.016-0.086,0-0.096c0.02-0.013,0.082,0.016,0.098,0
	c0.016-0.017-0.016-0.08,0-0.097c0.014-0.014,0.088,0.016,0.098,0c0.012-0.02-0.018-0.081,0-0.097c0.016-0.016,0.08,0.016,0.096,0
	c0.014-0.013-0.016-0.087,0-0.097c0.02-0.012,0.082,0.016,0.098,0c0.018-0.016-0.016-0.081,0-0.096c0.016-0.014,0.086,0.015,0.1,0
	c0.014-0.022-0.018-0.078,0-0.097c0.014-0.016,0.078,0.015,0.096,0c0.016-0.016-0.014-0.078,0-0.097c0.02-0.012,0.08,0.016,0.098,0
	c0.016-0.016-0.018-0.081,0-0.097c0.016-0.017,0.08,0.016,0.096,0c0.016-0.017-0.012-0.078,0-0.097c0.02-0.014,0.08,0.017,0.098,0
	c0.014-0.014-0.016-0.087,0-0.097c0.02-0.013,0.08,0.016,0.096,0c0.02-0.016-0.016-0.081,0-0.097c0.014-0.013,0.088,0.015,0.098,0
	c0.014-0.019-0.016-0.08,0-0.097c0.018-0.015,0.08,0.017,0.1,0c0.012-0.013-0.018-0.086,0-0.097c0.02-0.012,0.08,0.017,0.096,0
	c0.016-0.015-0.016-0.08,0-0.096c0.014-0.013,0.086,0.015,0.098,0c0.014-0.023-0.012-0.072,0-0.097c0.018-0.013,0.08,0.017,0.096,0
	c0.016-0.016-0.016-0.08,0-0.097c0.016-0.016,0.082,0.017,0.098,0c0.016-0.015-0.016-0.082,0-0.096c0.02-0.016,0.08,0.016,0.096,0
	c0.016-0.014-0.016-0.087,0-0.098c0.023-0.015,0.072,0.013,0.1,0c0.014-0.019-0.018-0.08,0-0.097c0.014-0.013,0.086,0.016,0.098,0
	c0.012-0.018-0.018-0.08,0-0.096c0.016-0.016,0.08,0.016,0.096,0c0.014-0.014-0.016-0.086,0-0.097c0.02-0.013,0.08,0.016,0.098,0
	c0.016-0.017-0.018-0.081,0-0.097c0.014-0.013,0.086,0.016,0.096,0c0.014-0.019-0.016-0.08,0-0.096c0.016-0.017,0.084,0.016,0.098,0
	c0.016-0.014-0.014-0.087,0-0.097c0.021-0.014,0.08,0.016,0.098,0c0.016-0.018-0.018-0.081,0-0.098c0.016-0.012,0.088,0.016,0.098,0
	c0.014-0.022-0.012-0.071,0-0.096h0.098c0.012-0.02-0.016-0.08,0-0.097c0.012-0.013,0.078,0.006,0.096,0c0.025-0.008,0.07,0,0.1,0
	h0.094h0.1h0.191h0.389h0.193h0.193h0.096H957.359z"/>
<line fill="none" stroke="#676868" stroke-width="2" stroke-miterlimit="10" x1="942.852" y1="-4" x2="976.852" y2="-4"/>
<line fill="none" stroke="#676868" stroke-width="2" stroke-miterlimit="10" x1="942.852" y1="107" x2="976.852" y2="107"/>
</svg>
