<?xml version="1.0" encoding="utf-8"?>
<!-- Generator: Adobe Illustrator 16.0.0, SVG Export Plug-In . SVG Version: 6.00 Build 0)  -->
<!DOCTYPE svg PUBLIC "-//W3C//DTD SVG 1.1//EN" "http://www.w3.org/Graphics/SVG/1.1/DTD/svg11.dtd">
<svg version="1.1" id="Layer_1" xmlns="http://www.w3.org/2000/svg" xmlns:xlink="http://www.w3.org/1999/xlink" x="0px" y="0px"
	 width="43.051px" height="85.826px" viewBox="0 0 43.051 85.826" enable-background="new 0 0 43.051 85.826" xml:space="preserve">
<rect display="none" width="43.051" height="85.826"/>
<g>
	<path fill="#FFFFFF" d="M146.547,50.71l3.4-3.819l-0.709,3.819H146.547z M150.32,50.71l1.248-6.754h-0.29l-6.922,7.795h4.689
		L148.629,54h1.082l0.412-2.249h1.063l0.937-1.041H150.32z"/>
	<polygon fill="#FFFFFF" points="141.713,54.539 140.63,54.539 141.616,49.951 138.691,43.755 139.863,43.755 142.301,48.95 
		146.924,43.755 148.302,43.755 142.667,50.083 	"/>
	<path fill="#FFFFFF" d="M129.949,58.091h-1.197l0.738-3.555h-7.262l9.598-10.79h0.459l0.344-0.392l-0.082,0.392h3.413
		c0.262,0.009,0.532,0.032,0.811,0.065c0.347,0.043,0.675,0.154,0.979,0.329c0.317,0.181,0.587,0.45,0.805,0.798
		c0.217,0.355,0.328,0.837,0.328,1.429c0,0.468-0.087,0.89-0.262,1.249c-0.172,0.351-0.398,0.657-0.674,0.899
		c-0.197,0.173-0.411,0.319-0.642,0.437c0.179,0.112,0.333,0.254,0.464,0.419c0.36,0.452,0.541,1.036,0.541,1.737
		c0,0.54-0.1,1.032-0.296,1.458c-0.196,0.433-0.476,0.799-0.828,1.091c-0.343,0.289-0.768,0.512-1.253,0.663
		c-0.474,0.146-1.004,0.218-1.572,0.218h-3.673L129.949,58.091z M130.897,53.492h3.632c0.285,0,0.598-0.04,0.934-0.121
		c0.318-0.079,0.613-0.213,0.881-0.398c0.264-0.184,0.484-0.426,0.662-0.729c0.168-0.289,0.254-0.67,0.254-1.134
		c0-0.392-0.062-0.694-0.188-0.899c-0.129-0.206-0.293-0.361-0.503-0.472c-0.229-0.117-0.49-0.191-0.777-0.223
		c-0.322-0.037-0.657-0.053-0.995-0.053h-3.069L130.897,53.492z M131.285,46.031l-6.616,7.461l5.046-0.002L131.285,46.031z
		 M131.926,48.404l3.056,0.008c0.444,0,0.856-0.05,1.224-0.148c0.351-0.095,0.653-0.233,0.899-0.409
		c0.238-0.173,0.414-0.378,0.542-0.629c0.126-0.249,0.19-0.537,0.19-0.857c0-0.346-0.054-0.621-0.155-0.819
		c-0.102-0.196-0.227-0.343-0.379-0.45c-0.167-0.111-0.348-0.185-0.556-0.228c-0.23-0.044-0.466-0.069-0.703-0.069l-3.367-0.011
		L131.926,48.404z"/>
	<path fill-rule="evenodd" clip-rule="evenodd" fill="#CCCBCB" d="M143.533,22.125c-5.042,0.193-10.442,0.028-15.622,0.083v-3.967
		c0-1.849-0.468-4.175,1.074-4.464c1.091-0.204,2.474,0,3.637,0h7.274c1.045,0,2.827-0.155,3.306,0.331
		c0.591,0.601,0.331,2.655,0.331,3.884V22.125z M129.646,19.728h5.869v-3.637h-5.869V19.728z"/>
	<path fill-rule="evenodd" clip-rule="evenodd" fill="#CCCBCB" d="M149.483,14.108c0.193,2.534,0.028,5.427,0.083,8.1
		c-1.679-0.828-3.316-1.697-4.959-2.562v-2.974C146.24,15.824,147.909,15.012,149.483,14.108"/>
	<path fill-rule="evenodd" clip-rule="evenodd" fill="#CCCBCB" d="M127.993,23.2h15.54c0.396,2.13-1.788,1.817-3.885,1.817h-7.604
		c-2.036,0-4.427,0.483-4.133-1.569C127.904,23.331,127.897,23.213,127.993,23.2"/>
	<circle fill="none" stroke="#FFFFFF" stroke-miterlimit="10" cx="138.15" cy="19.057" r="17.17"/>
</g>
<g>
	<path fill="#797052" d="M11.798,44.378c-0.683-0.259-1.775-0.381-3.284-0.381H6.379V54.81h3.244c1.257,0,2.238-0.191,2.939-0.587
		c0.703-0.394,1.277-1.009,1.722-1.829c0.429-0.821,0.648-1.776,0.648-2.856c0-1.252-0.276-2.338-0.828-3.237
		C13.557,45.393,12.779,44.752,11.798,44.378 M7.465,45.167h0.65c1.416,0,2.461,0.104,3.074,0.298
		c0.819,0.275,1.453,0.77,1.915,1.486c0.464,0.714,0.694,1.594,0.694,2.605c0,0.962-0.219,1.791-0.633,2.459
		c-0.426,0.661-1.01,1.128-1.743,1.386c-0.535,0.182-1.495,0.27-2.866,0.27H7.465V45.167z"/>
	<rect x="16.812" y="43.993" fill="#797052" width="1.126" height="10.816"/>
	<path fill="#797052" d="M25.695,49.496c0.488-0.223,0.872-0.571,1.133-1.028c0.26-0.437,0.396-0.973,0.396-1.568
		c0-0.706-0.2-1.311-0.578-1.805c-0.374-0.485-0.875-0.803-1.484-0.956c-0.399-0.102-1.162-0.146-2.27-0.146h-2.057v10.816h1.123
		v-4.957h0.477l3.598,4.957h1.396l-3.604-4.957C24.61,49.834,25.237,49.722,25.695,49.496 M23.619,48.683l-1.66-0.008v-3.509h1.707
		c0.676,0,1.158,0.064,1.452,0.189c0.274,0.124,0.503,0.324,0.684,0.606c0.179,0.274,0.257,0.588,0.257,0.937
		c0,0.36-0.078,0.678-0.255,0.963c-0.169,0.288-0.413,0.495-0.718,0.631C24.766,48.625,24.277,48.683,23.619,48.683"/>
	<path fill="#797052" d="M35.246,51.445v-7.452h-0.294l-5.669,8.601h4.845v2.215h1.118v-2.215h1.212v-1.149H35.246z M34.128,51.445
		h-2.782l2.782-4.216V51.445z"/>
	<polygon fill="#797052" points="6.655,58.974 11.812,58.974 11.812,60.174 7.965,60.174 7.965,62.258 11.344,62.258 11.344,63.399 
		7.965,63.399 7.965,66.933 6.655,66.933 	"/>
	<rect x="12.475" y="58.975" fill="#797052" width="1.309" height="7.959"/>
	<polygon fill="#797052" points="15.381,58.974 16.686,58.974 16.686,65.732 20.481,65.732 20.481,66.933 15.381,66.933 	"/>
	<polygon fill="#797052" points="21.354,58.974 23.199,58.974 25.252,65.208 25.275,65.208 27.279,58.974 29.098,58.974 
		29.098,66.933 27.856,66.933 27.856,60.788 27.838,60.788 25.765,66.933 24.688,66.933 22.618,60.788 22.602,60.788 22.602,66.933 
		21.354,66.933 	"/>
	<path fill="#797052" d="M31.521,64.281c0,1.226,0.851,1.706,1.896,1.706c1.143,0,1.577-0.601,1.577-1.203
		c0-0.616-0.312-0.862-0.62-0.981c-0.521-0.212-1.203-0.357-2.225-0.662c-1.279-0.367-1.654-1.186-1.654-2.011
		c0-1.6,1.391-2.35,2.731-2.35c1.552,0,2.86,0.881,2.86,2.545h-1.309c-0.057-1.025-0.707-1.403-1.607-1.403
		c-0.605,0-1.362,0.235-1.362,1.035c0,0.559,0.35,0.869,0.885,1.029c0.116,0.027,1.767,0.491,2.149,0.611
		c0.984,0.311,1.453,1.206,1.453,2.029c0,1.785-1.479,2.499-2.969,2.499c-1.703,0-3.083-0.87-3.108-2.844H31.521z"/>
	<g>
		<path fill="#797052" d="M21.742,36.727c-9.743,0-17.67-7.927-17.67-17.67s7.927-17.67,17.67-17.67s17.67,7.927,17.67,17.67
			S31.485,36.727,21.742,36.727z M21.742,2.387c-9.192,0-16.67,7.478-16.67,16.67s7.478,16.67,16.67,16.67s16.67-7.478,16.67-16.67
			S30.934,2.387,21.742,2.387z"/>
	</g>
	<path fill-rule="evenodd" clip-rule="evenodd" fill="#797052" d="M31.739,12.207h-0.097c-0.011,0-0.09,0.007-0.097,0
		c-0.015-0.018,0.016-0.081,0-0.097c-0.017-0.015-0.081,0.016-0.097,0c-0.016-0.015,0.016-0.082,0-0.097
		c-0.018-0.016-0.081,0.017-0.097,0c-0.017-0.016,0.016-0.08,0-0.096c-0.017-0.017-0.081,0.016-0.097,0s0.016-0.084,0-0.098
		c-0.012-0.008-0.082,0-0.098,0c-0.012,0-0.091,0.008-0.097,0c-0.015-0.017,0.017-0.081,0-0.096c-0.017-0.017-0.08,0.016-0.097,0
		c-0.016-0.017,0.017-0.081,0-0.097s-0.08,0.016-0.097,0s0.016-0.081,0-0.097c-0.017-0.016-0.081,0.016-0.097,0
		c-0.016-0.014,0.017-0.084,0-0.096c-0.012-0.01-0.081,0-0.097,0c-0.011,0-0.091,0.006-0.097,0c-0.016-0.019,0.015-0.081,0-0.097
		c-0.018-0.016-0.081,0.016-0.098,0c-0.016-0.016,0.017-0.082,0-0.098c-0.017-0.015-0.08,0.017-0.097,0
		c-0.017-0.015,0.017-0.081,0-0.096c-0.017-0.017-0.081,0.015-0.097,0c-0.015-0.015,0.016-0.084,0-0.098
		c-0.011-0.008-0.081,0-0.098,0c-0.012,0-0.09,0.009-0.097,0c-0.014-0.017,0.017-0.08,0-0.096c-0.017-0.016-0.081,0.017-0.096,0
		c-0.017-0.016,0.015-0.082,0-0.096c-0.018-0.017-0.081,0.015-0.097,0c-0.016-0.017,0.016-0.082,0-0.097
		c-0.016-0.016-0.081,0.015-0.098,0c-0.016-0.016,0.014-0.078,0-0.097h-0.193c0.013-0.02-0.017-0.081,0-0.097
		c0.012-0.012,0.079,0.003,0.097,0c0.027-0.007,0.069,0,0.097,0H29.9h0.192h0.097c0.021-0.013,0.081,0.016,0.098,0
		c0.016-0.016-0.014-0.078,0-0.097h0.193h0.194h0.097c0.027,0,0.069-0.007,0.097,0c0.009,0.002-0.008,0.089,0,0.097
		c0.009,0.009,0.082-0.001,0.097,0c0.024,0.001,0.076-0.01,0.097,0c0.013,0.006-0.011,0.085,0,0.097
		c0.009,0.009,0.083-0.001,0.097,0c0.018,0.001,0.083-0.012,0.098,0c0.016,0.011-0.015,0.082,0,0.097
		c0.013,0.014,0.086-0.016,0.097,0c0.014,0.021-0.017,0.077,0,0.097c0.013,0.015,0.081-0.017,0.097,0
		c0.016,0.015-0.013,0.077,0,0.096c0.021,0.012,0.078-0.015,0.097,0c0.007,0.006,0,0.085,0,0.096v0.098
		c0.007,0.005,0.095-0.007,0.097,0c0.007,0.028,0,0.068,0,0.096v0.098c0,0.028-0.006,0.068,0,0.097c0.004,0.016-0.011,0.086,0,0.096
		c0.014,0.014,0.087-0.015,0.097,0c0.016,0.023-0.011,0.074,0,0.097v0.193v0.194v0.097V12.207z"/>
	<path fill-rule="evenodd" clip-rule="evenodd" fill="#797052" d="M29.803,13.465c-0.012,0.02,0.017,0.081,0,0.097
		c-0.012,0.011-0.079-0.004-0.097,0c-0.028,0.007-0.068,0-0.097,0h-0.097h-0.194c-0.012,0.019,0.018,0.081,0,0.096
		c-0.009,0.01-0.082,0-0.096,0c-0.032,0.002-0.066-0.001-0.098,0c-0.032,0.002-0.064,0-0.097,0h-0.097h-0.194h-0.097h-0.097
		c-0.023,0-0.075-0.008-0.097,0c-0.012,0.006,0.011,0.087,0,0.098c-0.017,0.016-0.078-0.014-0.097,0h-0.194H28.06h-0.194H27.77
		c-0.012,0-0.09,0.008-0.097,0c-0.017-0.02,0.013-0.076,0-0.098c-0.02-0.011-0.081,0.017-0.099,0c-0.015-0.015,0.018-0.08,0-0.096
		c-0.015-0.016-0.08,0.016-0.096,0c-0.014-0.014,0.016-0.087,0-0.097c-0.014-0.011-0.078,0-0.098,0c-0.022,0-0.074,0.01-0.096,0
		c-0.012-0.006,0.01-0.086,0-0.097c-0.016-0.016-0.078,0.015-0.097,0c-0.017-0.012,0.015-0.082,0-0.097
		c-0.017-0.016-0.081,0.016-0.097,0s0.016-0.08,0-0.097c-0.016-0.016-0.078,0.016-0.098,0c-0.016-0.014,0.016-0.081,0-0.097
		c-0.016-0.015-0.077,0.013-0.096,0c-0.02-0.012-0.081,0.017-0.097,0c-0.017-0.014,0.016-0.084,0-0.096
		c-0.019-0.015-0.081,0.015-0.099,0c-0.015-0.017,0.017-0.08,0-0.098c-0.015-0.016-0.08,0.018-0.096,0
		c-0.015-0.014,0.016-0.083,0-0.096c-0.018-0.014-0.08,0.017-0.097,0c-0.01-0.01,0.013-0.092,0-0.096c-0.021-0.009-0.073,0-0.097,0
		c-0.016,0-0.086,0.008-0.098,0c-0.016-0.014,0.016-0.082,0-0.098c-0.016-0.016-0.08,0.017-0.096,0c-0.018-0.016,0.016-0.08,0-0.097
		c-0.018-0.015-0.082,0.017-0.098,0c-0.016-0.016,0.017-0.08,0-0.096c-0.014-0.014-0.086,0.015-0.097,0
		c-0.015-0.023,0.012-0.074,0-0.097H25.93c-0.023,0-0.075,0.01-0.097,0c-0.012-0.006,0.011-0.086,0-0.097
		c-0.017-0.016-0.08,0.016-0.097,0c-0.017-0.015,0.016-0.081,0-0.096c-0.014-0.014-0.086,0.015-0.098,0
		c-0.01-0.017,0.016-0.085,0-0.098c-0.02-0.014-0.08,0.017-0.097,0c-0.013-0.013,0.017-0.086,0-0.096
		c-0.022-0.015-0.072,0.013-0.097,0c-0.02-0.012-0.081,0.015-0.098,0c-0.013-0.014,0.017-0.087,0-0.097
		c-0.021-0.015-0.076,0.016-0.096,0c-0.017-0.013,0.015-0.083,0-0.097c-0.016-0.017-0.08,0.016-0.097,0
		c-0.017-0.017,0.017-0.081,0-0.097c-0.017-0.015-0.077,0.013-0.097,0c-0.016-0.011,0.014-0.083,0-0.097
		c-0.01-0.009-0.084,0-0.098,0c-0.017-0.001-0.084,0.01-0.097,0c-0.016-0.013,0.015-0.083,0-0.096c-0.014-0.014-0.086,0.014-0.097,0
		c-0.013-0.02,0.016-0.081,0-0.097s-0.08,0.016-0.097,0c-0.015-0.015,0.015-0.087,0-0.098c-0.021-0.013-0.078,0.016-0.097,0
		c-0.017-0.013,0.013-0.079,0-0.096h0.193h0.097c0.02-0.013,0.081,0.015,0.097,0c0.011-0.01-0.012-0.092,0-0.098
		c0.022-0.008,0.074,0,0.098,0c0.031,0,0.065,0.004,0.097,0c0.031-0.002,0.065,0,0.097,0h0.096h0.098h0.193
		c0.033,0,0.064,0.003,0.098,0c0.014,0,0.088,0.01,0.097,0c0.017-0.016-0.013-0.076,0-0.096h0.193h0.388h0.193
		c0.014,0.02-0.017,0.08,0,0.096c0.014,0.015,0.086-0.015,0.096,0c0.012,0.018-0.014,0.087,0,0.098c0.014,0.01,0.08,0,0.099,0
		c0.011,0,0.09-0.008,0.097,0c0.014,0.015-0.016,0.084,0,0.096c0.018,0.016,0.08-0.016,0.096,0c0.015,0.014-0.016,0.087,0,0.098
		c0.022,0.014,0.078-0.016,0.098,0c0.017,0.013-0.016,0.081,0,0.097c0.017,0.015,0.078-0.016,0.097,0
		c0.017,0.013-0.015,0.081,0,0.096c0.009,0.01,0.083-0.001,0.097,0c0.021,0.001,0.078-0.01,0.096,0c0.016,0.008-0.012,0.085,0,0.097
		c0.018,0.017,0.08-0.015,0.098,0c0.016,0.014-0.015,0.081,0,0.097c0.014,0.013,0.087-0.016,0.096,0
		c0.016,0.021-0.015,0.077,0,0.097c0.015,0.016,0.082-0.016,0.099,0c0.016,0.016-0.013,0.077,0,0.097h0.097
		c0.023,0,0.075-0.01,0.096,0c0.014,0.005-0.009,0.086,0,0.096c0.018,0.017,0.08-0.016,0.098,0c0.017,0.015-0.016,0.082,0,0.098
		c0.014,0.013,0.087-0.016,0.097,0c0.012,0.015-0.015,0.084,0,0.096c0.019,0.015,0.081-0.016,0.097,0
		c0.011,0.011-0.012,0.091,0,0.097c0.021,0.01,0.074,0,0.098,0c0.016,0,0.084-0.01,0.097,0c0.017,0.012-0.014,0.082,0,0.097
		c0.014,0.013,0.087-0.015,0.097,0c0.012,0.016-0.016,0.084,0,0.096c0.02,0.015,0.08-0.015,0.097,0c0.017,0.017-0.016,0.081,0,0.097
		c0.017,0.017,0.081-0.016,0.097,0c0.015,0.015-0.016,0.086,0,0.098c0.015,0.008,0.079,0,0.097,0c0.012,0,0.091-0.009,0.098,0
		c0.013,0.016-0.017,0.083,0,0.096c0.019,0.015,0.08-0.016,0.097,0c0.014,0.013-0.016,0.086,0,0.096c0.02,0.014,0.08-0.016,0.097,0
		c0.017,0.018-0.017,0.081,0,0.098c0.014,0.013,0.086-0.016,0.097,0c0.015,0.022-0.012,0.072,0,0.096h0.098
		c0.011,0,0.09-0.008,0.096,0c0.015,0.018-0.017,0.081,0,0.097c0.018,0.016,0.081-0.016,0.097,0c0.017,0.016-0.016,0.084,0,0.097
		c0.019,0.015,0.081-0.016,0.098,0c0.014,0.014-0.016,0.087,0,0.097c0.021,0.014,0.077-0.016,0.097,0
		c0.017,0.014-0.016,0.081,0,0.097c0.017,0.017,0.078-0.013,0.097,0H29.803z"/>
	<path fill-rule="evenodd" clip-rule="evenodd" fill="#797052" d="M24.671,14.143h-0.193h-0.097h-0.194c-0.024,0-0.075-0.01-0.097,0
		c-0.012,0.005,0.01,0.086,0,0.097c-0.016,0.016-0.078-0.013-0.097,0H23.8h-0.194h-0.098h-0.192c-0.021,0.013-0.081-0.016-0.097,0
		c-0.014,0.013,0.016,0.087,0,0.096c-0.02,0.013-0.074-0.005-0.097,0c-0.028,0.006-0.068,0-0.098,0h-0.097h-0.097h-0.193
		c-0.013-0.019,0.015-0.08,0-0.096c-0.009-0.01-0.083,0.001-0.097,0c-0.022-0.001-0.078,0.01-0.098,0
		c-0.014-0.008,0.013-0.085,0-0.097c-0.016-0.017-0.078,0.016-0.096,0c-0.018-0.014,0.014-0.081,0-0.097
		c-0.015-0.013-0.088,0.016-0.098,0c-0.014-0.021,0.017-0.078,0-0.097c-0.014-0.016-0.082,0.016-0.098,0
		c-0.014-0.015,0.018-0.083,0-0.097c-0.01-0.009-0.082,0-0.096,0c-0.012,0-0.091,0.009-0.097,0c-0.015-0.018,0.016-0.08,0-0.096
		c-0.017-0.016-0.081,0.016-0.099,0c-0.015-0.016,0.018-0.082,0-0.097c-0.016-0.016-0.079,0.016-0.096,0
		c-0.016-0.016,0.017-0.08,0-0.097c-0.016-0.016-0.08,0.017-0.097,0c-0.017-0.016,0.013-0.077,0-0.097h-0.097
		c-0.023,0-0.076,0.01-0.098,0c-0.012-0.006,0.01-0.086,0-0.096c-0.016-0.017-0.079,0.015-0.096,0c-0.018-0.016,0.016-0.082,0-0.098
		c-0.014-0.013-0.087,0.016-0.097,0c-0.012-0.016,0.015-0.085,0-0.097c-0.02-0.013-0.081,0.017-0.098,0
		c-0.01-0.01,0.013-0.091,0-0.096c-0.021-0.009-0.073,0-0.097,0c-0.018,0-0.084,0.009-0.097,0c-0.016-0.012,0.015-0.082,0-0.097
		c-0.014-0.014-0.087,0.016-0.097,0c-0.012-0.018,0.016-0.084,0-0.098c-0.019-0.013-0.08,0.018-0.097,0
		c-0.017-0.015,0.017-0.079,0-0.095c-0.017-0.017-0.081,0.016-0.097,0c-0.014-0.015,0.016-0.086,0-0.097c-0.014-0.01-0.08,0-0.098,0
		c-0.011,0-0.09,0.008-0.097,0c-0.013-0.017,0.017-0.083,0-0.098c-0.018-0.014-0.08,0.018-0.097,0c-0.014-0.013,0.016-0.087,0-0.096
		c-0.02-0.013-0.08,0.016-0.097,0s0.017-0.081,0-0.097c-0.014-0.014-0.086,0.015-0.097,0c-0.016-0.023,0.012-0.073,0-0.097H20.12
		c-0.024,0-0.076,0.01-0.097,0c-0.013-0.006,0.01-0.086,0-0.097c-0.017-0.016-0.082,0.016-0.098,0c-0.016-0.015,0.016-0.081,0-0.096
		c-0.014-0.014-0.086,0.015-0.098,0c-0.01-0.017,0.017-0.085,0-0.098c-0.018-0.014-0.079,0.018-0.096,0
		c-0.014-0.013,0.016-0.086,0-0.096c-0.022-0.015-0.072,0.013-0.098,0c-0.019-0.011-0.08,0.015-0.096,0
		c-0.015-0.013,0.016-0.086,0-0.097c-0.021-0.014-0.078,0.016-0.098,0c-0.016-0.014,0.014-0.079,0-0.097h0.098
		c0.027,0,0.068,0.007,0.096,0c0.018-0.004,0.086,0.013,0.098,0c0.008-0.007-0.008-0.096,0-0.097c0.029-0.006,0.066,0,0.096,0h0.098
		h0.194h0.193h0.097h0.097c0.012,0,0.091,0.008,0.097,0c0.017-0.019-0.012-0.074,0-0.096h0.194h0.193h0.097h0.194h0.097h0.096
		c0.012,0,0.092-0.008,0.098,0c0.016,0.018-0.012,0.074,0,0.096c0.02,0.013,0.08-0.015,0.097,0c0.014,0.014-0.015,0.086,0,0.097
		c0.02,0.013,0.081-0.017,0.097,0c0.017,0.017-0.016,0.081,0,0.097c0.014,0.013,0.088-0.016,0.096,0
		c0.012,0.017-0.014,0.085,0,0.097c0.013,0.009,0.082,0,0.099,0c0.011,0,0.091-0.008,0.097,0c0.014,0.018-0.017,0.081,0,0.096
		c0.017,0.017,0.08-0.016,0.096,0c0.016,0.016-0.016,0.084,0,0.098c0.02,0.014,0.082-0.018,0.098,0c0.014,0.013-0.016,0.087,0,0.096
		c0.022,0.015,0.074-0.014,0.098,0c0.014,0.01-0.015,0.083,0,0.097c0.008,0.01,0.082-0.001,0.096,0c0.018,0.001,0.084-0.01,0.098,0
		c0.016,0.013-0.016,0.082,0,0.097c0.013,0.014,0.087-0.015,0.097,0c0.013,0.021-0.017,0.077,0,0.097
		c0.013,0.016,0.082-0.016,0.097,0c0.016,0.014-0.017,0.083,0,0.096c0.019,0.015,0.08-0.015,0.097,0
		c0.014,0.015-0.016,0.087,0,0.098c0.022,0.014,0.073-0.016,0.097,0c0.016,0.01-0.014,0.083,0,0.097c0.01,0.008,0.083-0.001,0.097,0
		c0.017,0,0.085-0.01,0.098,0c0.016,0.012-0.016,0.081,0,0.095c0.013,0.015,0.086-0.014,0.097,0c0.014,0.022-0.016,0.078,0,0.098
		c0.014,0.016,0.081-0.016,0.097,0c0.015,0.016-0.017,0.084,0,0.097c0.019,0.014,0.081-0.017,0.097,0
		c0.014,0.013-0.016,0.086,0,0.096c0.022,0.016,0.072-0.013,0.096,0c0.02,0.012,0.083-0.014,0.098,0
		c0.014,0.014-0.016,0.087,0,0.097c0.021,0.015,0.078-0.016,0.098,0c0.016,0.015-0.016,0.082,0,0.098
		c0.013,0.013,0.086-0.016,0.097,0c0.014,0.02-0.017,0.077,0,0.096c0.013,0.017,0.081-0.015,0.097,0
		c0.016,0.017-0.014,0.077,0,0.097h0.097c0.012,0,0.09-0.007,0.097,0c0.012,0.014-0.015,0.088,0,0.097
		c0.02,0.012,0.08-0.016,0.097,0c0.015,0.013-0.015,0.086,0,0.097c0.022,0.014,0.077-0.016,0.097,0c0.017,0.012-0.015,0.082,0,0.096
		c0.014,0.014,0.087-0.016,0.098,0c0.01,0.017-0.016,0.086,0,0.097c0.012,0.009,0.08,0,0.097,0c0.012,0,0.091-0.008,0.097,0
		c0.016,0.019-0.014,0.075,0,0.097c0.02,0.012,0.08-0.016,0.097,0C24.688,14.062,24.658,14.123,24.671,14.143"/>
	<path fill-rule="evenodd" clip-rule="evenodd" fill="#797052" d="M19.539,14.724h-0.193h-0.097h-0.194h-0.193
		c-0.023,0-0.075-0.009-0.098,0c-0.012,0.005,0.011,0.087,0,0.097c-0.016,0.016-0.078-0.013-0.096,0h-0.194H18.28h-0.097h-0.194
		c-0.027,0-0.069-0.007-0.097,0c-0.01,0.003,0.008,0.089,0,0.095c-0.01,0.01-0.082,0-0.098,0c-0.031,0.003-0.064,0-0.096,0h-0.193
		c-0.014-0.018,0.016-0.079,0-0.095c-0.014-0.013-0.087,0.015-0.098,0c-0.008-0.011,0.011-0.092,0-0.097c-0.02-0.01-0.074,0-0.098,0
		c-0.015,0-0.085,0.009-0.096,0c-0.016-0.013,0.016-0.082,0-0.097c-0.014-0.013-0.086,0.016-0.097,0
		c-0.015-0.02,0.016-0.078,0-0.096c-0.015-0.017-0.082,0.014-0.097,0c-0.015-0.016,0.016-0.084,0-0.097
		c-0.019-0.016-0.082,0.017-0.097,0c-0.015-0.015,0.015-0.088,0-0.098c-0.022-0.014-0.074,0.015-0.097,0
		c-0.02-0.012-0.081,0.016-0.098,0c-0.015-0.014,0.017-0.085,0-0.096c-0.019-0.014-0.08,0.016-0.097,0
		c-0.014-0.014,0.016-0.086,0-0.097c-0.021-0.014-0.078,0.016-0.097,0c-0.016-0.014,0.016-0.081,0-0.097
		c-0.016-0.016-0.078,0.016-0.098,0c-0.016-0.013,0.016-0.082,0-0.097c-0.009-0.009-0.082,0.001-0.096,0
		c-0.022,0-0.078,0.01-0.097,0c-0.015-0.008,0.012-0.084,0-0.097c-0.017-0.017-0.079,0.016-0.097,0
		c-0.018-0.014,0.015-0.081,0-0.096c-0.015-0.014-0.088,0.016-0.098,0c-0.014-0.021,0.016-0.078,0-0.097
		c-0.014-0.016-0.081,0.015-0.098,0c-0.014-0.016,0.018-0.083,0-0.097c-0.011-0.009-0.08,0-0.096,0c-0.012,0-0.092,0.008-0.098,0
		c-0.014-0.018,0.018-0.081,0-0.097c-0.016-0.015-0.08,0.017-0.096,0c-0.017-0.015,0.016-0.082,0-0.096
		c-0.018-0.016-0.081,0.015-0.097,0c-0.017-0.017,0.016-0.082,0-0.098c-0.017-0.016-0.081,0.016-0.097,0
		c-0.016-0.016,0.013-0.077,0-0.097h-0.098c-0.012,0-0.09,0.008-0.097,0c-0.015-0.017,0.017-0.08,0-0.096s-0.081,0.016-0.097,0
		s0.016-0.082,0-0.097c-0.017-0.017-0.081,0.015-0.097,0c-0.017-0.017,0.016-0.08,0-0.098c-0.017-0.015-0.081,0.018-0.098,0
		c-0.016-0.015,0.013-0.076,0-0.096h-0.097c-0.012,0-0.091,0.008-0.096,0c-0.013-0.014,0.014-0.087,0-0.096
		c-0.021-0.013-0.081,0.015-0.098,0c-0.014-0.014,0.016-0.087,0-0.098c-0.021-0.015-0.076,0.016-0.097,0
		c-0.017-0.012,0.014-0.082,0-0.097c-0.014-0.013-0.087,0.016-0.097,0c-0.008-0.01,0.01-0.091,0-0.096c-0.021-0.01-0.074,0-0.097,0
		h-0.097c0.012-0.019-0.017-0.081,0-0.097c0.015-0.016,0.08,0.016,0.097,0c0.016-0.016-0.017-0.081,0-0.097
		c0.012-0.012,0.078,0.005,0.097,0c0.025-0.007,0.068,0,0.097,0h0.097h0.193h0.194h0.097c0.012,0,0.09,0.007,0.097,0
		c0.016-0.019-0.013-0.075,0-0.096h0.194h0.097h0.192h0.098h0.096c0.029,0,0.07,0.007,0.098,0c0.018-0.005,0.085,0.011,0.098,0
		c0.016-0.017-0.014-0.077,0-0.098h0.193c0.012,0.021-0.017,0.081,0,0.098c0.016,0.015,0.08-0.016,0.096,0
		c0.017,0.015-0.016,0.081,0,0.096c0.017,0.016,0.082-0.016,0.098,0c0.017,0.016-0.016,0.081,0,0.097
		c0.017,0.016,0.079-0.015,0.097,0c0.017,0.014-0.016,0.082,0,0.097c0.017,0.016,0.077-0.013,0.097,0c0.02,0.013,0.08-0.016,0.098,0
		c0.015,0.014-0.018,0.083,0,0.096c0.018,0.016,0.079-0.015,0.097,0c0.015,0.017-0.017,0.082,0,0.097
		c0.015,0.017,0.08-0.015,0.097,0c0.016,0.016-0.018,0.082,0,0.098c0.018,0.015,0.079-0.017,0.097,0
		c0.014,0.012-0.017,0.086,0,0.096c0.021,0.014,0.076-0.016,0.097,0c0.02,0.015,0.08-0.016,0.096,0c0.017,0.017-0.015,0.081,0,0.096
		c0.017,0.018,0.082-0.015,0.098,0c0.016,0.017-0.016,0.082,0,0.098c0.018,0.015,0.08-0.017,0.098,0
		c0.014,0.014-0.016,0.087,0,0.097c0.021,0.014,0.076-0.016,0.095,0c0.019,0.012-0.014,0.083,0,0.096
		c0.019,0.017,0.079-0.013,0.099,0c0.02,0.013,0.08-0.015,0.096,0c0.016,0.015-0.016,0.086,0,0.097c0.02,0.015,0.081-0.016,0.098,0
		c0.014,0.015-0.016,0.087,0,0.098c0.021,0.014,0.077-0.016,0.097,0c0.017,0.012-0.015,0.081,0,0.096
		c0.017,0.017,0.081-0.016,0.097,0c0.016,0.017-0.016,0.081,0,0.097c0.015,0.016,0.078-0.012,0.098,0
		c0.019,0.012,0.08-0.016,0.097,0c0.014,0.014-0.015,0.086,0,0.097c0.021,0.014,0.077-0.016,0.097,0
		c0.016,0.012-0.016,0.082,0,0.097c0.016,0.016,0.08-0.016,0.097,0c0.017,0.016-0.017,0.08,0,0.096c0.017,0.017,0.078-0.012,0.097,0
		c0.017,0.011-0.014,0.084,0,0.097c0.01,0.009,0.083,0,0.098,0c0.016,0.002,0.084-0.009,0.096,0c0.016,0.013-0.014,0.083,0,0.097
		c0.016,0.016,0.081-0.016,0.098,0c0.016,0.016-0.017,0.08,0,0.097c0.016,0.016,0.082-0.017,0.097,0c0.015,0.018-0.017,0.08,0,0.097
		c0.014,0.013,0.087-0.015,0.097,0c0.012,0.017-0.016,0.084,0,0.096c0.01,0.01,0.082,0,0.097,0c0.023,0,0.074-0.008,0.098,0
		c0.012,0.006-0.011,0.086,0,0.098c0.016,0.016,0.079-0.016,0.097,0c0.016,0.015-0.016,0.08,0,0.097
		c0.014,0.012,0.086-0.017,0.097,0c0.015,0.021-0.013,0.071,0,0.096c0.019,0.013,0.079-0.015,0.097,0
		C19.555,14.643,19.525,14.704,19.539,14.724"/>
	<path fill-rule="evenodd" clip-rule="evenodd" fill="#797052" d="M11.889,13.271h0.193c0.014,0.021-0.016,0.081,0,0.098
		c0.018,0.015,0.08-0.017,0.097,0c0.017,0.015-0.017,0.08,0,0.096c0.017,0.017,0.082-0.016,0.098,0c0.016,0.017-0.016,0.081,0,0.097
		c0.016,0.017,0.081-0.016,0.098,0c0.016,0.017-0.017,0.081,0,0.097c0.016,0.016,0.077-0.016,0.097,0
		c0.018,0.015,0.08-0.016,0.097,0c0.016,0.016-0.017,0.081,0,0.097c0.016,0.016,0.081-0.016,0.097,0s-0.016,0.08,0,0.096
		c0.016,0.017,0.08-0.016,0.097,0c0.017,0.017-0.017,0.081,0,0.097c0.017,0.016,0.081-0.016,0.097,0
		c0.017,0.016-0.013,0.078,0,0.097h0.098c0.022,0,0.074-0.008,0.097,0c0.012,0.005-0.011,0.087,0,0.097
		c0.015,0.017,0.079-0.016,0.097,0c0.016,0.016-0.016,0.081,0,0.097c0.012,0.013,0.086-0.015,0.096,0
		c0.012,0.016-0.014,0.085,0,0.096c0.02,0.015,0.081-0.015,0.098,0c0.01,0.01-0.014,0.092,0,0.098c0.021,0.009,0.074,0,0.097,0
		c0.017,0,0.084-0.01,0.097,0c0.016,0.012-0.015,0.082,0,0.097c0.014,0.012,0.086-0.017,0.097,0c0.012,0.016-0.015,0.084,0,0.096
		c0.019,0.015,0.081-0.016,0.097,0s-0.016,0.081,0,0.097c0.016,0.017,0.081-0.016,0.098,0c0.013,0.014-0.017,0.086,0,0.097
		c0.013,0.009,0.08,0,0.096,0c0.013,0,0.092-0.008,0.098,0c0.014,0.016-0.016,0.084,0,0.096c0.018,0.016,0.08-0.016,0.097,0
		c0.014,0.014-0.016,0.087,0,0.097c0.02,0.013,0.081-0.015,0.097,0c0.016,0.017-0.016,0.081,0,0.098
		c0.014,0.013,0.086-0.016,0.097,0c0.015,0.022-0.012,0.072,0,0.097c0.008,0.005,0.095-0.008,0.098,0s0.005,0.09,0,0.096
		c-0.01,0.01-0.083-0.001-0.098,0c-0.031,0.002-0.063-0.002-0.097,0c-0.031,0.002-0.064,0-0.097,0H14.02h-0.193h-0.098h-0.193
		c-0.013,0.019,0.016,0.081,0,0.097c-0.009,0.01-0.082,0-0.097,0c-0.032,0.001-0.065-0.002-0.097,0c-0.031,0.001-0.064,0-0.098,0
		h-0.096h-0.388c0.013,0.019-0.017,0.081,0,0.097c0.009,0.009,0.082,0,0.097,0c0.032,0.001,0.064-0.002,0.098,0
		c0.031,0.001,0.063,0,0.097,0h0.097h0.387h0.193h0.193h0.098h0.193h0.097c0.017,0,0.083-0.01,0.098,0
		c0.015,0.01-0.012,0.082,0,0.096c-0.021,0.013-0.082-0.016-0.098,0c-0.013,0.014,0.016,0.087,0,0.097
		c-0.021,0.015-0.077-0.016-0.097,0c-0.016,0.014,0.016,0.082,0,0.098c-0.016,0.015-0.08-0.017-0.097,0
		c-0.016,0.015,0.017,0.081,0,0.096c-0.016,0.017-0.081-0.016-0.097,0c-0.016,0.017,0.016,0.08,0,0.097
		c-0.016,0.016-0.08-0.017-0.098,0c-0.016,0.016,0.018,0.081,0,0.097c-0.016,0.015-0.08-0.017-0.096,0
		c-0.017,0.015,0.016,0.081,0,0.096c-0.017,0.017-0.082-0.015-0.098,0c-0.016,0.017,0.016,0.081,0,0.097
		c-0.016,0.017-0.081-0.016-0.097,0c-0.017,0.017,0.016,0.081,0,0.097c-0.017,0.016-0.077-0.013-0.097,0
		c-0.013,0.019,0.016,0.082,0,0.097c-0.014,0.014-0.086-0.015-0.097,0c-0.015,0.022,0.015,0.077,0,0.097
		c-0.015,0.017-0.081-0.016-0.097,0c-0.016,0.017,0.016,0.08,0,0.097c-0.016,0.016-0.081-0.017-0.098,0
		c-0.014,0.013,0.016,0.087,0,0.096c-0.021,0.015-0.077-0.016-0.096,0c-0.018,0.014,0.014,0.082,0,0.097
		c-0.017,0.017-0.078-0.013-0.097,0c-0.015,0.02,0.015,0.081,0,0.097c-0.015,0.013-0.087-0.015-0.097,0
		c-0.016,0.022,0.011,0.073,0,0.096c-0.021,0.014-0.081-0.015-0.098,0c-0.016,0.017,0.017,0.081,0,0.098
		c-0.016,0.016-0.08-0.017-0.097,0c-0.017,0.016,0.017,0.08,0,0.097c-0.017,0.016-0.081-0.017-0.097,0
		c-0.016,0.016,0.016,0.08,0,0.096c-0.016,0.017-0.081-0.016-0.097,0c-0.017,0.017,0.016,0.081,0,0.097
		c-0.017,0.017-0.081-0.016-0.097,0c-0.018,0.017,0.016,0.081,0,0.098c-0.018,0.015-0.081-0.017-0.097,0
		c-0.017,0.015,0.016,0.08,0,0.096c-0.017,0.016-0.082-0.016-0.098,0s0.016,0.08,0,0.096c-0.016,0.017-0.081-0.016-0.098,0
		c-0.017,0.017,0.018,0.082,0,0.098c-0.017,0.015-0.076-0.014-0.097,0v-0.194v-0.096v-0.388v-0.388v-0.193V16.37v-0.097V16.08
		v-0.388v-0.387v-0.193v-0.098v-0.193v-0.097c-0.019-0.013-0.08,0.017-0.096,0c-0.014-0.013,0.005-0.079,0-0.097
		c-0.008-0.025,0-0.07,0-0.096v-0.097v-0.098v-0.193v-0.194c-0.014-0.019,0.016-0.08,0-0.097c-0.014-0.013-0.087,0.017-0.098,0
		c-0.012-0.018,0.006-0.074,0-0.096c-0.006-0.029,0-0.068,0-0.097v-0.097v-0.097V13.271z"/>
	<path fill-rule="evenodd" clip-rule="evenodd" fill="#797052" d="M19.346,15.499h0.097c0.013,0,0.089-0.008,0.097,0
		c0.003,0.003,0.003,0.094,0,0.097c-0.017,0.016-0.078-0.013-0.097,0c-0.013,0.019,0.016,0.081,0,0.096
		c-0.017,0.017-0.081-0.015-0.097,0c-0.016,0.017,0.016,0.081,0,0.098c-0.016,0.016-0.083-0.018-0.097,0
		c-0.017,0.017,0.016,0.079,0,0.097c-0.015,0.013-0.087-0.016-0.098,0c-0.013,0.019,0.016,0.08,0,0.096
		c-0.016,0.016-0.081-0.016-0.097,0c-0.018,0.016,0.016,0.08,0,0.097c-0.018,0.016-0.081-0.017-0.097,0
		c-0.016,0.016,0.017,0.082,0,0.097c-0.019,0.015-0.081-0.016-0.097,0c-0.014,0.013,0.016,0.087,0,0.096
		c-0.022,0.015-0.072-0.011-0.098,0c-0.012,0.02,0.016,0.081,0,0.097c-0.016,0.017-0.077-0.013-0.096,0
		c-0.014,0.02,0.016,0.082,0,0.098c-0.014,0.013-0.087-0.016-0.098,0c-0.015,0.021,0.013,0.072,0,0.096
		c-0.019,0.013-0.08-0.016-0.097,0c-0.014,0.013,0.016,0.086,0,0.097c-0.021,0.014-0.078-0.016-0.097,0
		c-0.017,0.014,0.015,0.081,0,0.097c-0.017,0.016-0.08-0.017-0.097,0c-0.017,0.016,0.017,0.081,0,0.096
		c-0.014,0.014-0.087-0.014-0.097,0c-0.016,0.021,0.016,0.079,0,0.097c-0.015,0.017-0.082-0.014-0.098,0
		c-0.016,0.017,0.013,0.078,0,0.097c-0.019,0.014-0.08-0.016-0.097,0c-0.013,0.014,0.017,0.088,0,0.097
		c-0.019,0.013-0.082-0.016-0.097,0c-0.016,0.016,0.015,0.081,0,0.097c-0.014,0.014-0.087-0.014-0.098,0
		c-0.015,0.023,0.013,0.072,0,0.097c-0.019,0.014-0.08-0.017-0.096,0c-0.017,0.016,0.013,0.077,0,0.097
		c-0.02,0.013-0.08-0.016-0.098,0c-0.013,0.013,0.016,0.085,0,0.097c-0.02,0.013-0.08-0.016-0.096,0
		c-0.016,0.016,0.016,0.08,0,0.097c-0.014,0.013-0.087-0.017-0.099,0c-0.011,0.018,0.017,0.08,0,0.096
		c-0.015,0.016-0.079-0.016-0.096,0c-0.014,0.014,0.015,0.086,0,0.097c-0.021,0.014-0.077-0.016-0.097,0
		c-0.017,0.014,0.016,0.082,0,0.097c-0.016,0.017-0.081-0.016-0.098,0c-0.015,0.016,0.017,0.081,0,0.097
		c-0.014,0.013-0.085-0.015-0.096,0c-0.014,0.021,0.016,0.078,0,0.096c-0.014,0.017-0.082-0.014-0.097,0
		c-0.018,0.017,0.016,0.081,0,0.098c-0.018,0.016-0.081-0.017-0.097,0c-0.014,0.013,0.016,0.086,0,0.097
		c-0.021,0.013-0.078-0.016-0.098,0c-0.016,0.013,0.016,0.081,0,0.096c-0.016,0.016-0.077-0.012-0.097,0v0.195h0.388h0.386h0.388
		h0.194h0.194h0.097h0.193h0.194h0.096h0.388h0.194h0.097h0.192c0.014-0.021-0.016-0.082,0-0.098c0.015-0.013,0.088,0.016,0.098,0
		c0.014-0.021-0.017-0.078,0-0.097c0.014-0.016,0.082,0.015,0.096,0c0.018-0.016-0.015-0.08,0-0.096
		c0.017-0.016,0.082,0.015,0.098,0c0.017-0.016-0.016-0.081,0-0.097c0.017-0.017,0.081,0.016,0.098,0
		c0.016-0.017-0.017-0.081,0-0.098c0.016-0.015,0.08,0.016,0.096,0c0.017-0.015-0.016-0.08,0-0.096c0.017-0.017,0.082,0.016,0.098,0
		c0.016-0.017-0.016-0.08,0-0.097c0.016-0.017,0.08,0.017,0.097,0c0.017-0.017-0.017-0.081,0-0.097c0.017-0.016,0.081,0.016,0.097,0
		c0.017-0.016-0.013-0.078,0-0.097c0.02-0.012,0.08,0.016,0.097,0c0.014-0.012-0.015-0.086,0-0.096c0.021-0.014,0.078,0.015,0.097,0
		c0.016-0.014-0.015-0.082,0-0.097c0.016-0.016,0.08,0.016,0.098,0c0.016-0.016-0.016-0.082,0-0.097c0.016-0.016,0.08,0.016,0.097,0
		s-0.017-0.081,0-0.097c0.017-0.017,0.077,0.014,0.097,0c0.013-0.02-0.016-0.08,0-0.097c0.014-0.014,0.086,0.015,0.098,0
		c0.014-0.021-0.017-0.077,0-0.097c0.013-0.016,0.08,0.015,0.096,0c0.017-0.016-0.016-0.081,0-0.097
		c0.017-0.016,0.081,0.016,0.097,0c0.015-0.013-0.015-0.086,0-0.097c0.021-0.013,0.078,0.017,0.098,0
		c0.017-0.013-0.016-0.081,0-0.097c0.016-0.015,0.077,0.013,0.097,0c0.014-0.018-0.016-0.08,0-0.096
		c0.014-0.013,0.086,0.015,0.096,0c0.016-0.023-0.012-0.072,0-0.097c0.02-0.013,0.081,0.017,0.098,0c0.016-0.016-0.017-0.08,0-0.097
		c0.016-0.016,0.081,0.017,0.097,0c0.017-0.015-0.017-0.082,0-0.096c0.018-0.016,0.081,0.016,0.097,0
		c0.014-0.014-0.015-0.087,0-0.098c0.021-0.015,0.072,0.013,0.097,0c0.013-0.019-0.016-0.08,0-0.097
		c0.015-0.013,0.087,0.016,0.098,0c0.014-0.02-0.017-0.077,0-0.096c0.014-0.016,0.081,0.015,0.097,0c0.017-0.016-0.016-0.08,0-0.097
		c0.015-0.017,0.081,0.016,0.097,0c0.017-0.017-0.017-0.081,0-0.097c0.017-0.016,0.081,0.016,0.097,0
		c0.017-0.016-0.016-0.08,0-0.096c0.017-0.017,0.081,0.016,0.098,0c0.016-0.017-0.018-0.081,0-0.097c0.016-0.017,0.08,0.016,0.096,0
		c0.017-0.017-0.016-0.081,0-0.098c0.017-0.015,0.08,0.017,0.098,0c0.016-0.015-0.018-0.08,0-0.096c0.016-0.017,0.08,0.016,0.097,0
		c0.015-0.017-0.013-0.077,0-0.097h0.388h0.193h0.193h0.193h0.098h0.193h0.193h0.097h0.388h0.193c-0.013,0.02,0.016,0.08,0,0.097
		c-0.014,0.013-0.086-0.016-0.097,0c-0.015,0.021,0.017,0.077,0,0.096c-0.015,0.018-0.082-0.014-0.097,0
		c-0.018,0.018,0.016,0.08,0,0.098c-0.016,0.016-0.08-0.017-0.097,0c-0.017,0.016,0.017,0.08,0,0.097
		c-0.017,0.016-0.081-0.017-0.097,0c-0.018,0.016,0.016,0.08,0,0.096c-0.017,0.016-0.081-0.016-0.098,0
		c-0.016,0.016,0.017,0.08,0,0.097c-0.016,0.016-0.08-0.017-0.097,0c-0.017,0.016,0.017,0.081,0,0.097
		c-0.017,0.016-0.08-0.016-0.097,0c-0.016,0.016,0.017,0.081,0,0.096c-0.016,0.017-0.081-0.015-0.098,0
		c-0.015,0.017,0.014,0.078,0,0.097c-0.019,0.014-0.08-0.016-0.096,0c-0.014,0.015,0.016,0.087,0,0.098
		c-0.02,0.012-0.081-0.016-0.097,0c-0.017,0.015,0.016,0.08,0,0.096c-0.015,0.013-0.087-0.015-0.097,0
		c-0.014,0.02,0.016,0.081,0,0.097c-0.017,0.017-0.082-0.016-0.098,0c-0.014,0.014,0.016,0.087,0,0.097
		c-0.02,0.012-0.08-0.017-0.098,0c-0.016,0.016,0.018,0.081,0,0.096c-0.014,0.014-0.086-0.014-0.096,0
		c-0.013,0.02,0.017,0.082,0,0.097c-0.016,0.017-0.081-0.015-0.097,0c-0.014,0.014,0.016,0.087,0,0.097
		c-0.021,0.014-0.081-0.016-0.097,0c-0.016,0.016,0.016,0.081,0,0.097c-0.014,0.014-0.088-0.015-0.098,0
		c-0.013,0.02,0.017,0.081,0,0.097c-0.016,0.017-0.08-0.016-0.096,0c-0.015,0.014,0.015,0.086,0,0.097
		c-0.02,0.014-0.082-0.017-0.098,0c-0.016,0.016,0.016,0.081,0,0.097c-0.014,0.013-0.086-0.016-0.097,0
		c-0.015,0.022,0.012,0.073,0,0.097c-0.02,0.013-0.081-0.016-0.097,0c-0.014,0.013,0.016,0.086,0,0.097
		c-0.02,0.012-0.082-0.017-0.097,0c-0.017,0.015,0.015,0.08,0,0.096c-0.015,0.014-0.087-0.016-0.097,0
		c-0.014,0.019,0.016,0.082,0,0.097c-0.018,0.016-0.081-0.016-0.098,0c-0.013,0.014,0.016,0.087,0,0.097
		c-0.021,0.014-0.076-0.017-0.096,0c-0.018,0.014,0.015,0.082,0,0.097c-0.018,0.016-0.081-0.017-0.098,0
		c-0.016,0.016,0.017,0.081,0,0.096c-0.014,0.014-0.086-0.014-0.097,0c-0.013,0.02,0.017,0.081,0,0.098
		c-0.017,0.016-0.08-0.017-0.097,0c-0.014,0.013,0.015,0.086,0,0.097c-0.02,0.012-0.082-0.016-0.097,0
		c-0.017,0.016,0.016,0.08,0,0.096c-0.014,0.013-0.087-0.016-0.098,0c-0.015,0.022,0.017,0.077,0,0.097
		c-0.013,0.017-0.081-0.016-0.097,0s0.013,0.077,0,0.098h0.388h0.388h0.387h0.193h0.194h0.097h0.193h0.387h0.389h0.29h0.193
		c0.014-0.021-0.016-0.082,0-0.098c0.014-0.013,0.087,0.016,0.097,0c0.014-0.021-0.016-0.078,0-0.097
		c0.014-0.016,0.082,0.015,0.098,0c0.016-0.016-0.016-0.081,0-0.096c0.016-0.016,0.08,0.015,0.097,0
		c0.013-0.014-0.016-0.087,0-0.097c0.021-0.015,0.078,0.016,0.097,0c0.017-0.015-0.016-0.082,0-0.098
		c0.017-0.015,0.08,0.017,0.096,0c0.018-0.015-0.016-0.08,0-0.096c0.015-0.014,0.087,0.015,0.098,0c0.015-0.021-0.016-0.078,0-0.097
		c0.014-0.017,0.082,0.016,0.097,0c0.017-0.017-0.016-0.081,0-0.097c0.017-0.016,0.081,0.016,0.097,0
		c0.015-0.013-0.016-0.087,0-0.097c0.021-0.013,0.078,0.016,0.098,0c0.016-0.013-0.016-0.081,0-0.096
		c0.016-0.017,0.077,0.012,0.097,0c0.013-0.02-0.017-0.081,0-0.097c0.014-0.014,0.086,0.016,0.097,0
		c0.015-0.023-0.012-0.073,0-0.097c0.02-0.012,0.081,0.016,0.097,0c0.014-0.014-0.015-0.086,0-0.097
		c0.022-0.016,0.073,0.012,0.097,0c0.014-0.02-0.016-0.08,0-0.097c0.014-0.014,0.087,0.015,0.098,0c0.014-0.021-0.018-0.077,0-0.097
		c0.013-0.016,0.081,0.015,0.096,0c0.018-0.016-0.016-0.08,0-0.097c0.016-0.016,0.082,0.015,0.098,0c0.016-0.016-0.017-0.08,0-0.097
		c0.016-0.015,0.08,0.017,0.097,0c0.017-0.015-0.013-0.077,0-0.097c0.02-0.012,0.08,0.017,0.097,0c0.014-0.013-0.016-0.085,0-0.096
		c0.022-0.015,0.073,0.012,0.096,0c0.015-0.02-0.015-0.08,0-0.097c0.015-0.013,0.088,0.016,0.099,0c0.015-0.022-0.013-0.072,0-0.097
		c0.019-0.013,0.081,0.017,0.097,0c0.014-0.013-0.016-0.086,0-0.096c0.019-0.014,0.08,0.015,0.096,0
		c0.017-0.016-0.016-0.081,0-0.098c0.015-0.013,0.087,0.016,0.098,0c0.013-0.018-0.016-0.081,0-0.097
		c0.017-0.015,0.08,0.017,0.097,0c0.013-0.013-0.016-0.086,0-0.096c0.021-0.014,0.078,0.016,0.097,0
		c0.018-0.014-0.015-0.082,0-0.097c0.017-0.017,0.08,0.016,0.096,0c0.018-0.016-0.016-0.081,0-0.097
		c0.015-0.013,0.088,0.016,0.098,0c0.014-0.021-0.016-0.077,0-0.096c0.014-0.017,0.082,0.014,0.096,0
		c0.018-0.017-0.015-0.081,0-0.097c0.018-0.017,0.082,0.016,0.099,0c0.014-0.014-0.016-0.087,0-0.098
		c0.021-0.012,0.077,0.017,0.097,0c0.016-0.012-0.016-0.081,0-0.096c0.016-0.017,0.078,0.012,0.098,0c0.012-0.02-0.017-0.08,0-0.097
		c0.012-0.013,0.078,0.006,0.096,0c0.026-0.008,0.069,0,0.097,0h0.097h0.098h0.193h0.388h0.193h0.194h0.096h0.388H29.9
		c-0.013,0.02,0.016,0.08,0,0.097c-0.015,0.013-0.087-0.016-0.098,0c-0.012,0.019,0.017,0.081,0,0.096
		c-0.016,0.017-0.08-0.015-0.097,0c-0.014,0.014,0.015,0.087,0,0.098c-0.019,0.012-0.08-0.017-0.097,0
		c-0.017,0.016,0.017,0.08,0,0.097c-0.014,0.013-0.086-0.016-0.097,0c-0.013,0.019,0.016,0.08,0,0.096
		c-0.017,0.016-0.081-0.016-0.098,0c-0.013,0.014,0.017,0.087,0,0.097c-0.019,0.013-0.079-0.017-0.097,0
		c-0.016,0.016,0.018,0.081,0,0.097c-0.014,0.013-0.086-0.015-0.096,0c-0.014,0.019,0.016,0.081,0,0.096
		c-0.017,0.017-0.081-0.015-0.098,0c-0.014,0.014,0.016,0.087,0,0.097c-0.02,0.014-0.08-0.016-0.097,0
		c-0.017,0.017,0.017,0.082,0,0.098c-0.014,0.013-0.087-0.016-0.097,0c-0.013,0.019,0.017,0.08,0,0.096
		c-0.016,0.017-0.081-0.016-0.097,0c-0.014,0.013,0.016,0.086,0,0.097c-0.023,0.015-0.073-0.012-0.098,0
		c-0.013,0.02,0.016,0.08,0,0.097c-0.016,0.016-0.081-0.017-0.097,0c-0.016,0.016,0.016,0.081,0,0.096
		c-0.016,0.017-0.08-0.015-0.097,0c-0.016,0.017,0.017,0.082,0,0.097c-0.016,0.017-0.081-0.015-0.097,0
		c-0.017,0.017,0.016,0.081,0,0.097c-0.017,0.016-0.078-0.013-0.097,0c-0.013,0.019,0.017,0.081,0,0.097s-0.081-0.016-0.097,0
		c-0.017,0.016,0.016,0.081,0,0.097c-0.017,0.017-0.077-0.014-0.098,0c-0.012,0.019,0.017,0.08,0,0.097
		c-0.016,0.016-0.08-0.017-0.097,0c-0.017,0.016,0.017,0.081,0,0.097s-0.077-0.012-0.097,0c-0.014,0.019,0.017,0.081,0,0.097
		c-0.014,0.013-0.086-0.016-0.096,0c-0.014,0.019,0.016,0.08,0,0.097c-0.017,0.015-0.082-0.017-0.098,0
		c-0.014,0.013,0.016,0.086,0,0.096c-0.02,0.013-0.081-0.016-0.097,0c-0.017,0.016,0.016,0.081,0,0.097
		c-0.015,0.014-0.087-0.015-0.099,0c-0.012,0.02,0.018,0.08,0,0.097c-0.015,0.017-0.08-0.017-0.096,0
		c-0.014,0.014,0.016,0.087,0,0.097c-0.019,0.013-0.08-0.017-0.098,0c-0.016,0.016,0.018,0.081,0,0.096
		c-0.012,0.014-0.086-0.014-0.096,0c-0.013,0.02,0.017,0.081,0,0.098c-0.016,0.016-0.08-0.017-0.097,0
		c-0.014,0.013,0.015,0.086,0,0.097c-0.019,0.012-0.081-0.016-0.097,0s0.016,0.08,0,0.096c-0.014,0.013-0.087-0.016-0.098,0
		c-0.014,0.022,0.017,0.077,0,0.097c-0.013,0.017-0.082-0.016-0.096,0c-0.016,0.016,0.012,0.077,0,0.098h0.387h0.388h0.387h0.291
		h0.774h0.388h0.193h0.097h0.193c0.014-0.021-0.016-0.082,0-0.098c0.014-0.013,0.088,0.016,0.098,0c0.014-0.021-0.018-0.078,0-0.097
		c0.014-0.016,0.081,0.015,0.096,0c0.017-0.016-0.016-0.081,0-0.096c0.017-0.016,0.081,0.015,0.098,0
		c0.013-0.014-0.016-0.087,0-0.097c0.021-0.015,0.077,0.016,0.097,0c0.017-0.015-0.015-0.082,0-0.098
		c0.017-0.015,0.081,0.017,0.097,0c0.016-0.015-0.016-0.08,0-0.096c0.014-0.014,0.086,0.015,0.098,0
		c0.014-0.021-0.016-0.078,0-0.097c0.014-0.017,0.08,0.016,0.097,0c0.016-0.017-0.017-0.081,0-0.097
		c0.016-0.016,0.081,0.016,0.097,0c0.014-0.013-0.016-0.087,0-0.097c0.021-0.013,0.077,0.016,0.096,0
		c0.018-0.013-0.015-0.081,0-0.096c0.017-0.017,0.078,0.012,0.098,0c0.013-0.02-0.016-0.081,0-0.097
		c0.017-0.016,0.077,0.013,0.097,0c0.013-0.02-0.017-0.081,0-0.097c0.013-0.014,0.087,0.015,0.097,0
		c0.016-0.023-0.012-0.073,0-0.097c0.02-0.013,0.081,0.016,0.098,0c0.013-0.014-0.016-0.086,0-0.097
		c0.021-0.014,0.078,0.017,0.097,0c0.015-0.014-0.016-0.082,0-0.097c0.015-0.016,0.079,0.016,0.097,0
		c0.016-0.015-0.016-0.082,0-0.097c0.016-0.016,0.08,0.016,0.097,0c0.016-0.016-0.017-0.08,0-0.097c0.016-0.015,0.081,0.017,0.097,0
		c0.016-0.015-0.016-0.08,0-0.097c0.016-0.015,0.081,0.017,0.097,0c0.017-0.015-0.016-0.08,0-0.096c0.017-0.017,0.081,0.016,0.097,0
		c0.017-0.017-0.016-0.08,0-0.097c0.017-0.016,0.08,0.017,0.098,0c0.016-0.016-0.018-0.08,0-0.097c0.016-0.016,0.077,0.013,0.098,0
		v0.097v0.387v0.194v0.097v0.387v0.194v0.097v0.194v0.193V18.5v0.193v0.194v0.097v0.194v0.194v0.097v0.193v0.193v0.097v0.193v0.195
		v0.097v0.193v0.193v0.098v0.193v0.195v0.096V21.6v0.193v0.097v0.194v0.194v0.096v0.193v0.195v0.096v0.195v0.193v0.097v0.193v0.193
		v0.097v0.194v0.194v0.098v0.192v0.194v0.097v0.194v0.194v0.096v0.194v0.193v0.097v0.388v0.194v0.095c0,0.03,0.006,0.071,0,0.098
		c-0.006,0.017,0.011,0.085,0,0.097c-0.018,0.015-0.078-0.014-0.098,0v0.194c0,0.014,0.008,0.087,0,0.097
		c-0.016,0.015-0.079-0.014-0.098,0c-0.012,0.018,0.017,0.08,0,0.096c-0.013,0.014-0.086-0.015-0.097,0
		c-0.014,0.022,0.017,0.078,0,0.097c-0.014,0.017-0.081-0.016-0.097,0c-0.016,0.017,0.016,0.08,0,0.097
		c-0.016,0.016-0.081-0.016-0.097,0c-0.017,0.016,0.016,0.08,0,0.096c-0.017,0.017-0.081-0.016-0.097,0
		c-0.011,0.011,0.013,0.091,0,0.097c-0.021,0.01-0.074,0-0.097,0h-0.097h-0.098c-0.012,0.02,0.018,0.081,0,0.097
		c-0.012,0.012-0.08-0.004-0.097,0c-0.028,0.008-0.069,0-0.097,0h-0.098h-0.192h-0.097h-0.194h-0.194h-0.096H29.9h-0.098h-0.193
		h-0.097h-0.388h-0.097h-0.388h-0.097h-0.388H28.06h-0.387h-0.099h-0.386h-0.097h-0.389h-0.096h-0.387h-0.098h-0.387h-0.098h-0.387
		h-0.097h-0.388h-0.097h-0.388h-0.097H23.8h-0.097h-0.388h-0.097h-0.388h-0.097h-0.387H22.25h-0.388h-0.097h-0.387h-0.097h-0.388
		h-0.097H20.41h-0.097h-0.388h-0.098h-0.386h-0.097h-0.388h-0.097h-0.388h-0.097h-0.388h-0.097h-0.387h-0.099h-0.386h-0.097h-0.388
		H16.44h-0.388h-0.098h-0.386h-0.097h-0.388h-0.098h-0.387h-0.097H14.31h-0.192H14.02h-0.193h-0.098h-0.193h-0.193h-0.098h-0.096
		c-0.029,0-0.07,0.008-0.097,0c-0.02-0.004-0.086,0.012-0.097,0c-0.018-0.016,0.012-0.077,0-0.097h-0.194
		c-0.015,0-0.087,0.009-0.097,0c-0.016-0.015,0.013-0.078,0-0.097c-0.02-0.012-0.081,0.017-0.097,0
		c-0.014-0.012,0.015-0.086,0-0.096c-0.021-0.014-0.078,0.016-0.097,0c-0.018-0.014,0.015-0.081,0-0.097
		c-0.016-0.016-0.085,0.017-0.097,0c-0.015-0.018,0.016-0.08,0-0.097c-0.011-0.01-0.092,0.012-0.098,0c-0.009-0.021,0-0.074,0-0.096
		c0-0.023,0.009-0.079,0-0.097c-0.007-0.014-0.086,0.011-0.098,0c-0.009-0.01,0.002-0.083,0-0.098c-0.001-0.025,0.011-0.072,0-0.096
		c-0.007-0.019,0.015-0.083,0-0.097c-0.006-0.007-0.095,0.008-0.097,0c-0.006-0.028,0-0.068,0-0.098v-0.095V26.15v-0.194v-0.194
		v-0.097v-0.193v-0.097v-0.775v-0.387V24.02v-0.097v-0.387v-0.193v-0.097v-0.388v-0.194v-0.097v-0.774v-0.387v-0.193v-0.098v-0.387
		v-0.194v-0.096V20.05v-0.194V19.76v-0.195V19.47v-0.195v-0.387v-0.194v-0.095h0.194h0.388h0.193h0.098h0.193h0.387h0.193h0.193
		h0.098h0.193h0.097h0.194c0.013-0.021-0.017-0.082,0-0.098c0.014-0.013,0.086,0.016,0.097,0c0.013-0.02-0.017-0.081,0-0.097
		c0.017-0.016,0.081,0.016,0.097,0c0.014-0.013-0.016-0.087,0-0.096c0.02-0.014,0.08,0.015,0.098,0c0.016-0.016-0.018-0.081,0-0.097
		c0.012-0.015,0.086,0.015,0.096,0c0.013-0.02-0.017-0.081,0-0.098c0.016-0.015,0.081,0.017,0.097,0
		c0.014-0.013-0.016-0.086,0-0.096c0.02-0.013,0.081,0.016,0.098,0c0.016-0.017-0.017-0.08,0-0.097c0.014-0.014,0.087,0.016,0.097,0
		c0.013-0.02-0.017-0.081,0-0.097c0.016-0.016,0.08,0.016,0.097,0c0.014-0.013-0.016-0.087,0-0.097c0.019-0.012,0.081,0.016,0.097,0
		s-0.016-0.081,0-0.096c0.014-0.014,0.086,0.015,0.098,0c0.014-0.022-0.016-0.078,0-0.097c0.014-0.016,0.08,0.015,0.097,0
		c0.016-0.016-0.014-0.078,0-0.097c0.019-0.012,0.08,0.016,0.097,0c0.016-0.016-0.017-0.081,0-0.097c0.016-0.017,0.08,0.016,0.096,0
		c0.017-0.017-0.012-0.078,0-0.097c0.021-0.014,0.081,0.017,0.098,0c0.014-0.014-0.016-0.087,0-0.097c0.02-0.013,0.08,0.016,0.096,0
		c0.018-0.016-0.016-0.081,0-0.097c0.015-0.013,0.088,0.015,0.098,0c0.013-0.019-0.016-0.08,0-0.097
		c0.016-0.015,0.081,0.017,0.098,0c0.012-0.013-0.016-0.086,0-0.097c0.02-0.012,0.08,0.017,0.096,0c0.017-0.015-0.016-0.08,0-0.096
		c0.015-0.013,0.087,0.015,0.098,0c0.014-0.023-0.012-0.072,0-0.097c0.019-0.013,0.08,0.017,0.097,0c0.016-0.016-0.017-0.08,0-0.097
		c0.016-0.016,0.081,0.017,0.097,0c0.016-0.015-0.016-0.082,0-0.096c0.018-0.016,0.08,0.016,0.097,0
		c0.014-0.014-0.017-0.087,0-0.098c0.022-0.015,0.072,0.013,0.097,0c0.014-0.019-0.016-0.08,0-0.097
		c0.014-0.013,0.087,0.016,0.098,0c0.012-0.018-0.017-0.08,0-0.096c0.016-0.016,0.079,0.016,0.097,0
		c0.013-0.014-0.017-0.086,0-0.097c0.019-0.013,0.08,0.016,0.097,0c0.016-0.017-0.017-0.081,0-0.097
		c0.014-0.013,0.086,0.016,0.096,0c0.014-0.019-0.015-0.08,0-0.096c0.017-0.017,0.082,0.016,0.098,0
		c0.014-0.014-0.016-0.087,0-0.097c0.02-0.014,0.081,0.016,0.097,0c0.015-0.018-0.016-0.081,0-0.098
		c0.015-0.012,0.087,0.016,0.096,0c0.016-0.022-0.011-0.071,0-0.096h0.099c0.012-0.02-0.016-0.08,0-0.097
		c0.012-0.013,0.078,0.006,0.096,0c0.026-0.008,0.07,0,0.098,0h0.096h0.098h0.193h0.388h0.194h0.193h0.097H19.346z"/>
</g>
<g>
	<polygon fill="#FFFFFF" points="74.703,58.777 80.847,58.777 80.847,59.92 78.433,59.92 78.433,66.363 77.101,66.363 77.101,59.92 
		74.703,59.92 	"/>
	<polygon fill="#FFFFFF" points="81.775,58.777 83.161,58.777 85.059,64.782 85.08,64.782 87.03,58.777 88.377,58.777 
		85.784,66.363 84.302,66.363 	"/>
	<path fill="#FFFFFF" d="M71.924,44.84c-0.688-0.253-1.806-0.379-3.339-0.379h-2.182v10.334h3.306c1.287,0,2.29-0.185,3.001-0.559
		c0.711-0.373,1.303-0.964,1.747-1.744c0.442-0.789,0.664-1.699,0.664-2.732c0-1.194-0.276-2.229-0.839-3.092
		S72.927,45.186,71.924,44.84 M67.509,45.588h0.661c1.451,0,2.514,0.096,3.133,0.28c0.837,0.266,1.489,0.741,1.963,1.423
		c0.464,0.683,0.707,1.521,0.707,2.491c0,0.912-0.224,1.705-0.652,2.344c-0.428,0.631-1.026,1.081-1.776,1.32
		c-0.539,0.172-1.52,0.261-2.916,0.261h-1.119V45.588z"/>
	<rect x="77.046" y="44.461" fill="#FFFFFF" width="1.146" height="10.334"/>
	<path fill="#FFFFFF" d="M86.095,49.723c0.5-0.218,0.891-0.55,1.16-0.981c0.262-0.42,0.398-0.928,0.398-1.499
		c0-0.675-0.2-1.252-0.587-1.724c-0.385-0.459-0.896-0.769-1.508-0.917c-0.416-0.094-1.188-0.139-2.319-0.139h-2.1v10.332h1.152
		v-4.732h0.479l3.667,4.732h1.422l-3.67-4.732C84.988,50.045,85.632,49.933,86.095,49.723 M83.983,48.944l-1.69-0.008v-3.348h1.735
		c0.692,0,1.184,0.06,1.479,0.178c0.283,0.119,0.518,0.311,0.695,0.575c0.186,0.268,0.26,0.566,0.26,0.901
		c0,0.342-0.074,0.648-0.251,0.918c-0.175,0.271-0.428,0.477-0.735,0.598C85.153,48.889,84.651,48.944,83.983,48.944"/>
	<path fill="#FFFFFF" d="M95.834,51.584v-7.121h-0.304l-5.776,8.217h4.944v2.115h1.136V52.68h1.233v-1.096H95.834z M94.699,51.584
		H91.86l2.839-4.029V51.584z"/>
	<circle fill="none" stroke="#FFFFFF" stroke-miterlimit="10" cx="82.279" cy="19.057" r="17.17"/>
	<path fill-rule="evenodd" clip-rule="evenodd" fill="#CCCBCB" d="M93.173,18.706c-2.112,2.763-4.949,5.583-9.327,5.92
		c-5.72,0.441-9.156-2.672-11.598-5.92c2.266-2.6,4.93-5.379,9.245-5.759C87.264,12.438,90.548,15.639,93.173,18.706 M78.818,17.813
		c-0.768,3.439,2.746,6.212,5.84,4.542c3.572-1.929,2.057-8.343-2.758-7.462C80.309,15.184,79.13,16.409,78.818,17.813"/>
	<path fill-rule="evenodd" clip-rule="evenodd" fill="#CCCBCB" d="M82.548,16.596c0.36,0.047,0.032,0.779,0.244,0.974
		c0.328,0.686,1.083,1.143,2.108,0.891c0.007,1.583-0.895,2.515-2.191,2.515c-2.595,0-2.957-4.069-0.243-4.38H82.548z"/>
</g>
<line fill="none" stroke="#676868" stroke-width="2" stroke-miterlimit="10" x1="4.988" y1="196.826" x2="38.988" y2="196.826"/>
</svg>
