<?xml version="1.0" encoding="utf-8"?>
<!-- Generator: Adobe Illustrator 16.0.0, SVG Export Plug-In . SVG Version: 6.00 Build 0)  -->
<!DOCTYPE svg PUBLIC "-//W3C//DTD SVG 1.1//EN" "http://www.w3.org/Graphics/SVG/1.1/DTD/svg11.dtd">
<svg version="1.1" id="Layer_1" xmlns="http://www.w3.org/2000/svg" xmlns:xlink="http://www.w3.org/1999/xlink" x="0px" y="0px"
	 width="43.051px" height="85.826px" viewBox="0 0 43.051 85.826" enable-background="new 0 0 43.051 85.826" xml:space="preserve">
<rect display="none" width="43.051" height="85.826"/>
<g>
	<path fill="#EA3A27" d="M29.922-16.54l3.4-3.819l-0.709,3.819H29.922z M33.695-16.54l1.248-6.754h-0.29l-6.922,7.795h4.689
		l-0.417,2.249h1.082l0.412-2.249h1.063l0.937-1.041H33.695z"/>
	<polygon fill="#EA3A27" points="25.088,-12.711 24.005,-12.711 24.991,-17.299 22.066,-23.495 23.238,-23.495 25.676,-18.3 
		30.299,-23.495 31.677,-23.495 26.042,-17.167 	"/>
	<path fill="#EA3A27" d="M13.324-9.159h-1.197l0.738-3.555H5.604l9.598-10.79h0.459l0.344-0.392l-0.082,0.392h3.413
		c0.262,0.009,0.532,0.032,0.811,0.065c0.347,0.043,0.675,0.154,0.979,0.329c0.317,0.181,0.587,0.45,0.805,0.798
		c0.217,0.355,0.328,0.837,0.328,1.429c0,0.468-0.087,0.89-0.262,1.249c-0.172,0.351-0.398,0.657-0.674,0.899
		c-0.197,0.173-0.411,0.319-0.642,0.437c0.179,0.112,0.333,0.254,0.464,0.419c0.36,0.452,0.541,1.036,0.541,1.737
		c0,0.54-0.1,1.032-0.296,1.458c-0.196,0.433-0.476,0.799-0.828,1.091c-0.343,0.289-0.768,0.512-1.253,0.663
		c-0.474,0.146-1.004,0.218-1.572,0.218h-3.673L13.324-9.159z M14.272-13.758h3.632c0.285,0,0.598-0.04,0.934-0.121
		c0.318-0.079,0.613-0.213,0.881-0.398c0.264-0.184,0.484-0.426,0.662-0.729c0.168-0.289,0.254-0.67,0.254-1.134
		c0-0.392-0.062-0.694-0.188-0.899c-0.129-0.206-0.293-0.361-0.503-0.472c-0.229-0.117-0.49-0.191-0.777-0.223
		c-0.322-0.037-0.657-0.053-0.995-0.053h-3.069L14.272-13.758z M14.66-21.219l-6.616,7.461l5.046-0.002L14.66-21.219z
		 M15.301-18.846l3.056,0.008c0.444,0,0.856-0.05,1.224-0.148c0.351-0.095,0.653-0.233,0.899-0.409
		c0.238-0.173,0.414-0.378,0.542-0.629c0.126-0.249,0.19-0.537,0.19-0.857c0-0.346-0.054-0.621-0.155-0.819
		c-0.102-0.196-0.227-0.343-0.379-0.45c-0.167-0.111-0.348-0.185-0.556-0.228c-0.23-0.044-0.466-0.069-0.703-0.069l-3.367-0.011
		L15.301-18.846z"/>
	<path fill-rule="evenodd" clip-rule="evenodd" fill="#EA3A27" d="M26.908-45.125c-5.042,0.193-10.442,0.028-15.622,0.083v-3.967
		c0-1.849-0.468-4.175,1.074-4.464c1.091-0.204,2.474,0,3.637,0h7.274c1.045,0,2.827-0.155,3.306,0.331
		c0.591,0.601,0.331,2.655,0.331,3.884V-45.125z M13.021-47.522h5.869v-3.637h-5.869V-47.522z"/>
	<path fill-rule="evenodd" clip-rule="evenodd" fill="#EA3A27" d="M32.858-53.142c0.193,2.534,0.028,5.427,0.083,8.1
		c-1.679-0.828-3.316-1.697-4.959-2.562v-2.974C29.615-51.426,31.284-52.238,32.858-53.142"/>
	<path fill-rule="evenodd" clip-rule="evenodd" fill="#EA3A27" d="M11.368-44.05h15.54c0.396,2.13-1.788,1.817-3.885,1.817h-7.604
		c-2.036,0-4.427,0.483-4.133-1.569C11.279-43.919,11.272-44.037,11.368-44.05"/>
	<g>
		<path fill="#EA3A27" d="M21.525-30.523c-9.743,0-17.67-7.927-17.67-17.67s7.927-17.67,17.67-17.67s17.67,7.927,17.67,17.67
			S31.269-30.523,21.525-30.523z M21.525-64.863c-9.192,0-16.67,7.478-16.67,16.67s7.478,16.67,16.67,16.67s16.67-7.478,16.67-16.67
			S30.717-64.863,21.525-64.863z"/>
	</g>
</g>
<g display="none">
	<path display="inline" fill="#797052" d="M11.798,44.378c-0.683-0.259-1.775-0.381-3.284-0.381H6.379V54.81h3.244
		c1.257,0,2.238-0.191,2.939-0.587c0.703-0.394,1.277-1.009,1.722-1.829c0.429-0.821,0.648-1.776,0.648-2.856
		c0-1.252-0.276-2.338-0.828-3.237C13.557,45.393,12.779,44.752,11.798,44.378 M7.465,45.167h0.65c1.416,0,2.461,0.104,3.074,0.298
		c0.819,0.275,1.453,0.77,1.915,1.486c0.464,0.714,0.694,1.594,0.694,2.605c0,0.962-0.219,1.791-0.633,2.459
		c-0.426,0.661-1.01,1.128-1.743,1.386c-0.535,0.182-1.495,0.27-2.866,0.27H7.465V45.167z"/>
	<rect x="16.812" y="43.993" display="inline" fill="#797052" width="1.126" height="10.816"/>
	<path display="inline" fill="#797052" d="M25.695,49.496c0.488-0.223,0.872-0.571,1.133-1.028c0.26-0.437,0.396-0.973,0.396-1.568
		c0-0.706-0.2-1.311-0.578-1.805c-0.374-0.485-0.875-0.803-1.484-0.956c-0.399-0.102-1.162-0.146-2.27-0.146h-2.057v10.816h1.123
		v-4.957h0.477l3.598,4.957h1.396l-3.604-4.957C24.61,49.834,25.237,49.722,25.695,49.496 M23.619,48.683l-1.66-0.008v-3.509h1.707
		c0.676,0,1.158,0.064,1.452,0.189c0.274,0.124,0.503,0.324,0.684,0.606c0.179,0.274,0.257,0.588,0.257,0.937
		c0,0.36-0.078,0.678-0.255,0.963c-0.169,0.288-0.413,0.495-0.718,0.631C24.766,48.625,24.277,48.683,23.619,48.683"/>
	<path display="inline" fill="#797052" d="M35.246,51.445v-7.452h-0.294l-5.669,8.601h4.845v2.215h1.118v-2.215h1.212v-1.149H35.246
		z M34.128,51.445h-2.782l2.782-4.216V51.445z"/>
	<polygon display="inline" fill="#797052" points="6.655,58.974 11.812,58.974 11.812,60.174 7.965,60.174 7.965,62.258 
		11.344,62.258 11.344,63.399 7.965,63.399 7.965,66.933 6.655,66.933 	"/>
	<rect x="12.475" y="58.975" display="inline" fill="#797052" width="1.309" height="7.959"/>
	<polygon display="inline" fill="#797052" points="15.381,58.974 16.686,58.974 16.686,65.732 20.481,65.732 20.481,66.933 
		15.381,66.933 	"/>
	<polygon display="inline" fill="#797052" points="21.354,58.974 23.199,58.974 25.252,65.208 25.275,65.208 27.279,58.974 
		29.098,58.974 29.098,66.933 27.856,66.933 27.856,60.788 27.838,60.788 25.765,66.933 24.688,66.933 22.618,60.788 22.602,60.788 
		22.602,66.933 21.354,66.933 	"/>
	<path display="inline" fill="#797052" d="M31.521,64.281c0,1.226,0.851,1.706,1.896,1.706c1.143,0,1.577-0.601,1.577-1.203
		c0-0.616-0.312-0.862-0.62-0.981c-0.521-0.212-1.203-0.357-2.225-0.662c-1.279-0.367-1.654-1.186-1.654-2.011
		c0-1.6,1.391-2.35,2.731-2.35c1.552,0,2.86,0.881,2.86,2.545h-1.309c-0.057-1.025-0.707-1.403-1.607-1.403
		c-0.605,0-1.362,0.235-1.362,1.035c0,0.559,0.35,0.869,0.885,1.029c0.116,0.027,1.767,0.491,2.149,0.611
		c0.984,0.311,1.453,1.206,1.453,2.029c0,1.785-1.479,2.499-2.969,2.499c-1.703,0-3.083-0.87-3.108-2.844H31.521z"/>
	<g display="inline">
		<path fill="#797052" d="M21.742,36.727c-9.743,0-17.67-7.927-17.67-17.67s7.927-17.67,17.67-17.67s17.67,7.927,17.67,17.67
			S31.485,36.727,21.742,36.727z M21.742,2.387c-9.192,0-16.67,7.478-16.67,16.67s7.478,16.67,16.67,16.67s16.67-7.478,16.67-16.67
			S30.934,2.387,21.742,2.387z"/>
	</g>
	<path display="inline" fill-rule="evenodd" clip-rule="evenodd" fill="#797052" d="M31.739,12.207h-0.097
		c-0.011,0-0.09,0.007-0.097,0c-0.015-0.018,0.016-0.081,0-0.097c-0.017-0.015-0.081,0.016-0.097,0
		c-0.016-0.015,0.016-0.082,0-0.097c-0.018-0.016-0.081,0.017-0.097,0c-0.017-0.016,0.016-0.08,0-0.096
		c-0.017-0.017-0.081,0.016-0.097,0s0.016-0.084,0-0.098c-0.012-0.008-0.082,0-0.098,0c-0.012,0-0.091,0.008-0.097,0
		c-0.015-0.017,0.017-0.081,0-0.096c-0.017-0.017-0.08,0.016-0.097,0c-0.016-0.017,0.017-0.081,0-0.097s-0.08,0.016-0.097,0
		s0.016-0.081,0-0.097c-0.017-0.016-0.081,0.016-0.097,0c-0.016-0.014,0.017-0.084,0-0.096c-0.012-0.01-0.081,0-0.097,0
		c-0.011,0-0.091,0.006-0.097,0c-0.016-0.019,0.015-0.081,0-0.097c-0.018-0.016-0.081,0.016-0.098,0
		c-0.016-0.016,0.017-0.082,0-0.098c-0.017-0.015-0.08,0.017-0.097,0c-0.017-0.015,0.017-0.081,0-0.096
		c-0.017-0.017-0.081,0.015-0.097,0c-0.015-0.015,0.016-0.084,0-0.098c-0.011-0.008-0.081,0-0.098,0c-0.012,0-0.09,0.009-0.097,0
		c-0.014-0.017,0.017-0.08,0-0.096c-0.017-0.016-0.081,0.017-0.096,0c-0.017-0.016,0.015-0.082,0-0.096
		c-0.018-0.017-0.081,0.015-0.097,0c-0.016-0.017,0.016-0.082,0-0.097c-0.016-0.016-0.081,0.015-0.098,0
		c-0.016-0.016,0.014-0.078,0-0.097h-0.193c0.013-0.02-0.017-0.081,0-0.097c0.012-0.012,0.079,0.003,0.097,0
		c0.027-0.007,0.069,0,0.097,0H29.9h0.192h0.097c0.021-0.013,0.081,0.016,0.098,0c0.016-0.016-0.014-0.078,0-0.097h0.193h0.194
		h0.097c0.027,0,0.069-0.007,0.097,0c0.009,0.002-0.008,0.089,0,0.097c0.009,0.009,0.082-0.001,0.097,0
		c0.024,0.001,0.076-0.01,0.097,0c0.013,0.006-0.011,0.085,0,0.097c0.009,0.009,0.083-0.001,0.097,0
		c0.018,0.001,0.083-0.012,0.098,0c0.016,0.011-0.015,0.082,0,0.097c0.013,0.014,0.086-0.016,0.097,0
		c0.014,0.021-0.017,0.077,0,0.097c0.013,0.015,0.081-0.017,0.097,0c0.016,0.015-0.013,0.077,0,0.096
		c0.021,0.012,0.078-0.015,0.097,0c0.007,0.006,0,0.085,0,0.096v0.098c0.007,0.005,0.095-0.007,0.097,0c0.007,0.028,0,0.068,0,0.096
		v0.098c0,0.028-0.006,0.068,0,0.097c0.004,0.016-0.011,0.086,0,0.096c0.014,0.014,0.087-0.015,0.097,0
		c0.016,0.023-0.011,0.074,0,0.097v0.193v0.194v0.097V12.207z"/>
	<path display="inline" fill-rule="evenodd" clip-rule="evenodd" fill="#797052" d="M29.803,13.465c-0.012,0.02,0.017,0.081,0,0.097
		c-0.012,0.011-0.079-0.004-0.097,0c-0.028,0.007-0.068,0-0.097,0h-0.097h-0.194c-0.012,0.019,0.018,0.081,0,0.096
		c-0.009,0.01-0.082,0-0.096,0c-0.032,0.002-0.066-0.001-0.098,0c-0.032,0.002-0.064,0-0.097,0h-0.097h-0.194h-0.097h-0.097
		c-0.023,0-0.075-0.008-0.097,0c-0.012,0.006,0.011,0.087,0,0.098c-0.017,0.016-0.078-0.014-0.097,0h-0.194H28.06h-0.194H27.77
		c-0.012,0-0.09,0.008-0.097,0c-0.017-0.02,0.013-0.076,0-0.098c-0.02-0.011-0.081,0.017-0.099,0c-0.015-0.015,0.018-0.08,0-0.096
		c-0.015-0.016-0.08,0.016-0.096,0c-0.014-0.014,0.016-0.087,0-0.097c-0.014-0.011-0.078,0-0.098,0c-0.022,0-0.074,0.01-0.096,0
		c-0.012-0.006,0.01-0.086,0-0.097c-0.016-0.016-0.078,0.015-0.097,0c-0.017-0.012,0.015-0.082,0-0.097
		c-0.017-0.016-0.081,0.016-0.097,0s0.016-0.08,0-0.097c-0.016-0.016-0.078,0.016-0.098,0c-0.016-0.014,0.016-0.081,0-0.097
		c-0.016-0.015-0.077,0.013-0.096,0c-0.02-0.012-0.081,0.017-0.097,0c-0.017-0.014,0.016-0.084,0-0.096
		c-0.019-0.015-0.081,0.015-0.099,0c-0.015-0.017,0.017-0.08,0-0.098c-0.015-0.016-0.08,0.018-0.096,0
		c-0.015-0.014,0.016-0.083,0-0.096c-0.018-0.014-0.08,0.017-0.097,0c-0.01-0.01,0.013-0.092,0-0.096c-0.021-0.009-0.073,0-0.097,0
		c-0.016,0-0.086,0.008-0.098,0c-0.016-0.014,0.016-0.082,0-0.098c-0.016-0.016-0.08,0.017-0.096,0c-0.018-0.016,0.016-0.08,0-0.097
		c-0.018-0.015-0.082,0.017-0.098,0c-0.016-0.016,0.017-0.08,0-0.096c-0.014-0.014-0.086,0.015-0.097,0
		c-0.015-0.023,0.012-0.074,0-0.097H25.93c-0.023,0-0.075,0.01-0.097,0c-0.012-0.006,0.011-0.086,0-0.097
		c-0.017-0.016-0.08,0.016-0.097,0c-0.017-0.015,0.016-0.081,0-0.096c-0.014-0.014-0.086,0.015-0.098,0
		c-0.01-0.017,0.016-0.085,0-0.098c-0.02-0.014-0.08,0.017-0.097,0c-0.013-0.013,0.017-0.086,0-0.096
		c-0.022-0.015-0.072,0.013-0.097,0c-0.02-0.012-0.081,0.015-0.098,0c-0.013-0.014,0.017-0.087,0-0.097
		c-0.021-0.015-0.076,0.016-0.096,0c-0.017-0.013,0.015-0.083,0-0.097c-0.016-0.017-0.08,0.016-0.097,0
		c-0.017-0.017,0.017-0.081,0-0.097c-0.017-0.015-0.077,0.013-0.097,0c-0.016-0.011,0.014-0.083,0-0.097
		c-0.01-0.009-0.084,0-0.098,0c-0.017-0.001-0.084,0.01-0.097,0c-0.016-0.013,0.015-0.083,0-0.096c-0.014-0.014-0.086,0.014-0.097,0
		c-0.013-0.02,0.016-0.081,0-0.097s-0.08,0.016-0.097,0c-0.015-0.015,0.015-0.087,0-0.098c-0.021-0.013-0.078,0.016-0.097,0
		c-0.017-0.013,0.013-0.079,0-0.096h0.193h0.097c0.02-0.013,0.081,0.015,0.097,0c0.011-0.01-0.012-0.092,0-0.098
		c0.022-0.008,0.074,0,0.098,0c0.031,0,0.065,0.004,0.097,0c0.031-0.002,0.065,0,0.097,0h0.096h0.098h0.193
		c0.033,0,0.064,0.003,0.098,0c0.014,0,0.088,0.01,0.097,0c0.017-0.016-0.013-0.076,0-0.096h0.193h0.388h0.193
		c0.014,0.02-0.017,0.08,0,0.096c0.014,0.015,0.086-0.015,0.096,0c0.012,0.018-0.014,0.087,0,0.098c0.014,0.01,0.08,0,0.099,0
		c0.011,0,0.09-0.008,0.097,0c0.014,0.015-0.016,0.084,0,0.096c0.018,0.016,0.08-0.016,0.096,0c0.015,0.014-0.016,0.087,0,0.098
		c0.022,0.014,0.078-0.016,0.098,0c0.017,0.013-0.016,0.081,0,0.097c0.017,0.015,0.078-0.016,0.097,0
		c0.017,0.013-0.015,0.081,0,0.096c0.009,0.01,0.083-0.001,0.097,0c0.021,0.001,0.078-0.01,0.096,0c0.016,0.008-0.012,0.085,0,0.097
		c0.018,0.017,0.08-0.015,0.098,0c0.016,0.014-0.015,0.081,0,0.097c0.014,0.013,0.087-0.016,0.096,0
		c0.016,0.021-0.015,0.077,0,0.097c0.015,0.016,0.082-0.016,0.099,0c0.016,0.016-0.013,0.077,0,0.097h0.097
		c0.023,0,0.075-0.01,0.096,0c0.014,0.005-0.009,0.086,0,0.096c0.018,0.017,0.08-0.016,0.098,0c0.017,0.015-0.016,0.082,0,0.098
		c0.014,0.013,0.087-0.016,0.097,0c0.012,0.015-0.015,0.084,0,0.096c0.019,0.015,0.081-0.016,0.097,0
		c0.011,0.011-0.012,0.091,0,0.097c0.021,0.01,0.074,0,0.098,0c0.016,0,0.084-0.01,0.097,0c0.017,0.012-0.014,0.082,0,0.097
		c0.014,0.013,0.087-0.015,0.097,0c0.012,0.016-0.016,0.084,0,0.096c0.02,0.015,0.08-0.015,0.097,0c0.017,0.017-0.016,0.081,0,0.097
		c0.017,0.017,0.081-0.016,0.097,0c0.015,0.015-0.016,0.086,0,0.098c0.015,0.008,0.079,0,0.097,0c0.012,0,0.091-0.009,0.098,0
		c0.013,0.016-0.017,0.083,0,0.096c0.019,0.015,0.08-0.016,0.097,0c0.014,0.013-0.016,0.086,0,0.096c0.02,0.014,0.08-0.016,0.097,0
		c0.017,0.018-0.017,0.081,0,0.098c0.014,0.013,0.086-0.016,0.097,0c0.015,0.022-0.012,0.072,0,0.096h0.098
		c0.011,0,0.09-0.008,0.096,0c0.015,0.018-0.017,0.081,0,0.097c0.018,0.016,0.081-0.016,0.097,0c0.017,0.016-0.016,0.084,0,0.097
		c0.019,0.015,0.081-0.016,0.098,0c0.014,0.014-0.016,0.087,0,0.097c0.021,0.014,0.077-0.016,0.097,0
		c0.017,0.014-0.016,0.081,0,0.097c0.017,0.017,0.078-0.013,0.097,0H29.803z"/>
	<path display="inline" fill-rule="evenodd" clip-rule="evenodd" fill="#797052" d="M24.671,14.143h-0.193h-0.097h-0.194
		c-0.024,0-0.075-0.01-0.097,0c-0.012,0.005,0.01,0.086,0,0.097c-0.016,0.016-0.078-0.013-0.097,0H23.8h-0.194h-0.098h-0.192
		c-0.021,0.013-0.081-0.016-0.097,0c-0.014,0.013,0.016,0.087,0,0.096c-0.02,0.013-0.074-0.005-0.097,0
		c-0.028,0.006-0.068,0-0.098,0h-0.097h-0.097h-0.193c-0.013-0.019,0.015-0.08,0-0.096c-0.009-0.01-0.083,0.001-0.097,0
		c-0.022-0.001-0.078,0.01-0.098,0c-0.014-0.008,0.013-0.085,0-0.097c-0.016-0.017-0.078,0.016-0.096,0
		c-0.018-0.014,0.014-0.081,0-0.097c-0.015-0.013-0.088,0.016-0.098,0c-0.014-0.021,0.017-0.078,0-0.097
		c-0.014-0.016-0.082,0.016-0.098,0c-0.014-0.015,0.018-0.083,0-0.097c-0.01-0.009-0.082,0-0.096,0c-0.012,0-0.091,0.009-0.097,0
		c-0.015-0.018,0.016-0.08,0-0.096c-0.017-0.016-0.081,0.016-0.099,0c-0.015-0.016,0.018-0.082,0-0.097
		c-0.016-0.016-0.079,0.016-0.096,0c-0.016-0.016,0.017-0.08,0-0.097c-0.016-0.016-0.08,0.017-0.097,0
		c-0.017-0.016,0.013-0.077,0-0.097h-0.097c-0.023,0-0.076,0.01-0.098,0c-0.012-0.006,0.01-0.086,0-0.096
		c-0.016-0.017-0.079,0.015-0.096,0c-0.018-0.016,0.016-0.082,0-0.098c-0.014-0.013-0.087,0.016-0.097,0
		c-0.012-0.016,0.015-0.085,0-0.097c-0.02-0.013-0.081,0.017-0.098,0c-0.01-0.01,0.013-0.091,0-0.096c-0.021-0.009-0.073,0-0.097,0
		c-0.018,0-0.084,0.009-0.097,0c-0.016-0.012,0.015-0.082,0-0.097c-0.014-0.014-0.087,0.016-0.097,0
		c-0.012-0.018,0.016-0.084,0-0.098c-0.019-0.013-0.08,0.018-0.097,0c-0.017-0.015,0.017-0.079,0-0.095
		c-0.017-0.017-0.081,0.016-0.097,0c-0.014-0.015,0.016-0.086,0-0.097c-0.014-0.01-0.08,0-0.098,0c-0.011,0-0.09,0.008-0.097,0
		c-0.013-0.017,0.017-0.083,0-0.098c-0.018-0.014-0.08,0.018-0.097,0c-0.014-0.013,0.016-0.087,0-0.096
		c-0.02-0.013-0.08,0.016-0.097,0s0.017-0.081,0-0.097c-0.014-0.014-0.086,0.015-0.097,0c-0.016-0.023,0.012-0.073,0-0.097H20.12
		c-0.024,0-0.076,0.01-0.097,0c-0.013-0.006,0.01-0.086,0-0.097c-0.017-0.016-0.082,0.016-0.098,0c-0.016-0.015,0.016-0.081,0-0.096
		c-0.014-0.014-0.086,0.015-0.098,0c-0.01-0.017,0.017-0.085,0-0.098c-0.018-0.014-0.079,0.018-0.096,0
		c-0.014-0.013,0.016-0.086,0-0.096c-0.022-0.015-0.072,0.013-0.098,0c-0.019-0.011-0.08,0.015-0.096,0
		c-0.015-0.013,0.016-0.086,0-0.097c-0.021-0.014-0.078,0.016-0.098,0c-0.016-0.014,0.014-0.079,0-0.097h0.098
		c0.027,0,0.068,0.007,0.096,0c0.018-0.004,0.086,0.013,0.098,0c0.008-0.007-0.008-0.096,0-0.097c0.029-0.006,0.066,0,0.096,0h0.098
		h0.194h0.193h0.097h0.097c0.012,0,0.091,0.008,0.097,0c0.017-0.019-0.012-0.074,0-0.096h0.194h0.193h0.097h0.194h0.097h0.096
		c0.012,0,0.092-0.008,0.098,0c0.016,0.018-0.012,0.074,0,0.096c0.02,0.013,0.08-0.015,0.097,0c0.014,0.014-0.015,0.086,0,0.097
		c0.02,0.013,0.081-0.017,0.097,0c0.017,0.017-0.016,0.081,0,0.097c0.014,0.013,0.088-0.016,0.096,0
		c0.012,0.017-0.014,0.085,0,0.097c0.013,0.009,0.082,0,0.099,0c0.011,0,0.091-0.008,0.097,0c0.014,0.018-0.017,0.081,0,0.096
		c0.017,0.017,0.08-0.016,0.096,0c0.016,0.016-0.016,0.084,0,0.098c0.02,0.014,0.082-0.018,0.098,0c0.014,0.013-0.016,0.087,0,0.096
		c0.022,0.015,0.074-0.014,0.098,0c0.014,0.01-0.015,0.083,0,0.097c0.008,0.01,0.082-0.001,0.096,0c0.018,0.001,0.084-0.01,0.098,0
		c0.016,0.013-0.016,0.082,0,0.097c0.013,0.014,0.087-0.015,0.097,0c0.013,0.021-0.017,0.077,0,0.097
		c0.013,0.016,0.082-0.016,0.097,0c0.016,0.014-0.017,0.083,0,0.096c0.019,0.015,0.08-0.015,0.097,0
		c0.014,0.015-0.016,0.087,0,0.098c0.022,0.014,0.073-0.016,0.097,0c0.016,0.01-0.014,0.083,0,0.097c0.01,0.008,0.083-0.001,0.097,0
		c0.017,0,0.085-0.01,0.098,0c0.016,0.012-0.016,0.081,0,0.095c0.013,0.015,0.086-0.014,0.097,0c0.014,0.022-0.016,0.078,0,0.098
		c0.014,0.016,0.081-0.016,0.097,0c0.015,0.016-0.017,0.084,0,0.097c0.019,0.014,0.081-0.017,0.097,0
		c0.014,0.013-0.016,0.086,0,0.096c0.022,0.016,0.072-0.013,0.096,0c0.02,0.012,0.083-0.014,0.098,0
		c0.014,0.014-0.016,0.087,0,0.097c0.021,0.015,0.078-0.016,0.098,0c0.016,0.015-0.016,0.082,0,0.098
		c0.013,0.013,0.086-0.016,0.097,0c0.014,0.02-0.017,0.077,0,0.096c0.013,0.017,0.081-0.015,0.097,0
		c0.016,0.017-0.014,0.077,0,0.097h0.097c0.012,0,0.09-0.007,0.097,0c0.012,0.014-0.015,0.088,0,0.097
		c0.02,0.012,0.08-0.016,0.097,0c0.015,0.013-0.015,0.086,0,0.097c0.022,0.014,0.077-0.016,0.097,0c0.017,0.012-0.015,0.082,0,0.096
		c0.014,0.014,0.087-0.016,0.098,0c0.01,0.017-0.016,0.086,0,0.097c0.012,0.009,0.08,0,0.097,0c0.012,0,0.091-0.008,0.097,0
		c0.016,0.019-0.014,0.075,0,0.097c0.02,0.012,0.08-0.016,0.097,0C24.688,14.062,24.658,14.123,24.671,14.143"/>
	<path display="inline" fill-rule="evenodd" clip-rule="evenodd" fill="#797052" d="M19.539,14.724h-0.193h-0.097h-0.194h-0.193
		c-0.023,0-0.075-0.009-0.098,0c-0.012,0.005,0.011,0.087,0,0.097c-0.016,0.016-0.078-0.013-0.096,0h-0.194H18.28h-0.097h-0.194
		c-0.027,0-0.069-0.007-0.097,0c-0.01,0.003,0.008,0.089,0,0.095c-0.01,0.01-0.082,0-0.098,0c-0.031,0.003-0.064,0-0.096,0h-0.193
		c-0.014-0.018,0.016-0.079,0-0.095c-0.014-0.013-0.087,0.015-0.098,0c-0.008-0.011,0.011-0.092,0-0.097c-0.02-0.01-0.074,0-0.098,0
		c-0.015,0-0.085,0.009-0.096,0c-0.016-0.013,0.016-0.082,0-0.097c-0.014-0.013-0.086,0.016-0.097,0
		c-0.015-0.02,0.016-0.078,0-0.096c-0.015-0.017-0.082,0.014-0.097,0c-0.015-0.016,0.016-0.084,0-0.097
		c-0.019-0.016-0.082,0.017-0.097,0c-0.015-0.015,0.015-0.088,0-0.098c-0.022-0.014-0.074,0.015-0.097,0
		c-0.02-0.012-0.081,0.016-0.098,0c-0.015-0.014,0.017-0.085,0-0.096c-0.019-0.014-0.08,0.016-0.097,0
		c-0.014-0.014,0.016-0.086,0-0.097c-0.021-0.014-0.078,0.016-0.097,0c-0.016-0.014,0.016-0.081,0-0.097
		c-0.016-0.016-0.078,0.016-0.098,0c-0.016-0.013,0.016-0.082,0-0.097c-0.009-0.009-0.082,0.001-0.096,0
		c-0.022,0-0.078,0.01-0.097,0c-0.015-0.008,0.012-0.084,0-0.097c-0.017-0.017-0.079,0.016-0.097,0
		c-0.018-0.014,0.015-0.081,0-0.096c-0.015-0.014-0.088,0.016-0.098,0c-0.014-0.021,0.016-0.078,0-0.097
		c-0.014-0.016-0.081,0.015-0.098,0c-0.014-0.016,0.018-0.083,0-0.097c-0.011-0.009-0.08,0-0.096,0c-0.012,0-0.092,0.008-0.098,0
		c-0.014-0.018,0.018-0.081,0-0.097c-0.016-0.015-0.08,0.017-0.096,0c-0.017-0.015,0.016-0.082,0-0.096
		c-0.018-0.016-0.081,0.015-0.097,0c-0.017-0.017,0.016-0.082,0-0.098c-0.017-0.016-0.081,0.016-0.097,0
		c-0.016-0.016,0.013-0.077,0-0.097h-0.098c-0.012,0-0.09,0.008-0.097,0c-0.015-0.017,0.017-0.08,0-0.096s-0.081,0.016-0.097,0
		s0.016-0.082,0-0.097c-0.017-0.017-0.081,0.015-0.097,0c-0.017-0.017,0.016-0.08,0-0.098c-0.017-0.015-0.081,0.018-0.098,0
		c-0.016-0.015,0.013-0.076,0-0.096h-0.097c-0.012,0-0.091,0.008-0.096,0c-0.013-0.014,0.014-0.087,0-0.096
		c-0.021-0.013-0.081,0.015-0.098,0c-0.014-0.014,0.016-0.087,0-0.098c-0.021-0.015-0.076,0.016-0.097,0
		c-0.017-0.012,0.014-0.082,0-0.097c-0.014-0.013-0.087,0.016-0.097,0c-0.008-0.01,0.01-0.091,0-0.096c-0.021-0.01-0.074,0-0.097,0
		h-0.097c0.012-0.019-0.017-0.081,0-0.097c0.015-0.016,0.08,0.016,0.097,0c0.016-0.016-0.017-0.081,0-0.097
		c0.012-0.012,0.078,0.005,0.097,0c0.025-0.007,0.068,0,0.097,0h0.097h0.193h0.194h0.097c0.012,0,0.09,0.007,0.097,0
		c0.016-0.019-0.013-0.075,0-0.096h0.194h0.097h0.192h0.098h0.096c0.029,0,0.07,0.007,0.098,0c0.018-0.005,0.085,0.011,0.098,0
		c0.016-0.017-0.014-0.077,0-0.098h0.193c0.012,0.021-0.017,0.081,0,0.098c0.016,0.015,0.08-0.016,0.096,0
		c0.017,0.015-0.016,0.081,0,0.096c0.017,0.016,0.082-0.016,0.098,0c0.017,0.016-0.016,0.081,0,0.097
		c0.017,0.016,0.079-0.015,0.097,0c0.017,0.014-0.016,0.082,0,0.097c0.017,0.016,0.077-0.013,0.097,0c0.02,0.013,0.08-0.016,0.098,0
		c0.015,0.014-0.018,0.083,0,0.096c0.018,0.016,0.079-0.015,0.097,0c0.015,0.017-0.017,0.082,0,0.097
		c0.015,0.017,0.08-0.015,0.097,0c0.016,0.016-0.018,0.082,0,0.098c0.018,0.015,0.079-0.017,0.097,0
		c0.014,0.012-0.017,0.086,0,0.096c0.021,0.014,0.076-0.016,0.097,0c0.02,0.015,0.08-0.016,0.096,0c0.017,0.017-0.015,0.081,0,0.096
		c0.017,0.018,0.082-0.015,0.098,0c0.016,0.017-0.016,0.082,0,0.098c0.018,0.015,0.08-0.017,0.098,0
		c0.014,0.014-0.016,0.087,0,0.097c0.021,0.014,0.076-0.016,0.095,0c0.019,0.012-0.014,0.083,0,0.096
		c0.019,0.017,0.079-0.013,0.099,0c0.02,0.013,0.08-0.015,0.096,0c0.016,0.015-0.016,0.086,0,0.097c0.02,0.015,0.081-0.016,0.098,0
		c0.014,0.015-0.016,0.087,0,0.098c0.021,0.014,0.077-0.016,0.097,0c0.017,0.012-0.015,0.081,0,0.096
		c0.017,0.017,0.081-0.016,0.097,0c0.016,0.017-0.016,0.081,0,0.097c0.015,0.016,0.078-0.012,0.098,0
		c0.019,0.012,0.08-0.016,0.097,0c0.014,0.014-0.015,0.086,0,0.097c0.021,0.014,0.077-0.016,0.097,0
		c0.016,0.012-0.016,0.082,0,0.097c0.016,0.016,0.08-0.016,0.097,0c0.017,0.016-0.017,0.08,0,0.096c0.017,0.017,0.078-0.012,0.097,0
		c0.017,0.011-0.014,0.084,0,0.097c0.01,0.009,0.083,0,0.098,0c0.016,0.002,0.084-0.009,0.096,0c0.016,0.013-0.014,0.083,0,0.097
		c0.016,0.016,0.081-0.016,0.098,0c0.016,0.016-0.017,0.08,0,0.097c0.016,0.016,0.082-0.017,0.097,0c0.015,0.018-0.017,0.08,0,0.097
		c0.014,0.013,0.087-0.015,0.097,0c0.012,0.017-0.016,0.084,0,0.096c0.01,0.01,0.082,0,0.097,0c0.023,0,0.074-0.008,0.098,0
		c0.012,0.006-0.011,0.086,0,0.098c0.016,0.016,0.079-0.016,0.097,0c0.016,0.015-0.016,0.08,0,0.097
		c0.014,0.012,0.086-0.017,0.097,0c0.015,0.021-0.013,0.071,0,0.096c0.019,0.013,0.079-0.015,0.097,0
		C19.555,14.643,19.525,14.704,19.539,14.724"/>
	<path display="inline" fill-rule="evenodd" clip-rule="evenodd" fill="#797052" d="M11.889,13.271h0.193
		c0.014,0.021-0.016,0.081,0,0.098c0.018,0.015,0.08-0.017,0.097,0c0.017,0.015-0.017,0.08,0,0.096c0.017,0.017,0.082-0.016,0.098,0
		c0.016,0.017-0.016,0.081,0,0.097c0.016,0.017,0.081-0.016,0.098,0c0.016,0.017-0.017,0.081,0,0.097
		c0.016,0.016,0.077-0.016,0.097,0c0.018,0.015,0.08-0.016,0.097,0c0.016,0.016-0.017,0.081,0,0.097
		c0.016,0.016,0.081-0.016,0.097,0s-0.016,0.08,0,0.096c0.016,0.017,0.08-0.016,0.097,0c0.017,0.017-0.017,0.081,0,0.097
		c0.017,0.016,0.081-0.016,0.097,0c0.017,0.016-0.013,0.078,0,0.097h0.098c0.022,0,0.074-0.008,0.097,0
		c0.012,0.005-0.011,0.087,0,0.097c0.015,0.017,0.079-0.016,0.097,0c0.016,0.016-0.016,0.081,0,0.097
		c0.012,0.013,0.086-0.015,0.096,0c0.012,0.016-0.014,0.085,0,0.096c0.02,0.015,0.081-0.015,0.098,0c0.01,0.01-0.014,0.092,0,0.098
		c0.021,0.009,0.074,0,0.097,0c0.017,0,0.084-0.01,0.097,0c0.016,0.012-0.015,0.082,0,0.097c0.014,0.012,0.086-0.017,0.097,0
		c0.012,0.016-0.015,0.084,0,0.096c0.019,0.015,0.081-0.016,0.097,0s-0.016,0.081,0,0.097c0.016,0.017,0.081-0.016,0.098,0
		c0.013,0.014-0.017,0.086,0,0.097c0.013,0.009,0.08,0,0.096,0c0.013,0,0.092-0.008,0.098,0c0.014,0.016-0.016,0.084,0,0.096
		c0.018,0.016,0.08-0.016,0.097,0c0.014,0.014-0.016,0.087,0,0.097c0.02,0.013,0.081-0.015,0.097,0c0.016,0.017-0.016,0.081,0,0.098
		c0.014,0.013,0.086-0.016,0.097,0c0.015,0.022-0.012,0.072,0,0.097c0.008,0.005,0.095-0.008,0.098,0s0.005,0.09,0,0.096
		c-0.01,0.01-0.083-0.001-0.098,0c-0.031,0.002-0.063-0.002-0.097,0c-0.031,0.002-0.064,0-0.097,0H14.02h-0.193h-0.098h-0.193
		c-0.013,0.019,0.016,0.081,0,0.097c-0.009,0.01-0.082,0-0.097,0c-0.032,0.001-0.065-0.002-0.097,0c-0.031,0.001-0.064,0-0.098,0
		h-0.096h-0.388c0.013,0.019-0.017,0.081,0,0.097c0.009,0.009,0.082,0,0.097,0c0.032,0.001,0.064-0.002,0.098,0
		c0.031,0.001,0.063,0,0.097,0h0.097h0.387h0.193h0.193h0.098h0.193h0.097c0.017,0,0.083-0.01,0.098,0
		c0.015,0.01-0.012,0.082,0,0.096c-0.021,0.013-0.082-0.016-0.098,0c-0.013,0.014,0.016,0.087,0,0.097
		c-0.021,0.015-0.077-0.016-0.097,0c-0.016,0.014,0.016,0.082,0,0.098c-0.016,0.015-0.08-0.017-0.097,0
		c-0.016,0.015,0.017,0.081,0,0.096c-0.016,0.017-0.081-0.016-0.097,0c-0.016,0.017,0.016,0.08,0,0.097
		c-0.016,0.016-0.08-0.017-0.098,0c-0.016,0.016,0.018,0.081,0,0.097c-0.016,0.015-0.08-0.017-0.096,0
		c-0.017,0.015,0.016,0.081,0,0.096c-0.017,0.017-0.082-0.015-0.098,0c-0.016,0.017,0.016,0.081,0,0.097
		c-0.016,0.017-0.081-0.016-0.097,0c-0.017,0.017,0.016,0.081,0,0.097c-0.017,0.016-0.077-0.013-0.097,0
		c-0.013,0.019,0.016,0.082,0,0.097c-0.014,0.014-0.086-0.015-0.097,0c-0.015,0.022,0.015,0.077,0,0.097
		c-0.015,0.017-0.081-0.016-0.097,0c-0.016,0.017,0.016,0.08,0,0.097c-0.016,0.016-0.081-0.017-0.098,0
		c-0.014,0.013,0.016,0.087,0,0.096c-0.021,0.015-0.077-0.016-0.096,0c-0.018,0.014,0.014,0.082,0,0.097
		c-0.017,0.017-0.078-0.013-0.097,0c-0.015,0.02,0.015,0.081,0,0.097c-0.015,0.013-0.087-0.015-0.097,0
		c-0.016,0.022,0.011,0.073,0,0.096c-0.021,0.014-0.081-0.015-0.098,0c-0.016,0.017,0.017,0.081,0,0.098
		c-0.016,0.016-0.08-0.017-0.097,0c-0.017,0.016,0.017,0.08,0,0.097c-0.017,0.016-0.081-0.017-0.097,0
		c-0.016,0.016,0.016,0.08,0,0.096c-0.016,0.017-0.081-0.016-0.097,0c-0.017,0.017,0.016,0.081,0,0.097
		c-0.017,0.017-0.081-0.016-0.097,0c-0.018,0.017,0.016,0.081,0,0.098c-0.018,0.015-0.081-0.017-0.097,0
		c-0.017,0.015,0.016,0.08,0,0.096c-0.017,0.016-0.082-0.016-0.098,0s0.016,0.08,0,0.096c-0.016,0.017-0.081-0.016-0.098,0
		c-0.017,0.017,0.018,0.082,0,0.098c-0.017,0.015-0.076-0.014-0.097,0v-0.194v-0.096v-0.388v-0.388v-0.193V16.37v-0.097V16.08
		v-0.388v-0.387v-0.193v-0.098v-0.193v-0.097c-0.019-0.013-0.08,0.017-0.096,0c-0.014-0.013,0.005-0.079,0-0.097
		c-0.008-0.025,0-0.07,0-0.096v-0.097v-0.098v-0.193v-0.194c-0.014-0.019,0.016-0.08,0-0.097c-0.014-0.013-0.087,0.017-0.098,0
		c-0.012-0.018,0.006-0.074,0-0.096c-0.006-0.029,0-0.068,0-0.097v-0.097v-0.097V13.271z"/>
	<path display="inline" fill-rule="evenodd" clip-rule="evenodd" fill="#797052" d="M19.346,15.499h0.097
		c0.013,0,0.089-0.008,0.097,0c0.003,0.003,0.003,0.094,0,0.097c-0.017,0.016-0.078-0.013-0.097,0c-0.013,0.019,0.016,0.081,0,0.096
		c-0.017,0.017-0.081-0.015-0.097,0c-0.016,0.017,0.016,0.081,0,0.098c-0.016,0.016-0.083-0.018-0.097,0
		c-0.017,0.017,0.016,0.079,0,0.097c-0.015,0.013-0.087-0.016-0.098,0c-0.013,0.019,0.016,0.08,0,0.096
		c-0.016,0.016-0.081-0.016-0.097,0c-0.018,0.016,0.016,0.08,0,0.097c-0.018,0.016-0.081-0.017-0.097,0
		c-0.016,0.016,0.017,0.082,0,0.097c-0.019,0.015-0.081-0.016-0.097,0c-0.014,0.013,0.016,0.087,0,0.096
		c-0.022,0.015-0.072-0.011-0.098,0c-0.012,0.02,0.016,0.081,0,0.097c-0.016,0.017-0.077-0.013-0.096,0
		c-0.014,0.02,0.016,0.082,0,0.098c-0.014,0.013-0.087-0.016-0.098,0c-0.015,0.021,0.013,0.072,0,0.096
		c-0.019,0.013-0.08-0.016-0.097,0c-0.014,0.013,0.016,0.086,0,0.097c-0.021,0.014-0.078-0.016-0.097,0
		c-0.017,0.014,0.015,0.081,0,0.097c-0.017,0.016-0.08-0.017-0.097,0c-0.017,0.016,0.017,0.081,0,0.096
		c-0.014,0.014-0.087-0.014-0.097,0c-0.016,0.021,0.016,0.079,0,0.097c-0.015,0.017-0.082-0.014-0.098,0
		c-0.016,0.017,0.013,0.078,0,0.097c-0.019,0.014-0.08-0.016-0.097,0c-0.013,0.014,0.017,0.088,0,0.097
		c-0.019,0.013-0.082-0.016-0.097,0c-0.016,0.016,0.015,0.081,0,0.097c-0.014,0.014-0.087-0.014-0.098,0
		c-0.015,0.023,0.013,0.072,0,0.097c-0.019,0.014-0.08-0.017-0.096,0c-0.017,0.016,0.013,0.077,0,0.097
		c-0.02,0.013-0.08-0.016-0.098,0c-0.013,0.013,0.016,0.085,0,0.097c-0.02,0.013-0.08-0.016-0.096,0
		c-0.016,0.016,0.016,0.08,0,0.097c-0.014,0.013-0.087-0.017-0.099,0c-0.011,0.018,0.017,0.08,0,0.096
		c-0.015,0.016-0.079-0.016-0.096,0c-0.014,0.014,0.015,0.086,0,0.097c-0.021,0.014-0.077-0.016-0.097,0
		c-0.017,0.014,0.016,0.082,0,0.097c-0.016,0.017-0.081-0.016-0.098,0c-0.015,0.016,0.017,0.081,0,0.097
		c-0.014,0.013-0.085-0.015-0.096,0c-0.014,0.021,0.016,0.078,0,0.096c-0.014,0.017-0.082-0.014-0.097,0
		c-0.018,0.017,0.016,0.081,0,0.098c-0.018,0.016-0.081-0.017-0.097,0c-0.014,0.013,0.016,0.086,0,0.097
		c-0.021,0.013-0.078-0.016-0.098,0c-0.016,0.013,0.016,0.081,0,0.096c-0.016,0.016-0.077-0.012-0.097,0v0.195h0.388h0.386h0.388
		h0.194h0.194h0.097h0.193h0.194h0.096h0.388h0.194h0.097h0.192c0.014-0.021-0.016-0.082,0-0.098c0.015-0.013,0.088,0.016,0.098,0
		c0.014-0.021-0.017-0.078,0-0.097c0.014-0.016,0.082,0.015,0.096,0c0.018-0.016-0.015-0.08,0-0.096
		c0.017-0.016,0.082,0.015,0.098,0c0.017-0.016-0.016-0.081,0-0.097c0.017-0.017,0.081,0.016,0.098,0
		c0.016-0.017-0.017-0.081,0-0.098c0.016-0.015,0.08,0.016,0.096,0c0.017-0.015-0.016-0.08,0-0.096c0.017-0.017,0.082,0.016,0.098,0
		c0.016-0.017-0.016-0.08,0-0.097c0.016-0.017,0.08,0.017,0.097,0c0.017-0.017-0.017-0.081,0-0.097c0.017-0.016,0.081,0.016,0.097,0
		c0.017-0.016-0.013-0.078,0-0.097c0.02-0.012,0.08,0.016,0.097,0c0.014-0.012-0.015-0.086,0-0.096c0.021-0.014,0.078,0.015,0.097,0
		c0.016-0.014-0.015-0.082,0-0.097c0.016-0.016,0.08,0.016,0.098,0c0.016-0.016-0.016-0.082,0-0.097c0.016-0.016,0.08,0.016,0.097,0
		s-0.017-0.081,0-0.097c0.017-0.017,0.077,0.014,0.097,0c0.013-0.02-0.016-0.08,0-0.097c0.014-0.014,0.086,0.015,0.098,0
		c0.014-0.021-0.017-0.077,0-0.097c0.013-0.016,0.08,0.015,0.096,0c0.017-0.016-0.016-0.081,0-0.097
		c0.017-0.016,0.081,0.016,0.097,0c0.015-0.013-0.015-0.086,0-0.097c0.021-0.013,0.078,0.017,0.098,0
		c0.017-0.013-0.016-0.081,0-0.097c0.016-0.015,0.077,0.013,0.097,0c0.014-0.018-0.016-0.08,0-0.096
		c0.014-0.013,0.086,0.015,0.096,0c0.016-0.023-0.012-0.072,0-0.097c0.02-0.013,0.081,0.017,0.098,0c0.016-0.016-0.017-0.08,0-0.097
		c0.016-0.016,0.081,0.017,0.097,0c0.017-0.015-0.017-0.082,0-0.096c0.018-0.016,0.081,0.016,0.097,0
		c0.014-0.014-0.015-0.087,0-0.098c0.021-0.015,0.072,0.013,0.097,0c0.013-0.019-0.016-0.08,0-0.097
		c0.015-0.013,0.087,0.016,0.098,0c0.014-0.02-0.017-0.077,0-0.096c0.014-0.016,0.081,0.015,0.097,0c0.017-0.016-0.016-0.08,0-0.097
		c0.015-0.017,0.081,0.016,0.097,0c0.017-0.017-0.017-0.081,0-0.097c0.017-0.016,0.081,0.016,0.097,0
		c0.017-0.016-0.016-0.08,0-0.096c0.017-0.017,0.081,0.016,0.098,0c0.016-0.017-0.018-0.081,0-0.097c0.016-0.017,0.08,0.016,0.096,0
		c0.017-0.017-0.016-0.081,0-0.098c0.017-0.015,0.08,0.017,0.098,0c0.016-0.015-0.018-0.08,0-0.096c0.016-0.017,0.08,0.016,0.097,0
		c0.015-0.017-0.013-0.077,0-0.097h0.388h0.193h0.193h0.193h0.098h0.193h0.193h0.097h0.388h0.193c-0.013,0.02,0.016,0.08,0,0.097
		c-0.014,0.013-0.086-0.016-0.097,0c-0.015,0.021,0.017,0.077,0,0.096c-0.015,0.018-0.082-0.014-0.097,0
		c-0.018,0.018,0.016,0.08,0,0.098c-0.016,0.016-0.08-0.017-0.097,0c-0.017,0.016,0.017,0.08,0,0.097
		c-0.017,0.016-0.081-0.017-0.097,0c-0.018,0.016,0.016,0.08,0,0.096c-0.017,0.016-0.081-0.016-0.098,0
		c-0.016,0.016,0.017,0.08,0,0.097c-0.016,0.016-0.08-0.017-0.097,0c-0.017,0.016,0.017,0.081,0,0.097
		c-0.017,0.016-0.08-0.016-0.097,0c-0.016,0.016,0.017,0.081,0,0.096c-0.016,0.017-0.081-0.015-0.098,0
		c-0.015,0.017,0.014,0.078,0,0.097c-0.019,0.014-0.08-0.016-0.096,0c-0.014,0.015,0.016,0.087,0,0.098
		c-0.02,0.012-0.081-0.016-0.097,0c-0.017,0.015,0.016,0.08,0,0.096c-0.015,0.013-0.087-0.015-0.097,0
		c-0.014,0.02,0.016,0.081,0,0.097c-0.017,0.017-0.082-0.016-0.098,0c-0.014,0.014,0.016,0.087,0,0.097
		c-0.02,0.012-0.08-0.017-0.098,0c-0.016,0.016,0.018,0.081,0,0.096c-0.014,0.014-0.086-0.014-0.096,0
		c-0.013,0.02,0.017,0.082,0,0.097c-0.016,0.017-0.081-0.015-0.097,0c-0.014,0.014,0.016,0.087,0,0.097
		c-0.021,0.014-0.081-0.016-0.097,0c-0.016,0.016,0.016,0.081,0,0.097c-0.014,0.014-0.088-0.015-0.098,0
		c-0.013,0.02,0.017,0.081,0,0.097c-0.016,0.017-0.08-0.016-0.096,0c-0.015,0.014,0.015,0.086,0,0.097
		c-0.02,0.014-0.082-0.017-0.098,0c-0.016,0.016,0.016,0.081,0,0.097c-0.014,0.013-0.086-0.016-0.097,0
		c-0.015,0.022,0.012,0.073,0,0.097c-0.02,0.013-0.081-0.016-0.097,0c-0.014,0.013,0.016,0.086,0,0.097
		c-0.02,0.012-0.082-0.017-0.097,0c-0.017,0.015,0.015,0.08,0,0.096c-0.015,0.014-0.087-0.016-0.097,0
		c-0.014,0.019,0.016,0.082,0,0.097c-0.018,0.016-0.081-0.016-0.098,0c-0.013,0.014,0.016,0.087,0,0.097
		c-0.021,0.014-0.076-0.017-0.096,0c-0.018,0.014,0.015,0.082,0,0.097c-0.018,0.016-0.081-0.017-0.098,0
		c-0.016,0.016,0.017,0.081,0,0.096c-0.014,0.014-0.086-0.014-0.097,0c-0.013,0.02,0.017,0.081,0,0.098
		c-0.017,0.016-0.08-0.017-0.097,0c-0.014,0.013,0.015,0.086,0,0.097c-0.02,0.012-0.082-0.016-0.097,0
		c-0.017,0.016,0.016,0.08,0,0.096c-0.014,0.013-0.087-0.016-0.098,0c-0.015,0.022,0.017,0.077,0,0.097
		c-0.013,0.017-0.081-0.016-0.097,0s0.013,0.077,0,0.098h0.388h0.388h0.387h0.193h0.194h0.097h0.193h0.387h0.389h0.29h0.193
		c0.014-0.021-0.016-0.082,0-0.098c0.014-0.013,0.087,0.016,0.097,0c0.014-0.021-0.016-0.078,0-0.097
		c0.014-0.016,0.082,0.015,0.098,0c0.016-0.016-0.016-0.081,0-0.096c0.016-0.016,0.08,0.015,0.097,0
		c0.013-0.014-0.016-0.087,0-0.097c0.021-0.015,0.078,0.016,0.097,0c0.017-0.015-0.016-0.082,0-0.098
		c0.017-0.015,0.08,0.017,0.096,0c0.018-0.015-0.016-0.08,0-0.096c0.015-0.014,0.087,0.015,0.098,0c0.015-0.021-0.016-0.078,0-0.097
		c0.014-0.017,0.082,0.016,0.097,0c0.017-0.017-0.016-0.081,0-0.097c0.017-0.016,0.081,0.016,0.097,0
		c0.015-0.013-0.016-0.087,0-0.097c0.021-0.013,0.078,0.016,0.098,0c0.016-0.013-0.016-0.081,0-0.096
		c0.016-0.017,0.077,0.012,0.097,0c0.013-0.02-0.017-0.081,0-0.097c0.014-0.014,0.086,0.016,0.097,0
		c0.015-0.023-0.012-0.073,0-0.097c0.02-0.012,0.081,0.016,0.097,0c0.014-0.014-0.015-0.086,0-0.097
		c0.022-0.016,0.073,0.012,0.097,0c0.014-0.02-0.016-0.08,0-0.097c0.014-0.014,0.087,0.015,0.098,0c0.014-0.021-0.018-0.077,0-0.097
		c0.013-0.016,0.081,0.015,0.096,0c0.018-0.016-0.016-0.08,0-0.097c0.016-0.016,0.082,0.015,0.098,0c0.016-0.016-0.017-0.08,0-0.097
		c0.016-0.015,0.08,0.017,0.097,0c0.017-0.015-0.013-0.077,0-0.097c0.02-0.012,0.08,0.017,0.097,0c0.014-0.013-0.016-0.085,0-0.096
		c0.022-0.015,0.073,0.012,0.096,0c0.015-0.02-0.015-0.08,0-0.097c0.015-0.013,0.088,0.016,0.099,0c0.015-0.022-0.013-0.072,0-0.097
		c0.019-0.013,0.081,0.017,0.097,0c0.014-0.013-0.016-0.086,0-0.096c0.019-0.014,0.08,0.015,0.096,0
		c0.017-0.016-0.016-0.081,0-0.098c0.015-0.013,0.087,0.016,0.098,0c0.013-0.018-0.016-0.081,0-0.097
		c0.017-0.015,0.08,0.017,0.097,0c0.013-0.013-0.016-0.086,0-0.096c0.021-0.014,0.078,0.016,0.097,0
		c0.018-0.014-0.015-0.082,0-0.097c0.017-0.017,0.08,0.016,0.096,0c0.018-0.016-0.016-0.081,0-0.097
		c0.015-0.013,0.088,0.016,0.098,0c0.014-0.021-0.016-0.077,0-0.096c0.014-0.017,0.082,0.014,0.096,0
		c0.018-0.017-0.015-0.081,0-0.097c0.018-0.017,0.082,0.016,0.099,0c0.014-0.014-0.016-0.087,0-0.098
		c0.021-0.012,0.077,0.017,0.097,0c0.016-0.012-0.016-0.081,0-0.096c0.016-0.017,0.078,0.012,0.098,0c0.012-0.02-0.017-0.08,0-0.097
		c0.012-0.013,0.078,0.006,0.096,0c0.026-0.008,0.069,0,0.097,0h0.097h0.098h0.193h0.388h0.193h0.194h0.096h0.388H29.9
		c-0.013,0.02,0.016,0.08,0,0.097c-0.015,0.013-0.087-0.016-0.098,0c-0.012,0.019,0.017,0.081,0,0.096
		c-0.016,0.017-0.08-0.015-0.097,0c-0.014,0.014,0.015,0.087,0,0.098c-0.019,0.012-0.08-0.017-0.097,0
		c-0.017,0.016,0.017,0.08,0,0.097c-0.014,0.013-0.086-0.016-0.097,0c-0.013,0.019,0.016,0.08,0,0.096
		c-0.017,0.016-0.081-0.016-0.098,0c-0.013,0.014,0.017,0.087,0,0.097c-0.019,0.013-0.079-0.017-0.097,0
		c-0.016,0.016,0.018,0.081,0,0.097c-0.014,0.013-0.086-0.015-0.096,0c-0.014,0.019,0.016,0.081,0,0.096
		c-0.017,0.017-0.081-0.015-0.098,0c-0.014,0.014,0.016,0.087,0,0.097c-0.02,0.014-0.08-0.016-0.097,0
		c-0.017,0.017,0.017,0.082,0,0.098c-0.014,0.013-0.087-0.016-0.097,0c-0.013,0.019,0.017,0.08,0,0.096
		c-0.016,0.017-0.081-0.016-0.097,0c-0.014,0.013,0.016,0.086,0,0.097c-0.023,0.015-0.073-0.012-0.098,0
		c-0.013,0.02,0.016,0.08,0,0.097c-0.016,0.016-0.081-0.017-0.097,0c-0.016,0.016,0.016,0.081,0,0.096
		c-0.016,0.017-0.08-0.015-0.097,0c-0.016,0.017,0.017,0.082,0,0.097c-0.016,0.017-0.081-0.015-0.097,0
		c-0.017,0.017,0.016,0.081,0,0.097c-0.017,0.016-0.078-0.013-0.097,0c-0.013,0.019,0.017,0.081,0,0.097s-0.081-0.016-0.097,0
		c-0.017,0.016,0.016,0.081,0,0.097c-0.017,0.017-0.077-0.014-0.098,0c-0.012,0.019,0.017,0.08,0,0.097
		c-0.016,0.016-0.08-0.017-0.097,0c-0.017,0.016,0.017,0.081,0,0.097s-0.077-0.012-0.097,0c-0.014,0.019,0.017,0.081,0,0.097
		c-0.014,0.013-0.086-0.016-0.096,0c-0.014,0.019,0.016,0.08,0,0.097c-0.017,0.015-0.082-0.017-0.098,0
		c-0.014,0.013,0.016,0.086,0,0.096c-0.02,0.013-0.081-0.016-0.097,0c-0.017,0.016,0.016,0.081,0,0.097
		c-0.015,0.014-0.087-0.015-0.099,0c-0.012,0.02,0.018,0.08,0,0.097c-0.015,0.017-0.08-0.017-0.096,0
		c-0.014,0.014,0.016,0.087,0,0.097c-0.019,0.013-0.08-0.017-0.098,0c-0.016,0.016,0.018,0.081,0,0.096
		c-0.012,0.014-0.086-0.014-0.096,0c-0.013,0.02,0.017,0.081,0,0.098c-0.016,0.016-0.08-0.017-0.097,0
		c-0.014,0.013,0.015,0.086,0,0.097c-0.019,0.012-0.081-0.016-0.097,0s0.016,0.08,0,0.096c-0.014,0.013-0.087-0.016-0.098,0
		c-0.014,0.022,0.017,0.077,0,0.097c-0.013,0.017-0.082-0.016-0.096,0c-0.016,0.016,0.012,0.077,0,0.098h0.387h0.388h0.387h0.291
		h0.774h0.388h0.193h0.097h0.193c0.014-0.021-0.016-0.082,0-0.098c0.014-0.013,0.088,0.016,0.098,0c0.014-0.021-0.018-0.078,0-0.097
		c0.014-0.016,0.081,0.015,0.096,0c0.017-0.016-0.016-0.081,0-0.096c0.017-0.016,0.081,0.015,0.098,0
		c0.013-0.014-0.016-0.087,0-0.097c0.021-0.015,0.077,0.016,0.097,0c0.017-0.015-0.015-0.082,0-0.098
		c0.017-0.015,0.081,0.017,0.097,0c0.016-0.015-0.016-0.08,0-0.096c0.014-0.014,0.086,0.015,0.098,0
		c0.014-0.021-0.016-0.078,0-0.097c0.014-0.017,0.08,0.016,0.097,0c0.016-0.017-0.017-0.081,0-0.097
		c0.016-0.016,0.081,0.016,0.097,0c0.014-0.013-0.016-0.087,0-0.097c0.021-0.013,0.077,0.016,0.096,0
		c0.018-0.013-0.015-0.081,0-0.096c0.017-0.017,0.078,0.012,0.098,0c0.013-0.02-0.016-0.081,0-0.097
		c0.017-0.016,0.077,0.013,0.097,0c0.013-0.02-0.017-0.081,0-0.097c0.013-0.014,0.087,0.015,0.097,0
		c0.016-0.023-0.012-0.073,0-0.097c0.02-0.013,0.081,0.016,0.098,0c0.013-0.014-0.016-0.086,0-0.097
		c0.021-0.014,0.078,0.017,0.097,0c0.015-0.014-0.016-0.082,0-0.097c0.015-0.016,0.079,0.016,0.097,0
		c0.016-0.015-0.016-0.082,0-0.097c0.016-0.016,0.08,0.016,0.097,0c0.016-0.016-0.017-0.08,0-0.097c0.016-0.015,0.081,0.017,0.097,0
		c0.016-0.015-0.016-0.08,0-0.097c0.016-0.015,0.081,0.017,0.097,0c0.017-0.015-0.016-0.08,0-0.096c0.017-0.017,0.081,0.016,0.097,0
		c0.017-0.017-0.016-0.08,0-0.097c0.017-0.016,0.08,0.017,0.098,0c0.016-0.016-0.018-0.08,0-0.097c0.016-0.016,0.077,0.013,0.098,0
		v0.097v0.387v0.194v0.097v0.387v0.194v0.097v0.194v0.193V18.5v0.193v0.194v0.097v0.194v0.194v0.097v0.193v0.193v0.097v0.193v0.195
		v0.097v0.193v0.193v0.098v0.193v0.195v0.096V21.6v0.193v0.097v0.194v0.194v0.096v0.193v0.195v0.096v0.195v0.193v0.097v0.193v0.193
		v0.097v0.194v0.194v0.098v0.192v0.194v0.097v0.194v0.194v0.096v0.194v0.193v0.097v0.388v0.194v0.095c0,0.03,0.006,0.071,0,0.098
		c-0.006,0.017,0.011,0.085,0,0.097c-0.018,0.015-0.078-0.014-0.098,0v0.194c0,0.014,0.008,0.087,0,0.097
		c-0.016,0.015-0.079-0.014-0.098,0c-0.012,0.018,0.017,0.08,0,0.096c-0.013,0.014-0.086-0.015-0.097,0
		c-0.014,0.022,0.017,0.078,0,0.097c-0.014,0.017-0.081-0.016-0.097,0c-0.016,0.017,0.016,0.08,0,0.097
		c-0.016,0.016-0.081-0.016-0.097,0c-0.017,0.016,0.016,0.08,0,0.096c-0.017,0.017-0.081-0.016-0.097,0
		c-0.011,0.011,0.013,0.091,0,0.097c-0.021,0.01-0.074,0-0.097,0h-0.097h-0.098c-0.012,0.02,0.018,0.081,0,0.097
		c-0.012,0.012-0.08-0.004-0.097,0c-0.028,0.008-0.069,0-0.097,0h-0.098h-0.192h-0.097h-0.194h-0.194h-0.096H29.9h-0.098h-0.193
		h-0.097h-0.388h-0.097h-0.388h-0.097h-0.388H28.06h-0.387h-0.099h-0.386h-0.097h-0.389h-0.096h-0.387h-0.098h-0.387h-0.098h-0.387
		h-0.097h-0.388h-0.097h-0.388h-0.097H23.8h-0.097h-0.388h-0.097h-0.388h-0.097h-0.387H22.25h-0.388h-0.097h-0.387h-0.097h-0.388
		h-0.097H20.41h-0.097h-0.388h-0.098h-0.386h-0.097h-0.388h-0.097h-0.388h-0.097h-0.388h-0.097h-0.387h-0.099h-0.386h-0.097h-0.388
		H16.44h-0.388h-0.098h-0.386h-0.097h-0.388h-0.098h-0.387h-0.097H14.31h-0.192H14.02h-0.193h-0.098h-0.193h-0.193h-0.098h-0.096
		c-0.029,0-0.07,0.008-0.097,0c-0.02-0.004-0.086,0.012-0.097,0c-0.018-0.016,0.012-0.077,0-0.097h-0.194
		c-0.015,0-0.087,0.009-0.097,0c-0.016-0.015,0.013-0.078,0-0.097c-0.02-0.012-0.081,0.017-0.097,0
		c-0.014-0.012,0.015-0.086,0-0.096c-0.021-0.014-0.078,0.016-0.097,0c-0.018-0.014,0.015-0.081,0-0.097
		c-0.016-0.016-0.085,0.017-0.097,0c-0.015-0.018,0.016-0.08,0-0.097c-0.011-0.01-0.092,0.012-0.098,0c-0.009-0.021,0-0.074,0-0.096
		c0-0.023,0.009-0.079,0-0.097c-0.007-0.014-0.086,0.011-0.098,0c-0.009-0.01,0.002-0.083,0-0.098c-0.001-0.025,0.011-0.072,0-0.096
		c-0.007-0.019,0.015-0.083,0-0.097c-0.006-0.007-0.095,0.008-0.097,0c-0.006-0.028,0-0.068,0-0.098v-0.095V26.15v-0.194v-0.194
		v-0.097v-0.193v-0.097v-0.775v-0.387V24.02v-0.097v-0.387v-0.193v-0.097v-0.388v-0.194v-0.097v-0.774v-0.387v-0.193v-0.098v-0.387
		v-0.194v-0.096V20.05v-0.194V19.76v-0.195V19.47v-0.195v-0.387v-0.194v-0.095h0.194h0.388h0.193h0.098h0.193h0.387h0.193h0.193
		h0.098h0.193h0.097h0.194c0.013-0.021-0.017-0.082,0-0.098c0.014-0.013,0.086,0.016,0.097,0c0.013-0.02-0.017-0.081,0-0.097
		c0.017-0.016,0.081,0.016,0.097,0c0.014-0.013-0.016-0.087,0-0.096c0.02-0.014,0.08,0.015,0.098,0c0.016-0.016-0.018-0.081,0-0.097
		c0.012-0.015,0.086,0.015,0.096,0c0.013-0.02-0.017-0.081,0-0.098c0.016-0.015,0.081,0.017,0.097,0
		c0.014-0.013-0.016-0.086,0-0.096c0.02-0.013,0.081,0.016,0.098,0c0.016-0.017-0.017-0.08,0-0.097c0.014-0.014,0.087,0.016,0.097,0
		c0.013-0.02-0.017-0.081,0-0.097c0.016-0.016,0.08,0.016,0.097,0c0.014-0.013-0.016-0.087,0-0.097c0.019-0.012,0.081,0.016,0.097,0
		s-0.016-0.081,0-0.096c0.014-0.014,0.086,0.015,0.098,0c0.014-0.022-0.016-0.078,0-0.097c0.014-0.016,0.08,0.015,0.097,0
		c0.016-0.016-0.014-0.078,0-0.097c0.019-0.012,0.08,0.016,0.097,0c0.016-0.016-0.017-0.081,0-0.097c0.016-0.017,0.08,0.016,0.096,0
		c0.017-0.017-0.012-0.078,0-0.097c0.021-0.014,0.081,0.017,0.098,0c0.014-0.014-0.016-0.087,0-0.097c0.02-0.013,0.08,0.016,0.096,0
		c0.018-0.016-0.016-0.081,0-0.097c0.015-0.013,0.088,0.015,0.098,0c0.013-0.019-0.016-0.08,0-0.097
		c0.016-0.015,0.081,0.017,0.098,0c0.012-0.013-0.016-0.086,0-0.097c0.02-0.012,0.08,0.017,0.096,0c0.017-0.015-0.016-0.08,0-0.096
		c0.015-0.013,0.087,0.015,0.098,0c0.014-0.023-0.012-0.072,0-0.097c0.019-0.013,0.08,0.017,0.097,0c0.016-0.016-0.017-0.08,0-0.097
		c0.016-0.016,0.081,0.017,0.097,0c0.016-0.015-0.016-0.082,0-0.096c0.018-0.016,0.08,0.016,0.097,0
		c0.014-0.014-0.017-0.087,0-0.098c0.022-0.015,0.072,0.013,0.097,0c0.014-0.019-0.016-0.08,0-0.097
		c0.014-0.013,0.087,0.016,0.098,0c0.012-0.018-0.017-0.08,0-0.096c0.016-0.016,0.079,0.016,0.097,0
		c0.013-0.014-0.017-0.086,0-0.097c0.019-0.013,0.08,0.016,0.097,0c0.016-0.017-0.017-0.081,0-0.097
		c0.014-0.013,0.086,0.016,0.096,0c0.014-0.019-0.015-0.08,0-0.096c0.017-0.017,0.082,0.016,0.098,0
		c0.014-0.014-0.016-0.087,0-0.097c0.02-0.014,0.081,0.016,0.097,0c0.015-0.018-0.016-0.081,0-0.098
		c0.015-0.012,0.087,0.016,0.096,0c0.016-0.022-0.011-0.071,0-0.096h0.099c0.012-0.02-0.016-0.08,0-0.097
		c0.012-0.013,0.078,0.006,0.096,0c0.026-0.008,0.07,0,0.098,0h0.096h0.098h0.193h0.388h0.194h0.193h0.097H19.346z"/>
</g>
<line fill="none" stroke="#676868" stroke-width="2" stroke-miterlimit="10" x1="4.988" y1="196.826" x2="38.988" y2="196.826"/>
<g>
	<polygon fill="#FFFFFF" points="72.166,58.777 78.311,58.777 78.311,59.92 75.896,59.92 75.896,66.363 74.564,66.363 74.564,59.92 
		72.166,59.92 	"/>
	<polygon fill="#FFFFFF" points="79.238,58.777 80.624,58.777 82.522,64.782 82.543,64.782 84.493,58.777 85.841,58.777 
		83.247,66.363 81.766,66.363 	"/>
	<path fill="#FFFFFF" d="M69.388,44.84c-0.688-0.253-1.806-0.379-3.339-0.379h-2.182v10.334h3.306c1.287,0,2.29-0.185,3.001-0.559
		c0.711-0.373,1.303-0.964,1.747-1.744c0.442-0.789,0.664-1.699,0.664-2.732c0-1.194-0.276-2.229-0.839-3.092
		S70.391,45.186,69.388,44.84 M64.973,45.588h0.661c1.451,0,2.514,0.096,3.133,0.28c0.837,0.266,1.489,0.741,1.963,1.423
		c0.464,0.683,0.707,1.521,0.707,2.491c0,0.912-0.224,1.705-0.652,2.344c-0.428,0.631-1.026,1.081-1.776,1.32
		c-0.539,0.172-1.52,0.261-2.916,0.261h-1.119V45.588z"/>
	<rect x="74.51" y="44.461" fill="#FFFFFF" width="1.146" height="10.334"/>
	<path fill="#FFFFFF" d="M83.559,49.723c0.5-0.218,0.891-0.55,1.16-0.981c0.262-0.42,0.398-0.928,0.398-1.499
		c0-0.675-0.2-1.252-0.587-1.724c-0.385-0.459-0.896-0.769-1.508-0.917c-0.416-0.094-1.188-0.139-2.319-0.139h-2.1v10.332h1.152
		v-4.732h0.479l3.667,4.732h1.422l-3.67-4.732C82.451,50.045,83.096,49.933,83.559,49.723 M81.446,48.944l-1.69-0.008v-3.348h1.735
		c0.692,0,1.184,0.06,1.479,0.178c0.283,0.119,0.518,0.311,0.695,0.575c0.186,0.268,0.26,0.566,0.26,0.901
		c0,0.342-0.074,0.648-0.251,0.918c-0.175,0.271-0.428,0.477-0.735,0.598C82.616,48.889,82.114,48.944,81.446,48.944"/>
	<path fill="#FFFFFF" d="M93.298,51.584v-7.121h-0.304l-5.776,8.217h4.944v2.115h1.136V52.68h1.233v-1.096H93.298z M92.162,51.584
		h-2.839l2.839-4.029V51.584z"/>
	<circle fill="none" stroke="#FFFFFF" stroke-miterlimit="10" cx="79.742" cy="19.057" r="17.17"/>
	<path fill-rule="evenodd" clip-rule="evenodd" fill="#CCCBCB" d="M90.637,18.706c-2.112,2.763-4.949,5.583-9.327,5.92
		c-5.72,0.441-9.156-2.672-11.598-5.92c2.266-2.6,4.93-5.379,9.245-5.759C84.728,12.438,88.012,15.639,90.637,18.706 M76.281,17.813
		c-0.768,3.439,2.746,6.212,5.84,4.542c3.572-1.929,2.057-8.343-2.758-7.462C77.772,15.184,76.594,16.409,76.281,17.813"/>
	<path fill-rule="evenodd" clip-rule="evenodd" fill="#CCCBCB" d="M80.012,16.596c0.36,0.047,0.032,0.779,0.244,0.974
		c0.328,0.686,1.083,1.143,2.108,0.891c0.007,1.583-0.895,2.515-2.191,2.515c-2.595,0-2.957-4.069-0.243-4.38H80.012z"/>
</g>
<polygon fill="#FFFFFF" points="14.167,58.777 20.311,58.777 20.311,59.92 17.896,59.92 17.896,66.363 16.564,66.363 16.564,59.92 
	14.167,59.92 "/>
<polygon fill="#FFFFFF" points="21.239,58.777 22.624,58.777 24.521,64.782 24.543,64.782 26.493,58.777 27.84,58.777 
	25.247,66.363 23.765,66.363 "/>
<path fill="#FFFFFF" d="M11.386,44.84c-0.687-0.253-1.805-0.379-3.338-0.379H5.868v10.334h3.304c1.287,0,2.291-0.185,3.002-0.559
	c0.711-0.373,1.304-0.965,1.746-1.744c0.444-0.789,0.664-1.699,0.664-2.732c0-1.195-0.274-2.229-0.838-3.092
	C13.184,45.806,12.391,45.186,11.386,44.84 M6.973,45.588h0.659c1.451,0,2.515,0.096,3.134,0.28
	c0.838,0.266,1.489,0.741,1.963,1.423c0.465,0.683,0.707,1.521,0.707,2.491c0,0.912-0.224,1.705-0.652,2.344
	c-0.428,0.631-1.026,1.081-1.776,1.32c-0.539,0.172-1.519,0.261-2.916,0.261H6.973V45.588z"/>
<rect x="16.508" y="44.461" fill="#FFFFFF" width="1.146" height="10.334"/>
<path fill="#FFFFFF" d="M25.558,49.723c0.5-0.218,0.892-0.55,1.16-0.981c0.262-0.42,0.399-0.928,0.399-1.499
	c0-0.675-0.201-1.252-0.588-1.724c-0.386-0.459-0.896-0.769-1.509-0.917c-0.416-0.094-1.187-0.139-2.317-0.139h-2.101v10.332h1.153
	v-4.732h0.478l3.668,4.732h1.423l-3.67-4.732C24.452,50.045,25.095,49.933,25.558,49.723 M23.446,48.944l-1.689-0.008v-3.348h1.734
	c0.692,0,1.184,0.06,1.479,0.178c0.284,0.119,0.519,0.311,0.696,0.574c0.185,0.269,0.259,0.567,0.259,0.902
	c0,0.342-0.074,0.648-0.251,0.918c-0.174,0.271-0.428,0.477-0.735,0.598C24.616,48.889,24.114,48.944,23.446,48.944"/>
<path fill="#FFFFFF" d="M35.297,51.584v-7.121h-0.304l-5.776,8.217h4.945v2.115h1.135V52.68h1.233v-1.096H35.297z M34.163,51.584
	h-2.841l2.841-4.029V51.584z"/>
<path fill="#FFFFFF" d="M968.152,183.96l3.4-3.819l-0.709,3.819H968.152z M971.926,183.96l1.247-6.754h-0.291l-6.922,7.795h4.69
	l-0.416,2.249h1.082l0.412-2.249h1.062l0.938-1.041H971.926z"/>
<polygon fill="#FFFFFF" points="963.318,187.788 962.233,187.788 963.22,183.2 960.297,177.005 961.468,177.005 963.906,182.199 
	968.529,177.005 969.906,177.005 964.271,183.333 "/>
<path fill="#FFFFFF" d="M951.554,191.34h-1.197l0.738-3.554h-7.261l9.597-10.79h0.459l0.344-0.392l-0.082,0.392h3.412
	c0.263,0.009,0.533,0.032,0.812,0.065c0.347,0.043,0.676,0.153,0.979,0.329c0.317,0.181,0.586,0.449,0.806,0.798
	c0.217,0.355,0.327,0.837,0.327,1.429c0,0.468-0.088,0.889-0.262,1.249c-0.172,0.351-0.397,0.657-0.674,0.899
	c-0.197,0.173-0.412,0.319-0.642,0.437c0.18,0.112,0.334,0.254,0.465,0.419c0.358,0.452,0.541,1.036,0.541,1.737
	c0,0.54-0.101,1.032-0.297,1.458c-0.195,0.433-0.476,0.799-0.828,1.091c-0.342,0.289-0.769,0.512-1.252,0.663
	c-0.476,0.146-1.004,0.218-1.572,0.218h-3.674L951.554,191.34z M952.502,186.741h3.633c0.285,0,0.597-0.04,0.933-0.121
	c0.318-0.079,0.613-0.213,0.882-0.398c0.264-0.184,0.483-0.426,0.661-0.729c0.168-0.289,0.255-0.67,0.255-1.134
	c0-0.392-0.063-0.694-0.189-0.899c-0.127-0.206-0.291-0.361-0.502-0.472c-0.229-0.117-0.491-0.191-0.778-0.223
	c-0.321-0.037-0.655-0.053-0.994-0.053h-3.069L952.502,186.741z M952.89,179.28l-6.617,7.461l5.047-0.002L952.89,179.28z
	 M953.531,181.653l3.055,0.008c0.445,0,0.856-0.05,1.224-0.148c0.351-0.095,0.653-0.233,0.899-0.409
	c0.237-0.173,0.414-0.378,0.543-0.629c0.125-0.249,0.188-0.537,0.188-0.857c0-0.346-0.053-0.621-0.153-0.819
	c-0.103-0.196-0.228-0.343-0.379-0.45c-0.168-0.111-0.349-0.185-0.558-0.228c-0.229-0.044-0.465-0.069-0.703-0.069l-3.366-0.011
	L953.531,181.653z"/>
<path fill="#7A7153" d="M949.81-44.808c-0.682-0.259-1.774-0.381-3.282-0.381h-2.136v10.812h3.244c1.256,0,2.238-0.191,2.94-0.587
	c0.703-0.394,1.277-1.009,1.72-1.829c0.43-0.821,0.649-1.776,0.649-2.856c0-1.252-0.276-2.338-0.828-3.237
	C951.57-43.793,950.792-44.434,949.81-44.808 M945.479-44.02h0.649c1.416,0,2.461,0.104,3.075,0.298
	c0.818,0.275,1.453,0.77,1.914,1.486c0.465,0.714,0.695,1.594,0.695,2.605c0,0.962-0.22,1.791-0.634,2.459
	c-0.426,0.661-1.01,1.128-1.744,1.386c-0.534,0.182-1.493,0.27-2.864,0.27h-1.092V-44.02z"/>
<rect x="954.824" y="-45.193" fill="#7A7153" width="1.127" height="10.816"/>
<path fill="#7A7153" d="M963.708-39.69c0.488-0.223,0.871-0.571,1.134-1.028c0.26-0.437,0.396-0.973,0.396-1.568
	c0-0.706-0.201-1.311-0.578-1.805c-0.375-0.485-0.875-0.803-1.483-0.956c-0.4-0.102-1.162-0.146-2.271-0.146h-2.056v10.816h1.123
	v-4.957h0.476l3.598,4.957h1.397l-3.604-4.957C962.622-39.352,963.249-39.464,963.708-39.69 M961.633-40.503l-1.66-0.008v-3.509
	h1.707c0.676,0,1.157,0.064,1.45,0.189c0.275,0.124,0.505,0.324,0.685,0.606c0.179,0.274,0.257,0.588,0.257,0.937
	c0,0.36-0.078,0.678-0.255,0.963c-0.168,0.288-0.414,0.495-0.717,0.631C962.777-40.561,962.29-40.503,961.633-40.503"/>
<path fill="#7A7153" d="M973.259-37.741v-7.452h-0.295l-5.668,8.601h4.845v2.215h1.118v-2.215h1.211v-1.149H973.259z
	 M972.141-37.741h-2.781l2.781-4.216V-37.741z"/>
<polygon fill="#7A7153" points="944.668,-30.212 949.825,-30.212 949.825,-29.012 945.979,-29.012 945.979,-26.928 949.356,-26.928 
	949.356,-25.787 945.979,-25.787 945.979,-22.253 944.668,-22.253 "/>
<rect x="950.487" y="-30.212" fill="#7A7153" width="1.309" height="7.959"/>
<polygon fill="#7A7153" points="953.395,-30.212 954.699,-30.212 954.699,-23.454 958.494,-23.454 958.494,-22.253 953.395,-22.253 
	"/>
<polygon fill="#7A7153" points="959.367,-30.212 961.213,-30.212 963.265,-23.978 963.289,-23.978 965.293,-30.212 967.11,-30.212 
	967.11,-22.253 965.869,-22.253 965.869,-28.398 965.851,-28.398 963.776,-22.253 962.701,-22.253 960.631,-28.398 960.614,-28.398 
	960.614,-22.253 959.367,-22.253 "/>
<path fill="#7A7153" d="M969.533-24.905c0,1.226,0.852,1.706,1.896,1.706c1.143,0,1.577-0.601,1.577-1.203
	c0-0.616-0.313-0.862-0.619-0.981c-0.522-0.212-1.204-0.357-2.225-0.662c-1.279-0.367-1.654-1.186-1.654-2.011
	c0-1.6,1.39-2.35,2.729-2.35c1.554,0,2.861,0.881,2.861,2.545h-1.308c-0.058-1.025-0.707-1.403-1.608-1.403
	c-0.604,0-1.363,0.235-1.363,1.035c0,0.559,0.351,0.869,0.886,1.029c0.116,0.027,1.767,0.491,2.149,0.611
	c0.985,0.311,1.453,1.206,1.453,2.029c0,1.785-1.479,2.499-2.968,2.499c-1.703,0-3.084-0.87-3.11-2.844H969.533z"/>
<path fill-rule="evenodd" clip-rule="evenodd" fill="#CCCBCB" d="M965.138,155.374c-5.043,0.193-10.442,0.028-15.623,0.083v-3.967
	c0-1.849-0.467-4.175,1.074-4.464c1.092-0.204,2.476,0,3.637,0h7.275c1.045,0,2.827-0.155,3.305,0.331
	c0.593,0.601,0.332,2.655,0.332,3.884V155.374z M951.251,152.978h5.869v-3.637h-5.869V152.978z"/>
<path fill-rule="evenodd" clip-rule="evenodd" fill="#CCCBCB" d="M971.088,147.357c0.192,2.534,0.028,5.427,0.084,8.1
	c-1.681-0.828-3.316-1.697-4.959-2.562v-2.975C967.846,149.073,969.514,148.262,971.088,147.357"/>
<path fill-rule="evenodd" clip-rule="evenodd" fill="#CCCBCB" d="M949.598,156.449h15.54c0.397,2.13-1.788,1.817-3.885,1.817h-7.604
	c-2.035,0-4.426,0.483-4.133-1.569C949.509,156.58,949.501,156.463,949.598,156.449"/>
<circle fill="none" stroke="#7A7153" stroke-miterlimit="10" cx="959.755" cy="-70.129" r="17.17"/>
<g>
	<path fill="#FFFFFF" d="M21.742,36.726c-9.743,0-17.67-7.926-17.67-17.669c0-9.743,7.927-17.67,17.67-17.67
		c9.744,0,17.671,7.927,17.671,17.67C39.413,28.8,31.485,36.726,21.742,36.726z M21.742,2.387c-9.192,0-16.67,7.478-16.67,16.67
		c0,9.191,7.478,16.669,16.67,16.669c9.192,0,16.671-7.478,16.671-16.669C38.413,9.865,30.934,2.387,21.742,2.387z"/>
</g>
<path fill-rule="evenodd" clip-rule="evenodd" fill="#CCCBCB" d="M26.883,7.304h0.191c0.363,0.112,0.609,0.277,0.646,0.648
	c0.063,0.606-0.678,1.136-1.065,1.523c-1.253,1.254-2.796,2.711-3.81,3.849c1.942,0.18,4.854-0.241,6.743,0
	c1.062,0.134,1.687,0.959,1.904,1.98v9.486c-0.213,1.132-0.877,1.815-2.019,2.019H14.008c-1.142-0.204-1.806-0.887-2.019-2.019
	v-9.486c0.169-1.009,0.92-1.86,1.942-1.98c1.808-0.213,4.714,0.159,6.703,0c-0.358-0.444-0.851-0.928-1.369-1.449
	c-0.393-0.39-1.304-0.931-1.258-1.638c0.021-0.316,0.311-0.714,0.799-0.685c0.547,0.032,1.118,0.852,1.523,1.257
	c0.517,0.516,0.961,0.984,1.373,1.409c1.267-1.142,2.513-2.474,3.771-3.733C25.878,8.081,26.443,7.454,26.883,7.304 M14.083,16.028
	c-0.618,0.987-0.625,2.734-0.61,4.305c0.019,1.504,0.053,3.228,0.841,4.076c0.979,1.056,3.614,0.915,5.37,0.915
	c1.816,0,4.396,0.13,5.486-0.686c1.018-0.763,1.066-2.58,1.066-4.457c0-1.57,0.017-3.308-0.61-4.229
	c-0.675-0.994-2.283-1.143-4.076-1.143c-1.364,0-2.791-0.018-3.961,0.038C16.181,14.914,14.742,14.978,14.083,16.028 M29.17,19.342
	c1.377-0.277,1.011-2.607-0.572-2.285C27.153,17.35,27.613,19.656,29.17,19.342 M28.598,22.352c1.336,0.246,1.842-1.38,1.065-2.057
	c-0.195-0.172-0.598-0.28-0.837-0.266C27.423,20.105,27.356,22.122,28.598,22.352"/>
<circle fill="none" stroke="#FFFFFF" stroke-miterlimit="10" cx="959.755" cy="152.307" r="17.17"/>
<path fill-rule="evenodd" clip-rule="evenodd" fill="#7A7153" d="M969.752-76.979h-0.097c-0.011,0-0.09,0.007-0.097,0
	c-0.014-0.018,0.015-0.081,0-0.097c-0.017-0.015-0.08,0.016-0.096,0c-0.017-0.015,0.016-0.082,0-0.097
	c-0.019-0.016-0.082,0.017-0.099,0c-0.015-0.016,0.017-0.08,0-0.096c-0.015-0.017-0.08,0.016-0.095,0
	c-0.016-0.016,0.015-0.084,0-0.098c-0.012-0.008-0.082,0-0.098,0c-0.013,0-0.093,0.008-0.099,0c-0.013-0.017,0.019-0.081,0-0.096
	c-0.015-0.017-0.08,0.016-0.095,0c-0.016-0.017,0.015-0.081,0-0.097c-0.018-0.016-0.081,0.016-0.098,0s0.016-0.081,0-0.097
	c-0.017-0.016-0.08,0.016-0.097,0c-0.015-0.014,0.017-0.084,0-0.096c-0.012-0.01-0.082,0-0.097,0c-0.01,0-0.09,0.006-0.096,0
	c-0.017-0.019,0.015-0.081,0-0.097c-0.019-0.016-0.082,0.016-0.099,0c-0.015-0.016,0.017-0.082,0-0.098
	c-0.017-0.015-0.08,0.017-0.097,0c-0.016-0.015,0.017-0.081,0-0.096c-0.016-0.017-0.081,0.015-0.096,0
	c-0.017-0.015,0.015-0.084,0-0.098c-0.013-0.008-0.082,0-0.099,0c-0.012,0-0.09,0.009-0.096,0c-0.015-0.017,0.016-0.08,0-0.096
	c-0.017-0.016-0.082,0.017-0.097,0c-0.017-0.016,0.015-0.082,0-0.096c-0.019-0.017-0.08,0.015-0.097,0
	c-0.016-0.017,0.017-0.082,0-0.097c-0.016-0.016-0.082,0.015-0.098,0c-0.015-0.016,0.014-0.078,0-0.097h-0.193
	c0.013-0.02-0.017-0.081,0-0.097c0.013-0.012,0.078,0.003,0.097,0c0.026-0.007,0.069,0,0.097,0h0.098h0.193h0.096
	c0.021-0.013,0.08,0.016,0.099,0c0.015-0.016-0.015-0.078,0-0.097h0.192h0.194h0.097c0.028,0,0.069-0.007,0.097,0
	c0.01,0.002-0.009,0.089,0,0.097c0.01,0.009,0.082-0.001,0.098,0c0.023,0.001,0.076-0.01,0.095,0c0.015,0.006-0.01,0.085,0,0.097
	c0.01,0.009,0.084-0.001,0.099,0c0.017,0.001,0.082-0.012,0.098,0c0.015,0.011-0.016,0.082,0,0.097c0.011,0.014,0.086-0.016,0.095,0
	c0.015,0.021-0.015,0.077,0,0.097c0.015,0.015,0.082-0.017,0.099,0c0.016,0.015-0.015,0.077,0,0.096
	c0.021,0.012,0.077-0.015,0.096,0c0.007,0.006,0,0.085,0,0.096v0.098c0.007,0.005,0.095-0.007,0.097,0c0.006,0.028,0,0.068,0,0.096
	v0.098c0,0.028-0.006,0.068,0,0.097c0.004,0.016-0.011,0.086,0,0.096c0.015,0.014,0.086-0.015,0.097,0
	c0.016,0.023-0.011,0.074,0,0.097v0.193v0.194v0.097V-76.979z"/>
<path fill-rule="evenodd" clip-rule="evenodd" fill="#7A7153" d="M967.816-75.721c-0.013,0.02,0.016,0.081,0,0.097
	c-0.013,0.011-0.08-0.004-0.099,0c-0.026,0.007-0.067,0-0.095,0h-0.098h-0.193c-0.012,0.019,0.017,0.081,0,0.096
	c-0.01,0.01-0.082,0-0.096,0c-0.033,0.002-0.066-0.001-0.099,0c-0.033,0.002-0.063,0-0.097,0h-0.096h-0.195h-0.096h-0.099
	c-0.022,0-0.074-0.008-0.095,0c-0.012,0.006,0.009,0.087,0,0.098c-0.018,0.016-0.079-0.014-0.098,0h-0.193h-0.098h-0.194h-0.095
	c-0.013,0-0.09,0.008-0.099,0c-0.015-0.02,0.015-0.076,0-0.098c-0.019-0.011-0.08,0.017-0.098,0c-0.015-0.015,0.018-0.08,0-0.096
	c-0.015-0.016-0.08,0.016-0.095,0c-0.015-0.014,0.015-0.087,0-0.097c-0.015-0.011-0.078,0-0.099,0c-0.022,0-0.073,0.01-0.096,0
	c-0.011-0.006,0.01-0.086,0-0.097c-0.015-0.016-0.078,0.015-0.097,0c-0.017-0.012,0.015-0.082,0-0.097
	c-0.017-0.016-0.08,0.016-0.097,0c-0.016-0.016,0.017-0.08,0-0.097c-0.016-0.016-0.077,0.016-0.098,0
	c-0.015-0.014,0.016-0.081,0-0.097c-0.015-0.015-0.078,0.013-0.095,0c-0.021-0.012-0.082,0.017-0.099,0
	c-0.016-0.014,0.017-0.084,0-0.096c-0.018-0.015-0.079,0.015-0.098,0c-0.015-0.017,0.016-0.08,0-0.098
	c-0.015-0.016-0.08,0.018-0.095,0c-0.017-0.014,0.015-0.083,0-0.096c-0.019-0.014-0.08,0.017-0.099,0
	c-0.01-0.01,0.015-0.092,0-0.096c-0.021-0.009-0.071,0-0.096,0c-0.015,0-0.086,0.008-0.097,0c-0.017-0.014,0.015-0.082,0-0.098
	c-0.017-0.016-0.08,0.017-0.096,0c-0.019-0.016,0.016-0.08,0-0.097c-0.019-0.015-0.082,0.017-0.099,0
	c-0.015-0.016,0.017-0.08,0-0.096c-0.013-0.014-0.086,0.015-0.097,0c-0.014-0.023,0.011-0.074,0-0.097h-0.096
	c-0.023,0-0.076,0.01-0.099,0c-0.011-0.006,0.012-0.086,0-0.097c-0.015-0.016-0.08,0.016-0.095,0c-0.019-0.015,0.015-0.081,0-0.096
	c-0.014-0.014-0.086,0.015-0.098,0c-0.011-0.017,0.016-0.085,0-0.098c-0.021-0.014-0.08,0.017-0.099,0
	c-0.011-0.013,0.019-0.086,0-0.096c-0.021-0.015-0.072,0.013-0.095,0c-0.021-0.012-0.082,0.015-0.098,0
	c-0.015-0.014,0.016-0.087,0-0.097c-0.022-0.015-0.076,0.016-0.097,0c-0.017-0.013,0.015-0.083,0-0.097
	c-0.015-0.017-0.08,0.016-0.097,0c-0.016-0.017,0.017-0.081,0-0.097c-0.016-0.015-0.077,0.013-0.096,0
	c-0.017-0.011,0.014-0.083,0-0.097c-0.011-0.009-0.084,0-0.099,0c-0.017-0.001-0.084,0.01-0.097,0c-0.016-0.013,0.015-0.083,0-0.096
	c-0.014-0.014-0.086,0.014-0.096,0c-0.015-0.02,0.015-0.081,0-0.097c-0.017-0.016-0.08,0.016-0.099,0
	c-0.013-0.015,0.017-0.087,0-0.098c-0.019-0.013-0.078,0.016-0.096,0c-0.017-0.013,0.012-0.079,0-0.096h0.194h0.096
	c0.019-0.013,0.082,0.015,0.097,0c0.011-0.01-0.012-0.092,0-0.098c0.022-0.008,0.074,0,0.099,0c0.03,0,0.063,0.004,0.096,0
	c0.031-0.002,0.066,0,0.097,0h0.097h0.098h0.193c0.032,0,0.063,0.003,0.098,0c0.013,0,0.086,0.01,0.095,0
	c0.019-0.016-0.011-0.076,0-0.096h0.194h0.388h0.194c0.013,0.02-0.019,0.08,0,0.096c0.013,0.015,0.086-0.015,0.095,0
	c0.012,0.018-0.013,0.087,0,0.098c0.014,0.01,0.08,0,0.098,0c0.013,0,0.091-0.008,0.099,0c0.013,0.015-0.017,0.084,0,0.096
	c0.017,0.016,0.08-0.016,0.095,0c0.014,0.014-0.015,0.087,0,0.098c0.022,0.014,0.079-0.016,0.098,0c0.017,0.013-0.016,0.081,0,0.097
	c0.017,0.015,0.078-0.016,0.097,0c0.017,0.013-0.015,0.081,0,0.096c0.01,0.01,0.084-0.001,0.097,0c0.022,0.001,0.079-0.01,0.096,0
	c0.017,0.008-0.012,0.085,0,0.097c0.019,0.017,0.08-0.015,0.099,0c0.015,0.014-0.017,0.081,0,0.097c0.013,0.013,0.086-0.016,0.095,0
	c0.016,0.021-0.015,0.077,0,0.097c0.014,0.016,0.083-0.016,0.098,0c0.017,0.016-0.012,0.077,0,0.097h0.099
	c0.022,0,0.073-0.01,0.095,0c0.014,0.005-0.009,0.086,0,0.096c0.018,0.017,0.081-0.016,0.098,0c0.017,0.015-0.015,0.082,0,0.098
	c0.015,0.013,0.086-0.016,0.097,0c0.012,0.015-0.015,0.084,0,0.096c0.019,0.015,0.082-0.016,0.098,0
	c0.009,0.011-0.012,0.091,0,0.097c0.021,0.01,0.074,0,0.097,0c0.017,0,0.084-0.01,0.097,0c0.017,0.012-0.015,0.082,0,0.097
	c0.014,0.013,0.088-0.015,0.098,0c0.011,0.016-0.016,0.084,0,0.096c0.019,0.015,0.08-0.015,0.095,0c0.019,0.017-0.015,0.081,0,0.097
	c0.019,0.017,0.082-0.016,0.099,0c0.014,0.015-0.017,0.086,0,0.098c0.014,0.008,0.077,0,0.096,0c0.011,0,0.091-0.009,0.097,0
	c0.015,0.016-0.015,0.083,0,0.096c0.021,0.015,0.08-0.016,0.099,0c0.014,0.013-0.017,0.086,0,0.096c0.019,0.014,0.08-0.016,0.096,0
	c0.017,0.018-0.016,0.081,0,0.098c0.013,0.013,0.086-0.016,0.097,0c0.015,0.022-0.011,0.072,0,0.096h0.099
	c0.01,0,0.09-0.008,0.096,0c0.013,0.018-0.019,0.081,0,0.097c0.017,0.016,0.08-0.016,0.095,0c0.019,0.016-0.015,0.084,0,0.097
	c0.021,0.015,0.082-0.016,0.099,0c0.014,0.014-0.017,0.087,0,0.097c0.021,0.014,0.077-0.016,0.098,0
	c0.015,0.014-0.017,0.081,0,0.097c0.015,0.017,0.078-0.013,0.095,0H967.816z"/>
<path fill-rule="evenodd" clip-rule="evenodd" fill="#7A7153" d="M962.684-75.043h-0.193h-0.096h-0.195c-0.024,0-0.075-0.01-0.096,0
	c-0.013,0.005,0.01,0.086,0,0.097c-0.017,0.016-0.078-0.013-0.099,0h-0.192h-0.193h-0.098h-0.193c-0.02,0.013-0.081-0.016-0.096,0
	c-0.015,0.013,0.015,0.087,0,0.096c-0.021,0.013-0.074-0.005-0.099,0c-0.026,0.006-0.067,0-0.096,0h-0.097h-0.099h-0.192
	c-0.013-0.019,0.015-0.08,0-0.096c-0.008-0.01-0.082,0.001-0.097,0c-0.022-0.001-0.077,0.01-0.098,0
	c-0.013-0.008,0.012-0.085,0-0.097c-0.015-0.017-0.078,0.016-0.095,0c-0.019-0.014,0.013-0.081,0-0.097
	c-0.017-0.013-0.088,0.016-0.099,0c-0.014-0.021,0.017-0.078,0-0.097c-0.014-0.016-0.082,0.016-0.098,0
	c-0.013-0.015,0.019-0.083,0-0.097c-0.009-0.009-0.082,0-0.095,0c-0.012,0-0.092,0.009-0.099,0c-0.014-0.018,0.017-0.08,0-0.096
	c-0.016-0.016-0.079,0.016-0.098,0c-0.015-0.016,0.019-0.082,0-0.097c-0.015-0.016-0.08,0.016-0.095,0
	c-0.017-0.016,0.015-0.08,0-0.097c-0.017-0.016-0.08,0.017-0.099,0c-0.016-0.016,0.015-0.077,0-0.097h-0.096
	c-0.022,0-0.076,0.01-0.097,0c-0.012-0.006,0.009-0.086,0-0.096c-0.017-0.017-0.08,0.015-0.096,0c-0.019-0.016,0.016-0.082,0-0.098
	c-0.015-0.013-0.089,0.016-0.099,0c-0.011-0.016,0.017-0.085,0-0.097c-0.019-0.013-0.08,0.017-0.097,0
	c-0.01-0.01,0.013-0.091,0-0.096c-0.021-0.009-0.073,0-0.096,0c-0.019,0-0.084,0.009-0.099,0c-0.015-0.012,0.017-0.082,0-0.097
	c-0.013-0.014-0.086,0.016-0.095,0c-0.012-0.018,0.015-0.084,0-0.098c-0.021-0.013-0.08,0.018-0.098,0
	c-0.017-0.015,0.018-0.079,0-0.095c-0.017-0.017-0.08,0.016-0.097,0c-0.013-0.015,0.017-0.086,0-0.097c-0.013-0.01-0.08,0-0.097,0
	c-0.012,0-0.09,0.008-0.098,0c-0.013-0.017,0.018-0.083,0-0.098c-0.019-0.014-0.08,0.018-0.097,0c-0.013-0.013,0.017-0.087,0-0.096
	c-0.019-0.013-0.08,0.016-0.097,0c-0.016-0.016,0.017-0.081,0-0.097c-0.014-0.014-0.086,0.015-0.096,0
	c-0.017-0.023,0.012-0.073,0-0.097h-0.099c-0.022,0-0.076,0.01-0.095,0c-0.014-0.006,0.009-0.086,0-0.097
	c-0.018-0.016-0.083,0.016-0.098,0c-0.017-0.015,0.015-0.081,0-0.096c-0.015-0.014-0.086,0.015-0.099,0
	c-0.01-0.017,0.017-0.085,0-0.098c-0.017-0.014-0.08,0.018-0.096,0c-0.013-0.013,0.016-0.086,0-0.096
	c-0.023-0.015-0.072,0.013-0.097,0c-0.021-0.011-0.08,0.015-0.097,0c-0.014-0.013,0.017-0.086,0-0.097
	c-0.021-0.014-0.078,0.016-0.098,0c-0.015-0.014,0.014-0.079,0-0.097h0.098c0.027,0,0.068,0.007,0.097,0
	c0.017-0.004,0.086,0.013,0.097,0c0.008-0.007-0.007-0.096,0-0.097c0.03-0.006,0.067,0,0.096,0h0.099h0.192h0.194h0.097h0.097
	c0.012,0,0.092,0.008,0.098,0c0.015-0.019-0.012-0.074,0-0.096h0.193h0.192h0.099h0.192h0.099h0.096c0.011,0,0.091-0.008,0.097,0
	c0.017,0.018-0.011,0.074,0,0.096c0.021,0.013,0.08-0.015,0.096,0c0.015,0.014-0.014,0.086,0,0.097c0.021,0.013,0.082-0.017,0.099,0
	c0.015,0.017-0.017,0.081,0,0.097c0.013,0.013,0.088-0.016,0.095,0c0.012,0.017-0.013,0.085,0,0.097c0.012,0.009,0.082,0,0.098,0
	c0.013,0,0.093-0.008,0.099,0c0.013,0.018-0.019,0.081,0,0.096c0.015,0.017,0.08-0.016,0.095,0c0.016,0.016-0.015,0.084,0,0.098
	c0.021,0.014,0.082-0.018,0.098,0c0.015,0.013-0.016,0.087,0,0.096c0.022,0.015,0.074-0.014,0.099,0c0.013,0.01-0.017,0.083,0,0.097
	c0.008,0.01,0.082-0.001,0.095,0c0.018,0.001,0.084-0.01,0.098,0c0.017,0.013-0.016,0.082,0,0.097c0.013,0.014,0.086-0.015,0.097,0
	c0.013,0.021-0.017,0.077,0,0.097c0.013,0.016,0.082-0.016,0.097,0c0.016,0.014-0.017,0.083,0,0.096
	c0.018,0.015,0.081-0.015,0.096,0c0.015,0.015-0.015,0.087,0,0.098c0.024,0.014,0.074-0.016,0.099,0c0.015,0.01-0.015,0.083,0,0.097
	c0.01,0.008,0.082-0.001,0.097,0c0.016,0,0.084-0.01,0.096,0c0.017,0.012-0.015,0.081,0,0.095c0.015,0.015,0.086-0.014,0.099,0
	c0.013,0.022-0.017,0.078,0,0.098c0.013,0.016,0.08-0.016,0.096,0c0.015,0.016-0.016,0.084,0,0.097c0.019,0.014,0.082-0.017,0.097,0
	c0.015,0.013-0.015,0.086,0,0.096c0.022,0.016,0.072-0.013,0.097,0c0.019,0.012,0.082-0.014,0.098,0
	c0.013,0.014-0.016,0.087,0,0.097c0.021,0.015,0.078-0.016,0.097,0c0.017,0.015-0.015,0.082,0,0.098
	c0.013,0.013,0.086-0.016,0.097,0c0.014,0.02-0.017,0.077,0,0.096c0.014,0.017,0.082-0.015,0.098,0c0.015,0.017-0.014,0.077,0,0.097
	h0.095c0.013,0,0.09-0.007,0.099,0c0.012,0.014-0.017,0.088,0,0.097c0.019,0.012,0.08-0.016,0.096,0
	c0.015,0.013-0.014,0.086,0,0.097c0.022,0.014,0.078-0.016,0.097,0c0.017,0.012-0.015,0.082,0,0.096s0.086-0.016,0.099,0
	c0.01,0.017-0.017,0.086,0,0.097c0.012,0.009,0.079,0,0.096,0c0.011,0,0.091-0.008,0.097,0c0.017,0.019-0.013,0.075,0,0.097
	c0.021,0.012,0.08-0.016,0.097,0C962.701-75.124,962.671-75.063,962.684-75.043"/>
<path fill-rule="evenodd" clip-rule="evenodd" fill="#7A7153" d="M957.553-74.462h-0.193h-0.098h-0.193h-0.194
	c-0.022,0-0.076-0.009-0.097,0c-0.012,0.005,0.009,0.087,0,0.097c-0.016,0.016-0.079-0.013-0.096,0h-0.195h-0.194h-0.095h-0.196
	c-0.026,0-0.067-0.007-0.095,0c-0.01,0.003,0.007,0.089,0,0.095c-0.01,0.01-0.084,0-0.098,0c-0.031,0.003-0.065,0-0.097,0h-0.192
	c-0.015-0.018,0.015-0.079,0-0.095c-0.015-0.013-0.088,0.015-0.099,0c-0.008-0.011,0.011-0.092,0-0.097c-0.019-0.01-0.073,0-0.098,0
	c-0.015,0-0.085,0.009-0.095,0c-0.017-0.013,0.015-0.082,0-0.097c-0.015-0.013-0.086,0.016-0.099,0c-0.014-0.02,0.017-0.078,0-0.096
	c-0.014-0.017-0.082,0.014-0.096,0c-0.015-0.016,0.016-0.084,0-0.097c-0.019-0.016-0.082,0.017-0.097,0
	c-0.015-0.015,0.015-0.088,0-0.098c-0.022-0.014-0.074,0.015-0.097,0c-0.019-0.012-0.082,0.016-0.098,0
	c-0.015-0.014,0.016-0.085,0-0.096c-0.019-0.014-0.08,0.016-0.097,0c-0.015-0.014,0.015-0.086,0-0.097
	c-0.021-0.014-0.078,0.016-0.097,0c-0.016-0.014,0.017-0.081,0-0.097c-0.016-0.016-0.077,0.016-0.098,0
	c-0.015-0.013,0.016-0.082,0-0.097c-0.009-0.009-0.082,0.001-0.095,0c-0.024,0-0.078,0.01-0.099,0c-0.014-0.008,0.013-0.084,0-0.097
	c-0.016-0.017-0.077,0.016-0.096,0c-0.017-0.014,0.015-0.081,0-0.096c-0.015-0.014-0.088,0.016-0.097,0
	c-0.014-0.021,0.015-0.078,0-0.097c-0.014-0.016-0.082,0.015-0.099,0c-0.014-0.016,0.019-0.083,0-0.097
	c-0.012-0.009-0.079,0-0.096,0c-0.011,0-0.091,0.008-0.097,0c-0.014-0.018,0.017-0.081,0-0.097c-0.017-0.015-0.08,0.017-0.096,0
	c-0.019-0.015,0.016-0.082,0-0.096c-0.019-0.016-0.082,0.015-0.099,0c-0.015-0.017,0.017-0.082,0-0.098
	c-0.015-0.016-0.08,0.016-0.095,0c-0.016-0.016,0.011-0.077,0-0.097h-0.098c-0.013,0-0.091,0.008-0.099,0
	c-0.013-0.017,0.019-0.08,0-0.096c-0.015-0.016-0.08,0.016-0.095,0c-0.016-0.016,0.015-0.082,0-0.097
	c-0.018-0.017-0.082,0.015-0.098,0c-0.017-0.017,0.016-0.08,0-0.098c-0.017-0.015-0.08,0.018-0.099,0
	c-0.015-0.015,0.015-0.076,0-0.096h-0.095c-0.012,0-0.092,0.008-0.096,0c-0.015-0.014,0.014-0.087,0-0.096
	c-0.022-0.013-0.082,0.015-0.099,0c-0.013-0.014,0.017-0.087,0-0.098c-0.021-0.015-0.076,0.016-0.097,0
	c-0.016-0.012,0.013-0.082,0-0.097c-0.014-0.013-0.086,0.016-0.096,0c-0.009-0.01,0.01-0.091,0-0.096c-0.022-0.01-0.074,0-0.099,0
	h-0.097c0.013-0.019-0.016-0.081,0-0.097c0.015-0.016,0.082,0.016,0.097,0c0.017-0.016-0.015-0.081,0-0.097
	c0.013-0.012,0.078,0.005,0.099,0c0.024-0.007,0.067,0,0.096,0h0.097h0.194h0.193h0.098c0.011,0,0.089,0.007,0.095,0
	c0.017-0.019-0.011-0.075,0-0.096h0.196h0.095h0.194h0.097h0.096c0.029,0,0.07,0.007,0.099,0c0.017-0.005,0.084,0.011,0.097,0
	c0.017-0.017-0.013-0.077,0-0.098h0.194c0.011,0.021-0.019,0.081,0,0.098c0.015,0.015,0.08-0.016,0.095,0
	c0.016,0.015-0.015,0.081,0,0.096c0.016,0.016,0.082-0.016,0.098,0c0.017,0.016-0.016,0.081,0,0.097
	c0.017,0.016,0.078-0.015,0.097,0c0.017,0.014-0.017,0.082,0,0.097c0.017,0.016,0.078-0.013,0.097,0c0.021,0.013,0.08-0.016,0.098,0
	c0.015,0.014-0.018,0.083,0,0.096c0.019,0.016,0.078-0.015,0.097,0c0.015,0.017-0.017,0.082,0,0.097c0.015,0.017,0.08-0.015,0.097,0
	c0.016,0.016-0.017,0.082,0,0.098c0.019,0.015,0.08-0.017,0.096,0c0.015,0.012-0.016,0.086,0,0.096c0.022,0.014,0.076-0.016,0.099,0
	c0.019,0.015,0.08-0.016,0.095,0c0.016,0.017-0.015,0.081,0,0.096c0.016,0.018,0.083-0.015,0.098,0c0.017,0.017-0.015,0.082,0,0.098
	c0.019,0.015,0.08-0.017,0.099,0c0.013,0.014-0.017,0.087,0,0.097c0.021,0.014,0.076-0.016,0.095,0c0.018,0.012-0.015,0.083,0,0.096
	c0.018,0.017,0.079-0.013,0.098,0c0.021,0.013,0.08-0.015,0.097,0c0.015,0.015-0.017,0.086,0,0.097c0.019,0.015,0.08-0.016,0.098,0
	c0.013,0.015-0.016,0.087,0,0.098c0.019,0.014,0.076-0.016,0.095,0c0.019,0.012-0.013,0.081,0,0.096
	c0.019,0.017,0.082-0.016,0.099,0c0.015,0.017-0.017,0.081,0,0.097c0.015,0.016,0.078-0.012,0.098,0c0.017,0.012,0.08-0.016,0.095,0
	c0.015,0.014-0.013,0.086,0,0.097c0.022,0.014,0.078-0.016,0.099,0c0.016,0.012-0.017,0.082,0,0.097c0.016,0.016,0.08-0.016,0.096,0
	c0.017,0.016-0.016,0.08,0,0.096c0.017,0.017,0.078-0.012,0.097,0c0.017,0.011-0.013,0.084,0,0.097c0.01,0.009,0.082,0,0.099,0
	c0.016,0.002,0.084-0.009,0.096,0c0.015,0.013-0.014,0.083,0,0.097c0.015,0.016,0.08-0.016,0.097,0c0.017,0.016-0.017,0.08,0,0.097
	c0.017,0.016,0.082-0.017,0.097,0c0.016,0.018-0.017,0.08,0,0.097c0.014,0.013,0.088-0.015,0.098,0c0.011,0.017-0.016,0.084,0,0.096
	c0.009,0.01,0.082,0,0.095,0c0.024,0,0.076-0.008,0.099,0c0.012,0.006-0.011,0.086,0,0.098c0.016,0.016,0.079-0.016,0.098,0
	c0.015,0.015-0.017,0.08,0,0.097c0.013,0.012,0.086-0.017,0.095,0c0.017,0.021-0.011,0.071,0,0.096c0.021,0.013,0.08-0.015,0.099,0
	C957.568-74.543,957.538-74.482,957.553-74.462"/>
<path fill-rule="evenodd" clip-rule="evenodd" fill="#7A7153" d="M949.902-75.915h0.192c0.014,0.021-0.015,0.081,0,0.098
	c0.019,0.015,0.08-0.017,0.096,0c0.019,0.015-0.016,0.08,0,0.096c0.019,0.017,0.082-0.016,0.099,0c0.015,0.017-0.017,0.081,0,0.097
	c0.015,0.017,0.082-0.016,0.097,0c0.017,0.017-0.015,0.081,0,0.097c0.017,0.016,0.079-0.016,0.098,0c0.019,0.015,0.08-0.016,0.097,0
	c0.015,0.016-0.017,0.081,0,0.097c0.015,0.016,0.082-0.016,0.097,0c0.016,0.016-0.015,0.08,0,0.096c0.016,0.017,0.08-0.016,0.096,0
	c0.019,0.017-0.016,0.081,0,0.097c0.019,0.016,0.082-0.016,0.099,0c0.015,0.016-0.015,0.078,0,0.097h0.097
	c0.022,0,0.075-0.008,0.096,0c0.013,0.005-0.01,0.087,0,0.097c0.017,0.017,0.08-0.016,0.099,0c0.015,0.016-0.017,0.081,0,0.097
	c0.011,0.013,0.086-0.015,0.095,0c0.012,0.016-0.013,0.085,0,0.096c0.021,0.015,0.081-0.015,0.098,0c0.011,0.01-0.014,0.092,0,0.098
	c0.022,0.009,0.074,0,0.097,0c0.017,0,0.084-0.01,0.097,0c0.016,0.012-0.015,0.082,0,0.097c0.014,0.012,0.086-0.017,0.096,0
	c0.013,0.016-0.013,0.084,0,0.096c0.021,0.015,0.082-0.016,0.099,0c0.015,0.016-0.017,0.081,0,0.097c0.015,0.017,0.08-0.016,0.098,0
	c0.011,0.014-0.018,0.086,0,0.097c0.011,0.009,0.08,0,0.095,0c0.013,0,0.093-0.008,0.099,0c0.014,0.016-0.017,0.084,0,0.096
	c0.017,0.016,0.08-0.016,0.096,0c0.013,0.014-0.016,0.087,0,0.097c0.019,0.013,0.082-0.015,0.097,0c0.017,0.017-0.015,0.081,0,0.098
	c0.015,0.013,0.086-0.016,0.097,0c0.016,0.022-0.013,0.072,0,0.097c0.008,0.005,0.096-0.008,0.098,0c0.002,0.008,0.005,0.09,0,0.096
	c-0.01,0.01-0.082-0.001-0.098,0c-0.031,0.002-0.063-0.002-0.097,0c-0.03,0.002-0.063,0-0.097,0h-0.096h-0.193h-0.098h-0.194
	c-0.013,0.019,0.016,0.081,0,0.097c-0.009,0.01-0.082,0-0.097,0c-0.031,0.001-0.065-0.002-0.097,0c-0.03,0.001-0.063,0-0.098,0
	h-0.095h-0.39c0.015,0.019-0.016,0.081,0,0.097c0.011,0.009,0.082,0,0.099,0c0.031,0.001,0.063-0.002,0.097,0
	c0.032,0.001,0.063,0,0.096,0h0.099h0.386h0.194h0.192h0.099h0.192h0.097c0.018,0,0.084-0.01,0.098,0
	c0.015,0.01-0.012,0.082,0,0.096c-0.021,0.013-0.082-0.016-0.098,0c-0.013,0.014,0.016,0.087,0,0.097
	c-0.021,0.015-0.076-0.016-0.097,0c-0.015,0.014,0.017,0.082,0,0.098c-0.015,0.015-0.08-0.017-0.097,0
	c-0.016,0.015,0.017,0.081,0,0.096c-0.016,0.017-0.081-0.016-0.096,0c-0.017,0.017,0.015,0.08,0,0.097
	c-0.017,0.016-0.08-0.017-0.099,0c-0.015,0.016,0.019,0.081,0,0.097c-0.015,0.015-0.08-0.017-0.095,0
	c-0.018,0.015,0.015,0.081,0,0.096c-0.018,0.017-0.083-0.015-0.098,0c-0.017,0.017,0.015,0.081,0,0.097
	c-0.017,0.017-0.082-0.016-0.099,0c-0.015,0.017,0.017,0.081,0,0.097c-0.015,0.016-0.076-0.013-0.096,0
	c-0.013,0.019,0.016,0.082,0,0.097c-0.013,0.014-0.085-0.015-0.097,0c-0.015,0.022,0.015,0.077,0,0.097
	c-0.015,0.017-0.08-0.016-0.097,0c-0.015,0.017,0.017,0.08,0,0.097c-0.015,0.016-0.082-0.017-0.098,0
	c-0.013,0.013,0.016,0.087,0,0.096c-0.021,0.015-0.078-0.016-0.095,0c-0.019,0.014,0.013,0.082,0,0.097
	c-0.019,0.017-0.078-0.013-0.099,0c-0.014,0.02,0.017,0.081,0,0.097c-0.014,0.013-0.086-0.015-0.096,0
	c-0.015,0.022,0.01,0.073,0,0.096c-0.021,0.014-0.082-0.015-0.097,0c-0.017,0.017,0.015,0.081,0,0.098
	c-0.017,0.016-0.08-0.017-0.099,0c-0.016,0.016,0.019,0.08,0,0.097c-0.016,0.016-0.08-0.017-0.096,0
	c-0.015,0.016,0.016,0.08,0,0.096c-0.015,0.017-0.082-0.016-0.097,0c-0.017,0.017,0.015,0.081,0,0.097
	c-0.017,0.017-0.08-0.016-0.097,0c-0.018,0.017,0.017,0.081,0,0.098c-0.018,0.015-0.081-0.017-0.098,0
	c-0.015,0.015,0.017,0.08,0,0.096c-0.015,0.016-0.082-0.016-0.097,0c-0.017,0.016,0.015,0.08,0,0.096
	c-0.017,0.017-0.08-0.016-0.099,0c-0.016,0.017,0.019,0.082,0,0.098c-0.016,0.015-0.075-0.014-0.096,0v-0.194v-0.096v-0.388v-0.388
	v-0.193v-0.194v-0.097v-0.193v-0.388v-0.387v-0.193v-0.098v-0.193v-0.097c-0.019-0.013-0.08,0.017-0.095,0
	c-0.014-0.013,0.004-0.079,0-0.097c-0.008-0.025,0-0.07,0-0.096v-0.097v-0.098v-0.193v-0.194c-0.014-0.019,0.015-0.08,0-0.097
	c-0.014-0.013-0.088,0.017-0.098,0c-0.013-0.018,0.006-0.074,0-0.096c-0.007-0.029,0-0.068,0-0.097v-0.097v-0.097V-75.915z"/>
<path fill-rule="evenodd" clip-rule="evenodd" fill="#7A7153" d="M957.359-73.688h0.096c0.013,0,0.09-0.008,0.097,0
	c0.002,0.003,0.002,0.094,0,0.097c-0.017,0.016-0.078-0.013-0.097,0c-0.012,0.019,0.015,0.081,0,0.096
	c-0.017,0.017-0.08-0.015-0.096,0c-0.017,0.017,0.016,0.081,0,0.098c-0.017,0.016-0.085-0.018-0.099,0
	c-0.015,0.017,0.017,0.079,0,0.097c-0.013,0.013-0.086-0.016-0.097,0c-0.012,0.019,0.015,0.08,0,0.096
	c-0.017,0.016-0.08-0.016-0.096,0c-0.019,0.016,0.016,0.08,0,0.097c-0.019,0.016-0.082-0.017-0.099,0
	c-0.015,0.016,0.019,0.082,0,0.097c-0.017,0.015-0.08-0.016-0.095,0c-0.014,0.013,0.015,0.087,0,0.096
	c-0.024,0.015-0.073-0.011-0.098,0c-0.013,0.02,0.016,0.081,0,0.097c-0.017,0.017-0.078-0.013-0.097,0
	c-0.013,0.02,0.017,0.082,0,0.098c-0.013,0.013-0.088-0.016-0.097,0c-0.016,0.021,0.011,0.072,0,0.096
	c-0.021,0.013-0.08-0.016-0.098,0c-0.015,0.013,0.016,0.086,0,0.097c-0.021,0.014-0.078-0.016-0.097,0
	c-0.017,0.014,0.015,0.081,0,0.097c-0.017,0.016-0.08-0.017-0.097,0c-0.016,0.016,0.017,0.081,0,0.096
	c-0.014,0.014-0.086-0.014-0.096,0c-0.017,0.021,0.016,0.079,0,0.097c-0.017,0.017-0.082-0.014-0.099,0
	c-0.015,0.017,0.013,0.078,0,0.097c-0.019,0.014-0.08-0.016-0.097,0c-0.012,0.014,0.017,0.088,0,0.097
	c-0.018,0.013-0.081-0.016-0.096,0c-0.017,0.016,0.015,0.081,0,0.097c-0.015,0.014-0.088-0.014-0.099,0
	c-0.015,0.023,0.013,0.072,0,0.097c-0.019,0.014-0.08-0.017-0.095,0c-0.018,0.016,0.011,0.077,0,0.097
	c-0.02,0.013-0.081-0.016-0.098,0c-0.015,0.013,0.015,0.085,0,0.097c-0.021,0.013-0.08-0.016-0.097,0
	c-0.015,0.016,0.017,0.08,0,0.097c-0.014,0.013-0.088-0.017-0.098,0c-0.011,0.018,0.016,0.08,0,0.096
	c-0.015,0.016-0.08-0.016-0.097,0c-0.015,0.014,0.015,0.086,0,0.097c-0.022,0.014-0.076-0.016-0.097,0
	c-0.017,0.014,0.017,0.082,0,0.097c-0.015,0.017-0.082-0.016-0.098,0c-0.015,0.016,0.016,0.081,0,0.097
	c-0.013,0.013-0.085-0.015-0.095,0c-0.015,0.021,0.015,0.078,0,0.096c-0.015,0.017-0.082-0.014-0.099,0
	c-0.016,0.017,0.017,0.081,0,0.098c-0.016,0.016-0.08-0.017-0.096,0c-0.013,0.013,0.016,0.086,0,0.097
	c-0.021,0.013-0.078-0.016-0.097,0c-0.017,0.013,0.015,0.081,0,0.096c-0.017,0.016-0.078-0.012-0.099,0v0.195h0.39h0.386h0.387
	h0.194h0.195h0.096h0.193h0.194h0.097h0.387h0.195h0.096h0.192c0.015-0.021-0.016-0.082,0-0.098c0.015-0.013,0.089,0.016,0.099,0
	c0.013-0.021-0.019-0.078,0-0.097c0.013-0.016,0.082,0.015,0.095,0c0.019-0.016-0.015-0.08,0-0.096c0.016-0.016,0.082,0.015,0.098,0
	c0.017-0.016-0.016-0.081,0-0.097c0.017-0.017,0.08,0.016,0.099,0c0.015-0.017-0.019-0.081,0-0.098c0.015-0.015,0.08,0.016,0.095,0
	c0.016-0.015-0.015-0.08,0-0.096c0.016-0.017,0.082,0.016,0.098,0c0.017-0.017-0.016-0.08,0-0.097c0.017-0.017,0.08,0.017,0.097,0
	s-0.017-0.081,0-0.097c0.017-0.016,0.082,0.016,0.097,0c0.016-0.016-0.013-0.078,0-0.097c0.021-0.012,0.081,0.016,0.096,0
	c0.015-0.012-0.015-0.086,0-0.096c0.022-0.014,0.078,0.015,0.099,0c0.015-0.014-0.017-0.082,0-0.097c0.015-0.016,0.08,0.016,0.097,0
	c0.016-0.016-0.015-0.082,0-0.097c0.016-0.016,0.081,0.016,0.096,0c0.019-0.016-0.015-0.081,0-0.097
	c0.019-0.017,0.078,0.014,0.099,0c0.012-0.02-0.017-0.08,0-0.097c0.014-0.014,0.086,0.015,0.096,0c0.015-0.021-0.016-0.077,0-0.097
	c0.013-0.016,0.082,0.015,0.097,0c0.017-0.016-0.015-0.081,0-0.097c0.017-0.016,0.08,0.016,0.097,0c0.016-0.013-0.015-0.086,0-0.097
	c0.021-0.013,0.077,0.017,0.098,0c0.017-0.013-0.016-0.081,0-0.097c0.015-0.015,0.078,0.013,0.097,0c0.015-0.018-0.015-0.08,0-0.096
	c0.015-0.013,0.086,0.015,0.097,0c0.016-0.023-0.013-0.072,0-0.097c0.019-0.013,0.08,0.017,0.098,0c0.015-0.016-0.018-0.08,0-0.097
	c0.015-0.016,0.08,0.017,0.095,0c0.019-0.015-0.015-0.082,0-0.096c0.019-0.016,0.082,0.016,0.099,0c0.014-0.014-0.017-0.087,0-0.098
	c0.021-0.015,0.071,0.013,0.096,0c0.013-0.019-0.016-0.08,0-0.097c0.015-0.013,0.088,0.016,0.097,0c0.015-0.02-0.015-0.077,0-0.096
	c0.015-0.016,0.082,0.015,0.099,0c0.016-0.016-0.017-0.08,0-0.097c0.014-0.017,0.079,0.016,0.096,0c0.017-0.017-0.017-0.081,0-0.097
	s0.082,0.016,0.097,0c0.017-0.016-0.015-0.08,0-0.096c0.017-0.017,0.08,0.016,0.099,0c0.016-0.017-0.019-0.081,0-0.097
	c0.016-0.017,0.079,0.016,0.096,0c0.015-0.017-0.017-0.081,0-0.098c0.015-0.015,0.08,0.017,0.097,0c0.017-0.015-0.017-0.08,0-0.096
	c0.017-0.017,0.08,0.016,0.096,0c0.017-0.017-0.012-0.077,0-0.097h0.39h0.192h0.193h0.194h0.097h0.194h0.192h0.097h0.389h0.193
	c-0.015,0.02,0.016,0.08,0,0.097c-0.015,0.013-0.086-0.016-0.099,0c-0.013,0.021,0.019,0.077,0,0.096
	c-0.013,0.018-0.082-0.014-0.095,0c-0.018,0.018,0.015,0.08,0,0.098c-0.016,0.016-0.081-0.017-0.098,0
	c-0.017,0.016,0.017,0.08,0,0.097c-0.017,0.016-0.08-0.017-0.097,0c-0.017,0.016,0.017,0.08,0,0.096s-0.082-0.016-0.097,0
	c-0.016,0.016,0.015,0.08,0,0.097c-0.016,0.016-0.081-0.017-0.098,0c-0.017,0.016,0.017,0.081,0,0.097
	c-0.017,0.016-0.08-0.016-0.097,0c-0.015,0.016,0.017,0.081,0,0.096c-0.015,0.017-0.082-0.015-0.098,0
	c-0.015,0.017,0.014,0.078,0,0.097c-0.019,0.014-0.08-0.016-0.095,0c-0.015,0.015,0.015,0.087,0,0.098
	c-0.021,0.012-0.082-0.016-0.099,0c-0.015,0.015,0.017,0.08,0,0.096c-0.014,0.013-0.086-0.015-0.096,0
	c-0.013,0.02,0.016,0.081,0,0.097c-0.017,0.017-0.082-0.016-0.097,0c-0.015,0.014,0.015,0.087,0,0.097
	c-0.021,0.012-0.08-0.017-0.099,0c-0.016,0.016,0.019,0.081,0,0.096c-0.014,0.014-0.086-0.014-0.096,0
	c-0.013,0.02,0.016,0.082,0,0.097c-0.015,0.017-0.082-0.015-0.097,0c-0.015,0.014,0.015,0.087,0,0.097
	c-0.021,0.014-0.08-0.016-0.097,0c-0.016,0.016,0.017,0.081,0,0.097c-0.014,0.014-0.088-0.015-0.098,0
	c-0.013,0.02,0.016,0.081,0,0.097c-0.015,0.017-0.08-0.016-0.095,0c-0.017,0.014,0.013,0.086,0,0.097
	c-0.021,0.014-0.082-0.017-0.099,0c-0.016,0.016,0.017,0.081,0,0.097c-0.014,0.013-0.086-0.016-0.098,0
	c-0.013,0.022,0.012,0.073,0,0.097c-0.019,0.013-0.08-0.016-0.095,0c-0.014,0.013,0.015,0.086,0,0.097
	c-0.021,0.012-0.082-0.017-0.099,0c-0.016,0.015,0.017,0.08,0,0.096c-0.014,0.014-0.086-0.016-0.096,0
	c-0.013,0.019,0.017,0.082,0,0.097c-0.017,0.016-0.082-0.016-0.097,0c-0.014,0.014,0.015,0.087,0,0.097
	c-0.022,0.014-0.078-0.017-0.096,0c-0.019,0.014,0.014,0.082,0,0.097c-0.019,0.016-0.082-0.017-0.099,0
	c-0.015,0.016,0.017,0.081,0,0.096c-0.013,0.014-0.086-0.014-0.097,0c-0.012,0.02,0.017,0.081,0,0.098
	c-0.017,0.016-0.08-0.017-0.096,0c-0.015,0.013,0.014,0.086,0,0.097c-0.021,0.012-0.082-0.016-0.099,0
	c-0.015,0.016,0.017,0.08,0,0.096c-0.013,0.013-0.086-0.016-0.097,0c-0.014,0.021,0.017,0.077,0,0.097
	c-0.012,0.017-0.08-0.016-0.096,0c-0.017,0.016,0.012,0.077,0,0.098h0.387h0.388h0.387h0.193h0.194h0.097h0.194h0.386h0.389h0.289
	h0.194c0.013-0.021-0.016-0.082,0-0.098c0.013-0.013,0.087,0.016,0.097,0c0.015-0.021-0.015-0.078,0-0.097
	c0.015-0.016,0.082,0.015,0.099,0c0.016-0.016-0.017-0.081,0-0.096c0.016-0.016,0.08,0.015,0.096,0c0.013-0.014-0.016-0.087,0-0.097
	c0.021-0.015,0.078,0.016,0.097,0c0.017-0.015-0.015-0.082,0-0.098c0.017-0.015,0.08,0.017,0.097,0c0.018-0.015-0.017-0.08,0-0.096
	c0.014-0.014,0.086,0.015,0.098,0c0.013-0.021-0.016-0.078,0-0.097c0.013-0.017,0.082,0.016,0.095,0
	c0.019-0.017-0.015-0.081,0-0.097c0.019-0.016,0.082,0.016,0.099,0c0.014-0.013-0.017-0.087,0-0.097
	c0.021-0.013,0.077,0.016,0.098,0c0.015-0.013-0.016-0.081,0-0.096c0.015-0.017,0.076,0.012,0.095,0c0.015-0.02-0.015-0.081,0-0.097
	c0.015-0.014,0.086,0.016,0.099,0c0.014-0.023-0.013-0.073,0-0.097c0.02-0.012,0.079,0.016,0.096,0c0.013-0.014-0.015-0.086,0-0.097
	c0.022-0.016,0.074,0.012,0.097,0c0.014-0.02-0.015-0.08,0-0.097c0.014-0.014,0.086,0.015,0.099,0c0.014-0.021-0.019-0.077,0-0.097
	c0.012-0.016,0.079,0.015,0.096,0c0.017-0.016-0.017-0.08,0-0.097c0.015-0.016,0.082,0.015,0.097,0c0.017-0.016-0.017-0.08,0-0.097
	c0.017-0.015,0.08,0.017,0.096,0c0.019-0.015-0.012-0.077,0-0.097c0.021-0.012,0.08,0.017,0.099,0c0.013-0.013-0.017-0.085,0-0.096
	c0.021-0.015,0.072,0.012,0.095,0c0.014-0.02-0.015-0.08,0-0.097c0.014-0.013,0.088,0.016,0.098,0c0.017-0.022-0.012-0.072,0-0.097
	c0.021-0.013,0.082,0.017,0.099,0c0.013-0.013-0.017-0.086,0-0.096c0.017-0.014,0.08,0.015,0.095,0c0.016-0.016-0.015-0.081,0-0.098
	c0.014-0.013,0.086,0.016,0.098,0c0.013-0.018-0.016-0.081,0-0.097c0.017-0.015,0.08,0.017,0.097,0c0.013-0.013-0.017-0.086,0-0.096
	c0.021-0.014,0.078,0.016,0.097,0c0.018-0.014-0.015-0.082,0-0.097c0.016-0.017,0.081,0.016,0.096,0
	c0.019-0.016-0.015-0.081,0-0.097c0.015-0.013,0.088,0.016,0.099,0c0.013-0.021-0.017-0.077,0-0.096
	c0.013-0.017,0.082,0.014,0.096,0c0.017-0.017-0.016-0.081,0-0.097c0.017-0.017,0.082,0.016,0.097,0
	c0.015-0.014-0.015-0.087,0-0.098c0.022-0.012,0.078,0.017,0.099,0c0.015-0.012-0.017-0.081,0-0.096
	c0.015-0.017,0.078,0.012,0.096,0c0.013-0.02-0.016-0.08,0-0.097c0.013-0.013,0.08,0.006,0.097,0c0.026-0.008,0.069,0,0.097,0h0.098
	h0.097h0.194h0.386h0.194h0.195h0.096h0.386h0.196c-0.015,0.02,0.015,0.08,0,0.097c-0.017,0.013-0.088-0.016-0.099,0
	c-0.012,0.019,0.017,0.081,0,0.096c-0.016,0.017-0.079-0.015-0.098,0c-0.013,0.014,0.017,0.087,0,0.098
	c-0.017,0.012-0.08-0.017-0.095,0c-0.019,0.016,0.015,0.08,0,0.097c-0.014,0.013-0.086-0.016-0.099,0
	c-0.012,0.019,0.017,0.08,0,0.096c-0.016,0.016-0.079-0.016-0.098,0c-0.011,0.014,0.019,0.087,0,0.097
	c-0.017,0.013-0.078-0.017-0.095,0c-0.017,0.016,0.017,0.081,0,0.097c-0.014,0.013-0.086-0.015-0.096,0
	c-0.015,0.019,0.016,0.081,0,0.096c-0.019,0.017-0.082-0.015-0.099,0c-0.013,0.014,0.017,0.087,0,0.097
	c-0.019,0.014-0.08-0.016-0.097,0c-0.017,0.017,0.017,0.082,0,0.098c-0.014,0.013-0.086-0.016-0.096,0
	c-0.015,0.019,0.016,0.08,0,0.096c-0.017,0.017-0.082-0.016-0.099,0c-0.013,0.013,0.017,0.086,0,0.097
	c-0.022,0.015-0.072-0.012-0.097,0c-0.012,0.02,0.015,0.08,0,0.097c-0.016,0.016-0.08-0.017-0.096,0
	c-0.017,0.016,0.016,0.081,0,0.096c-0.017,0.017-0.08-0.015-0.099,0c-0.015,0.017,0.019,0.082,0,0.097
	c-0.015,0.017-0.08-0.015-0.095,0c-0.018,0.017,0.015,0.081,0,0.097c-0.018,0.016-0.079-0.013-0.098,0
	c-0.013,0.019,0.017,0.081,0,0.097s-0.08-0.016-0.097,0s0.017,0.081,0,0.097c-0.017,0.017-0.078-0.014-0.097,0
	c-0.012,0.019,0.015,0.08,0,0.097c-0.016,0.016-0.081-0.017-0.098,0c-0.017,0.016,0.017,0.081,0,0.097s-0.076-0.012-0.097,0
	c-0.013,0.019,0.017,0.081,0,0.097c-0.013,0.013-0.086-0.016-0.097,0c-0.012,0.019,0.017,0.08,0,0.097
	c-0.016,0.015-0.081-0.017-0.096,0c-0.015,0.013,0.015,0.086,0,0.096c-0.021,0.013-0.082-0.016-0.099,0
	c-0.015,0.016,0.017,0.081,0,0.097c-0.013,0.014-0.086-0.015-0.097,0c-0.012,0.02,0.017,0.08,0,0.097
	c-0.016,0.017-0.081-0.017-0.096,0c-0.015,0.014,0.015,0.087,0,0.097c-0.021,0.013-0.08-0.017-0.099,0
	c-0.015,0.016,0.019,0.081,0,0.096c-0.012,0.014-0.086-0.014-0.096,0c-0.013,0.02,0.016,0.081,0,0.098
	c-0.015,0.016-0.08-0.017-0.097,0c-0.015,0.013,0.015,0.086,0,0.097c-0.019,0.012-0.08-0.016-0.097,0
	c-0.016,0.016,0.017,0.08,0,0.096c-0.014,0.013-0.088-0.016-0.098,0c-0.013,0.021,0.016,0.077,0,0.097
	c-0.013,0.017-0.082-0.016-0.095,0c-0.017,0.016,0.011,0.077,0,0.098h0.386h0.387h0.388h0.291h0.774h0.387h0.193h0.098h0.193
	c0.014-0.021-0.015-0.082,0-0.098c0.014-0.013,0.088,0.016,0.098,0c0.015-0.021-0.018-0.078,0-0.097c0.015-0.016,0.08,0.015,0.097,0
	c0.015-0.016-0.017-0.081,0-0.096c0.015-0.016,0.08,0.015,0.097,0c0.012-0.014-0.015-0.087,0-0.097c0.022-0.015,0.077,0.016,0.096,0
	c0.019-0.015-0.014-0.082,0-0.098c0.019-0.015,0.082,0.017,0.099,0c0.015-0.015-0.017-0.08,0-0.096c0.013-0.014,0.086,0.015,0.097,0
	c0.014-0.021-0.015-0.078,0-0.097c0.014-0.017,0.081,0.016,0.096,0c0.017-0.017-0.015-0.081,0-0.097
	c0.017-0.016,0.082,0.016,0.099,0c0.013-0.013-0.017-0.087,0-0.097c0.021-0.013,0.076,0.016,0.095,0
	c0.018-0.013-0.015-0.081,0-0.096c0.016-0.017,0.079,0.012,0.098,0c0.013-0.02-0.015-0.081,0-0.097c0.017-0.016,0.076,0.013,0.097,0
	c0.014-0.02-0.017-0.081,0-0.097c0.014-0.014,0.088,0.015,0.098,0c0.015-0.023-0.012-0.073,0-0.097c0.019-0.013,0.08,0.016,0.097,0
	c0.013-0.014-0.015-0.086,0-0.097c0.021-0.014,0.078,0.017,0.097,0c0.015-0.014-0.017-0.082,0-0.097c0.015-0.016,0.08,0.016,0.098,0
	c0.015-0.015-0.016-0.082,0-0.097c0.015-0.016,0.08,0.016,0.095,0c0.017-0.016-0.015-0.08,0-0.097c0.017-0.015,0.082,0.017,0.099,0
	c0.016-0.015-0.017-0.08,0-0.097c0.016-0.015,0.08,0.017,0.096,0c0.017-0.015-0.016-0.08,0-0.096c0.017-0.017,0.082,0.016,0.097,0
	c0.017-0.017-0.015-0.08,0-0.097c0.017-0.016,0.08,0.017,0.099,0c0.016-0.016-0.019-0.08,0-0.097c0.016-0.016,0.075,0.013,0.098,0
	v0.097v0.387v0.194v0.097v0.387v0.194v0.097v0.194v0.193v0.097v0.193v0.194v0.097v0.194v0.194v0.097v0.193v0.193v0.097v0.193v0.195
	v0.097v0.193v0.193v0.098v0.193v0.195v0.096v0.194v0.193v0.097v0.194v0.194v0.096v0.193v0.195v0.096v0.195v0.193v0.097v0.193v0.193
	v0.097v0.194v0.194v0.098v0.192v0.194v0.097v0.194v0.194v0.096v0.194v0.193v0.097v0.388v0.194v0.095c0,0.03,0.005,0.071,0,0.098
	c-0.006,0.017,0.009,0.085,0,0.097c-0.018,0.015-0.079-0.014-0.098,0v0.194c0,0.014,0.008,0.087,0,0.097
	c-0.017,0.015-0.08-0.014-0.099,0c-0.011,0.018,0.017,0.08,0,0.096c-0.013,0.014-0.086-0.015-0.097,0
	c-0.014,0.022,0.017,0.078,0,0.097c-0.014,0.017-0.08-0.016-0.096,0c-0.017,0.017,0.016,0.08,0,0.097
	c-0.017,0.016-0.082-0.016-0.099,0c-0.015,0.016,0.017,0.08,0,0.096c-0.015,0.017-0.08-0.016-0.095,0
	c-0.012,0.011,0.011,0.091,0,0.097c-0.022,0.01-0.075,0-0.098,0h-0.097h-0.097c-0.012,0.02,0.017,0.081,0,0.097
	c-0.012,0.012-0.081-0.004-0.098,0c-0.027,0.008-0.069,0-0.097,0h-0.098h-0.193h-0.096h-0.195h-0.192h-0.097h-0.192h-0.099h-0.192
	h-0.099h-0.387h-0.097h-0.387h-0.099h-0.386h-0.098h-0.388h-0.097h-0.387h-0.097h-0.389h-0.095h-0.387h-0.099h-0.386h-0.098h-0.388
	h-0.097h-0.387h-0.099h-0.386h-0.098h-0.388h-0.096h-0.388h-0.097h-0.389h-0.095h-0.387h-0.099h-0.388h-0.096h-0.388h-0.097h-0.387
	h-0.099h-0.387h-0.097h-0.388h-0.098h-0.386h-0.096h-0.39h-0.095h-0.389h-0.097h-0.388h-0.096h-0.388h-0.098h-0.386h-0.099h-0.387
	h-0.097h-0.388h-0.098h-0.386h-0.096h-0.39H953h-0.387h-0.097h-0.194h-0.193h-0.096h-0.194h-0.097h-0.194h-0.193h-0.098h-0.095
	c-0.03,0-0.071,0.008-0.099,0c-0.018-0.004-0.086,0.012-0.096,0c-0.017-0.016,0.012-0.077,0-0.097h-0.195
	c-0.014,0-0.086,0.009-0.096,0c-0.015-0.015,0.012-0.078,0-0.097c-0.019-0.012-0.082,0.017-0.097,0
	c-0.015-0.012,0.015-0.086,0-0.096c-0.021-0.014-0.078,0.016-0.096,0c-0.019-0.014,0.014-0.081,0-0.097
	c-0.017-0.016-0.087,0.017-0.099,0c-0.013-0.018,0.017-0.08,0-0.097c-0.009-0.01-0.091,0.012-0.097,0c-0.008-0.021,0-0.074,0-0.096
	c0-0.023,0.009-0.079,0-0.097c-0.006-0.014-0.086,0.011-0.099,0c-0.008-0.01,0.003-0.083,0-0.098c0-0.025,0.013-0.072,0-0.096
	c-0.006-0.019,0.017-0.083,0-0.097c-0.006-0.007-0.094,0.008-0.096,0c-0.006-0.028,0-0.068,0-0.098v-0.095v-0.194v-0.194v-0.194
	v-0.097v-0.193v-0.097v-0.775v-0.387v-0.194v-0.097v-0.387v-0.193v-0.097v-0.388v-0.194v-0.097v-0.774v-0.387v-0.193v-0.098v-0.387
	v-0.194v-0.096v-0.388v-0.194v-0.096v-0.195v-0.095v-0.195v-0.387v-0.194v-0.095h0.194h0.388h0.194h0.097h0.194h0.386h0.194h0.192
	h0.099h0.192h0.097h0.194c0.013-0.021-0.017-0.082,0-0.098c0.015-0.013,0.086,0.016,0.097,0c0.014-0.02-0.017-0.081,0-0.097
	c0.017-0.016,0.082,0.016,0.098,0c0.013-0.013-0.016-0.087,0-0.096c0.019-0.014,0.08,0.015,0.097,0c0.017-0.016-0.017-0.081,0-0.097
	c0.013-0.015,0.086,0.015,0.097,0c0.012-0.02-0.019-0.081,0-0.098c0.016-0.015,0.08,0.017,0.096,0c0.013-0.013-0.016-0.086,0-0.096
	c0.019-0.013,0.082,0.016,0.097,0c0.017-0.017-0.015-0.08,0-0.097c0.015-0.014,0.088,0.016,0.099,0c0.012-0.02-0.019-0.081,0-0.097
	c0.016-0.016,0.079,0.016,0.096,0c0.013-0.013-0.017-0.087,0-0.097c0.019-0.012,0.082,0.016,0.097,0
	c0.017-0.016-0.015-0.081,0-0.096c0.015-0.014,0.086,0.015,0.099,0c0.014-0.022-0.017-0.078,0-0.097
	c0.014-0.016,0.079,0.015,0.096,0c0.015-0.016-0.014-0.078,0-0.097c0.019-0.012,0.08,0.016,0.097,0s-0.017-0.081,0-0.097
	c0.017-0.017,0.08,0.016,0.096,0c0.017-0.017-0.012-0.078,0-0.097c0.021-0.014,0.08,0.017,0.099,0c0.013-0.014-0.017-0.087,0-0.097
	c0.019-0.013,0.08,0.016,0.095,0c0.019-0.016-0.015-0.081,0-0.097c0.014-0.013,0.088,0.015,0.098,0c0.013-0.019-0.016-0.08,0-0.097
	c0.017-0.015,0.08,0.017,0.099,0c0.011-0.013-0.017-0.086,0-0.097c0.019-0.012,0.08,0.017,0.095,0c0.016-0.015-0.015-0.08,0-0.096
	c0.014-0.013,0.086,0.015,0.098,0c0.015-0.023-0.012-0.072,0-0.097c0.019-0.013,0.08,0.017,0.097,0c0.015-0.016-0.017-0.08,0-0.097
	c0.015-0.016,0.082,0.017,0.097,0c0.016-0.015-0.015-0.082,0-0.096c0.019-0.016,0.08,0.016,0.096,0c0.015-0.014-0.016-0.087,0-0.098
	c0.024-0.015,0.072,0.013,0.099,0c0.013-0.019-0.017-0.08,0-0.097c0.013-0.013,0.086,0.016,0.097,0c0.012-0.018-0.017-0.08,0-0.096
	c0.016-0.016,0.08,0.016,0.096,0c0.015-0.014-0.016-0.086,0-0.097c0.021-0.013,0.08,0.016,0.099,0c0.015-0.017-0.019-0.081,0-0.097
	c0.013-0.013,0.086,0.016,0.095,0c0.014-0.019-0.015-0.08,0-0.096c0.016-0.017,0.083,0.016,0.098,0c0.015-0.014-0.015-0.087,0-0.097
	c0.021-0.014,0.08,0.016,0.097,0c0.015-0.018-0.017-0.081,0-0.098c0.015-0.012,0.088,0.016,0.097,0c0.014-0.022-0.011-0.071,0-0.096
	h0.098c0.013-0.02-0.015-0.08,0-0.097c0.013-0.013,0.078,0.006,0.097,0c0.024-0.008,0.069,0,0.098,0h0.095h0.099h0.192h0.388h0.194
	h0.194h0.095H957.359z"/>
<line fill="none" stroke="#676868" stroke-width="2" stroke-miterlimit="10" x1="942.852" y1="-4" x2="976.852" y2="-4"/>
<line fill="none" stroke="#676868" stroke-width="2" stroke-miterlimit="10" x1="942.852" y1="107" x2="976.852" y2="107"/>
<g>
	<path fill="#FFFFFF" d="M90.36-16.54l3.4-3.819l-0.709,3.819H90.36z M94.134-16.54l1.248-6.754h-0.29l-6.922,7.795h4.689
		l-0.417,2.249h1.082l0.412-2.249H95l0.937-1.041H94.134z"/>
	<polygon fill="#FFFFFF" points="85.526,-12.711 84.443,-12.711 85.43,-17.299 82.505,-23.495 83.677,-23.495 86.114,-18.3 
		90.737,-23.495 92.115,-23.495 86.48,-17.167 	"/>
	<path fill="#FFFFFF" d="M73.763-9.159h-1.197l0.738-3.555h-7.262l9.598-10.79h0.459l0.344-0.392l-0.082,0.392h3.413
		c0.262,0.009,0.532,0.032,0.811,0.065c0.347,0.043,0.675,0.154,0.979,0.329c0.317,0.181,0.587,0.45,0.805,0.798
		c0.217,0.355,0.328,0.837,0.328,1.429c0,0.468-0.087,0.89-0.262,1.249c-0.172,0.351-0.398,0.657-0.674,0.899
		c-0.197,0.173-0.411,0.319-0.642,0.437c0.179,0.112,0.333,0.254,0.464,0.419c0.36,0.452,0.541,1.036,0.541,1.737
		c0,0.54-0.1,1.032-0.296,1.458c-0.196,0.433-0.476,0.799-0.828,1.091c-0.343,0.289-0.768,0.512-1.253,0.663
		c-0.474,0.146-1.004,0.218-1.572,0.218h-3.673L73.763-9.159z M74.711-13.758h3.632c0.285,0,0.598-0.04,0.934-0.121
		c0.318-0.079,0.613-0.213,0.881-0.398c0.264-0.184,0.484-0.426,0.662-0.729c0.168-0.289,0.254-0.67,0.254-1.134
		c0-0.392-0.062-0.694-0.188-0.899c-0.129-0.206-0.293-0.361-0.503-0.472c-0.229-0.117-0.49-0.191-0.777-0.223
		c-0.322-0.037-0.657-0.053-0.995-0.053h-3.069L74.711-13.758z M75.099-21.219l-6.616,7.461l5.046-0.002L75.099-21.219z
		 M75.739-18.846l3.056,0.008c0.444,0,0.856-0.05,1.224-0.148c0.351-0.095,0.653-0.233,0.899-0.409
		c0.238-0.173,0.414-0.378,0.542-0.629c0.126-0.249,0.19-0.537,0.19-0.857c0-0.346-0.054-0.621-0.155-0.819
		c-0.102-0.196-0.227-0.343-0.379-0.45c-0.167-0.111-0.348-0.185-0.556-0.228c-0.23-0.044-0.466-0.069-0.703-0.069l-3.367-0.011
		L75.739-18.846z"/>
	<path fill-rule="evenodd" clip-rule="evenodd" fill="#CCCBCB" d="M87.347-45.125c-5.042,0.193-10.442,0.028-15.622,0.083v-3.967
		c0-1.849-0.468-4.175,1.074-4.464c1.091-0.204,2.474,0,3.637,0h7.274c1.045,0,2.827-0.155,3.306,0.331
		c0.591,0.601,0.331,2.655,0.331,3.884V-45.125z M73.46-47.522h5.869v-3.637H73.46V-47.522z"/>
	<path fill-rule="evenodd" clip-rule="evenodd" fill="#CCCBCB" d="M93.297-53.142c0.193,2.534,0.028,5.427,0.083,8.1
		c-1.679-0.828-3.316-1.697-4.959-2.562v-2.974C90.054-51.426,91.723-52.238,93.297-53.142"/>
	<path fill-rule="evenodd" clip-rule="evenodd" fill="#CCCBCB" d="M71.807-44.05h15.54c0.396,2.13-1.788,1.817-3.885,1.817h-7.604
		c-2.036,0-4.427,0.483-4.133-1.569C71.718-43.919,71.711-44.037,71.807-44.05"/>
	<g>
		<path fill="#FFFFFF" d="M81.964-30.523c-9.743,0-17.67-7.927-17.67-17.67s7.927-17.67,17.67-17.67s17.67,7.927,17.67,17.67
			S91.707-30.523,81.964-30.523z M81.964-64.863c-9.192,0-16.67,7.478-16.67,16.67s7.478,16.67,16.67,16.67s16.67-7.478,16.67-16.67
			S91.156-64.863,81.964-64.863z"/>
	</g>
</g>
</svg>
